<?xml version="1.0" encoding="utf-8" standalone="no"?>
<!DOCTYPE svg PUBLIC "-//W3C//DTD SVG 1.1//EN"
  "http://www.w3.org/Graphics/SVG/1.1/DTD/svg11.dtd">
<svg xmlns:xlink="http://www.w3.org/1999/xlink" width="90pt" height="45pt" viewBox="0 0 90 45" xmlns="http://www.w3.org/2000/svg" version="1.1">
 <metadata>
  <rdf:RDF xmlns:dc="http://purl.org/dc/elements/1.1/" xmlns:cc="http://creativecommons.org/ns#" xmlns:rdf="http://www.w3.org/1999/02/22-rdf-syntax-ns#">
   <cc:Work>
    <dc:type rdf:resource="http://purl.org/dc/dcmitype/StillImage"/>
    <dc:date>2024-12-02T16:54:51.006464</dc:date>
    <dc:format>image/svg+xml</dc:format>
    <dc:creator>
     <cc:Agent>
      <dc:title>Matplotlib v3.9.2, https://matplotlib.org/</dc:title>
     </cc:Agent>
    </dc:creator>
   </cc:Work>
  </rdf:RDF>
 </metadata>
 <defs>
  <style type="text/css">*{stroke-linejoin: round; stroke-linecap: butt}</style>
 </defs>
 <g id="figure_1">
  <g id="patch_1">
   <path d="M 0 45 
L 90 45 
L 90 0 
L 0 0 
z
" style="fill: #ffffff"/>
  </g>
  <g id="axes_1">
   <g id="patch_2">
    <path d="M 1.8 44.1 
L 88.2 44.1 
L 88.2 0.9 
L 1.8 0.9 
z
" style="fill: #ffffff"/>
   </g>
   <g id="matplotlib.axis_1"/>
   <g id="matplotlib.axis_2"/>
   <g id="line2d_1">
    <path d="M 5.727273 35.58081 
L 8.091517 33.98823 
L 10.455762 32.660072 
L 13.0827 31.432516 
L 15.972332 30.321367 
L 19.387352 29.258445 
L 23.327759 28.2861 
L 27.793554 27.425161 
L 33.047431 26.645627 
L 39.352083 25.939769 
L 47.232898 25.290606 
L 57.215263 24.703544 
L 70.087261 24.180349 
L 84.272727 23.784436 
L 84.272727 23.784436 
" clip-path="url(#pb94f8c55b8)" style="fill: none; stroke: #1f77b4; stroke-width: 0.8; stroke-linecap: square"/>
   </g>
   <g id="line2d_2">
    <path d="M 5.727273 7.107421 
L 7.303436 10.459536 
L 8.879599 13.2971 
L 10.455762 15.698587 
L 12.031925 17.730182 
L 13.870781 19.706908 
L 15.709638 21.329868 
L 17.548495 22.659938 
L 19.650046 23.885276 
L 21.751596 24.854225 
L 24.115841 25.698449 
L 26.742779 26.395403 
L 29.632411 26.936314 
L 33.047431 27.348374 
L 37.250532 27.616004 
L 42.504409 27.706692 
L 49.334448 27.58845 
L 60.104895 27.154988 
L 84.272727 25.9988 
L 84.272727 25.9988 
" clip-path="url(#pb94f8c55b8)" style="fill: none; stroke: #ff7f0e; stroke-width: 0.8; stroke-linecap: square"/>
   </g>
   <g id="line2d_3">
    <path d="M 5.727273 6.191507 
L 7.040742 11.76016 
L 8.354211 16.248426 
L 9.66768 19.829383 
L 10.981149 22.650026 
L 12.031925 24.443622 
L 13.0827 25.885853 
L 14.133475 27.024927 
L 15.446944 28.086252 
L 16.760413 28.810505 
L 18.073883 29.257751 
L 19.387352 29.478712 
L 20.963515 29.504903 
L 22.802372 29.282065 
L 24.903922 28.786699 
L 27.53086 27.933476 
L 31.733962 26.304207 
L 39.87747 23.121475 
L 44.605959 21.54092 
L 49.071754 20.28864 
L 53.537549 19.267035 
L 58.266038 18.415228 
L 63.257221 17.73954 
L 68.773791 17.215766 
L 75.078443 16.846564 
L 82.43387 16.65031 
L 84.272727 16.632196 
L 84.272727 16.632196 
" clip-path="url(#pb94f8c55b8)" style="fill: none; stroke: #2ca02c; stroke-width: 0.8; stroke-linecap: square"/>
   </g>
   <g id="line2d_4">
    <path d="M 5.727273 5.261615 
L 6.778048 12.548948 
L 7.828823 18.167184 
L 8.879599 22.400215 
L 9.66768 24.813088 
L 10.455762 26.672486 
L 11.243843 28.056931 
L 12.031925 29.035833 
L 12.820006 29.670459 
L 13.608088 30.014793 
L 14.396169 30.116316 
L 15.184251 30.016704 
L 16.235026 29.63342 
L 17.548495 28.853474 
L 19.124658 27.627834 
L 22.01429 25.022107 
L 25.42931 22.017432 
L 27.793554 20.249528 
L 29.895105 18.968265 
L 31.733962 18.086232 
L 33.572818 17.425692 
L 35.411675 16.976637 
L 37.513226 16.702788 
L 39.614777 16.657965 
L 41.979021 16.844483 
L 44.605959 17.296391 
L 47.495591 18.027388 
L 51.173305 19.211412 
L 56.164488 21.083935 
L 70.087261 26.441715 
L 75.603831 28.256829 
L 80.595014 29.672904 
L 84.272727 30.57337 
L 84.272727 30.57337 
" clip-path="url(#pb94f8c55b8)" style="fill: none; stroke: #d62728; stroke-width: 0.8; stroke-linecap: square"/>
   </g>
   <g id="line2d_5">
    <path d="M 5.727273 4.469995 
L 6.515354 12.609147 
L 7.303436 18.794265 
L 8.091517 23.356576 
L 8.879599 26.581715 
L 9.66768 28.71526 
L 10.193068 29.636406 
L 10.718455 30.221133 
L 11.243843 30.518467 
L 11.769231 30.572352 
L 12.294618 30.422099 
L 13.0827 29.889623 
L 13.870781 29.078323 
L 15.184251 27.331969 
L 20.175433 20.169338 
L 21.488902 18.766097 
L 22.802372 17.672005 
L 24.115841 16.894234 
L 25.42931 16.423072 
L 26.742779 16.237192 
L 28.056248 16.307734 
L 29.369717 16.601433 
L 30.94588 17.19869 
L 32.784737 18.155675 
L 35.148981 19.655964 
L 43.29249 25.06931 
L 45.656735 26.275397 
L 47.758285 27.114872 
L 49.859836 27.715678 
L 51.961386 28.070172 
L 54.062937 28.179489 
L 56.164488 28.051609 
L 58.266038 27.699659 
L 60.630283 27.05693 
L 62.994527 26.179569 
L 65.621465 24.965801 
L 68.511098 23.388602 
L 71.926117 21.27045 
L 76.391912 18.21908 
L 84.272727 12.520624 
L 84.272727 12.520624 
" clip-path="url(#pb94f8c55b8)" style="fill: none; stroke: #9467bd; stroke-width: 0.8; stroke-linecap: square"/>
   </g>
   <g id="line2d_6">
    <path d="M 5.727273 3.83944 
L 6.515354 14.763305 
L 7.303436 22.24323 
L 7.828823 25.693142 
L 8.354211 28.139132 
L 8.879599 29.748453 
L 9.404986 30.667803 
L 9.930374 31.025411 
L 10.455762 30.932932 
L 10.981149 30.487178 
L 11.769231 29.335624 
L 12.820006 27.247679 
L 15.972332 20.505907 
L 17.023107 18.766802 
L 18.073883 17.43456 
L 18.861964 16.715331 
L 19.650046 16.233175 
L 20.438127 15.977532 
L 21.226209 15.932546 
L 22.01429 16.078639 
L 23.065065 16.532414 
L 24.115841 17.231056 
L 25.42931 18.362763 
L 27.53086 20.523917 
L 31.208574 24.369969 
L 33.047431 25.954804 
L 34.623594 27.019202 
L 35.937063 27.671383 
L 37.250532 28.100862 
L 38.564001 28.308377 
L 39.87747 28.302083 
L 41.190939 28.096136 
L 42.767102 27.61225 
L 44.605959 26.771167 
L 46.70751 25.530893 
L 49.597142 23.53335 
L 54.851019 19.860947 
L 57.215263 18.502144 
L 59.316814 17.566978 
L 61.15567 17.003752 
L 62.731833 16.732625 
L 64.307996 16.670516 
L 65.884159 16.826367 
L 67.460322 17.20557 
L 69.036485 17.81027 
L 70.612648 18.63969 
L 72.451505 19.886729 
L 74.290362 21.425707 
L 76.129219 23.243835 
L 78.230769 25.643271 
L 80.595014 28.720043 
L 83.221952 32.556893 
L 84.272727 34.201461 
L 84.272727 34.201461 
" clip-path="url(#pb94f8c55b8)" style="fill: none; stroke: #8c564b; stroke-width: 0.8; stroke-linecap: square"/>
   </g>
   <g id="line2d_7">
    <path d="M 5.727273 41.656016 
L 6.515354 27.764306 
L 7.040742 21.682925 
L 7.56613 17.589782 
L 8.091517 15.085496 
L 8.616905 13.830088 
L 8.879599 13.578929 
L 9.142292 13.5358 
L 9.404986 13.671834 
L 9.930374 14.378262 
L 10.718455 16.195067 
L 12.031925 20.124502 
L 13.608088 24.65073 
L 14.658863 26.952704 
L 15.446944 28.186438 
L 16.235026 28.982513 
L 16.760413 29.277386 
L 17.285801 29.394588 
L 17.811189 29.346831 
L 18.59927 28.998594 
L 19.387352 28.367892 
L 20.438127 27.188326 
L 22.01429 24.969271 
L 25.166616 20.353368 
L 26.480085 18.801463 
L 27.53086 17.824634 
L 28.581636 17.111983 
L 29.632411 16.673893 
L 30.683186 16.507683 
L 31.733962 16.599849 
L 32.784737 16.928287 
L 34.098206 17.627054 
L 35.411675 18.584572 
L 37.250532 20.223665 
L 43.029796 25.647209 
L 44.605959 26.750728 
L 46.182122 27.56523 
L 47.495591 27.998 
L 48.809061 28.196796 
L 50.12253 28.161299 
L 51.435999 27.899347 
L 52.749468 27.426058 
L 54.325631 26.609725 
L 56.164488 25.375321 
L 58.528732 23.481311 
L 64.307996 18.701698 
L 66.146853 17.536983 
L 67.723016 16.811021 
L 69.036485 16.442594 
L 70.349954 16.322181 
L 71.40073 16.423379 
L 72.451505 16.714371 
L 73.50228 17.206971 
L 74.553056 17.91174 
L 75.866525 19.105087 
L 77.179994 20.659698 
L 78.493463 22.587819 
L 79.806932 24.898664 
L 81.383095 28.185493 
L 82.959258 32.037777 
L 84.272727 35.680051 
L 84.272727 35.680051 
" clip-path="url(#pb94f8c55b8)" style="fill: none; stroke: #e377c2; stroke-width: 0.8; stroke-linecap: square"/>
   </g>
   <g id="line2d_8">
    <path d="M 5.727273 41.970701 
L 6.25266 29.600363 
L 6.778048 21.398515 
L 7.303436 16.412914 
L 7.828823 13.856627 
L 8.091517 13.282954 
L 8.354211 13.084674 
L 8.616905 13.199977 
L 8.879599 13.573496 
L 9.404986 14.902929 
L 10.193068 17.766311 
L 12.031925 24.863372 
L 12.820006 27.129488 
L 13.608088 28.688013 
L 14.133475 29.321666 
L 14.658863 29.643558 
L 15.184251 29.675827 
L 15.709638 29.447511 
L 16.235026 28.992157 
L 17.023107 27.962694 
L 18.073883 26.137016 
L 21.751596 19.185344 
L 22.802372 17.792628 
L 23.590453 17.038864 
L 24.378535 16.549013 
L 25.166616 16.322992 
L 25.954697 16.350446 
L 26.742779 16.612648 
L 27.53086 17.084361 
L 28.581636 17.986885 
L 29.895105 19.442301 
L 32.522043 22.832477 
L 34.623594 25.35917 
L 35.937063 26.624078 
L 37.250532 27.55524 
L 38.301307 28.030225 
L 39.352083 28.254993 
L 40.402858 28.231479 
L 41.453633 27.971164 
L 42.504409 27.493764 
L 43.817878 26.632669 
L 45.394041 25.296323 
L 47.758285 22.934574 
L 50.910611 19.802314 
L 52.486774 18.512178 
L 53.800243 17.672809 
L 55.113712 17.091688 
L 56.164488 16.831985 
L 57.215263 16.763969 
L 58.266038 16.890348 
L 59.316814 17.208311 
L 60.630283 17.862158 
L 61.943752 18.774656 
L 63.519915 20.154764 
L 65.621465 22.328717 
L 69.824567 26.77335 
L 71.40073 28.050842 
L 72.451505 28.663362 
L 73.50228 29.030336 
L 74.290362 29.116321 
L 75.078443 29.018267 
L 75.866525 28.716698 
L 76.654606 28.192388 
L 77.442688 27.426437 
L 78.230769 26.400349 
L 79.281545 24.596503 
L 80.33232 22.257016 
L 81.383095 19.342641 
L 82.43387 15.816308 
L 83.74734 10.4952 
L 84.272727 8.069753 
L 84.272727 8.069753 
" clip-path="url(#pb94f8c55b8)" style="fill: none; stroke: #7f7f7f; stroke-width: 0.8; stroke-linecap: square"/>
   </g>
   <g id="line2d_9">
    <path d="M 5.727273 42.136364 
L 6.25266 27.274067 
L 6.778048 18.462945 
L 7.303436 14.032339 
L 7.56613 13.034673 
L 7.828823 12.660335 
L 8.091517 12.788946 
L 8.354211 13.315055 
L 8.879599 15.204287 
L 9.930374 20.463666 
L 10.981149 25.410231 
L 11.769231 28.056845 
L 12.294618 29.193794 
L 12.820006 29.826796 
L 13.345394 29.987768 
L 13.870781 29.728171 
L 14.396169 29.111617 
L 15.184251 27.671031 
L 16.235026 25.15903 
L 18.336576 19.950344 
L 19.387352 17.968677 
L 20.175433 16.926446 
L 20.963515 16.301648 
L 21.488902 16.118148 
L 22.01429 16.114442 
L 22.539678 16.280132 
L 23.327759 16.81543 
L 24.115841 17.64334 
L 25.166616 19.088775 
L 27.005473 22.09708 
L 28.84433 25.014309 
L 30.157799 26.679032 
L 31.208574 27.636224 
L 31.996656 28.105284 
L 32.784737 28.352237 
L 33.572818 28.37836 
L 34.3609 28.192519 
L 35.148981 27.810168 
L 36.199757 27.031552 
L 37.513226 25.714305 
L 39.352083 23.479145 
L 42.241715 19.921559 
L 43.555184 18.603469 
L 44.868653 17.611366 
L 45.919428 17.095673 
L 46.970204 16.847467 
L 48.020979 16.872153 
L 49.071754 17.16302 
L 50.12253 17.702136 
L 51.435999 18.681746 
L 53.012162 20.207189 
L 55.376406 22.881883 
L 58.003344 25.758628 
L 59.579507 27.122792 
L 60.892977 27.923128 
L 61.943752 28.297048 
L 62.994527 28.409436 
L 64.045303 28.247569 
L 65.096078 27.809142 
L 66.146853 27.102896 
L 67.197628 26.149057 
L 68.511098 24.658392 
L 70.349954 22.180535 
L 73.50228 17.833651 
L 74.815749 16.447913 
L 75.603831 15.866117 
L 76.391912 15.531426 
L 77.179994 15.495623 
L 77.705382 15.664351 
L 78.230769 16.006307 
L 78.756157 16.538299 
L 79.544238 17.730137 
L 80.33232 19.447097 
L 81.120401 21.749319 
L 81.908483 24.69788 
L 82.696564 28.354555 
L 83.74734 34.439209 
L 84.272727 38.041336 
L 84.272727 38.041336 
" clip-path="url(#pb94f8c55b8)" style="fill: none; stroke: #bcbd22; stroke-width: 0.8; stroke-linecap: square"/>
   </g>
   <g id="line2d_10">
    <path d="M 5.727273 2.863636 
L 6.25266 20.228205 
L 6.778048 29.207243 
L 7.040742 31.440665 
L 7.303436 32.553204 
L 7.56613 32.783653 
L 7.828823 32.336838 
L 8.354211 30.082658 
L 10.718455 16.877093 
L 11.243843 15.468078 
L 11.769231 14.809233 
L 12.031925 14.742473 
L 12.294618 14.835488 
L 12.820006 15.444506 
L 13.345394 16.514136 
L 14.133475 18.700858 
L 16.49772 25.893011 
L 17.285801 27.582708 
L 18.073883 28.67162 
L 18.59927 29.045343 
L 19.124658 29.14255 
L 19.650046 28.979135 
L 20.175433 28.578944 
L 20.963515 27.601259 
L 22.01429 25.77873 
L 25.692004 18.675085 
L 26.480085 17.652058 
L 27.268167 16.939324 
L 28.056248 16.557297 
L 28.84433 16.507095 
L 29.632411 16.772785 
L 30.420493 17.324109 
L 31.471268 18.430411 
L 32.784737 20.237928 
L 36.725144 26.021736 
L 37.77592 27.107901 
L 38.826695 27.848681 
L 39.614777 28.154804 
L 40.402858 28.240485 
L 41.190939 28.108686 
L 41.979021 27.769968 
L 43.029796 27.02734 
L 44.080572 26.005248 
L 45.656735 24.105641 
L 49.597142 19.114847 
L 50.910611 17.901272 
L 51.961386 17.229968 
L 53.012162 16.864863 
L 53.800243 16.804107 
L 54.588325 16.928316 
L 55.376406 17.233623 
L 56.427182 17.905736 
L 57.477957 18.847089 
L 58.791426 20.324915 
L 60.892977 23.083086 
L 63.257221 26.092566 
L 64.57069 27.403795 
L 65.621465 28.144997 
L 66.409547 28.482127 
L 67.197628 28.609922 
L 67.98571 28.514679 
L 68.773791 28.18903 
L 69.561873 27.632695 
L 70.612648 26.546258 
L 71.663424 25.105443 
L 72.976893 22.916338 
L 76.654606 16.505794 
L 77.442688 15.60817 
L 77.968075 15.218701 
L 78.493463 15.037174 
L 79.018851 15.10099 
L 79.544238 15.449698 
L 80.069626 16.124966 
L 80.595014 17.170545 
L 81.120401 18.632233 
L 81.908483 21.710065 
L 82.696564 26.001642 
L 83.484646 31.685907 
L 84.272727 38.950776 
L 84.272727 38.950776 
" clip-path="url(#pb94f8c55b8)" style="fill: none; stroke: #17becf; stroke-width: 0.8; stroke-linecap: square"/>
   </g>
  </g>
 </g>
 <defs>
  <clipPath id="pb94f8c55b8">
   <rect x="1.8" y="0.9" width="86.4" height="43.2"/>
  </clipPath>
 </defs>
</svg>
