<?xml version="1.0" encoding="utf-8" standalone="no"?>
<!DOCTYPE svg PUBLIC "-//W3C//DTD SVG 1.1//EN"
  "http://www.w3.org/Graphics/SVG/1.1/DTD/svg11.dtd">
<svg xmlns:xlink="http://www.w3.org/1999/xlink" width="90pt" height="45pt" viewBox="0 0 90 45" xmlns="http://www.w3.org/2000/svg" version="1.1">
 <metadata>
  <rdf:RDF xmlns:dc="http://purl.org/dc/elements/1.1/" xmlns:cc="http://creativecommons.org/ns#" xmlns:rdf="http://www.w3.org/1999/02/22-rdf-syntax-ns#">
   <cc:Work>
    <dc:type rdf:resource="http://purl.org/dc/dcmitype/StillImage"/>
    <dc:date>2024-12-02T16:54:50.980497</dc:date>
    <dc:format>image/svg+xml</dc:format>
    <dc:creator>
     <cc:Agent>
      <dc:title>Matplotlib v3.9.2, https://matplotlib.org/</dc:title>
     </cc:Agent>
    </dc:creator>
   </cc:Work>
  </rdf:RDF>
 </metadata>
 <defs>
  <style type="text/css">*{stroke-linejoin: round; stroke-linecap: butt}</style>
 </defs>
 <g id="figure_1">
  <g id="patch_1">
   <path d="M 0 45 
L 90 45 
L 90 0 
L 0 0 
z
" style="fill: #ffffff"/>
  </g>
  <g id="axes_1">
   <g id="patch_2">
    <path d="M 1.8 44.1 
L 88.2 44.1 
L 88.2 0.9 
L 1.8 0.9 
z
" style="fill: #ffffff"/>
   </g>
   <g id="matplotlib.axis_1"/>
   <g id="matplotlib.axis_2"/>
   <g id="line2d_1">
    <path d="M 5.727273 2.863636 
L 6.778048 12.895825 
L 7.828823 21.055116 
L 8.879599 27.535018 
L 9.930374 32.529042 
L 10.718455 35.415861 
L 11.506537 37.657359 
L 12.294618 39.335174 
L 13.0827 40.530942 
L 13.870781 41.3263 
L 14.658863 41.802886 
L 15.446944 42.042336 
L 16.760413 42.13618 
L 84.272727 42.136364 
L 84.272727 42.136364 
" clip-path="url(#pb3495c303b)" style="fill: none; stroke: #1f77b4; stroke-width: 0.8; stroke-linecap: square"/>
   </g>
   <g id="line2d_2">
    <path d="M 5.727273 42.136364 
L 6.778048 32.596588 
L 7.56613 27.272162 
L 8.354211 23.357917 
L 9.142292 20.710988 
L 9.66768 19.579883 
L 10.193068 18.906203 
L 10.718455 18.647619 
L 11.243843 18.761801 
L 11.769231 19.206418 
L 12.294618 19.93914 
L 13.0827 21.485821 
L 14.133475 24.161349 
L 18.073883 34.986885 
L 19.124658 36.995115 
L 20.175433 38.586952 
L 21.226209 39.810776 
L 22.276984 40.714963 
L 23.327759 41.347891 
L 24.378535 41.757937 
L 25.692004 42.030767 
L 27.53086 42.134559 
L 48.020979 42.136364 
L 84.272727 42.136364 
L 84.272727 42.136364 
" clip-path="url(#pb3495c303b)" style="fill: none; stroke: #ff7f0e; stroke-width: 0.8; stroke-linecap: square"/>
   </g>
   <g id="line2d_3">
    <path d="M 5.727273 42.136364 
L 6.25266 42.010909 
L 6.778048 41.649326 
L 7.56613 40.712715 
L 8.354211 39.369539 
L 9.404986 37.075546 
L 10.981149 32.916815 
L 14.396169 23.575788 
L 15.446944 21.333124 
L 16.235026 20.040162 
L 17.023107 19.163789 
L 17.548495 18.838947 
L 18.073883 18.713229 
L 18.59927 18.772527 
L 19.124658 19.00273 
L 19.912739 19.637614 
L 20.700821 20.577665 
L 21.751596 22.223461 
L 23.065065 24.752602 
L 25.42931 29.959664 
L 27.53086 34.415194 
L 28.84433 36.703295 
L 30.157799 38.491078 
L 31.471268 39.836121 
L 32.784737 40.801416 
L 34.098206 41.449954 
L 35.411675 41.844726 
L 36.987838 42.072174 
L 39.352083 42.136363 
L 84.272727 42.136364 
L 84.272727 42.136364 
" clip-path="url(#pb3495c303b)" style="fill: none; stroke: #2ca02c; stroke-width: 0.8; stroke-linecap: square"/>
   </g>
   <g id="line2d_4">
    <path d="M 5.727273 42.136364 
L 8.616905 42.024575 
L 10.193068 41.723728 
L 11.506537 41.242053 
L 12.820006 40.483216 
L 13.870781 39.634259 
L 14.921557 38.535352 
L 15.972332 37.154244 
L 17.023107 35.458689 
L 18.336576 32.897508 
L 20.438127 28.174455 
L 23.327759 21.687781 
L 24.641228 19.225946 
L 25.692004 17.656888 
L 26.480085 16.777162 
L 27.268167 16.19742 
L 28.056248 15.958479 
L 28.581636 16.006721 
L 29.369717 16.380305 
L 30.157799 17.079139 
L 30.94588 18.062408 
L 31.996656 19.745334 
L 33.310125 22.310628 
L 35.411675 27.03652 
L 38.301307 33.519575 
L 39.614777 35.977096 
L 40.928246 37.931176 
L 42.241715 39.42092 
L 43.555184 40.509318 
L 44.868653 41.259362 
L 46.182122 41.734043 
L 47.758285 42.028874 
L 49.859836 42.134405 
L 70.612648 42.136364 
L 84.272727 42.136364 
L 84.272727 42.136364 
" clip-path="url(#pb3495c303b)" style="fill: none; stroke: #d62728; stroke-width: 0.8; stroke-linecap: square"/>
   </g>
   <g id="line2d_5">
    <path d="M 5.727273 42.136364 
L 19.650046 42.044968 
L 21.226209 41.773586 
L 22.539678 41.326364 
L 23.853147 40.610978 
L 24.903922 39.803261 
L 25.954697 38.751354 
L 27.005473 37.423003 
L 28.056248 35.785959 
L 29.369717 33.288515 
L 31.208574 29.22067 
L 34.623594 21.535081 
L 35.937063 19.100654 
L 36.987838 17.561297 
L 37.77592 16.708382 
L 38.564001 16.159339 
L 39.089389 15.982284 
L 39.614777 15.970201 
L 40.140164 16.124384 
L 40.928246 16.642359 
L 41.716327 17.468092 
L 42.767102 18.977254 
L 44.080572 21.383656 
L 45.656735 24.784485 
L 49.859836 34.195459 
L 51.173305 36.527418 
L 52.486774 38.356081 
L 53.800243 39.736605 
L 55.113712 40.731981 
L 56.427182 41.405201 
L 57.740651 41.819257 
L 59.316814 42.062717 
L 61.418364 42.136038 
L 84.272727 42.136364 
L 84.272727 42.136364 
" clip-path="url(#pb3495c303b)" style="fill: none; stroke: #9467bd; stroke-width: 0.8; stroke-linecap: square"/>
   </g>
   <g id="line2d_6">
    <path d="M 5.727273 42.136364 
L 30.94588 42.037139 
L 32.522043 41.754155 
L 33.835512 41.293306 
L 35.148981 40.560694 
L 36.199757 39.736605 
L 37.250532 38.666021 
L 38.301307 37.316691 
L 39.352083 35.656363 
L 40.665552 33.132976 
L 42.504409 29.046918 
L 45.919428 21.383656 
L 47.232898 18.977254 
L 48.283673 17.468092 
L 49.071754 16.642359 
L 49.859836 16.124384 
L 50.385223 15.970201 
L 50.910611 15.982284 
L 51.435999 16.159339 
L 52.22408 16.708382 
L 53.012162 17.561297 
L 54.062937 19.100654 
L 55.376406 21.535081 
L 57.215263 25.557067 
L 60.892977 33.823273 
L 62.206446 36.225924 
L 63.519915 38.12375 
L 64.833384 39.564437 
L 66.146853 40.610978 
L 67.460322 41.326364 
L 68.773791 41.773586 
L 70.349954 42.044968 
L 72.451505 42.135361 
L 84.272727 42.136364 
L 84.272727 42.136364 
" clip-path="url(#pb3495c303b)" style="fill: none; stroke: #8c564b; stroke-width: 0.8; stroke-linecap: square"/>
   </g>
   <g id="line2d_7">
    <path d="M 5.727273 42.136364 
L 42.241715 42.028874 
L 43.817878 41.734043 
L 45.131347 41.259362 
L 46.444816 40.509318 
L 47.495591 39.668691 
L 48.546367 38.579266 
L 49.597142 37.208792 
L 50.647917 35.525017 
L 51.961386 32.97628 
L 54.062937 28.261907 
L 56.952569 21.764598 
L 58.266038 19.289291 
L 59.316814 17.705568 
L 60.104895 16.812575 
L 60.892977 16.217622 
L 61.681058 15.961527 
L 62.206446 15.99774 
L 62.731833 16.19742 
L 63.519915 16.777162 
L 64.307996 17.656888 
L 65.358772 19.225946 
L 66.672241 21.687781 
L 68.511098 25.729996 
L 72.188811 33.973166 
L 73.50228 36.347785 
L 74.815749 38.217791 
L 76.129219 39.634259 
L 77.442688 40.66018 
L 78.756157 41.358545 
L 80.069626 41.792346 
L 81.645789 42.052375 
L 83.74734 42.135692 
L 84.272727 42.136364 
L 84.272727 42.136364 
" clip-path="url(#pb3495c303b)" style="fill: none; stroke: #e377c2; stroke-width: 0.8; stroke-linecap: square"/>
   </g>
   <g id="line2d_8">
    <path d="M 5.727273 42.136364 
L 53.274856 42.048724 
L 54.851019 41.783049 
L 56.164488 41.342563 
L 57.477957 40.635713 
L 58.528732 39.836121 
L 59.579507 38.79349 
L 60.630283 37.475568 
L 61.681058 35.850104 
L 62.994527 33.369486 
L 65.096078 28.77919 
L 67.460322 23.690373 
L 68.773791 21.350386 
L 69.824567 19.919409 
L 70.612648 19.177511 
L 71.40073 18.772527 
L 71.926117 18.713229 
L 72.451505 18.838947 
L 72.976893 19.163789 
L 73.50228 19.698058 
L 74.290362 20.860466 
L 75.341137 22.96786 
L 76.654606 26.248665 
L 81.383095 38.8444 
L 82.43387 40.712715 
L 83.221952 41.649326 
L 83.74734 42.010909 
L 84.272727 42.136364 
L 84.272727 42.136364 
" clip-path="url(#pb3495c303b)" style="fill: none; stroke: #7f7f7f; stroke-width: 0.8; stroke-linecap: square"/>
   </g>
   <g id="line2d_9">
    <path d="M 5.727273 42.136364 
L 64.307996 42.030767 
L 65.621465 41.757937 
L 66.672241 41.347891 
L 67.723016 40.714963 
L 68.773791 39.810776 
L 69.824567 38.586952 
L 70.875342 36.995115 
L 71.926117 34.986885 
L 72.976893 32.513887 
L 74.290362 28.800955 
L 76.391912 22.753611 
L 77.442688 20.400312 
L 78.230769 19.206418 
L 78.756157 18.761801 
L 79.281545 18.647619 
L 79.806932 18.906203 
L 80.33232 19.579883 
L 80.857708 20.710988 
L 81.383095 22.34185 
L 82.171177 25.817782 
L 82.959258 30.656274 
L 83.74734 37.00019 
L 84.272727 42.136364 
L 84.272727 42.136364 
" clip-path="url(#pb3495c303b)" style="fill: none; stroke: #bcbd22; stroke-width: 0.8; stroke-linecap: square"/>
   </g>
   <g id="line2d_10">
    <path d="M 5.727273 42.136364 
L 74.553056 42.042336 
L 75.341137 41.802886 
L 76.129219 41.3263 
L 76.9173 40.530942 
L 77.705382 39.335174 
L 78.493463 37.657359 
L 79.281545 35.415861 
L 80.069626 32.529042 
L 80.857708 28.915266 
L 81.908483 22.824975 
L 82.959258 15.103673 
L 84.010033 5.55785 
L 84.272727 2.863636 
L 84.272727 2.863636 
" clip-path="url(#pb3495c303b)" style="fill: none; stroke: #17becf; stroke-width: 0.8; stroke-linecap: square"/>
   </g>
  </g>
 </g>
 <defs>
  <clipPath id="pb3495c303b">
   <rect x="1.8" y="0.9" width="86.4" height="43.2"/>
  </clipPath>
 </defs>
</svg>
