<?xml version="1.0" encoding="utf-8" standalone="no"?>
<!DOCTYPE svg PUBLIC "-//W3C//DTD SVG 1.1//EN"
  "http://www.w3.org/Graphics/SVG/1.1/DTD/svg11.dtd">
<svg xmlns:xlink="http://www.w3.org/1999/xlink" width="90pt" height="45pt" viewBox="0 0 90 45" xmlns="http://www.w3.org/2000/svg" version="1.1">
 <metadata>
  <rdf:RDF xmlns:dc="http://purl.org/dc/elements/1.1/" xmlns:cc="http://creativecommons.org/ns#" xmlns:rdf="http://www.w3.org/1999/02/22-rdf-syntax-ns#">
   <cc:Work>
    <dc:type rdf:resource="http://purl.org/dc/dcmitype/StillImage"/>
    <dc:date>2024-12-02T16:54:51.015187</dc:date>
    <dc:format>image/svg+xml</dc:format>
    <dc:creator>
     <cc:Agent>
      <dc:title>Matplotlib v3.9.2, https://matplotlib.org/</dc:title>
     </cc:Agent>
    </dc:creator>
   </cc:Work>
  </rdf:RDF>
 </metadata>
 <defs>
  <style type="text/css">*{stroke-linejoin: round; stroke-linecap: butt}</style>
 </defs>
 <g id="figure_1">
  <g id="patch_1">
   <path d="M 0 45 
L 90 45 
L 90 0 
L 0 0 
z
" style="fill: #ffffff"/>
  </g>
  <g id="axes_1">
   <g id="patch_2">
    <path d="M 1.8 44.1 
L 88.2 44.1 
L 88.2 0.9 
L 1.8 0.9 
z
" style="fill: #ffffff"/>
   </g>
   <g id="matplotlib.axis_1"/>
   <g id="matplotlib.axis_2"/>
   <g id="line2d_1">
    <path d="M 5.727273 2.863636 
L 6.25266 2.951367 
L 6.778048 3.213774 
L 7.56613 3.929352 
L 8.354211 5.017944 
L 9.142292 6.457682 
L 10.193068 8.872634 
L 11.506537 12.562942 
L 13.0827 17.700614 
L 17.811189 33.654726 
L 19.124658 37.129419 
L 20.175433 39.331058 
L 20.963515 40.591897 
L 21.751596 41.489339 
L 22.539678 42.005358 
L 23.065065 42.132028 
L 29.895105 42.136364 
L 84.272727 42.136364 
L 84.272727 42.136364 
" clip-path="url(#pa3d24875ec)" style="fill: none; stroke: #1f77b4; stroke-width: 0.8; stroke-linecap: square"/>
   </g>
   <g id="line2d_2">
    <path d="M 5.727273 22.5 
L 8.354211 13.557714 
L 9.930374 9.021931 
L 10.981149 6.577546 
L 12.031925 4.700989 
L 12.820006 3.707301 
L 13.608088 3.091085 
L 14.133475 2.896415 
L 14.658863 2.876913 
L 15.184251 3.032752 
L 15.709638 3.362541 
L 16.49772 4.176515 
L 17.285801 5.358537 
L 18.336576 7.465043 
L 19.387352 10.107728 
L 20.700821 14.019956 
L 22.802372 21.159967 
L 25.954697 31.898358 
L 27.268167 35.675028 
L 28.318942 38.177467 
L 29.369717 40.120814 
L 30.157799 41.168906 
L 30.94588 41.842011 
L 31.471268 42.075426 
L 32.259349 42.136364 
L 84.272727 42.136364 
L 84.272727 42.136364 
" clip-path="url(#pa3d24875ec)" style="fill: none; stroke: #ff7f0e; stroke-width: 0.8; stroke-linecap: square"/>
   </g>
   <g id="line2d_3">
    <path d="M 5.727273 42.136364 
L 6.25266 42.048633 
L 6.778048 41.786226 
L 7.56613 41.070648 
L 8.354211 39.982056 
L 9.142292 38.542318 
L 10.193068 36.127366 
L 11.506537 32.437058 
L 13.0827 27.299386 
L 17.811189 11.345274 
L 19.124658 7.870581 
L 20.175433 5.668942 
L 20.963515 4.408103 
L 21.751596 3.510661 
L 22.539678 2.994642 
L 23.065065 2.867972 
L 23.590453 2.916723 
L 24.115841 3.140461 
L 24.903922 3.799371 
L 25.692004 4.833904 
L 26.480085 6.223281 
L 27.53086 8.57857 
L 28.84433 12.20926 
L 30.420493 17.301579 
L 35.411675 34.075323 
L 36.725144 37.468394 
L 37.77592 39.590903 
L 38.564001 40.786145 
L 39.352083 41.614089 
L 40.140164 42.058104 
L 40.928246 42.136364 
L 84.272727 42.136364 
L 84.272727 42.136364 
" clip-path="url(#pa3d24875ec)" style="fill: none; stroke: #2ca02c; stroke-width: 0.8; stroke-linecap: square"/>
   </g>
   <g id="line2d_4">
    <path d="M 5.727273 42.136364 
L 14.921557 42.067035 
L 15.446944 41.823949 
L 16.235026 41.136667 
L 17.023107 40.075046 
L 17.811189 38.66041 
L 18.861964 36.275159 
L 20.175433 32.614457 
L 21.751596 27.499179 
L 26.480085 11.515684 
L 27.793554 8.00901 
L 28.84433 5.776141 
L 29.632411 4.489305 
L 30.420493 3.564235 
L 31.208574 3.019511 
L 31.733962 2.873391 
L 32.259349 2.902644 
L 32.784737 3.107009 
L 33.572818 3.737473 
L 34.3609 4.744805 
L 35.148981 6.108769 
L 36.199757 8.433835 
L 37.513226 12.034114 
L 39.089389 17.102912 
L 44.080572 33.908026 
L 45.394041 37.33403 
L 46.444816 39.48837 
L 47.232898 40.709952 
L 48.020979 41.565767 
L 48.809061 42.038623 
L 49.597142 42.136364 
L 84.272727 42.136364 
L 84.272727 42.136364 
" clip-path="url(#pa3d24875ec)" style="fill: none; stroke: #d62728; stroke-width: 0.8; stroke-linecap: square"/>
   </g>
   <g id="line2d_5">
    <path d="M 5.727273 42.136364 
L 23.590453 42.083277 
L 24.115841 41.859539 
L 24.903922 41.200629 
L 25.692004 40.166096 
L 26.480085 38.776719 
L 27.53086 36.42143 
L 28.84433 32.79074 
L 30.420493 27.698421 
L 35.411675 10.924677 
L 36.725144 7.531606 
L 37.77592 5.409097 
L 38.564001 4.213855 
L 39.352083 3.385911 
L 40.140164 2.941896 
L 40.665552 2.863907 
L 41.190939 2.961377 
L 41.716327 3.233434 
L 42.504409 3.963131 
L 43.29249 5.065163 
L 44.080572 6.517393 
L 45.131347 8.947095 
L 46.444816 12.652054 
L 48.283673 18.707084 
L 52.486774 32.965886 
L 53.800243 36.566165 
L 54.851019 38.891231 
L 55.901794 40.631749 
L 56.689875 41.51534 
L 57.477957 42.016985 
L 58.003344 42.133925 
L 70.087261 42.136364 
L 84.272727 42.136364 
L 84.272727 42.136364 
" clip-path="url(#pa3d24875ec)" style="fill: none; stroke: #9467bd; stroke-width: 0.8; stroke-linecap: square"/>
   </g>
   <g id="line2d_6">
    <path d="M 5.727273 42.136364 
L 32.259349 42.097356 
L 32.784737 41.892991 
L 33.572818 41.262527 
L 34.3609 40.255195 
L 35.148981 38.891231 
L 36.199757 36.566165 
L 37.513226 32.965886 
L 39.089389 27.897088 
L 44.080572 11.091974 
L 45.394041 7.66597 
L 46.444816 5.51163 
L 47.232898 4.290048 
L 48.020979 3.434233 
L 48.809061 2.961377 
L 49.334448 2.863907 
L 49.859836 2.941896 
L 50.385223 3.194646 
L 51.173305 3.896086 
L 51.961386 4.971207 
L 52.749468 6.398414 
L 53.800243 8.798549 
L 55.113712 12.474104 
L 56.689875 17.60065 
L 61.418364 33.569674 
L 62.731833 37.060405 
L 63.782609 39.27769 
L 64.57069 40.551545 
L 65.358772 41.462814 
L 66.146853 41.993192 
L 66.672241 42.12959 
L 71.138036 42.136364 
L 84.272727 42.136364 
L 84.272727 42.136364 
" clip-path="url(#pa3d24875ec)" style="fill: none; stroke: #8c564b; stroke-width: 0.8; stroke-linecap: square"/>
   </g>
   <g id="line2d_7">
    <path d="M 5.727273 42.136364 
L 41.190939 42.038623 
L 41.716327 41.766566 
L 42.504409 41.036869 
L 43.29249 39.934837 
L 44.080572 38.482607 
L 45.131347 36.052905 
L 46.444816 32.347946 
L 48.283673 26.292916 
L 52.486774 12.034114 
L 53.800243 8.433835 
L 54.851019 6.108769 
L 55.901794 4.368251 
L 56.689875 3.48466 
L 57.477957 2.983015 
L 58.003344 2.866075 
L 58.528732 2.924574 
L 59.05412 3.157989 
L 59.842201 3.831094 
L 60.630283 4.879186 
L 61.418364 6.281211 
L 62.46914 8.651514 
L 63.782609 12.297261 
L 65.358772 17.40113 
L 70.349954 34.158493 
L 71.663424 37.534957 
L 72.714199 39.641463 
L 73.50228 40.823485 
L 74.290362 41.637459 
L 75.078443 42.067035 
L 75.866525 42.136364 
L 84.272727 42.136364 
L 84.272727 42.136364 
" clip-path="url(#pa3d24875ec)" style="fill: none; stroke: #e377c2; stroke-width: 0.8; stroke-linecap: square"/>
   </g>
   <g id="line2d_8">
    <path d="M 5.727273 42.136364 
L 49.859836 42.058104 
L 50.385223 41.805354 
L 51.173305 41.103914 
L 51.961386 40.028793 
L 52.749468 38.601586 
L 53.800243 36.201451 
L 55.113712 32.525896 
L 56.689875 27.39935 
L 61.418364 11.430326 
L 62.731833 7.939595 
L 63.782609 5.72231 
L 64.57069 4.448455 
L 65.358772 3.537186 
L 66.146853 3.006808 
L 66.672241 2.87041 
L 67.197628 2.909413 
L 67.723016 3.123468 
L 68.511098 3.768164 
L 69.299179 4.78911 
L 70.087261 6.1658 
L 71.138036 8.506009 
L 72.451505 12.121544 
L 74.027668 17.202172 
L 79.018851 33.991833 
L 80.33232 37.401418 
L 81.383095 39.539872 
L 82.171177 40.748301 
L 82.959258 41.590191 
L 83.74734 42.048633 
L 84.272727 42.136364 
L 84.272727 42.136364 
" clip-path="url(#pa3d24875ec)" style="fill: none; stroke: #7f7f7f; stroke-width: 0.8; stroke-linecap: square"/>
   </g>
   <g id="line2d_9">
    <path d="M 5.727273 42.136364 
L 58.528732 42.075426 
L 59.05412 41.842011 
L 59.842201 41.168906 
L 60.630283 40.120814 
L 61.418364 38.718789 
L 62.46914 36.348486 
L 63.782609 32.702739 
L 65.358772 27.59887 
L 70.349954 10.841507 
L 71.663424 7.465043 
L 72.714199 5.358537 
L 73.50228 4.176515 
L 74.290362 3.362541 
L 75.078443 2.932965 
L 75.603831 2.86472 
L 76.129219 2.971926 
L 76.654606 3.253626 
L 77.442688 3.997422 
L 78.230769 5.112863 
L 79.018851 6.577546 
L 80.069626 9.021931 
L 81.383095 12.741438 
L 83.221952 18.808353 
L 84.272727 22.5 
L 84.272727 22.5 
" clip-path="url(#pa3d24875ec)" style="fill: none; stroke: #bcbd22; stroke-width: 0.8; stroke-linecap: square"/>
   </g>
   <g id="line2d_10">
    <path d="M 5.727273 42.136364 
L 67.197628 42.090587 
L 67.723016 41.876532 
L 68.511098 41.231836 
L 69.299179 40.21089 
L 70.087261 38.8342 
L 71.138036 36.493991 
L 72.451505 32.878456 
L 74.027668 27.797828 
L 79.018851 11.008167 
L 80.33232 7.598582 
L 81.383095 5.460128 
L 82.171177 4.251699 
L 82.959258 3.409809 
L 83.74734 2.951367 
L 84.272727 2.863636 
L 84.272727 2.863636 
" clip-path="url(#pa3d24875ec)" style="fill: none; stroke: #17becf; stroke-width: 0.8; stroke-linecap: square"/>
   </g>
  </g>
 </g>
 <defs>
  <clipPath id="pa3d24875ec">
   <rect x="1.8" y="0.9" width="86.4" height="43.2"/>
  </clipPath>
 </defs>
</svg>
