<?xml version="1.0" encoding="utf-8" standalone="no"?>
<!DOCTYPE svg PUBLIC "-//W3C//DTD SVG 1.1//EN"
  "http://www.w3.org/Graphics/SVG/1.1/DTD/svg11.dtd">
<svg xmlns:xlink="http://www.w3.org/1999/xlink" width="90pt" height="45pt" viewBox="0 0 90 45" xmlns="http://www.w3.org/2000/svg" version="1.1">
 <metadata>
  <rdf:RDF xmlns:dc="http://purl.org/dc/elements/1.1/" xmlns:cc="http://creativecommons.org/ns#" xmlns:rdf="http://www.w3.org/1999/02/22-rdf-syntax-ns#">
   <cc:Work>
    <dc:type rdf:resource="http://purl.org/dc/dcmitype/StillImage"/>
    <dc:date>2024-12-02T16:54:51.023103</dc:date>
    <dc:format>image/svg+xml</dc:format>
    <dc:creator>
     <cc:Agent>
      <dc:title>Matplotlib v3.9.2, https://matplotlib.org/</dc:title>
     </cc:Agent>
    </dc:creator>
   </cc:Work>
  </rdf:RDF>
 </metadata>
 <defs>
  <style type="text/css">*{stroke-linejoin: round; stroke-linecap: butt}</style>
 </defs>
 <g id="figure_1">
  <g id="patch_1">
   <path d="M 0 45 
L 90 45 
L 90 0 
L 0 0 
z
" style="fill: #ffffff"/>
  </g>
  <g id="axes_1">
   <g id="patch_2">
    <path d="M 1.8 44.1 
L 88.2 44.1 
L 88.2 0.9 
L 1.8 0.9 
z
" style="fill: #ffffff"/>
   </g>
   <g id="matplotlib.axis_1"/>
   <g id="matplotlib.axis_2"/>
   <g id="line2d_1">
    <path d="M 5.727273 2.863636 
L 5.989967 7.225475 
L 6.778048 34.84641 
L 7.040742 39.996484 
L 7.303436 42.060117 
L 7.828823 42.136364 
L 84.272727 42.136364 
L 84.272727 42.136364 
" clip-path="url(#pe65a61e677)" style="fill: none; stroke: #1f77b4; stroke-width: 0.8; stroke-linecap: square"/>
   </g>
   <g id="line2d_2">
    <path d="M 5.727273 22.5 
L 5.989967 10.159998 
L 6.25266 3.757449 
L 6.515354 3.319737 
L 6.778048 7.230654 
L 8.091517 37.807425 
L 8.354211 40.640345 
L 8.616905 41.980383 
L 8.879599 42.136364 
L 84.272727 42.136364 
L 84.272727 42.136364 
" clip-path="url(#pe65a61e677)" style="fill: none; stroke: #ff7f0e; stroke-width: 0.8; stroke-linecap: square"/>
   </g>
   <g id="line2d_3">
    <path d="M 5.727273 42.136364 
L 5.989967 37.774525 
L 6.778048 10.15359 
L 7.040742 5.003516 
L 7.303436 2.939883 
L 7.56613 3.544813 
L 7.828823 6.18689 
L 8.354211 14.982377 
L 9.404986 33.406194 
L 9.930374 39.108852 
L 10.455762 41.819178 
L 10.718455 42.136362 
L 84.272727 42.136364 
L 84.272727 42.136364 
" clip-path="url(#pe65a61e677)" style="fill: none; stroke: #2ca02c; stroke-width: 0.8; stroke-linecap: square"/>
   </g>
   <g id="line2d_4">
    <path d="M 5.727273 42.136364 
L 6.25266 42.136364 
L 6.515354 41.680263 
L 6.778048 37.769346 
L 8.091517 7.192575 
L 8.354211 4.359655 
L 8.616905 3.019617 
L 8.879599 3.0177 
L 9.142292 4.144683 
L 9.66768 8.868257 
L 12.031925 36.605077 
L 12.557312 39.866149 
L 13.0827 41.667204 
L 13.345394 42.05409 
L 13.870781 42.136364 
L 84.272727 42.136364 
L 84.272727 42.136364 
" clip-path="url(#pe65a61e677)" style="fill: none; stroke: #d62728; stroke-width: 0.8; stroke-linecap: square"/>
   </g>
   <g id="line2d_5">
    <path d="M 5.727273 42.136364 
L 7.303436 42.136364 
L 7.56613 41.455187 
L 7.828823 38.81311 
L 8.354211 30.017623 
L 9.404986 11.593806 
L 9.930374 5.891148 
L 10.455762 3.180822 
L 10.718455 2.863638 
L 10.981149 3.153569 
L 11.243843 3.974888 
L 11.769231 6.895082 
L 12.557312 13.33465 
L 14.658863 31.83752 
L 15.446944 36.770073 
L 16.235026 40.088617 
L 16.760413 41.405742 
L 17.285801 42.049351 
L 17.811189 42.136364 
L 84.272727 42.136364 
L 84.272727 42.136364 
" clip-path="url(#pe65a61e677)" style="fill: none; stroke: #9467bd; stroke-width: 0.8; stroke-linecap: square"/>
   </g>
   <g id="line2d_6">
    <path d="M 5.727273 42.136364 
L 8.616905 42.136364 
L 8.879599 41.9823 
L 9.142292 40.855317 
L 9.66768 36.131743 
L 12.031925 8.394923 
L 12.557312 5.133851 
L 13.0827 3.332796 
L 13.345394 2.94591 
L 13.608088 2.873877 
L 13.870781 3.092334 
L 14.133475 3.575193 
L 14.658863 5.225814 
L 15.446944 9.01105 
L 16.760413 17.19343 
L 18.59927 28.76697 
L 19.650046 34.123507 
L 20.438127 37.271726 
L 21.226209 39.622337 
L 22.01429 41.18088 
L 22.539678 41.798355 
L 23.065065 42.098662 
L 23.853147 42.136364 
L 84.272727 42.136364 
L 84.272727 42.136364 
" clip-path="url(#pe65a61e677)" style="fill: none; stroke: #8c564b; stroke-width: 0.8; stroke-linecap: square"/>
   </g>
   <g id="line2d_7">
    <path d="M 5.727273 42.136364 
L 10.718455 42.136364 
L 10.981149 41.846431 
L 11.243843 41.025112 
L 11.769231 38.104918 
L 12.557312 31.66535 
L 14.658863 13.16248 
L 15.446944 8.229927 
L 16.235026 4.911383 
L 16.760413 3.594258 
L 17.285801 2.950649 
L 17.548495 2.864134 
L 17.811189 2.923725 
L 18.336576 3.446071 
L 18.861964 4.4448 
L 19.650046 6.673413 
L 20.700821 10.632486 
L 22.539678 18.872292 
L 24.641228 28.112641 
L 25.954697 32.980145 
L 27.005473 36.167788 
L 28.056248 38.669523 
L 28.84433 40.088543 
L 29.632411 41.122946 
L 30.420493 41.78746 
L 31.208574 42.10235 
L 32.259349 42.136364 
L 84.272727 42.136364 
L 84.272727 42.136364 
" clip-path="url(#pe65a61e677)" style="fill: none; stroke: #e377c2; stroke-width: 0.8; stroke-linecap: square"/>
   </g>
   <g id="line2d_8">
    <path d="M 5.727273 42.136364 
L 13.608088 42.126123 
L 13.870781 41.907666 
L 14.133475 41.424807 
L 14.658863 39.774186 
L 15.446944 35.98895 
L 16.760413 27.80657 
L 18.59927 16.23303 
L 19.650046 10.876493 
L 20.438127 7.728274 
L 21.226209 5.377663 
L 22.01429 3.81912 
L 22.539678 3.201645 
L 23.065065 2.901338 
L 23.590453 2.897184 
L 24.115841 3.165915 
L 24.641228 3.682852 
L 25.42931 4.868038 
L 26.217391 6.468634 
L 27.268167 9.105234 
L 28.84433 13.769025 
L 33.835512 29.203857 
L 35.411675 33.192156 
L 36.725144 35.98094 
L 38.038614 38.246232 
L 39.089389 39.674544 
L 40.140164 40.765404 
L 41.190939 41.528846 
L 42.241715 41.979595 
L 43.29249 42.135904 
L 84.272727 42.136364 
L 84.272727 42.136364 
" clip-path="url(#pe65a61e677)" style="fill: none; stroke: #7f7f7f; stroke-width: 0.8; stroke-linecap: square"/>
   </g>
   <g id="line2d_9">
    <path d="M 5.727273 42.136364 
L 17.811189 42.076275 
L 18.336576 41.553929 
L 18.861964 40.5552 
L 19.650046 38.326587 
L 20.700821 34.367514 
L 22.539678 26.127708 
L 24.641228 16.887359 
L 25.954697 12.019855 
L 27.005473 8.832212 
L 28.056248 6.330477 
L 28.84433 4.911457 
L 29.632411 3.877054 
L 30.420493 3.21254 
L 31.208574 2.89765 
L 31.996656 2.908124 
L 32.784737 3.216996 
L 33.572818 3.795658 
L 34.623594 4.936064 
L 35.674369 6.43421 
L 36.987838 8.707085 
L 38.826695 12.41608 
L 41.979021 19.432411 
L 45.131347 26.303705 
L 47.232898 30.412552 
L 49.071754 33.562317 
L 50.647917 35.885128 
L 52.22408 37.839264 
L 53.800243 39.41776 
L 55.113712 40.447984 
L 56.427182 41.224904 
L 57.740651 41.757275 
L 59.05412 42.056197 
L 60.367589 42.136364 
L 84.272727 42.136364 
L 84.272727 42.136364 
" clip-path="url(#pe65a61e677)" style="fill: none; stroke: #bcbd22; stroke-width: 0.8; stroke-linecap: square"/>
   </g>
   <g id="line2d_10">
    <path d="M 5.727273 42.136364 
L 23.590453 42.102816 
L 24.115841 41.834085 
L 24.641228 41.317148 
L 25.42931 40.131962 
L 26.217391 38.531366 
L 27.268167 35.894766 
L 28.84433 31.230975 
L 33.835512 15.796143 
L 35.411675 11.807844 
L 36.725144 9.01906 
L 38.038614 6.753768 
L 39.089389 5.325456 
L 40.140164 4.234596 
L 41.190939 3.471154 
L 42.241715 3.020405 
L 43.29249 2.864096 
L 44.343265 2.981443 
L 45.394041 3.349967 
L 46.444816 3.94619 
L 47.758285 4.975242 
L 49.334448 6.564989 
L 51.173305 8.810749 
L 53.274856 11.751411 
L 56.427182 16.586902 
L 62.46914 25.915289 
L 65.358772 29.917573 
L 67.723016 32.829343 
L 69.824567 35.102947 
L 71.926117 37.060316 
L 74.027668 38.692273 
L 75.866525 39.85226 
L 77.705382 40.76559 
L 79.544238 41.438826 
L 81.383095 41.881051 
L 83.221952 42.103323 
L 84.272727 42.136364 
L 84.272727 42.136364 
" clip-path="url(#pe65a61e677)" style="fill: none; stroke: #17becf; stroke-width: 0.8; stroke-linecap: square"/>
   </g>
  </g>
 </g>
 <defs>
  <clipPath id="pe65a61e677">
   <rect x="1.8" y="0.9" width="86.4" height="43.2"/>
  </clipPath>
 </defs>
</svg>
