<?xml version="1.0" encoding="utf-8" standalone="no"?>
<!DOCTYPE svg PUBLIC "-//W3C//DTD SVG 1.1//EN"
  "http://www.w3.org/Graphics/SVG/1.1/DTD/svg11.dtd">
<svg xmlns:xlink="http://www.w3.org/1999/xlink" width="90pt" height="45pt" viewBox="0 0 90 45" xmlns="http://www.w3.org/2000/svg" version="1.1">
 <metadata>
  <rdf:RDF xmlns:dc="http://purl.org/dc/elements/1.1/" xmlns:cc="http://creativecommons.org/ns#" xmlns:rdf="http://www.w3.org/1999/02/22-rdf-syntax-ns#">
   <cc:Work>
    <dc:type rdf:resource="http://purl.org/dc/dcmitype/StillImage"/>
    <dc:date>2024-12-02T16:54:50.998126</dc:date>
    <dc:format>image/svg+xml</dc:format>
    <dc:creator>
     <cc:Agent>
      <dc:title>Matplotlib v3.9.2, https://matplotlib.org/</dc:title>
     </cc:Agent>
    </dc:creator>
   </cc:Work>
  </rdf:RDF>
 </metadata>
 <defs>
  <style type="text/css">*{stroke-linejoin: round; stroke-linecap: butt}</style>
 </defs>
 <g id="figure_1">
  <g id="patch_1">
   <path d="M 0 45 
L 90 45 
L 90 0 
L 0 0 
z
" style="fill: #ffffff"/>
  </g>
  <g id="axes_1">
   <g id="patch_2">
    <path d="M 1.8 44.1 
L 88.2 44.1 
L 88.2 0.9 
L 1.8 0.9 
z
" style="fill: #ffffff"/>
   </g>
   <g id="matplotlib.axis_1"/>
   <g id="matplotlib.axis_2"/>
   <g id="line2d_1">
    <path d="M 5.727273 2.863636 
L 6.778048 12.895825 
L 7.828823 21.055116 
L 8.879599 27.535018 
L 9.930374 32.529042 
L 10.718455 35.415861 
L 11.506537 37.657359 
L 12.294618 39.335174 
L 13.0827 40.530942 
L 13.870781 41.3263 
L 14.658863 41.802886 
L 15.446944 42.042336 
L 16.760413 42.13618 
L 84.272727 42.136364 
L 84.272727 42.136364 
" clip-path="url(#p374bc9105e)" style="fill: none; stroke: #1f77b4; stroke-width: 0.8; stroke-linecap: square"/>
   </g>
   <g id="line2d_2">
    <path d="M 5.727273 42.136364 
L 6.778048 37.366476 
L 7.56613 34.704263 
L 8.354211 32.74714 
L 9.142292 31.423676 
L 9.66768 30.858123 
L 10.193068 30.521283 
L 10.718455 30.391992 
L 11.243843 30.449082 
L 12.031925 30.837887 
L 12.820006 31.527 
L 13.870781 32.789498 
L 15.709638 35.468659 
L 17.285801 37.657359 
L 18.59927 39.091218 
L 19.912739 40.180874 
L 21.226209 40.97357 
L 22.539678 41.51655 
L 24.115841 41.905019 
L 25.954697 42.098646 
L 29.107023 42.136364 
L 84.272727 42.136364 
L 84.272727 42.136364 
" clip-path="url(#p374bc9105e)" style="fill: none; stroke: #ff7f0e; stroke-width: 0.8; stroke-linecap: square"/>
   </g>
   <g id="line2d_3">
    <path d="M 5.727273 42.136364 
L 6.515354 42.043658 
L 7.56613 41.661814 
L 8.616905 41.039043 
L 9.930374 40.011852 
L 12.294618 37.8157 
L 14.396169 35.949505 
L 15.709638 35.044398 
L 16.760413 34.559248 
L 17.811189 34.341602 
L 18.861964 34.379958 
L 19.912739 34.63678 
L 21.226209 35.207704 
L 22.802372 36.162321 
L 25.42931 38.077464 
L 27.793554 39.728598 
L 29.369717 40.582765 
L 30.94588 41.206643 
L 32.784737 41.691381 
L 34.886288 41.995322 
L 37.513226 42.126161 
L 45.919428 42.136364 
L 84.272727 42.136364 
L 84.272727 42.136364 
" clip-path="url(#p374bc9105e)" style="fill: none; stroke: #2ca02c; stroke-width: 0.8; stroke-linecap: square"/>
   </g>
   <g id="line2d_4">
    <path d="M 5.727273 42.136364 
L 10.193068 42.033205 
L 12.557312 41.767318 
L 14.658863 41.311092 
L 16.49772 40.689219 
L 18.336576 39.82665 
L 21.488902 38.034772 
L 24.115841 36.640527 
L 25.692004 36.016495 
L 27.005473 35.690977 
L 28.318942 35.592654 
L 29.632411 35.747054 
L 30.94588 36.117875 
L 32.522043 36.782015 
L 34.886288 38.056424 
L 39.089389 40.365233 
L 40.928246 41.085067 
L 42.767102 41.577501 
L 44.868653 41.917113 
L 47.495591 42.101361 
L 51.961386 42.136364 
L 84.272727 42.136364 
L 84.272727 42.136364 
" clip-path="url(#p374bc9105e)" style="fill: none; stroke: #d62728; stroke-width: 0.8; stroke-linecap: square"/>
   </g>
   <g id="line2d_5">
    <path d="M 5.727273 42.136364 
L 21.488902 42.027915 
L 23.853147 41.755017 
L 25.954697 41.290111 
L 27.793554 40.658754 
L 29.632411 39.787058 
L 33.047431 37.841094 
L 35.411675 36.606139 
L 36.987838 35.992597 
L 38.301307 35.67879 
L 39.614777 35.594823 
L 40.928246 35.762862 
L 42.241715 36.144623 
L 43.817878 36.818328 
L 46.182122 38.099794 
L 50.12253 40.277685 
L 51.961386 41.022753 
L 53.800243 41.536424 
L 55.901794 41.894908 
L 58.528732 42.094647 
L 62.731833 42.136364 
L 84.272727 42.136364 
L 84.272727 42.136364 
" clip-path="url(#p374bc9105e)" style="fill: none; stroke: #9467bd; stroke-width: 0.8; stroke-linecap: square"/>
   </g>
   <g id="line2d_6">
    <path d="M 5.727273 42.136364 
L 32.522043 42.040812 
L 34.886288 41.785268 
L 36.987838 41.341908 
L 38.826695 40.734127 
L 40.665552 39.885517 
L 43.555184 38.252168 
L 46.444816 36.69286 
L 48.283673 35.969296 
L 49.597142 35.667354 
L 50.910611 35.597844 
L 52.22408 35.779368 
L 53.800243 36.271589 
L 55.6391 37.120992 
L 58.791426 38.90744 
L 61.418364 40.312998 
L 63.257221 41.047966 
L 65.096078 41.553088 
L 67.197628 41.903962 
L 69.824567 42.097427 
L 74.290362 42.136364 
L 84.272727 42.136364 
L 84.272727 42.136364 
" clip-path="url(#p374bc9105e)" style="fill: none; stroke: #8c564b; stroke-width: 0.8; stroke-linecap: square"/>
   </g>
   <g id="line2d_7">
    <path d="M 5.727273 42.136364 
L 43.817878 42.035783 
L 46.182122 41.773368 
L 48.283673 41.321451 
L 50.12253 40.704293 
L 51.961386 39.846343 
L 55.113712 38.056424 
L 57.740651 36.657872 
L 59.316814 36.028665 
L 60.630283 35.697349 
L 61.943752 35.591893 
L 63.257221 35.739415 
L 64.57069 36.104707 
L 66.146853 36.763996 
L 68.511098 38.034772 
L 72.714199 40.347921 
L 74.553056 41.072795 
L 76.391912 41.569441 
L 78.493463 41.912786 
L 81.120401 42.100081 
L 84.272727 42.136364 
L 84.272727 42.136364 
" clip-path="url(#p374bc9105e)" style="fill: none; stroke: #e377c2; stroke-width: 0.8; stroke-linecap: square"/>
   </g>
   <g id="line2d_8">
    <path d="M 5.727273 42.136364 
L 54.588325 42.039151 
L 56.689875 41.789347 
L 58.528732 41.369616 
L 60.367589 40.701783 
L 61.943752 39.888221 
L 63.782609 38.658402 
L 68.248404 35.498729 
L 69.561873 34.835358 
L 70.875342 34.425152 
L 71.926117 34.328652 
L 72.976893 34.478839 
L 74.027668 34.900427 
L 75.341137 35.746863 
L 76.9173 37.078682 
L 81.120401 40.852634 
L 82.43387 41.661814 
L 83.484646 42.043658 
L 84.272727 42.136364 
L 84.272727 42.136364 
" clip-path="url(#p374bc9105e)" style="fill: none; stroke: #7f7f7f; stroke-width: 0.8; stroke-linecap: square"/>
   </g>
   <g id="line2d_9">
    <path d="M 5.727273 42.136364 
L 64.833384 42.042336 
L 66.409547 41.802886 
L 67.98571 41.3263 
L 69.299179 40.689103 
L 70.612648 39.783292 
L 71.926117 38.561625 
L 73.239587 36.97704 
L 75.341137 33.901535 
L 76.654606 32.11797 
L 77.705382 31.037752 
L 78.493463 30.540907 
L 79.018851 30.398562 
L 79.544238 30.432017 
L 80.069626 30.662437 
L 80.595014 31.110988 
L 81.120401 31.798834 
L 81.908483 33.325581 
L 82.696564 35.509796 
L 83.484646 38.422913 
L 84.272727 42.136364 
L 84.272727 42.136364 
" clip-path="url(#p374bc9105e)" style="fill: none; stroke: #bcbd22; stroke-width: 0.8; stroke-linecap: square"/>
   </g>
   <g id="line2d_10">
    <path d="M 5.727273 42.136364 
L 74.553056 42.042336 
L 75.341137 41.802886 
L 76.129219 41.3263 
L 76.9173 40.530942 
L 77.705382 39.335174 
L 78.493463 37.657359 
L 79.281545 35.415861 
L 80.069626 32.529042 
L 80.857708 28.915266 
L 81.908483 22.824975 
L 82.959258 15.103673 
L 84.010033 5.55785 
L 84.272727 2.863636 
L 84.272727 2.863636 
" clip-path="url(#p374bc9105e)" style="fill: none; stroke: #17becf; stroke-width: 0.8; stroke-linecap: square"/>
   </g>
  </g>
 </g>
 <defs>
  <clipPath id="p374bc9105e">
   <rect x="1.8" y="0.9" width="86.4" height="43.2"/>
  </clipPath>
 </defs>
</svg>
