<?xml version="1.0" encoding="utf-8" standalone="no"?>
<!DOCTYPE svg PUBLIC "-//W3C//DTD SVG 1.1//EN"
  "http://www.w3.org/Graphics/SVG/1.1/DTD/svg11.dtd">
<svg xmlns:xlink="http://www.w3.org/1999/xlink" width="90pt" height="45pt" viewBox="0 0 90 45" xmlns="http://www.w3.org/2000/svg" version="1.1">
 <metadata>
  <rdf:RDF xmlns:dc="http://purl.org/dc/elements/1.1/" xmlns:cc="http://creativecommons.org/ns#" xmlns:rdf="http://www.w3.org/1999/02/22-rdf-syntax-ns#">
   <cc:Work>
    <dc:type rdf:resource="http://purl.org/dc/dcmitype/StillImage"/>
    <dc:date>2024-12-02T16:54:50.989322</dc:date>
    <dc:format>image/svg+xml</dc:format>
    <dc:creator>
     <cc:Agent>
      <dc:title>Matplotlib v3.9.2, https://matplotlib.org/</dc:title>
     </cc:Agent>
    </dc:creator>
   </cc:Work>
  </rdf:RDF>
 </metadata>
 <defs>
  <style type="text/css">*{stroke-linejoin: round; stroke-linecap: butt}</style>
 </defs>
 <g id="figure_1">
  <g id="patch_1">
   <path d="M 0 45 
L 90 45 
L 90 0 
L 0 0 
z
" style="fill: #ffffff"/>
  </g>
  <g id="axes_1">
   <g id="patch_2">
    <path d="M 1.8 44.1 
L 88.2 44.1 
L 88.2 0.9 
L 1.8 0.9 
z
" style="fill: #ffffff"/>
   </g>
   <g id="matplotlib.axis_1"/>
   <g id="matplotlib.axis_2"/>
   <g id="line2d_1">
    <path d="M 5.727273 32.318182 
L 6.778048 35.754951 
L 7.828823 38.278474 
L 8.616905 39.656642 
L 9.404986 40.659947 
L 10.193068 41.347891 
L 10.981149 41.779976 
L 12.031925 42.060929 
L 13.345394 42.136096 
L 61.943752 42.09823 
L 62.994527 41.894497 
L 63.782609 41.548096 
L 64.57069 40.969636 
L 65.358772 40.099616 
L 66.146853 38.878533 
L 66.934935 37.246885 
L 67.723016 35.145171 
L 68.511098 32.513887 
L 69.561873 28.15951 
L 71.40073 19.224262 
L 73.239587 10.558978 
L 74.290362 6.601292 
L 75.078443 4.431349 
L 75.603831 3.464043 
L 76.129219 2.9419 
L 76.391912 2.864294 
L 76.654606 2.916206 
L 77.179994 3.390923 
L 77.705382 4.316093 
L 78.493463 6.432749 
L 79.281545 9.265414 
L 80.595014 15.092822 
L 84.010033 31.301235 
L 84.272727 32.318182 
L 84.272727 32.318182 
" clip-path="url(#p11fbba2f81)" style="fill: none; stroke: #1f77b4; stroke-width: 0.8; stroke-linecap: square"/>
   </g>
   <g id="line2d_2">
    <path d="M 5.727273 2.863636 
L 5.989967 2.928428 
L 6.515354 3.426923 
L 7.040742 4.373227 
L 7.828823 6.516626 
L 8.616905 9.370084 
L 9.930374 15.218923 
L 13.345394 31.405707 
L 14.396169 35.066323 
L 15.446944 37.783029 
L 16.235026 39.28526 
L 17.023107 40.394776 
L 17.811189 41.17108 
L 18.59927 41.673675 
L 19.650046 42.020874 
L 20.963515 42.134222 
L 35.937063 42.136364 
L 70.087261 42.0647 
L 71.138036 41.790667 
L 71.926117 41.366086 
L 72.714199 40.687629 
L 73.50228 39.695795 
L 74.290362 38.33108 
L 75.078443 36.533984 
L 75.866525 34.245003 
L 76.9173 30.335109 
L 78.230769 24.314375 
L 81.383095 9.370084 
L 82.43387 5.71445 
L 83.221952 3.847405 
L 83.74734 3.118394 
L 84.272727 2.863636 
L 84.272727 2.863636 
" clip-path="url(#p11fbba2f81)" style="fill: none; stroke: #ff7f0e; stroke-width: 0.8; stroke-linecap: square"/>
   </g>
   <g id="line2d_3">
    <path d="M 5.727273 32.318182 
L 6.778048 27.921151 
L 8.616905 18.962146 
L 10.455762 10.337896 
L 11.506537 6.432749 
L 12.294618 4.316093 
L 12.820006 3.390923 
L 13.345394 2.916206 
L 13.608088 2.864294 
L 13.870781 2.9419 
L 14.396169 3.464043 
L 14.921557 4.431349 
L 15.709638 6.601292 
L 16.49772 9.475345 
L 17.811189 15.345285 
L 21.226209 31.509579 
L 22.276984 35.145171 
L 23.327759 37.840059 
L 24.115841 39.32824 
L 24.903922 40.425691 
L 25.692004 41.191913 
L 26.480085 41.686409 
L 27.53086 42.025894 
L 28.84433 42.134559 
L 46.444816 42.136364 
L 77.968075 42.060929 
L 79.018851 41.779976 
L 79.806932 41.347891 
L 80.595014 40.659947 
L 81.383095 39.656642 
L 82.171177 38.278474 
L 82.959258 36.465939 
L 83.74734 34.159538 
L 84.272727 32.318182 
L 84.272727 32.318182 
" clip-path="url(#p11fbba2f81)" style="fill: none; stroke: #2ca02c; stroke-width: 0.8; stroke-linecap: square"/>
   </g>
   <g id="line2d_4">
    <path d="M 5.727273 42.136364 
L 7.303436 42.057027 
L 8.354211 41.769067 
L 9.142292 41.329412 
L 9.930374 40.631915 
L 10.718455 39.617073 
L 11.506537 38.225384 
L 12.294618 36.397346 
L 13.0827 34.073458 
L 14.133475 30.114378 
L 15.446944 24.057502 
L 18.336576 10.228149 
L 19.387352 6.349668 
L 20.175433 4.259953 
L 20.700821 3.35605 
L 21.226209 2.905244 
L 21.488902 2.866263 
L 21.751596 2.956618 
L 22.276984 3.502275 
L 22.802372 4.490451 
L 23.590453 6.686741 
L 24.378535 9.581189 
L 25.692004 15.4719 
L 29.107023 31.612845 
L 30.157799 35.22343 
L 31.208574 37.896589 
L 31.996656 39.370787 
L 32.784737 40.456238 
L 33.572818 41.212444 
L 34.3609 41.698907 
L 35.411675 42.030767 
L 36.725144 42.134859 
L 57.477957 42.136364 
L 84.272727 42.136364 
L 84.272727 42.136364 
" clip-path="url(#p11fbba2f81)" style="fill: none; stroke: #d62728; stroke-width: 0.8; stroke-linecap: square"/>
   </g>
   <g id="line2d_5">
    <path d="M 5.727273 42.136364 
L 15.184251 42.052994 
L 16.235026 41.757937 
L 17.023107 41.310646 
L 17.811189 40.60353 
L 18.59927 39.577085 
L 19.387352 38.17181 
L 20.175433 36.328202 
L 20.963515 33.98676 
L 22.01429 30.003229 
L 23.327759 23.928778 
L 26.217391 10.118939 
L 27.268167 6.267389 
L 28.056248 4.204813 
L 28.581636 3.322309 
L 29.107023 2.895546 
L 29.369717 2.869537 
L 29.632411 2.972575 
L 30.157799 3.541614 
L 30.683186 4.550527 
L 31.471268 6.772965 
L 32.522043 10.78213 
L 33.835512 16.879501 
L 36.725144 30.662189 
L 37.77592 34.497732 
L 38.826695 37.369628 
L 39.614777 38.972053 
L 40.402858 40.167881 
L 41.190939 41.016612 
L 41.979021 41.577751 
L 42.767102 41.910797 
L 43.817878 42.102894 
L 45.919428 42.136364 
L 84.272727 42.136364 
L 84.272727 42.136364 
" clip-path="url(#p11fbba2f81)" style="fill: none; stroke: #9467bd; stroke-width: 0.8; stroke-linecap: square"/>
   </g>
   <g id="line2d_6">
    <path d="M 5.727273 42.136364 
L 23.065065 42.048826 
L 24.115841 41.746585 
L 24.903922 41.291592 
L 25.692004 40.57479 
L 26.480085 39.536676 
L 27.268167 38.117748 
L 28.056248 36.258505 
L 28.84433 33.899444 
L 29.895105 29.891567 
L 31.208574 23.799871 
L 34.098206 10.010274 
L 35.148981 6.185918 
L 35.937063 4.150681 
L 36.462451 3.289707 
L 36.987838 2.88712 
L 37.250532 2.874109 
L 37.513226 2.989763 
L 38.038614 3.582052 
L 38.564001 4.611571 
L 39.352083 6.859958 
L 40.402858 10.894467 
L 41.716327 17.008642 
L 44.605959 30.770118 
L 45.656735 34.58076 
L 46.70751 37.430221 
L 47.495591 39.018135 
L 48.283673 40.201434 
L 49.071754 41.03962 
L 49.859836 41.592197 
L 50.647917 41.918665 
L 51.698693 42.105076 
L 53.800243 42.136364 
L 84.272727 42.136364 
L 84.272727 42.136364 
" clip-path="url(#p11fbba2f81)" style="fill: none; stroke: #8c564b; stroke-width: 0.8; stroke-linecap: square"/>
   </g>
   <g id="line2d_7">
    <path d="M 5.727273 42.136364 
L 30.94588 42.044522 
L 31.996656 41.735008 
L 32.784737 41.272247 
L 33.572818 40.545693 
L 34.3609 39.495844 
L 35.148981 38.063198 
L 35.937063 36.188253 
L 36.725144 33.811506 
L 37.77592 29.779398 
L 39.089389 23.670788 
L 41.979021 9.90216 
L 43.029796 6.105263 
L 43.817878 4.097562 
L 44.343265 3.258251 
L 44.868653 2.879972 
L 45.131347 2.879972 
L 45.656735 3.258251 
L 46.182122 4.097562 
L 46.70751 5.345013 
L 47.495591 7.865755 
L 48.546367 12.161588 
L 50.12253 19.749102 
L 52.22408 29.779398 
L 53.274856 33.811506 
L 54.325631 36.866052 
L 55.113712 38.586952 
L 55.901794 39.885388 
L 56.689875 40.820861 
L 57.477957 41.452873 
L 58.266038 41.840926 
L 59.316814 42.081682 
L 60.892977 42.136364 
L 84.272727 42.136364 
L 84.272727 42.136364 
" clip-path="url(#p11fbba2f81)" style="fill: none; stroke: #e377c2; stroke-width: 0.8; stroke-linecap: square"/>
   </g>
   <g id="line2d_8">
    <path d="M 5.727273 42.136364 
L 38.826695 42.040079 
L 39.87747 41.723204 
L 40.665552 41.252609 
L 41.453633 40.516237 
L 42.241715 39.454586 
L 43.029796 38.008156 
L 43.817878 36.117442 
L 44.605959 33.722944 
L 45.656735 29.666728 
L 46.970204 23.541535 
L 49.859836 9.794603 
L 50.910611 6.02543 
L 51.698693 4.045463 
L 52.22408 3.227948 
L 52.749468 2.874109 
L 53.012162 2.88712 
L 53.537549 3.289707 
L 54.062937 4.150681 
L 54.588325 5.41715 
L 55.376406 7.961462 
L 56.427182 12.279465 
L 58.266038 21.193501 
L 60.104895 29.891567 
L 61.15567 33.899444 
L 62.206446 36.93085 
L 62.994527 38.63671 
L 63.782609 39.922088 
L 64.57069 40.846487 
L 65.358772 41.469408 
L 66.146853 41.850354 
L 67.197628 42.084719 
L 68.773791 42.136364 
L 84.272727 42.136364 
L 84.272727 42.136364 
" clip-path="url(#p11fbba2f81)" style="fill: none; stroke: #7f7f7f; stroke-width: 0.8; stroke-linecap: square"/>
   </g>
   <g id="line2d_9">
    <path d="M 5.727273 42.136364 
L 46.70751 42.035495 
L 47.758285 41.711171 
L 48.546367 41.232675 
L 49.334448 40.486419 
L 50.12253 39.412902 
L 50.910611 37.95262 
L 51.698693 36.046073 
L 52.486774 33.633757 
L 53.537549 29.553565 
L 55.113712 22.110444 
L 57.477957 10.78213 
L 58.528732 6.772965 
L 59.316814 4.550527 
L 59.842201 3.541614 
L 60.367589 2.972575 
L 60.630283 2.869537 
L 60.892977 2.895546 
L 61.418364 3.322309 
L 61.943752 4.204813 
L 62.46914 5.49017 
L 63.257221 8.057852 
L 64.307996 12.397761 
L 66.146853 21.324678 
L 67.98571 30.003229 
L 69.036485 33.98676 
L 70.087261 36.995115 
L 70.875342 38.686 
L 71.663424 39.958387 
L 72.451505 40.871778 
L 73.239587 41.485674 
L 74.027668 41.859579 
L 75.078443 42.087641 
L 76.654606 42.136364 
L 84.272727 42.136364 
L 84.272727 42.136364 
" clip-path="url(#p11fbba2f81)" style="fill: none; stroke: #bcbd22; stroke-width: 0.8; stroke-linecap: square"/>
   </g>
   <g id="line2d_10">
    <path d="M 5.727273 42.136364 
L 54.588325 42.030767 
L 55.6391 41.698907 
L 56.427182 41.212444 
L 57.215263 40.456238 
L 58.003344 39.370787 
L 58.791426 37.896589 
L 59.579507 35.974141 
L 60.367589 33.543942 
L 61.418364 29.439915 
L 62.994527 21.97967 
L 65.358772 10.670298 
L 66.409547 6.686741 
L 67.197628 4.490451 
L 67.723016 3.502275 
L 68.248404 2.956618 
L 68.511098 2.866263 
L 68.773791 2.905244 
L 69.299179 3.35605 
L 69.824567 4.259953 
L 70.612648 6.349668 
L 71.40073 9.161342 
L 72.451505 13.724759 
L 76.654606 33.178355 
L 77.705382 36.397346 
L 78.493463 38.225384 
L 79.281545 39.617073 
L 80.069626 40.631915 
L 80.857708 41.329412 
L 81.645789 41.769067 
L 82.696564 42.057027 
L 84.010033 42.135996 
L 84.272727 42.136364 
L 84.272727 42.136364 
" clip-path="url(#p11fbba2f81)" style="fill: none; stroke: #17becf; stroke-width: 0.8; stroke-linecap: square"/>
   </g>
  </g>
 </g>
 <defs>
  <clipPath id="p11fbba2f81">
   <rect x="1.8" y="0.9" width="86.4" height="43.2"/>
  </clipPath>
 </defs>
</svg>
