<?xml version="1.0" encoding="utf-8" standalone="no"?>
<!DOCTYPE svg PUBLIC "-//W3C//DTD SVG 1.1//EN"
  "http://www.w3.org/Graphics/SVG/1.1/DTD/svg11.dtd">
<svg xmlns:xlink="http://www.w3.org/1999/xlink" width="460.8pt" height="345.6pt" viewBox="0 0 460.8 345.6" xmlns="http://www.w3.org/2000/svg" version="1.1">
 <metadata>
  <rdf:RDF xmlns:dc="http://purl.org/dc/elements/1.1/" xmlns:cc="http://creativecommons.org/ns#" xmlns:rdf="http://www.w3.org/1999/02/22-rdf-syntax-ns#">
   <cc:Work>
    <dc:type rdf:resource="http://purl.org/dc/dcmitype/StillImage"/>
    <dc:date>2024-11-21T17:18:21.319844</dc:date>
    <dc:format>image/svg+xml</dc:format>
    <dc:creator>
     <cc:Agent>
      <dc:title>Matplotlib v3.9.2, https://matplotlib.org/</dc:title>
     </cc:Agent>
    </dc:creator>
   </cc:Work>
  </rdf:RDF>
 </metadata>
 <defs>
  <style type="text/css">*{stroke-linejoin: round; stroke-linecap: butt}</style>
 </defs>
 <g id="figure_1">
  <g id="patch_1">
   <path d="M 0 345.6 
L 460.8 345.6 
L 460.8 0 
L 0 0 
z
" style="fill: #ffffff"/>
  </g>
  <g id="axes_1">
   <g id="patch_2">
    <path d="M 57.6 307.584 
L 414.72 307.584 
L 414.72 41.472 
L 57.6 41.472 
z
" style="fill: #ffffff"/>
   </g>
   <g id="matplotlib.axis_1">
    <g id="xtick_1">
     <g id="line2d_1">
      <defs>
       <path id="m75ea223b45" d="M 0 0 
L 0 3.5 
" style="stroke: #000000; stroke-width: 0.8"/>
      </defs>
      <g>
       <use xlink:href="#m75ea223b45" x="73.832727" y="307.584" style="stroke: #000000; stroke-width: 0.8"/>
      </g>
     </g>
     <g id="text_1">
      <!-- 0 -->
      <g transform="translate(70.651477 322.182437) scale(0.1 -0.1)">
       <defs>
        <path id="DejaVuSans-30" d="M 2034 4250 
Q 1547 4250 1301 3770 
Q 1056 3291 1056 2328 
Q 1056 1369 1301 889 
Q 1547 409 2034 409 
Q 2525 409 2770 889 
Q 3016 1369 3016 2328 
Q 3016 3291 2770 3770 
Q 2525 4250 2034 4250 
z
M 2034 4750 
Q 2819 4750 3233 4129 
Q 3647 3509 3647 2328 
Q 3647 1150 3233 529 
Q 2819 -91 2034 -91 
Q 1250 -91 836 529 
Q 422 1150 422 2328 
Q 422 3509 836 4129 
Q 1250 4750 2034 4750 
z
" transform="scale(0.015625)"/>
       </defs>
       <use xlink:href="#DejaVuSans-30"/>
      </g>
     </g>
    </g>
    <g id="xtick_2">
     <g id="line2d_2">
      <g>
       <use xlink:href="#m75ea223b45" x="138.763636" y="307.584" style="stroke: #000000; stroke-width: 0.8"/>
      </g>
     </g>
     <g id="text_2">
      <!-- 200 -->
      <g transform="translate(129.219886 322.182437) scale(0.1 -0.1)">
       <defs>
        <path id="DejaVuSans-32" d="M 1228 531 
L 3431 531 
L 3431 0 
L 469 0 
L 469 531 
Q 828 903 1448 1529 
Q 2069 2156 2228 2338 
Q 2531 2678 2651 2914 
Q 2772 3150 2772 3378 
Q 2772 3750 2511 3984 
Q 2250 4219 1831 4219 
Q 1534 4219 1204 4116 
Q 875 4013 500 3803 
L 500 4441 
Q 881 4594 1212 4672 
Q 1544 4750 1819 4750 
Q 2544 4750 2975 4387 
Q 3406 4025 3406 3419 
Q 3406 3131 3298 2873 
Q 3191 2616 2906 2266 
Q 2828 2175 2409 1742 
Q 1991 1309 1228 531 
z
" transform="scale(0.015625)"/>
       </defs>
       <use xlink:href="#DejaVuSans-32"/>
       <use xlink:href="#DejaVuSans-30" x="63.623047"/>
       <use xlink:href="#DejaVuSans-30" x="127.246094"/>
      </g>
     </g>
    </g>
    <g id="xtick_3">
     <g id="line2d_3">
      <g>
       <use xlink:href="#m75ea223b45" x="203.694545" y="307.584" style="stroke: #000000; stroke-width: 0.8"/>
      </g>
     </g>
     <g id="text_3">
      <!-- 400 -->
      <g transform="translate(194.150795 322.182437) scale(0.1 -0.1)">
       <defs>
        <path id="DejaVuSans-34" d="M 2419 4116 
L 825 1625 
L 2419 1625 
L 2419 4116 
z
M 2253 4666 
L 3047 4666 
L 3047 1625 
L 3713 1625 
L 3713 1100 
L 3047 1100 
L 3047 0 
L 2419 0 
L 2419 1100 
L 313 1100 
L 313 1709 
L 2253 4666 
z
" transform="scale(0.015625)"/>
       </defs>
       <use xlink:href="#DejaVuSans-34"/>
       <use xlink:href="#DejaVuSans-30" x="63.623047"/>
       <use xlink:href="#DejaVuSans-30" x="127.246094"/>
      </g>
     </g>
    </g>
    <g id="xtick_4">
     <g id="line2d_4">
      <g>
       <use xlink:href="#m75ea223b45" x="268.625455" y="307.584" style="stroke: #000000; stroke-width: 0.8"/>
      </g>
     </g>
     <g id="text_4">
      <!-- 600 -->
      <g transform="translate(259.081705 322.182437) scale(0.1 -0.1)">
       <defs>
        <path id="DejaVuSans-36" d="M 2113 2584 
Q 1688 2584 1439 2293 
Q 1191 2003 1191 1497 
Q 1191 994 1439 701 
Q 1688 409 2113 409 
Q 2538 409 2786 701 
Q 3034 994 3034 1497 
Q 3034 2003 2786 2293 
Q 2538 2584 2113 2584 
z
M 3366 4563 
L 3366 3988 
Q 3128 4100 2886 4159 
Q 2644 4219 2406 4219 
Q 1781 4219 1451 3797 
Q 1122 3375 1075 2522 
Q 1259 2794 1537 2939 
Q 1816 3084 2150 3084 
Q 2853 3084 3261 2657 
Q 3669 2231 3669 1497 
Q 3669 778 3244 343 
Q 2819 -91 2113 -91 
Q 1303 -91 875 529 
Q 447 1150 447 2328 
Q 447 3434 972 4092 
Q 1497 4750 2381 4750 
Q 2619 4750 2861 4703 
Q 3103 4656 3366 4563 
z
" transform="scale(0.015625)"/>
       </defs>
       <use xlink:href="#DejaVuSans-36"/>
       <use xlink:href="#DejaVuSans-30" x="63.623047"/>
       <use xlink:href="#DejaVuSans-30" x="127.246094"/>
      </g>
     </g>
    </g>
    <g id="xtick_5">
     <g id="line2d_5">
      <g>
       <use xlink:href="#m75ea223b45" x="333.556364" y="307.584" style="stroke: #000000; stroke-width: 0.8"/>
      </g>
     </g>
     <g id="text_5">
      <!-- 800 -->
      <g transform="translate(324.012614 322.182437) scale(0.1 -0.1)">
       <defs>
        <path id="DejaVuSans-38" d="M 2034 2216 
Q 1584 2216 1326 1975 
Q 1069 1734 1069 1313 
Q 1069 891 1326 650 
Q 1584 409 2034 409 
Q 2484 409 2743 651 
Q 3003 894 3003 1313 
Q 3003 1734 2745 1975 
Q 2488 2216 2034 2216 
z
M 1403 2484 
Q 997 2584 770 2862 
Q 544 3141 544 3541 
Q 544 4100 942 4425 
Q 1341 4750 2034 4750 
Q 2731 4750 3128 4425 
Q 3525 4100 3525 3541 
Q 3525 3141 3298 2862 
Q 3072 2584 2669 2484 
Q 3125 2378 3379 2068 
Q 3634 1759 3634 1313 
Q 3634 634 3220 271 
Q 2806 -91 2034 -91 
Q 1263 -91 848 271 
Q 434 634 434 1313 
Q 434 1759 690 2068 
Q 947 2378 1403 2484 
z
M 1172 3481 
Q 1172 3119 1398 2916 
Q 1625 2713 2034 2713 
Q 2441 2713 2670 2916 
Q 2900 3119 2900 3481 
Q 2900 3844 2670 4047 
Q 2441 4250 2034 4250 
Q 1625 4250 1398 4047 
Q 1172 3844 1172 3481 
z
" transform="scale(0.015625)"/>
       </defs>
       <use xlink:href="#DejaVuSans-38"/>
       <use xlink:href="#DejaVuSans-30" x="63.623047"/>
       <use xlink:href="#DejaVuSans-30" x="127.246094"/>
      </g>
     </g>
    </g>
    <g id="xtick_6">
     <g id="line2d_6">
      <g>
       <use xlink:href="#m75ea223b45" x="398.487273" y="307.584" style="stroke: #000000; stroke-width: 0.8"/>
      </g>
     </g>
     <g id="text_6">
      <!-- 1000 -->
      <g transform="translate(385.762273 322.182437) scale(0.1 -0.1)">
       <defs>
        <path id="DejaVuSans-31" d="M 794 531 
L 1825 531 
L 1825 4091 
L 703 3866 
L 703 4441 
L 1819 4666 
L 2450 4666 
L 2450 531 
L 3481 531 
L 3481 0 
L 794 0 
L 794 531 
z
" transform="scale(0.015625)"/>
       </defs>
       <use xlink:href="#DejaVuSans-31"/>
       <use xlink:href="#DejaVuSans-30" x="63.623047"/>
       <use xlink:href="#DejaVuSans-30" x="127.246094"/>
       <use xlink:href="#DejaVuSans-30" x="190.869141"/>
      </g>
     </g>
    </g>
   </g>
   <g id="matplotlib.axis_2">
    <g id="ytick_1">
     <g id="line2d_7">
      <defs>
       <path id="mc733a6e92c" d="M 0 0 
L -3.5 0 
" style="stroke: #000000; stroke-width: 0.8"/>
      </defs>
      <g>
       <use xlink:href="#mc733a6e92c" x="57.6" y="295.488" style="stroke: #000000; stroke-width: 0.8"/>
      </g>
     </g>
     <g id="text_7">
      <!-- 0.0 -->
      <g transform="translate(34.696875 299.287219) scale(0.1 -0.1)">
       <defs>
        <path id="DejaVuSans-2e" d="M 684 794 
L 1344 794 
L 1344 0 
L 684 0 
L 684 794 
z
" transform="scale(0.015625)"/>
       </defs>
       <use xlink:href="#DejaVuSans-30"/>
       <use xlink:href="#DejaVuSans-2e" x="63.623047"/>
       <use xlink:href="#DejaVuSans-30" x="95.410156"/>
      </g>
     </g>
    </g>
    <g id="ytick_2">
     <g id="line2d_8">
      <g>
       <use xlink:href="#mc733a6e92c" x="57.6" y="247.104" style="stroke: #000000; stroke-width: 0.8"/>
      </g>
     </g>
     <g id="text_8">
      <!-- 0.2 -->
      <g transform="translate(34.696875 250.903219) scale(0.1 -0.1)">
       <use xlink:href="#DejaVuSans-30"/>
       <use xlink:href="#DejaVuSans-2e" x="63.623047"/>
       <use xlink:href="#DejaVuSans-32" x="95.410156"/>
      </g>
     </g>
    </g>
    <g id="ytick_3">
     <g id="line2d_9">
      <g>
       <use xlink:href="#mc733a6e92c" x="57.6" y="198.72" style="stroke: #000000; stroke-width: 0.8"/>
      </g>
     </g>
     <g id="text_9">
      <!-- 0.4 -->
      <g transform="translate(34.696875 202.519219) scale(0.1 -0.1)">
       <use xlink:href="#DejaVuSans-30"/>
       <use xlink:href="#DejaVuSans-2e" x="63.623047"/>
       <use xlink:href="#DejaVuSans-34" x="95.410156"/>
      </g>
     </g>
    </g>
    <g id="ytick_4">
     <g id="line2d_10">
      <g>
       <use xlink:href="#mc733a6e92c" x="57.6" y="150.336" style="stroke: #000000; stroke-width: 0.8"/>
      </g>
     </g>
     <g id="text_10">
      <!-- 0.6 -->
      <g transform="translate(34.696875 154.135219) scale(0.1 -0.1)">
       <use xlink:href="#DejaVuSans-30"/>
       <use xlink:href="#DejaVuSans-2e" x="63.623047"/>
       <use xlink:href="#DejaVuSans-36" x="95.410156"/>
      </g>
     </g>
    </g>
    <g id="ytick_5">
     <g id="line2d_11">
      <g>
       <use xlink:href="#mc733a6e92c" x="57.6" y="101.952" style="stroke: #000000; stroke-width: 0.8"/>
      </g>
     </g>
     <g id="text_11">
      <!-- 0.8 -->
      <g transform="translate(34.696875 105.751219) scale(0.1 -0.1)">
       <use xlink:href="#DejaVuSans-30"/>
       <use xlink:href="#DejaVuSans-2e" x="63.623047"/>
       <use xlink:href="#DejaVuSans-38" x="95.410156"/>
      </g>
     </g>
    </g>
    <g id="ytick_6">
     <g id="line2d_12">
      <g>
       <use xlink:href="#mc733a6e92c" x="57.6" y="53.568" style="stroke: #000000; stroke-width: 0.8"/>
      </g>
     </g>
     <g id="text_12">
      <!-- 1.0 -->
      <g transform="translate(34.696875 57.367219) scale(0.1 -0.1)">
       <use xlink:href="#DejaVuSans-31"/>
       <use xlink:href="#DejaVuSans-2e" x="63.623047"/>
       <use xlink:href="#DejaVuSans-30" x="95.410156"/>
      </g>
     </g>
    </g>
   </g>
   <g id="line2d_13">
    <path d="M 73.832727 53.568 
L 76.105309 87.416152 
L 78.377891 117.949974 
L 80.650473 145.340237 
L 82.923055 169.757709 
L 84.870982 188.45032 
L 86.818909 205.191844 
L 88.766836 220.089821 
L 90.714764 233.251792 
L 92.662691 244.785297 
L 94.610618 254.797877 
L 96.233891 262.057459 
L 97.857164 268.397758 
L 99.480436 273.881006 
L 101.103709 278.569439 
L 102.726982 282.525289 
L 104.350255 285.810792 
L 105.648873 287.998364 
L 106.947491 289.828607 
L 108.246109 291.333384 
L 109.544727 292.544559 
L 110.843345 293.493997 
L 112.141964 294.21356 
L 113.765236 294.838295 
L 115.388509 295.215873 
L 117.336436 295.430344 
L 120.258327 295.488 
L 398.487273 295.488 
L 398.487273 295.488 
" clip-path="url(#paa183a60a3)" style="fill: none; stroke: #1f77b4; stroke-width: 1.5; stroke-linecap: square"/>
   </g>
   <g id="line2d_14">
    <path d="M 73.832727 295.488 
L 75.780655 266.895075 
L 77.728582 241.954677 
L 79.351855 223.825362 
L 80.975127 207.992924 
L 82.5984 194.348452 
L 84.221673 182.783038 
L 85.520291 174.954441 
L 86.818909 168.330977 
L 88.117527 162.856885 
L 89.416145 158.476403 
L 90.390109 155.875179 
L 91.364073 153.83422 
L 92.338036 152.330002 
L 93.312 151.339 
L 93.961309 150.951836 
L 94.610618 150.775342 
L 95.259927 150.802549 
L 95.909236 151.026486 
L 96.558545 151.440183 
L 97.532509 152.401282 
L 98.506473 153.750134 
L 99.480436 155.463214 
L 100.779055 158.273239 
L 102.077673 161.633198 
L 103.700945 166.521543 
L 105.648873 173.253445 
L 107.921455 182.063347 
L 110.843345 194.443148 
L 119.933673 233.91292 
L 122.206255 242.479246 
L 124.478836 250.211867 
L 126.751418 257.15337 
L 129.024 263.346448 
L 131.296582 268.833794 
L 133.244509 273.007889 
L 135.192436 276.721737 
L 137.140364 280.002225 
L 139.088291 282.876235 
L 141.036218 285.370655 
L 142.984145 287.512368 
L 144.932073 289.328259 
L 146.88 290.845215 
L 148.827927 292.090119 
L 150.775855 293.089858 
L 153.048436 293.982224 
L 155.321018 294.620178 
L 157.918255 295.092509 
L 160.840145 295.372687 
L 164.736 295.484129 
L 186.487855 295.488 
L 398.487273 295.488 
L 398.487273 295.488 
" clip-path="url(#paa183a60a3)" style="fill: none; stroke: #ff7f0e; stroke-width: 1.5; stroke-linecap: square"/>
   </g>
   <g id="line2d_15">
    <path d="M 73.832727 295.488 
L 74.806691 295.330024 
L 75.780655 294.864309 
L 76.754618 294.10318 
L 77.728582 293.058957 
L 79.0272 291.24759 
L 80.325818 288.984061 
L 81.624436 286.297579 
L 83.247709 282.389195 
L 84.870982 277.922632 
L 86.818909 271.906284 
L 89.091491 264.106665 
L 91.688727 254.355207 
L 94.935273 241.251756 
L 100.779055 216.486088 
L 105.324218 197.606709 
L 108.246109 186.292396 
L 110.843345 177.096253 
L 113.115927 169.906071 
L 115.063855 164.503865 
L 116.687127 160.613795 
L 118.3104 157.34073 
L 119.609018 155.204858 
L 120.907636 153.528364 
L 121.8816 152.576046 
L 122.855564 151.877003 
L 123.829527 151.423393 
L 124.803491 151.207374 
L 125.777455 151.221105 
L 126.751418 151.456744 
L 127.725382 151.90645 
L 128.699345 152.562382 
L 129.997964 153.744199 
L 131.296582 155.260112 
L 132.5952 157.091533 
L 134.218473 159.796176 
L 135.841745 162.928455 
L 137.789673 167.200554 
L 140.062255 172.813205 
L 142.659491 179.934522 
L 145.581382 188.669509 
L 149.152582 200.087768 
L 162.788073 244.513754 
L 165.709964 252.827061 
L 167.982545 258.689025 
L 170.255127 263.988808 
L 172.527709 268.753629 
L 174.800291 273.011948 
L 177.072873 276.792228 
L 179.345455 280.12293 
L 181.618036 283.032516 
L 183.890618 285.549447 
L 186.1632 287.702186 
L 188.435782 289.519193 
L 190.708364 291.028931 
L 192.980945 292.25986 
L 195.253527 293.240444 
L 197.526109 293.999142 
L 200.123345 294.631041 
L 203.045236 295.09285 
L 206.291782 295.367605 
L 210.512291 295.481997 
L 228.692945 295.488 
L 398.487273 295.488 
L 398.487273 295.488 
" clip-path="url(#paa183a60a3)" style="fill: none; stroke: #2ca02c; stroke-width: 1.5; stroke-linecap: square"/>
   </g>
   <g id="line2d_16">
    <path d="M 73.832727 295.488 
L 80.325818 295.377362 
L 83.897018 295.075998 
L 86.818909 294.602895 
L 89.416145 293.958539 
L 91.688727 293.187074 
L 93.961309 292.191981 
L 96.233891 290.944799 
L 98.506473 289.417067 
L 100.779055 287.580323 
L 102.726982 285.738448 
L 104.674909 283.63071 
L 106.947491 280.811748 
L 109.220073 277.57806 
L 111.492655 273.901183 
L 113.765236 269.752656 
L 116.037818 265.104017 
L 118.3104 259.926805 
L 120.582982 254.19264 
L 123.180218 246.962817 
L 126.102109 238.102889 
L 129.673309 226.485198 
L 134.867782 208.68289 
L 142.334836 183.076122 
L 145.906036 171.598607 
L 148.827927 162.899242 
L 151.425164 155.846803 
L 153.697745 150.305725 
L 155.645673 146.092047 
L 157.5936 142.429726 
L 159.216873 139.837759 
L 160.840145 137.697137 
L 162.138764 136.330517 
L 163.437382 135.288604 
L 164.736 134.587331 
L 165.709964 134.294503 
L 166.683927 134.208967 
L 167.657891 134.334504 
L 168.631855 134.666053 
L 169.605818 135.196893 
L 170.904436 136.203071 
L 172.203055 137.535663 
L 173.501673 139.178736 
L 175.124945 141.644923 
L 176.748218 144.540227 
L 178.696145 148.537214 
L 180.644073 153.053553 
L 182.916655 158.907281 
L 185.513891 166.263693 
L 188.435782 175.237014 
L 192.006982 186.951569 
L 197.526109 205.94176 
L 204.343855 229.263068 
L 207.915055 240.702881 
L 210.836945 249.359662 
L 213.434182 256.365544 
L 215.706764 261.891859 
L 217.979345 266.871594 
L 220.251927 271.333211 
L 222.524509 275.305171 
L 224.797091 278.815937 
L 227.069673 281.893969 
L 229.342255 284.56773 
L 231.614836 286.865681 
L 233.887418 288.816284 
L 236.16 290.448 
L 238.432582 291.789291 
L 240.705164 292.868619 
L 242.977745 293.714445 
L 245.574982 294.431694 
L 248.172218 294.92362 
L 251.094109 295.260605 
L 254.665309 295.446458 
L 260.509091 295.488 
L 398.487273 295.488 
L 398.487273 295.488 
" clip-path="url(#paa183a60a3)" style="fill: none; stroke: #d62728; stroke-width: 1.5; stroke-linecap: square"/>
   </g>
   <g id="line2d_17">
    <path d="M 73.832727 295.488 
L 126.426764 295.390986 
L 129.997964 295.109237 
L 132.919855 294.658584 
L 135.517091 294.03902 
L 137.789673 293.292982 
L 140.062255 292.326801 
L 142.334836 291.112017 
L 144.607418 289.620167 
L 146.88 287.82279 
L 148.827927 286.017432 
L 150.775855 283.948772 
L 153.048436 281.178637 
L 155.321018 277.997261 
L 157.5936 274.376181 
L 159.866182 270.286937 
L 162.138764 265.701065 
L 164.411345 260.590106 
L 166.683927 254.925597 
L 169.281164 247.769011 
L 172.203055 238.975153 
L 175.774255 227.414743 
L 180.644073 210.776784 
L 189.085091 181.8492 
L 192.656291 170.454913 
L 195.578182 161.84925 
L 198.175418 154.899447 
L 200.448 149.463112 
L 202.395927 145.350309 
L 204.343855 141.799104 
L 205.967127 139.307559 
L 207.265745 137.642917 
L 208.564364 136.28762 
L 209.862982 135.257599 
L 211.1616 134.568785 
L 212.135564 134.285677 
L 213.109527 134.210174 
L 214.083491 134.345674 
L 215.057455 134.686866 
L 216.031418 135.227028 
L 217.330036 136.245138 
L 218.628655 137.589092 
L 219.927273 139.24296 
L 221.550545 141.721839 
L 223.173818 144.628946 
L 225.121745 148.638924 
L 227.069673 153.166972 
L 229.342255 159.032745 
L 231.939491 166.400787 
L 234.861382 175.384472 
L 238.432582 187.107782 
L 243.951709 206.10304 
L 250.769455 229.416417 
L 254.340655 240.845817 
L 257.262545 249.490878 
L 259.859782 256.483978 
L 262.132364 261.998853 
L 264.404945 266.96773 
L 266.677527 271.419069 
L 268.950109 275.381333 
L 271.222691 278.882983 
L 273.495273 281.95248 
L 275.767855 284.618287 
L 278.040436 286.908865 
L 280.313018 288.852675 
L 282.5856 290.47818 
L 284.858182 291.81384 
L 287.130764 292.888118 
L 289.403345 293.729475 
L 292.000582 294.442328 
L 294.597818 294.930616 
L 297.519709 295.264416 
L 301.090909 295.44768 
L 307.259345 295.488 
L 398.487273 295.488 
L 398.487273 295.488 
" clip-path="url(#paa183a60a3)" style="fill: none; stroke: #9467bd; stroke-width: 1.5; stroke-linecap: square"/>
   </g>
   <g id="line2d_18">
    <path d="M 73.832727 295.488 
L 172.852364 295.388798 
L 176.423564 295.103826 
L 179.345455 294.64947 
L 181.942691 294.025808 
L 184.215273 293.275561 
L 186.487855 292.304591 
L 188.760436 291.084437 
L 191.033018 289.586636 
L 193.3056 287.782728 
L 195.253527 285.971309 
L 197.201455 283.896161 
L 199.474036 281.117919 
L 201.746618 277.927853 
L 204.0192 274.297504 
L 206.291782 270.198408 
L 208.564364 265.602105 
L 210.836945 260.480133 
L 213.109527 254.804035 
L 215.706764 247.635141 
L 218.628655 238.830156 
L 222.199855 227.26006 
L 227.069673 210.615827 
L 235.510691 181.696322 
L 239.081891 170.312691 
L 242.003782 161.718946 
L 244.601018 154.782155 
L 246.8736 149.359074 
L 248.821527 145.259017 
L 250.4448 142.269998 
L 252.068073 139.702984 
L 253.691345 137.589092 
L 254.989964 136.245138 
L 256.288582 135.227028 
L 257.5872 134.550695 
L 258.561164 134.277321 
L 259.535127 134.211863 
L 260.509091 134.35731 
L 261.483055 134.708129 
L 262.457018 135.257599 
L 263.755636 136.28762 
L 265.054255 137.642917 
L 266.352873 139.307559 
L 267.976145 141.799104 
L 269.599418 144.717989 
L 271.547345 148.740927 
L 273.495273 153.280655 
L 275.767855 159.158436 
L 278.365091 166.538068 
L 281.286982 175.532071 
L 284.858182 187.26408 
L 290.377309 206.264318 
L 297.195055 229.569659 
L 300.766255 240.98859 
L 303.688145 249.621885 
L 306.285382 256.602171 
L 308.557964 262.10562 
L 310.830545 267.06365 
L 313.103127 271.504724 
L 315.375709 275.457303 
L 317.648291 278.949849 
L 319.920873 282.010823 
L 322.193455 284.668687 
L 324.466036 286.951904 
L 326.738618 288.888934 
L 329.0112 290.508238 
L 331.283782 291.83828 
L 333.556364 292.90752 
L 335.828945 293.74442 
L 338.426182 294.45289 
L 341.023418 294.937555 
L 343.945309 295.268184 
L 347.516509 295.448878 
L 353.684945 295.488 
L 398.487273 295.488 
L 398.487273 295.488 
" clip-path="url(#paa183a60a3)" style="fill: none; stroke: #8c564b; stroke-width: 1.5; stroke-linecap: square"/>
   </g>
   <g id="line2d_19">
    <path d="M 73.832727 295.488 
L 219.277964 295.386577 
L 222.849164 295.098364 
L 225.771055 294.640289 
L 228.368291 294.012515 
L 230.640873 293.258048 
L 232.913455 292.282278 
L 235.186036 291.056742 
L 237.458618 289.552979 
L 239.7312 287.742527 
L 241.679127 285.925037 
L 243.627055 283.843391 
L 245.899636 281.057028 
L 248.172218 277.858262 
L 250.4448 274.218631 
L 252.717382 270.109673 
L 254.989964 265.502927 
L 257.262545 260.36993 
L 259.535127 254.682232 
L 262.132364 247.501071 
L 265.054255 238.685007 
L 268.625455 227.10528 
L 273.495273 210.454849 
L 281.936291 181.543555 
L 285.507491 170.170635 
L 288.429382 161.588854 
L 291.026618 154.665117 
L 293.2992 149.255323 
L 295.247127 145.168043 
L 296.8704 142.19065 
L 298.493673 139.636151 
L 300.116945 137.535663 
L 301.415564 136.203071 
L 302.714182 135.196893 
L 303.688145 134.666053 
L 304.662109 134.334504 
L 305.636073 134.208967 
L 306.610036 134.294503 
L 307.584 134.587331 
L 308.557964 135.080729 
L 309.856582 136.038975 
L 311.1552 137.325912 
L 312.453818 138.925606 
L 314.077091 141.340769 
L 315.700364 144.188606 
L 317.648291 148.133327 
L 319.596218 152.60252 
L 321.8688 158.407718 
L 324.466036 165.717201 
L 327.387927 174.64861 
L 330.959127 186.327585 
L 336.478255 205.296646 
L 343.296 228.648609 
L 346.8672 240.129515 
L 349.789091 248.83272 
L 352.386327 255.889414 
L 354.658909 261.461604 
L 356.931491 266.484891 
L 359.204073 270.987737 
L 361.476655 274.998602 
L 363.749236 278.545949 
L 366.021818 281.65824 
L 368.2944 284.363936 
L 370.566982 286.691498 
L 372.839564 288.669389 
L 375.112145 290.32607 
L 377.384727 291.690002 
L 379.657309 292.789648 
L 381.929891 293.653469 
L 384.527127 294.388437 
L 387.124364 294.895049 
L 390.046255 295.244928 
L 393.617455 295.441325 
L 398.487273 295.488 
L 398.487273 295.488 
" clip-path="url(#paa183a60a3)" style="fill: none; stroke: #e377c2; stroke-width: 1.5; stroke-linecap: square"/>
   </g>
   <g id="line2d_20">
    <path d="M 73.832727 295.488 
L 265.703564 295.384323 
L 269.274764 295.09285 
L 272.196655 294.631041 
L 274.793891 293.999142 
L 277.066473 293.240444 
L 279.339055 292.25986 
L 281.611636 291.028931 
L 283.884218 289.519193 
L 286.1568 287.702186 
L 288.104727 285.878615 
L 290.052655 283.790461 
L 292.325236 280.995967 
L 294.597818 277.788488 
L 296.8704 274.139563 
L 299.142982 270.02073 
L 301.415564 265.403529 
L 303.688145 260.259496 
L 305.960727 254.560194 
L 308.557964 247.371379 
L 311.479855 238.578142 
L 315.375709 226.045033 
L 327.387927 186.672363 
L 330.309818 178.091058 
L 332.907055 171.145845 
L 335.179636 165.71778 
L 337.127564 161.62655 
L 338.750836 158.660969 
L 340.374109 156.137545 
L 341.672727 154.461555 
L 342.971345 153.110367 
L 344.269964 152.102567 
L 345.243927 151.583248 
L 346.217891 151.275382 
L 347.191855 151.18681 
L 348.165818 151.325375 
L 349.139782 151.698917 
L 350.113745 152.315278 
L 351.087709 153.182299 
L 352.061673 154.307822 
L 353.360291 156.217045 
L 354.658909 158.572265 
L 355.957527 161.344274 
L 357.5808 165.350899 
L 359.528727 170.877911 
L 361.476655 177.096253 
L 363.749236 185.093236 
L 366.671127 196.308651 
L 370.242327 210.990864 
L 380.631273 254.355207 
L 383.553164 265.266884 
L 385.825745 272.954938 
L 387.773673 278.857861 
L 389.7216 284.022725 
L 391.344873 287.691864 
L 392.643491 290.170521 
L 393.942109 292.211619 
L 395.240727 293.785952 
L 396.214691 294.642815 
L 397.188655 295.20837 
L 398.162618 295.470295 
L 398.487273 295.488 
L 398.487273 295.488 
" clip-path="url(#paa183a60a3)" style="fill: none; stroke: #7f7f7f; stroke-width: 1.5; stroke-linecap: square"/>
   </g>
   <g id="line2d_21">
    <path d="M 73.832727 295.488 
L 311.1552 295.391134 
L 314.077091 295.135281 
L 316.674327 294.693035 
L 318.946909 294.087941 
L 321.219491 293.234533 
L 323.167418 292.273042 
L 325.115345 291.070865 
L 327.063273 289.601119 
L 329.0112 287.836917 
L 330.959127 285.751374 
L 332.907055 283.317606 
L 334.854982 280.508728 
L 336.802909 277.297854 
L 338.750836 273.658099 
L 340.698764 269.562579 
L 342.646691 264.984408 
L 344.594618 259.896701 
L 346.8672 253.281179 
L 349.139782 245.892836 
L 351.412364 237.68898 
L 353.684945 228.645935 
L 356.931491 214.652007 
L 364.073891 183.389686 
L 366.346473 174.455067 
L 368.2944 167.582286 
L 369.917673 162.552581 
L 371.540945 158.273239 
L 372.839564 155.463214 
L 374.138182 153.258885 
L 375.112145 152.036671 
L 376.086109 151.21005 
L 376.735418 150.890362 
L 377.384727 150.763919 
L 378.034036 150.837691 
L 378.683345 151.118649 
L 379.332655 151.613762 
L 379.981964 152.330002 
L 380.955927 153.83422 
L 381.929891 155.875179 
L 382.903855 158.476403 
L 383.877818 161.661417 
L 385.176436 166.856879 
L 386.475055 173.187772 
L 387.773673 180.709858 
L 389.072291 189.478899 
L 390.370909 199.550655 
L 391.994182 214.057244 
L 393.617455 230.795364 
L 395.240727 249.873924 
L 396.864 271.401832 
L 398.487273 295.488 
L 398.487273 295.488 
" clip-path="url(#paa183a60a3)" style="fill: none; stroke: #bcbd22; stroke-width: 1.5; stroke-linecap: square"/>
   </g>
   <g id="line2d_22">
    <path d="M 73.832727 295.488 
L 355.632873 295.381803 
L 357.5808 295.090518 
L 359.204073 294.621545 
L 360.827345 293.880521 
L 362.125964 293.050004 
L 363.424582 291.97368 
L 364.7232 290.619687 
L 366.021818 288.95616 
L 367.320436 286.951235 
L 368.619055 284.57305 
L 369.917673 281.789739 
L 371.540945 277.692351 
L 373.164218 272.849933 
L 374.787491 267.200254 
L 376.410764 260.681077 
L 378.034036 253.230169 
L 379.657309 244.785297 
L 381.280582 235.284227 
L 383.228509 222.401135 
L 385.176436 207.79996 
L 387.124364 191.373162 
L 389.072291 173.0132 
L 391.020218 152.612535 
L 392.968145 130.063626 
L 395.240727 100.897955 
L 397.513309 68.49114 
L 398.487273 53.568 
L 398.487273 53.568 
" clip-path="url(#paa183a60a3)" style="fill: none; stroke: #17becf; stroke-width: 1.5; stroke-linecap: square"/>
   </g>
   <g id="patch_3">
    <path d="M 57.6 307.584 
L 57.6 41.472 
" style="fill: none; stroke: #000000; stroke-width: 0.8; stroke-linejoin: miter; stroke-linecap: square"/>
   </g>
   <g id="patch_4">
    <path d="M 414.72 307.584 
L 414.72 41.472 
" style="fill: none; stroke: #000000; stroke-width: 0.8; stroke-linejoin: miter; stroke-linecap: square"/>
   </g>
   <g id="patch_5">
    <path d="M 57.6 307.584 
L 414.72 307.584 
" style="fill: none; stroke: #000000; stroke-width: 0.8; stroke-linejoin: miter; stroke-linecap: square"/>
   </g>
   <g id="patch_6">
    <path d="M 57.6 41.472 
L 414.72 41.472 
" style="fill: none; stroke: #000000; stroke-width: 0.8; stroke-linejoin: miter; stroke-linecap: square"/>
   </g>
   <g id="text_13">
    <!-- B-spline basis -->
    <g transform="translate(194.805 35.472) scale(0.12 -0.12)">
     <defs>
      <path id="DejaVuSans-42" d="M 1259 2228 
L 1259 519 
L 2272 519 
Q 2781 519 3026 730 
Q 3272 941 3272 1375 
Q 3272 1813 3026 2020 
Q 2781 2228 2272 2228 
L 1259 2228 
z
M 1259 4147 
L 1259 2741 
L 2194 2741 
Q 2656 2741 2882 2914 
Q 3109 3088 3109 3444 
Q 3109 3797 2882 3972 
Q 2656 4147 2194 4147 
L 1259 4147 
z
M 628 4666 
L 2241 4666 
Q 2963 4666 3353 4366 
Q 3744 4066 3744 3513 
Q 3744 3084 3544 2831 
Q 3344 2578 2956 2516 
Q 3422 2416 3680 2098 
Q 3938 1781 3938 1306 
Q 3938 681 3513 340 
Q 3088 0 2303 0 
L 628 0 
L 628 4666 
z
" transform="scale(0.015625)"/>
      <path id="DejaVuSans-2d" d="M 313 2009 
L 1997 2009 
L 1997 1497 
L 313 1497 
L 313 2009 
z
" transform="scale(0.015625)"/>
      <path id="DejaVuSans-73" d="M 2834 3397 
L 2834 2853 
Q 2591 2978 2328 3040 
Q 2066 3103 1784 3103 
Q 1356 3103 1142 2972 
Q 928 2841 928 2578 
Q 928 2378 1081 2264 
Q 1234 2150 1697 2047 
L 1894 2003 
Q 2506 1872 2764 1633 
Q 3022 1394 3022 966 
Q 3022 478 2636 193 
Q 2250 -91 1575 -91 
Q 1294 -91 989 -36 
Q 684 19 347 128 
L 347 722 
Q 666 556 975 473 
Q 1284 391 1588 391 
Q 1994 391 2212 530 
Q 2431 669 2431 922 
Q 2431 1156 2273 1281 
Q 2116 1406 1581 1522 
L 1381 1569 
Q 847 1681 609 1914 
Q 372 2147 372 2553 
Q 372 3047 722 3315 
Q 1072 3584 1716 3584 
Q 2034 3584 2315 3537 
Q 2597 3491 2834 3397 
z
" transform="scale(0.015625)"/>
      <path id="DejaVuSans-70" d="M 1159 525 
L 1159 -1331 
L 581 -1331 
L 581 3500 
L 1159 3500 
L 1159 2969 
Q 1341 3281 1617 3432 
Q 1894 3584 2278 3584 
Q 2916 3584 3314 3078 
Q 3713 2572 3713 1747 
Q 3713 922 3314 415 
Q 2916 -91 2278 -91 
Q 1894 -91 1617 61 
Q 1341 213 1159 525 
z
M 3116 1747 
Q 3116 2381 2855 2742 
Q 2594 3103 2138 3103 
Q 1681 3103 1420 2742 
Q 1159 2381 1159 1747 
Q 1159 1113 1420 752 
Q 1681 391 2138 391 
Q 2594 391 2855 752 
Q 3116 1113 3116 1747 
z
" transform="scale(0.015625)"/>
      <path id="DejaVuSans-6c" d="M 603 4863 
L 1178 4863 
L 1178 0 
L 603 0 
L 603 4863 
z
" transform="scale(0.015625)"/>
      <path id="DejaVuSans-69" d="M 603 3500 
L 1178 3500 
L 1178 0 
L 603 0 
L 603 3500 
z
M 603 4863 
L 1178 4863 
L 1178 4134 
L 603 4134 
L 603 4863 
z
" transform="scale(0.015625)"/>
      <path id="DejaVuSans-6e" d="M 3513 2113 
L 3513 0 
L 2938 0 
L 2938 2094 
Q 2938 2591 2744 2837 
Q 2550 3084 2163 3084 
Q 1697 3084 1428 2787 
Q 1159 2491 1159 1978 
L 1159 0 
L 581 0 
L 581 3500 
L 1159 3500 
L 1159 2956 
Q 1366 3272 1645 3428 
Q 1925 3584 2291 3584 
Q 2894 3584 3203 3211 
Q 3513 2838 3513 2113 
z
" transform="scale(0.015625)"/>
      <path id="DejaVuSans-65" d="M 3597 1894 
L 3597 1613 
L 953 1613 
Q 991 1019 1311 708 
Q 1631 397 2203 397 
Q 2534 397 2845 478 
Q 3156 559 3463 722 
L 3463 178 
Q 3153 47 2828 -22 
Q 2503 -91 2169 -91 
Q 1331 -91 842 396 
Q 353 884 353 1716 
Q 353 2575 817 3079 
Q 1281 3584 2069 3584 
Q 2775 3584 3186 3129 
Q 3597 2675 3597 1894 
z
M 3022 2063 
Q 3016 2534 2758 2815 
Q 2500 3097 2075 3097 
Q 1594 3097 1305 2825 
Q 1016 2553 972 2059 
L 3022 2063 
z
" transform="scale(0.015625)"/>
      <path id="DejaVuSans-20" transform="scale(0.015625)"/>
      <path id="DejaVuSans-62" d="M 3116 1747 
Q 3116 2381 2855 2742 
Q 2594 3103 2138 3103 
Q 1681 3103 1420 2742 
Q 1159 2381 1159 1747 
Q 1159 1113 1420 752 
Q 1681 391 2138 391 
Q 2594 391 2855 752 
Q 3116 1113 3116 1747 
z
M 1159 2969 
Q 1341 3281 1617 3432 
Q 1894 3584 2278 3584 
Q 2916 3584 3314 3078 
Q 3713 2572 3713 1747 
Q 3713 922 3314 415 
Q 2916 -91 2278 -91 
Q 1894 -91 1617 61 
Q 1341 213 1159 525 
L 1159 0 
L 581 0 
L 581 4863 
L 1159 4863 
L 1159 2969 
z
" transform="scale(0.015625)"/>
      <path id="DejaVuSans-61" d="M 2194 1759 
Q 1497 1759 1228 1600 
Q 959 1441 959 1056 
Q 959 750 1161 570 
Q 1363 391 1709 391 
Q 2188 391 2477 730 
Q 2766 1069 2766 1631 
L 2766 1759 
L 2194 1759 
z
M 3341 1997 
L 3341 0 
L 2766 0 
L 2766 531 
Q 2569 213 2275 61 
Q 1981 -91 1556 -91 
Q 1019 -91 701 211 
Q 384 513 384 1019 
Q 384 1609 779 1909 
Q 1175 2209 1959 2209 
L 2766 2209 
L 2766 2266 
Q 2766 2663 2505 2880 
Q 2244 3097 1772 3097 
Q 1472 3097 1187 3025 
Q 903 2953 641 2809 
L 641 3341 
Q 956 3463 1253 3523 
Q 1550 3584 1831 3584 
Q 2591 3584 2966 3190 
Q 3341 2797 3341 1997 
z
" transform="scale(0.015625)"/>
     </defs>
     <use xlink:href="#DejaVuSans-42"/>
     <use xlink:href="#DejaVuSans-2d" x="68.603516"/>
     <use xlink:href="#DejaVuSans-73" x="104.6875"/>
     <use xlink:href="#DejaVuSans-70" x="156.787109"/>
     <use xlink:href="#DejaVuSans-6c" x="220.263672"/>
     <use xlink:href="#DejaVuSans-69" x="248.046875"/>
     <use xlink:href="#DejaVuSans-6e" x="275.830078"/>
     <use xlink:href="#DejaVuSans-65" x="339.208984"/>
     <use xlink:href="#DejaVuSans-20" x="400.732422"/>
     <use xlink:href="#DejaVuSans-62" x="432.519531"/>
     <use xlink:href="#DejaVuSans-61" x="495.996094"/>
     <use xlink:href="#DejaVuSans-73" x="557.275391"/>
     <use xlink:href="#DejaVuSans-69" x="609.375"/>
     <use xlink:href="#DejaVuSans-73" x="637.158203"/>
    </g>
   </g>
  </g>
 </g>
 <defs>
  <clipPath id="paa183a60a3">
   <rect x="57.6" y="41.472" width="357.12" height="266.112"/>
  </clipPath>
 </defs>
</svg>
