<?xml version="1.0" encoding="utf-8" standalone="no"?>
<!DOCTYPE svg PUBLIC "-//W3C//DTD SVG 1.1//EN"
  "http://www.w3.org/Graphics/SVG/1.1/DTD/svg11.dtd">
<svg xmlns:xlink="http://www.w3.org/1999/xlink" width="460.8pt" height="345.6pt" viewBox="0 0 460.8 345.6" xmlns="http://www.w3.org/2000/svg" version="1.1">
 <metadata>
  <rdf:RDF xmlns:dc="http://purl.org/dc/elements/1.1/" xmlns:cc="http://creativecommons.org/ns#" xmlns:rdf="http://www.w3.org/1999/02/22-rdf-syntax-ns#">
   <cc:Work>
    <dc:type rdf:resource="http://purl.org/dc/dcmitype/StillImage"/>
    <dc:date>2024-11-21T17:19:07.097434</dc:date>
    <dc:format>image/svg+xml</dc:format>
    <dc:creator>
     <cc:Agent>
      <dc:title>Matplotlib v3.9.2, https://matplotlib.org/</dc:title>
     </cc:Agent>
    </dc:creator>
   </cc:Work>
  </rdf:RDF>
 </metadata>
 <defs>
  <style type="text/css">*{stroke-linejoin: round; stroke-linecap: butt}</style>
 </defs>
 <g id="figure_1">
  <g id="patch_1">
   <path d="M 0 345.6 
L 460.8 345.6 
L 460.8 0 
L 0 0 
z
" style="fill: #ffffff"/>
  </g>
  <g id="axes_1">
   <g id="patch_2">
    <path d="M 57.6 307.584 
L 414.72 307.584 
L 414.72 41.472 
L 57.6 41.472 
z
" style="fill: #ffffff"/>
   </g>
   <g id="matplotlib.axis_1">
    <g id="xtick_1">
     <g id="line2d_1">
      <defs>
       <path id="mf3cd43218f" d="M 0 0 
L 0 3.5 
" style="stroke: #000000; stroke-width: 0.8"/>
      </defs>
      <g>
       <use xlink:href="#mf3cd43218f" x="73.832727" y="307.584" style="stroke: #000000; stroke-width: 0.8"/>
      </g>
     </g>
     <g id="text_1">
      <!-- 0 -->
      <g transform="translate(70.651477 322.182437) scale(0.1 -0.1)">
       <defs>
        <path id="DejaVuSans-30" d="M 2034 4250 
Q 1547 4250 1301 3770 
Q 1056 3291 1056 2328 
Q 1056 1369 1301 889 
Q 1547 409 2034 409 
Q 2525 409 2770 889 
Q 3016 1369 3016 2328 
Q 3016 3291 2770 3770 
Q 2525 4250 2034 4250 
z
M 2034 4750 
Q 2819 4750 3233 4129 
Q 3647 3509 3647 2328 
Q 3647 1150 3233 529 
Q 2819 -91 2034 -91 
Q 1250 -91 836 529 
Q 422 1150 422 2328 
Q 422 3509 836 4129 
Q 1250 4750 2034 4750 
z
" transform="scale(0.015625)"/>
       </defs>
       <use xlink:href="#DejaVuSans-30"/>
      </g>
     </g>
    </g>
    <g id="xtick_2">
     <g id="line2d_2">
      <g>
       <use xlink:href="#mf3cd43218f" x="138.893758" y="307.584" style="stroke: #000000; stroke-width: 0.8"/>
      </g>
     </g>
     <g id="text_2">
      <!-- 100 -->
      <g transform="translate(129.350008 322.182437) scale(0.1 -0.1)">
       <defs>
        <path id="DejaVuSans-31" d="M 794 531 
L 1825 531 
L 1825 4091 
L 703 3866 
L 703 4441 
L 1819 4666 
L 2450 4666 
L 2450 531 
L 3481 531 
L 3481 0 
L 794 0 
L 794 531 
z
" transform="scale(0.015625)"/>
       </defs>
       <use xlink:href="#DejaVuSans-31"/>
       <use xlink:href="#DejaVuSans-30" x="63.623047"/>
       <use xlink:href="#DejaVuSans-30" x="127.246094"/>
      </g>
     </g>
    </g>
    <g id="xtick_3">
     <g id="line2d_3">
      <g>
       <use xlink:href="#mf3cd43218f" x="203.95479" y="307.584" style="stroke: #000000; stroke-width: 0.8"/>
      </g>
     </g>
     <g id="text_3">
      <!-- 200 -->
      <g transform="translate(194.41104 322.182437) scale(0.1 -0.1)">
       <defs>
        <path id="DejaVuSans-32" d="M 1228 531 
L 3431 531 
L 3431 0 
L 469 0 
L 469 531 
Q 828 903 1448 1529 
Q 2069 2156 2228 2338 
Q 2531 2678 2651 2914 
Q 2772 3150 2772 3378 
Q 2772 3750 2511 3984 
Q 2250 4219 1831 4219 
Q 1534 4219 1204 4116 
Q 875 4013 500 3803 
L 500 4441 
Q 881 4594 1212 4672 
Q 1544 4750 1819 4750 
Q 2544 4750 2975 4387 
Q 3406 4025 3406 3419 
Q 3406 3131 3298 2873 
Q 3191 2616 2906 2266 
Q 2828 2175 2409 1742 
Q 1991 1309 1228 531 
z
" transform="scale(0.015625)"/>
       </defs>
       <use xlink:href="#DejaVuSans-32"/>
       <use xlink:href="#DejaVuSans-30" x="63.623047"/>
       <use xlink:href="#DejaVuSans-30" x="127.246094"/>
      </g>
     </g>
    </g>
    <g id="xtick_4">
     <g id="line2d_4">
      <g>
       <use xlink:href="#mf3cd43218f" x="269.015821" y="307.584" style="stroke: #000000; stroke-width: 0.8"/>
      </g>
     </g>
     <g id="text_4">
      <!-- 300 -->
      <g transform="translate(259.472071 322.182437) scale(0.1 -0.1)">
       <defs>
        <path id="DejaVuSans-33" d="M 2597 2516 
Q 3050 2419 3304 2112 
Q 3559 1806 3559 1356 
Q 3559 666 3084 287 
Q 2609 -91 1734 -91 
Q 1441 -91 1130 -33 
Q 819 25 488 141 
L 488 750 
Q 750 597 1062 519 
Q 1375 441 1716 441 
Q 2309 441 2620 675 
Q 2931 909 2931 1356 
Q 2931 1769 2642 2001 
Q 2353 2234 1838 2234 
L 1294 2234 
L 1294 2753 
L 1863 2753 
Q 2328 2753 2575 2939 
Q 2822 3125 2822 3475 
Q 2822 3834 2567 4026 
Q 2313 4219 1838 4219 
Q 1578 4219 1281 4162 
Q 984 4106 628 3988 
L 628 4550 
Q 988 4650 1302 4700 
Q 1616 4750 1894 4750 
Q 2613 4750 3031 4423 
Q 3450 4097 3450 3541 
Q 3450 3153 3228 2886 
Q 3006 2619 2597 2516 
z
" transform="scale(0.015625)"/>
       </defs>
       <use xlink:href="#DejaVuSans-33"/>
       <use xlink:href="#DejaVuSans-30" x="63.623047"/>
       <use xlink:href="#DejaVuSans-30" x="127.246094"/>
      </g>
     </g>
    </g>
    <g id="xtick_5">
     <g id="line2d_5">
      <g>
       <use xlink:href="#mf3cd43218f" x="334.076852" y="307.584" style="stroke: #000000; stroke-width: 0.8"/>
      </g>
     </g>
     <g id="text_5">
      <!-- 400 -->
      <g transform="translate(324.533102 322.182437) scale(0.1 -0.1)">
       <defs>
        <path id="DejaVuSans-34" d="M 2419 4116 
L 825 1625 
L 2419 1625 
L 2419 4116 
z
M 2253 4666 
L 3047 4666 
L 3047 1625 
L 3713 1625 
L 3713 1100 
L 3047 1100 
L 3047 0 
L 2419 0 
L 2419 1100 
L 313 1100 
L 313 1709 
L 2253 4666 
z
" transform="scale(0.015625)"/>
       </defs>
       <use xlink:href="#DejaVuSans-34"/>
       <use xlink:href="#DejaVuSans-30" x="63.623047"/>
       <use xlink:href="#DejaVuSans-30" x="127.246094"/>
      </g>
     </g>
    </g>
    <g id="xtick_6">
     <g id="line2d_6">
      <g>
       <use xlink:href="#mf3cd43218f" x="399.137883" y="307.584" style="stroke: #000000; stroke-width: 0.8"/>
      </g>
     </g>
     <g id="text_6">
      <!-- 500 -->
      <g transform="translate(389.594133 322.182437) scale(0.1 -0.1)">
       <defs>
        <path id="DejaVuSans-35" d="M 691 4666 
L 3169 4666 
L 3169 4134 
L 1269 4134 
L 1269 2991 
Q 1406 3038 1543 3061 
Q 1681 3084 1819 3084 
Q 2600 3084 3056 2656 
Q 3513 2228 3513 1497 
Q 3513 744 3044 326 
Q 2575 -91 1722 -91 
Q 1428 -91 1123 -41 
Q 819 9 494 109 
L 494 744 
Q 775 591 1075 516 
Q 1375 441 1709 441 
Q 2250 441 2565 725 
Q 2881 1009 2881 1497 
Q 2881 1984 2565 2268 
Q 2250 2553 1709 2553 
Q 1456 2553 1204 2497 
Q 953 2441 691 2322 
L 691 4666 
z
" transform="scale(0.015625)"/>
       </defs>
       <use xlink:href="#DejaVuSans-35"/>
       <use xlink:href="#DejaVuSans-30" x="63.623047"/>
       <use xlink:href="#DejaVuSans-30" x="127.246094"/>
      </g>
     </g>
    </g>
    <g id="text_7">
     <!-- Iteration -->
     <g transform="translate(214.951406 335.860562) scale(0.1 -0.1)">
      <defs>
       <path id="DejaVuSans-49" d="M 628 4666 
L 1259 4666 
L 1259 0 
L 628 0 
L 628 4666 
z
" transform="scale(0.015625)"/>
       <path id="DejaVuSans-74" d="M 1172 4494 
L 1172 3500 
L 2356 3500 
L 2356 3053 
L 1172 3053 
L 1172 1153 
Q 1172 725 1289 603 
Q 1406 481 1766 481 
L 2356 481 
L 2356 0 
L 1766 0 
Q 1100 0 847 248 
Q 594 497 594 1153 
L 594 3053 
L 172 3053 
L 172 3500 
L 594 3500 
L 594 4494 
L 1172 4494 
z
" transform="scale(0.015625)"/>
       <path id="DejaVuSans-65" d="M 3597 1894 
L 3597 1613 
L 953 1613 
Q 991 1019 1311 708 
Q 1631 397 2203 397 
Q 2534 397 2845 478 
Q 3156 559 3463 722 
L 3463 178 
Q 3153 47 2828 -22 
Q 2503 -91 2169 -91 
Q 1331 -91 842 396 
Q 353 884 353 1716 
Q 353 2575 817 3079 
Q 1281 3584 2069 3584 
Q 2775 3584 3186 3129 
Q 3597 2675 3597 1894 
z
M 3022 2063 
Q 3016 2534 2758 2815 
Q 2500 3097 2075 3097 
Q 1594 3097 1305 2825 
Q 1016 2553 972 2059 
L 3022 2063 
z
" transform="scale(0.015625)"/>
       <path id="DejaVuSans-72" d="M 2631 2963 
Q 2534 3019 2420 3045 
Q 2306 3072 2169 3072 
Q 1681 3072 1420 2755 
Q 1159 2438 1159 1844 
L 1159 0 
L 581 0 
L 581 3500 
L 1159 3500 
L 1159 2956 
Q 1341 3275 1631 3429 
Q 1922 3584 2338 3584 
Q 2397 3584 2469 3576 
Q 2541 3569 2628 3553 
L 2631 2963 
z
" transform="scale(0.015625)"/>
       <path id="DejaVuSans-61" d="M 2194 1759 
Q 1497 1759 1228 1600 
Q 959 1441 959 1056 
Q 959 750 1161 570 
Q 1363 391 1709 391 
Q 2188 391 2477 730 
Q 2766 1069 2766 1631 
L 2766 1759 
L 2194 1759 
z
M 3341 1997 
L 3341 0 
L 2766 0 
L 2766 531 
Q 2569 213 2275 61 
Q 1981 -91 1556 -91 
Q 1019 -91 701 211 
Q 384 513 384 1019 
Q 384 1609 779 1909 
Q 1175 2209 1959 2209 
L 2766 2209 
L 2766 2266 
Q 2766 2663 2505 2880 
Q 2244 3097 1772 3097 
Q 1472 3097 1187 3025 
Q 903 2953 641 2809 
L 641 3341 
Q 956 3463 1253 3523 
Q 1550 3584 1831 3584 
Q 2591 3584 2966 3190 
Q 3341 2797 3341 1997 
z
" transform="scale(0.015625)"/>
       <path id="DejaVuSans-69" d="M 603 3500 
L 1178 3500 
L 1178 0 
L 603 0 
L 603 3500 
z
M 603 4863 
L 1178 4863 
L 1178 4134 
L 603 4134 
L 603 4863 
z
" transform="scale(0.015625)"/>
       <path id="DejaVuSans-6f" d="M 1959 3097 
Q 1497 3097 1228 2736 
Q 959 2375 959 1747 
Q 959 1119 1226 758 
Q 1494 397 1959 397 
Q 2419 397 2687 759 
Q 2956 1122 2956 1747 
Q 2956 2369 2687 2733 
Q 2419 3097 1959 3097 
z
M 1959 3584 
Q 2709 3584 3137 3096 
Q 3566 2609 3566 1747 
Q 3566 888 3137 398 
Q 2709 -91 1959 -91 
Q 1206 -91 779 398 
Q 353 888 353 1747 
Q 353 2609 779 3096 
Q 1206 3584 1959 3584 
z
" transform="scale(0.015625)"/>
       <path id="DejaVuSans-6e" d="M 3513 2113 
L 3513 0 
L 2938 0 
L 2938 2094 
Q 2938 2591 2744 2837 
Q 2550 3084 2163 3084 
Q 1697 3084 1428 2787 
Q 1159 2491 1159 1978 
L 1159 0 
L 581 0 
L 581 3500 
L 1159 3500 
L 1159 2956 
Q 1366 3272 1645 3428 
Q 1925 3584 2291 3584 
Q 2894 3584 3203 3211 
Q 3513 2838 3513 2113 
z
" transform="scale(0.015625)"/>
      </defs>
      <use xlink:href="#DejaVuSans-49"/>
      <use xlink:href="#DejaVuSans-74" x="29.492188"/>
      <use xlink:href="#DejaVuSans-65" x="68.701172"/>
      <use xlink:href="#DejaVuSans-72" x="130.224609"/>
      <use xlink:href="#DejaVuSans-61" x="171.337891"/>
      <use xlink:href="#DejaVuSans-74" x="232.617188"/>
      <use xlink:href="#DejaVuSans-69" x="271.826172"/>
      <use xlink:href="#DejaVuSans-6f" x="299.609375"/>
      <use xlink:href="#DejaVuSans-6e" x="360.791016"/>
     </g>
    </g>
   </g>
   <g id="matplotlib.axis_2">
    <g id="ytick_1">
     <g id="line2d_7">
      <defs>
       <path id="m53fae116bb" d="M 0 0 
L -3.5 0 
" style="stroke: #000000; stroke-width: 0.8"/>
      </defs>
      <g>
       <use xlink:href="#m53fae116bb" x="57.6" y="277.191135" style="stroke: #000000; stroke-width: 0.8"/>
      </g>
     </g>
     <g id="text_8">
      <!-- −0.46 -->
      <g transform="translate(19.954687 280.990353) scale(0.1 -0.1)">
       <defs>
        <path id="DejaVuSans-2212" d="M 678 2272 
L 4684 2272 
L 4684 1741 
L 678 1741 
L 678 2272 
z
" transform="scale(0.015625)"/>
        <path id="DejaVuSans-2e" d="M 684 794 
L 1344 794 
L 1344 0 
L 684 0 
L 684 794 
z
" transform="scale(0.015625)"/>
        <path id="DejaVuSans-36" d="M 2113 2584 
Q 1688 2584 1439 2293 
Q 1191 2003 1191 1497 
Q 1191 994 1439 701 
Q 1688 409 2113 409 
Q 2538 409 2786 701 
Q 3034 994 3034 1497 
Q 3034 2003 2786 2293 
Q 2538 2584 2113 2584 
z
M 3366 4563 
L 3366 3988 
Q 3128 4100 2886 4159 
Q 2644 4219 2406 4219 
Q 1781 4219 1451 3797 
Q 1122 3375 1075 2522 
Q 1259 2794 1537 2939 
Q 1816 3084 2150 3084 
Q 2853 3084 3261 2657 
Q 3669 2231 3669 1497 
Q 3669 778 3244 343 
Q 2819 -91 2113 -91 
Q 1303 -91 875 529 
Q 447 1150 447 2328 
Q 447 3434 972 4092 
Q 1497 4750 2381 4750 
Q 2619 4750 2861 4703 
Q 3103 4656 3366 4563 
z
" transform="scale(0.015625)"/>
       </defs>
       <use xlink:href="#DejaVuSans-2212"/>
       <use xlink:href="#DejaVuSans-30" x="83.789062"/>
       <use xlink:href="#DejaVuSans-2e" x="147.412109"/>
       <use xlink:href="#DejaVuSans-34" x="179.199219"/>
       <use xlink:href="#DejaVuSans-36" x="242.822266"/>
      </g>
     </g>
    </g>
    <g id="ytick_2">
     <g id="line2d_8">
      <g>
       <use xlink:href="#m53fae116bb" x="57.6" y="237.40329" style="stroke: #000000; stroke-width: 0.8"/>
      </g>
     </g>
     <g id="text_9">
      <!-- −0.44 -->
      <g transform="translate(19.954687 241.202509) scale(0.1 -0.1)">
       <use xlink:href="#DejaVuSans-2212"/>
       <use xlink:href="#DejaVuSans-30" x="83.789062"/>
       <use xlink:href="#DejaVuSans-2e" x="147.412109"/>
       <use xlink:href="#DejaVuSans-34" x="179.199219"/>
       <use xlink:href="#DejaVuSans-34" x="242.822266"/>
      </g>
     </g>
    </g>
    <g id="ytick_3">
     <g id="line2d_9">
      <g>
       <use xlink:href="#m53fae116bb" x="57.6" y="197.615446" style="stroke: #000000; stroke-width: 0.8"/>
      </g>
     </g>
     <g id="text_10">
      <!-- −0.42 -->
      <g transform="translate(19.954687 201.414664) scale(0.1 -0.1)">
       <use xlink:href="#DejaVuSans-2212"/>
       <use xlink:href="#DejaVuSans-30" x="83.789062"/>
       <use xlink:href="#DejaVuSans-2e" x="147.412109"/>
       <use xlink:href="#DejaVuSans-34" x="179.199219"/>
       <use xlink:href="#DejaVuSans-32" x="242.822266"/>
      </g>
     </g>
    </g>
    <g id="ytick_4">
     <g id="line2d_10">
      <g>
       <use xlink:href="#m53fae116bb" x="57.6" y="157.827601" style="stroke: #000000; stroke-width: 0.8"/>
      </g>
     </g>
     <g id="text_11">
      <!-- −0.40 -->
      <g transform="translate(19.954687 161.62682) scale(0.1 -0.1)">
       <use xlink:href="#DejaVuSans-2212"/>
       <use xlink:href="#DejaVuSans-30" x="83.789062"/>
       <use xlink:href="#DejaVuSans-2e" x="147.412109"/>
       <use xlink:href="#DejaVuSans-34" x="179.199219"/>
       <use xlink:href="#DejaVuSans-30" x="242.822266"/>
      </g>
     </g>
    </g>
    <g id="ytick_5">
     <g id="line2d_11">
      <g>
       <use xlink:href="#m53fae116bb" x="57.6" y="118.039757" style="stroke: #000000; stroke-width: 0.8"/>
      </g>
     </g>
     <g id="text_12">
      <!-- −0.38 -->
      <g transform="translate(19.954687 121.838975) scale(0.1 -0.1)">
       <defs>
        <path id="DejaVuSans-38" d="M 2034 2216 
Q 1584 2216 1326 1975 
Q 1069 1734 1069 1313 
Q 1069 891 1326 650 
Q 1584 409 2034 409 
Q 2484 409 2743 651 
Q 3003 894 3003 1313 
Q 3003 1734 2745 1975 
Q 2488 2216 2034 2216 
z
M 1403 2484 
Q 997 2584 770 2862 
Q 544 3141 544 3541 
Q 544 4100 942 4425 
Q 1341 4750 2034 4750 
Q 2731 4750 3128 4425 
Q 3525 4100 3525 3541 
Q 3525 3141 3298 2862 
Q 3072 2584 2669 2484 
Q 3125 2378 3379 2068 
Q 3634 1759 3634 1313 
Q 3634 634 3220 271 
Q 2806 -91 2034 -91 
Q 1263 -91 848 271 
Q 434 634 434 1313 
Q 434 1759 690 2068 
Q 947 2378 1403 2484 
z
M 1172 3481 
Q 1172 3119 1398 2916 
Q 1625 2713 2034 2713 
Q 2441 2713 2670 2916 
Q 2900 3119 2900 3481 
Q 2900 3844 2670 4047 
Q 2441 4250 2034 4250 
Q 1625 4250 1398 4047 
Q 1172 3844 1172 3481 
z
" transform="scale(0.015625)"/>
       </defs>
       <use xlink:href="#DejaVuSans-2212"/>
       <use xlink:href="#DejaVuSans-30" x="83.789062"/>
       <use xlink:href="#DejaVuSans-2e" x="147.412109"/>
       <use xlink:href="#DejaVuSans-33" x="179.199219"/>
       <use xlink:href="#DejaVuSans-38" x="242.822266"/>
      </g>
     </g>
    </g>
    <g id="ytick_6">
     <g id="line2d_12">
      <g>
       <use xlink:href="#m53fae116bb" x="57.6" y="78.251912" style="stroke: #000000; stroke-width: 0.8"/>
      </g>
     </g>
     <g id="text_13">
      <!-- −0.36 -->
      <g transform="translate(19.954687 82.051131) scale(0.1 -0.1)">
       <use xlink:href="#DejaVuSans-2212"/>
       <use xlink:href="#DejaVuSans-30" x="83.789062"/>
       <use xlink:href="#DejaVuSans-2e" x="147.412109"/>
       <use xlink:href="#DejaVuSans-33" x="179.199219"/>
       <use xlink:href="#DejaVuSans-36" x="242.822266"/>
      </g>
     </g>
    </g>
    <g id="text_14">
     <!-- Log-likelihood -->
     <g transform="translate(13.875 209.072531) rotate(-90) scale(0.1 -0.1)">
      <defs>
       <path id="DejaVuSans-4c" d="M 628 4666 
L 1259 4666 
L 1259 531 
L 3531 531 
L 3531 0 
L 628 0 
L 628 4666 
z
" transform="scale(0.015625)"/>
       <path id="DejaVuSans-67" d="M 2906 1791 
Q 2906 2416 2648 2759 
Q 2391 3103 1925 3103 
Q 1463 3103 1205 2759 
Q 947 2416 947 1791 
Q 947 1169 1205 825 
Q 1463 481 1925 481 
Q 2391 481 2648 825 
Q 2906 1169 2906 1791 
z
M 3481 434 
Q 3481 -459 3084 -895 
Q 2688 -1331 1869 -1331 
Q 1566 -1331 1297 -1286 
Q 1028 -1241 775 -1147 
L 775 -588 
Q 1028 -725 1275 -790 
Q 1522 -856 1778 -856 
Q 2344 -856 2625 -561 
Q 2906 -266 2906 331 
L 2906 616 
Q 2728 306 2450 153 
Q 2172 0 1784 0 
Q 1141 0 747 490 
Q 353 981 353 1791 
Q 353 2603 747 3093 
Q 1141 3584 1784 3584 
Q 2172 3584 2450 3431 
Q 2728 3278 2906 2969 
L 2906 3500 
L 3481 3500 
L 3481 434 
z
" transform="scale(0.015625)"/>
       <path id="DejaVuSans-2d" d="M 313 2009 
L 1997 2009 
L 1997 1497 
L 313 1497 
L 313 2009 
z
" transform="scale(0.015625)"/>
       <path id="DejaVuSans-6c" d="M 603 4863 
L 1178 4863 
L 1178 0 
L 603 0 
L 603 4863 
z
" transform="scale(0.015625)"/>
       <path id="DejaVuSans-6b" d="M 581 4863 
L 1159 4863 
L 1159 1991 
L 2875 3500 
L 3609 3500 
L 1753 1863 
L 3688 0 
L 2938 0 
L 1159 1709 
L 1159 0 
L 581 0 
L 581 4863 
z
" transform="scale(0.015625)"/>
       <path id="DejaVuSans-68" d="M 3513 2113 
L 3513 0 
L 2938 0 
L 2938 2094 
Q 2938 2591 2744 2837 
Q 2550 3084 2163 3084 
Q 1697 3084 1428 2787 
Q 1159 2491 1159 1978 
L 1159 0 
L 581 0 
L 581 4863 
L 1159 4863 
L 1159 2956 
Q 1366 3272 1645 3428 
Q 1925 3584 2291 3584 
Q 2894 3584 3203 3211 
Q 3513 2838 3513 2113 
z
" transform="scale(0.015625)"/>
       <path id="DejaVuSans-64" d="M 2906 2969 
L 2906 4863 
L 3481 4863 
L 3481 0 
L 2906 0 
L 2906 525 
Q 2725 213 2448 61 
Q 2172 -91 1784 -91 
Q 1150 -91 751 415 
Q 353 922 353 1747 
Q 353 2572 751 3078 
Q 1150 3584 1784 3584 
Q 2172 3584 2448 3432 
Q 2725 3281 2906 2969 
z
M 947 1747 
Q 947 1113 1208 752 
Q 1469 391 1925 391 
Q 2381 391 2643 752 
Q 2906 1113 2906 1747 
Q 2906 2381 2643 2742 
Q 2381 3103 1925 3103 
Q 1469 3103 1208 2742 
Q 947 2381 947 1747 
z
" transform="scale(0.015625)"/>
      </defs>
      <use xlink:href="#DejaVuSans-4c"/>
      <use xlink:href="#DejaVuSans-6f" x="53.962891"/>
      <use xlink:href="#DejaVuSans-67" x="115.144531"/>
      <use xlink:href="#DejaVuSans-2d" x="178.621094"/>
      <use xlink:href="#DejaVuSans-6c" x="214.705078"/>
      <use xlink:href="#DejaVuSans-69" x="242.488281"/>
      <use xlink:href="#DejaVuSans-6b" x="270.271484"/>
      <use xlink:href="#DejaVuSans-65" x="324.556641"/>
      <use xlink:href="#DejaVuSans-6c" x="386.080078"/>
      <use xlink:href="#DejaVuSans-69" x="413.863281"/>
      <use xlink:href="#DejaVuSans-68" x="441.646484"/>
      <use xlink:href="#DejaVuSans-6f" x="505.025391"/>
      <use xlink:href="#DejaVuSans-6f" x="566.207031"/>
      <use xlink:href="#DejaVuSans-64" x="627.388672"/>
     </g>
    </g>
   </g>
   <g id="line2d_13">
    <path d="M 73.832727 243.773183 
L 74.483338 268.071452 
L 75.133948 277.716566 
L 75.784558 232.466568 
L 76.435169 295.488 
L 77.085779 279.384826 
L 77.736389 258.535429 
L 78.386999 201.719192 
L 79.03761 197.825775 
L 79.68822 269.916273 
L 80.33883 265.379932 
L 80.989441 226.779615 
L 81.640051 229.98238 
L 82.290661 249.023122 
L 82.941272 250.692627 
L 83.591882 212.582803 
L 84.242492 254.546854 
L 85.543713 230.77981 
L 86.194323 259.173789 
L 86.844934 226.788152 
L 87.495544 237.34542 
L 88.146154 240.177988 
L 88.796764 209.26905 
L 89.447375 220.495981 
L 90.097985 213.644601 
L 90.748595 211.08067 
L 91.399206 252.597804 
L 92.049816 263.942245 
L 92.700426 230.576569 
L 93.351037 254.840806 
L 94.001647 243.502116 
L 94.652257 205.227412 
L 95.302868 239.592336 
L 95.953478 188.558448 
L 96.604088 235.593859 
L 97.254698 250.698496 
L 97.905309 235.576962 
L 98.555919 233.562161 
L 99.85714 250.136678 
L 100.50775 244.573163 
L 101.15836 204.882531 
L 101.808971 225.109813 
L 102.459581 234.009374 
L 103.110191 189.687834 
L 103.760802 215.462209 
L 104.411412 205.800732 
L 105.712633 236.268088 
L 106.363243 211.994069 
L 107.013853 233.249888 
L 107.664463 204.096069 
L 108.315074 203.510772 
L 108.965684 241.643362 
L 109.616294 200.906584 
L 110.266905 244.919764 
L 110.917515 211.577448 
L 111.568125 202.46765 
L 112.218736 206.073696 
L 112.869346 208.5816 
L 113.519956 197.083364 
L 114.170567 197.742356 
L 114.821177 236.190183 
L 115.471787 189.876016 
L 116.122398 202.144113 
L 116.773008 228.288448 
L 117.423618 202.066564 
L 118.074228 186.755781 
L 118.724839 211.606559 
L 119.375449 224.572422 
L 120.026059 192.315679 
L 120.67667 212.206203 
L 121.32728 200.293719 
L 121.97789 218.526476 
L 122.628501 229.664179 
L 123.279111 205.907451 
L 123.929721 219.180251 
L 124.580332 219.865448 
L 125.230942 183.286632 
L 125.881552 183.027482 
L 126.532163 175.697525 
L 127.182773 178.18284 
L 127.833383 187.688804 
L 128.483993 210.278437 
L 129.134604 210.437923 
L 129.785214 204.084507 
L 130.435824 163.566503 
L 131.086435 197.555835 
L 131.737045 168.575612 
L 132.387655 207.982371 
L 133.038266 220.316337 
L 133.688876 195.039452 
L 134.339486 216.047505 
L 134.990097 184.91422 
L 135.640707 168.731303 
L 136.291317 197.863364 
L 136.941927 186.534397 
L 137.592538 198.880162 
L 138.243148 169.706125 
L 138.893758 172.302428 
L 139.544369 182.591474 
L 140.194979 172.156578 
L 140.845589 175.33634 
L 141.4962 180.750033 
L 142.14681 180.472207 
L 142.79742 154.303919 
L 143.448031 199.289312 
L 144.098641 216.067071 
L 144.749251 199.807434 
L 145.399862 166.756699 
L 146.050472 210.996836 
L 146.701082 196.137713 
L 147.351692 194.050579 
L 148.002303 206.659229 
L 149.303523 169.327034 
L 150.604744 195.042061 
L 151.255354 143.662462 
L 152.556575 189.944198 
L 153.207185 149.439712 
L 153.857796 156.06206 
L 154.508406 201.979113 
L 155.159016 149.044435 
L 155.809627 167.326106 
L 156.460237 196.640716 
L 157.110847 194.781073 
L 157.761457 191.128367 
L 158.412068 197.922 
L 159.062678 188.837341 
L 159.713288 171.036144 
L 160.363899 165.983874 
L 161.014509 201.861247 
L 162.31573 168.209386 
L 162.96634 176.425232 
L 163.61695 194.220678 
L 164.267561 155.039037 
L 164.918171 200.417513 
L 165.568781 197.404886 
L 166.219392 179.721555 
L 166.870002 173.302922 
L 167.520612 146.588053 
L 168.171222 178.26537 
L 168.821833 187.76825 
L 169.472443 150.422715 
L 170.123053 180.112266 
L 170.773664 162.720634 
L 171.424274 180.480863 
L 172.074884 154.314294 
L 172.725495 201.763125 
L 173.376105 176.027229 
L 174.026715 154.793286 
L 174.677326 155.406863 
L 175.327936 178.78029 
L 175.978546 184.28511 
L 176.629156 176.474382 
L 177.279767 182.056633 
L 177.930377 167.913596 
L 178.580987 158.314727 
L 179.231598 137.710192 
L 179.882208 177.9812 
L 180.532818 180.602463 
L 181.183429 138.282563 
L 181.834039 147.51076 
L 182.484649 180.343669 
L 183.13526 141.326969 
L 183.78587 130.964879 
L 184.43648 139.005942 
L 185.087091 156.120222 
L 185.737701 132.627507 
L 186.388311 186.913607 
L 187.038921 146.067915 
L 187.689532 171.088081 
L 188.340142 131.110195 
L 188.990752 176.895509 
L 189.641363 145.92337 
L 190.291973 171.159523 
L 190.942583 143.778312 
L 192.243804 172.765827 
L 192.894414 176.964106 
L 193.545025 145.768034 
L 194.195635 149.782992 
L 194.846245 172.394207 
L 195.496856 133.396775 
L 196.147466 137.135923 
L 196.798076 124.113795 
L 197.448686 173.60808 
L 198.099297 144.019201 
L 198.749907 173.622249 
L 199.400517 171.946045 
L 200.701738 153.323109 
L 201.352348 149.608803 
L 202.002959 155.581349 
L 202.653569 157.101981 
L 203.304179 134.874304 
L 203.95479 145.104773 
L 204.6054 178.399421 
L 205.25601 140.038689 
L 205.906621 166.252569 
L 206.557231 171.452112 
L 207.207841 159.028027 
L 207.858451 151.147162 
L 209.159672 169.050868 
L 209.810282 148.058112 
L 210.460893 144.764339 
L 211.111503 165.831147 
L 211.762113 157.987395 
L 212.412724 147.342796 
L 213.063334 162.375042 
L 213.713944 124.472906 
L 214.364555 139.948452 
L 215.015165 140.321791 
L 215.665775 134.390451 
L 216.316385 157.742712 
L 216.966996 158.712672 
L 217.617606 130.59895 
L 218.268216 165.630277 
L 218.918827 142.404834 
L 219.569437 149.274831 
L 220.220047 154.032259 
L 220.870658 140.037266 
L 221.521268 154.276113 
L 222.171878 162.697867 
L 222.822489 153.800204 
L 223.473099 150.282498 
L 224.123709 154.513267 
L 224.77432 171.434207 
L 225.42493 142.489913 
L 226.07554 138.54035 
L 226.72615 129.445611 
L 227.376761 136.301853 
L 228.027371 155.072535 
L 228.677981 147.04831 
L 229.328592 135.759541 
L 229.979202 144.791137 
L 230.629812 168.896896 
L 231.280423 140.70942 
L 231.931033 132.31138 
L 232.581643 134.599739 
L 233.232254 130.332982 
L 233.882864 153.746073 
L 234.533474 162.654468 
L 235.184085 136.880094 
L 235.834695 153.300283 
L 236.485305 147.764989 
L 237.135915 148.945009 
L 237.786526 155.463187 
L 238.437136 133.368969 
L 239.087746 122.724132 
L 239.738357 126.159486 
L 240.388967 149.519811 
L 241.039577 134.079779 
L 241.690188 160.976485 
L 242.340798 141.494874 
L 242.991408 132.396934 
L 243.642019 109.293506 
L 244.292629 145.855603 
L 244.943239 149.872162 
L 245.59385 141.794755 
L 246.24446 143.635663 
L 246.89507 130.592666 
L 247.54568 140.339341 
L 248.196291 138.814381 
L 248.846901 142.346435 
L 249.497511 114.022595 
L 250.148122 116.931467 
L 250.798732 149.390502 
L 252.099953 119.505003 
L 252.750563 107.776906 
L 253.401173 145.447579 
L 254.051784 150.499079 
L 254.702394 149.160107 
L 255.353004 140.60359 
L 256.003615 141.842186 
L 256.654225 122.932591 
L 257.304835 140.295882 
L 257.955445 142.63849 
L 258.606056 133.979996 
L 259.256666 117.896862 
L 259.907276 110.915996 
L 260.557887 120.161861 
L 261.208497 110.273308 
L 261.859107 147.122598 
L 262.509718 145.586492 
L 263.160328 132.623119 
L 263.810938 127.617687 
L 264.461549 112.621963 
L 265.112159 140.516436 
L 265.762769 137.285271 
L 266.413379 115.945143 
L 267.06399 113.995974 
L 267.7146 124.631681 
L 268.36521 93.303455 
L 269.015821 136.121497 
L 269.666431 103.147067 
L 270.317041 97.530548 
L 270.967652 139.473966 
L 271.618262 121.568243 
L 273.570093 132.854107 
L 274.220703 140.264163 
L 274.871314 135.277762 
L 275.521924 137.400172 
L 276.172534 105.339911 
L 276.823144 112.907615 
L 277.473755 138.424618 
L 278.124365 142.743727 
L 278.774975 137.280113 
L 279.425586 133.827388 
L 280.076196 118.657355 
L 280.726806 113.979492 
L 281.377417 144.467007 
L 282.028027 122.643559 
L 282.678637 133.814344 
L 283.329248 118.934292 
L 283.979858 109.089495 
L 284.630468 93.270431 
L 285.281079 135.341912 
L 285.931689 115.323859 
L 286.582299 124.488795 
L 287.232909 126.955316 
L 287.88352 106.161117 
L 289.18474 139.762049 
L 289.835351 129.750473 
L 290.485961 110.65234 
L 291.136571 118.615972 
L 291.787182 119.697394 
L 292.437792 117.22957 
L 293.088402 88.559781 
L 293.739013 118.981367 
L 294.389623 106.414456 
L 295.040233 111.790086 
L 295.690844 113.079433 
L 296.341454 123.652294 
L 296.992064 110.525403 
L 297.642674 119.369707 
L 298.293285 113.63633 
L 298.943895 122.726029 
L 299.594505 80.320576 
L 300.245116 95.240351 
L 300.895726 100.416949 
L 301.546336 112.968267 
L 302.196947 100.508076 
L 302.847557 103.54092 
L 303.498167 94.69217 
L 304.148778 95.956201 
L 305.449998 114.283761 
L 306.100608 111.985916 
L 306.751219 101.633787 
L 307.401829 116.376171 
L 308.052439 102.954498 
L 308.70305 98.642622 
L 309.35366 112.241212 
L 310.00427 117.882929 
L 310.654881 92.611143 
L 311.305491 83.436365 
L 311.956101 77.640913 
L 312.606712 127.444624 
L 313.257322 129.675769 
L 313.907932 104.620505 
L 314.558543 100.677226 
L 315.209153 99.491693 
L 315.859763 104.102857 
L 316.510373 123.09516 
L 317.160984 121.236346 
L 317.811594 99.789262 
L 318.462204 111.825244 
L 319.112815 120.124865 
L 319.763425 91.924226 
L 320.414035 110.424375 
L 321.064646 100.546376 
L 321.715256 96.794955 
L 322.365866 119.408897 
L 323.016477 116.417198 
L 324.317697 106.38831 
L 324.968308 105.346552 
L 326.269528 73.074809 
L 327.570749 115.279867 
L 328.221359 96.559461 
L 328.871969 117.816644 
L 329.52258 84.050475 
L 330.17319 106.576433 
L 330.8238 86.176265 
L 331.474411 84.845534 
L 332.125021 94.357605 
L 332.775631 69.51904 
L 333.426242 114.847772 
L 334.076852 108.106254 
L 334.727462 111.617794 
L 335.378073 108.308487 
L 336.028683 103.357304 
L 336.679293 84.608736 
L 337.329903 97.02873 
L 337.980514 92.936755 
L 338.631124 107.523329 
L 339.281734 106.473093 
L 339.932345 101.665269 
L 340.582955 99.098017 
L 341.233565 99.167918 
L 341.884176 107.96829 
L 342.534786 110.762972 
L 343.185396 89.409563 
L 343.836007 72.784591 
L 344.486617 99.80029 
L 345.137227 102.107858 
L 345.787837 107.822973 
L 346.438448 74.723503 
L 347.089058 106.14831 
L 347.739668 86.27747 
L 349.040889 115.200183 
L 349.691499 106.108765 
L 350.34211 103.763015 
L 350.99272 91.133377 
L 351.64333 86.112292 
L 352.293941 64.33918 
L 352.944551 87.453339 
L 353.595161 101.499854 
L 354.245772 95.386319 
L 354.896382 98.577286 
L 355.546992 93.972111 
L 356.197602 109.826273 
L 356.848213 90.865215 
L 357.498823 77.245577 
L 358.149433 84.089309 
L 358.800044 86.665454 
L 359.450654 100.57353 
L 360.101264 102.335051 
L 361.402485 84.772668 
L 362.053095 90.196026 
L 362.703706 88.844722 
L 363.354316 83.793815 
L 364.004926 93.974838 
L 364.655537 84.544171 
L 365.306147 82.243184 
L 365.956757 60.176594 
L 366.607367 75.5354 
L 367.257978 78.008087 
L 367.908588 73.209394 
L 368.559198 100.396258 
L 369.209809 75.744214 
L 369.860419 79.449746 
L 370.511029 74.47212 
L 371.16164 95.901596 
L 371.81225 70.164573 
L 372.46286 88.442686 
L 373.113471 93.994877 
L 373.764081 85.661878 
L 374.414691 90.754879 
L 375.065302 91.903594 
L 375.715912 72.298722 
L 376.366522 94.692525 
L 377.017132 94.81792 
L 377.667743 80.040556 
L 378.318353 78.130695 
L 378.968963 68.704475 
L 379.619574 93.903455 
L 380.270184 83.411997 
L 380.920794 93.563554 
L 381.571405 89.956856 
L 382.222015 71.561292 
L 382.872625 77.784154 
L 383.523236 86.95579 
L 384.173846 89.171402 
L 384.824456 86.78581 
L 385.475066 55.891457 
L 386.125677 89.491382 
L 386.776287 94.17885 
L 387.426897 80.767315 
L 388.077508 92.489246 
L 388.728118 91.50814 
L 389.378728 89.403338 
L 390.029339 87.685809 
L 390.679949 75.253068 
L 391.330559 74.309551 
L 391.98117 70.830916 
L 392.63178 91.678713 
L 393.28239 58.542958 
L 393.933001 75.461527 
L 394.583611 67.399831 
L 395.234221 53.568 
L 395.884831 54.382565 
L 396.535442 75.678167 
L 397.186052 63.77007 
L 397.836662 69.754119 
L 398.487273 85.098222 
L 398.487273 85.098222 
" clip-path="url(#p326d52184b)" style="fill: none; stroke: #1f77b4; stroke-width: 1.5; stroke-linecap: square"/>
   </g>
   <g id="patch_3">
    <path d="M 57.6 307.584 
L 57.6 41.472 
" style="fill: none; stroke: #000000; stroke-width: 0.8; stroke-linejoin: miter; stroke-linecap: square"/>
   </g>
   <g id="patch_4">
    <path d="M 414.72 307.584 
L 414.72 41.472 
" style="fill: none; stroke: #000000; stroke-width: 0.8; stroke-linejoin: miter; stroke-linecap: square"/>
   </g>
   <g id="patch_5">
    <path d="M 57.6 307.584 
L 414.72 307.584 
" style="fill: none; stroke: #000000; stroke-width: 0.8; stroke-linejoin: miter; stroke-linecap: square"/>
   </g>
   <g id="patch_6">
    <path d="M 57.6 41.472 
L 414.72 41.472 
" style="fill: none; stroke: #000000; stroke-width: 0.8; stroke-linejoin: miter; stroke-linecap: square"/>
   </g>
  </g>
 </g>
 <defs>
  <clipPath id="p326d52184b">
   <rect x="57.6" y="41.472" width="357.12" height="266.112"/>
  </clipPath>
 </defs>
</svg>
