<?xml version="1.0" encoding="utf-8" standalone="no"?>
<!DOCTYPE svg PUBLIC "-//W3C//DTD SVG 1.1//EN"
  "http://www.w3.org/Graphics/SVG/1.1/DTD/svg11.dtd">
<svg xmlns:xlink="http://www.w3.org/1999/xlink" width="460.8pt" height="345.6pt" viewBox="0 0 460.8 345.6" xmlns="http://www.w3.org/2000/svg" version="1.1">
 <metadata>
  <rdf:RDF xmlns:dc="http://purl.org/dc/elements/1.1/" xmlns:cc="http://creativecommons.org/ns#" xmlns:rdf="http://www.w3.org/1999/02/22-rdf-syntax-ns#">
   <cc:Work>
    <dc:type rdf:resource="http://purl.org/dc/dcmitype/StillImage"/>
    <dc:date/>
    <dc:format>image/svg+xml</dc:format>
    <dc:creator>
     <cc:Agent>
      <dc:title>Matplotlib v3.9.2, https://matplotlib.org/</dc:title>
     </cc:Agent>
    </dc:creator>
   </cc:Work>
  </rdf:RDF>
 </metadata>
 <defs>
  <style type="text/css">*{stroke-linejoin: round; stroke-linecap: butt}</style>
 </defs>
 <g id="figure_1">
  <g id="patch_1">
   <path d="M 0 345.6 
L 460.8 345.6 
L 460.8 0 
L 0 0 
z
" style="fill: #ffffff"/>
  </g>
  <g id="axes_1">
   <g id="patch_2">
    <path d="M 57.6 307.584 
L 414.72 307.584 
L 414.72 41.472 
L 57.6 41.472 
z
" style="fill: #ffffff"/>
   </g>
   <g id="patch_3">
    <path d="M 138.828632 307.584 
L 236.32249 307.584 
L 236.32249 24.486128 
L 138.828632 24.486128 
z
" clip-path="url(#pcd817e88c7)" style="fill: #808080; opacity: 0.2; stroke: #808080; stroke-linejoin: miter"/>
   </g>
   <g id="matplotlib.axis_1">
    <g id="xtick_1">
     <g id="line2d_1">
      <defs>
       <path id="m9f20daff7a" d="M 0 0 
L 0 3.5 
" style="stroke: #000000; stroke-width: 0.8"/>
      </defs>
      <g>
       <use xlink:href="#m9f20daff7a" x="73.832727" y="307.584" style="stroke: #000000; stroke-width: 0.8"/>
      </g>
     </g>
     <g id="text_1">
      <!-- 0 -->
      <g transform="translate(70.651477 322.182437) scale(0.1 -0.1)">
       <defs>
        <path id="DejaVuSans-30" d="M 2034 4250 
Q 1547 4250 1301 3770 
Q 1056 3291 1056 2328 
Q 1056 1369 1301 889 
Q 1547 409 2034 409 
Q 2525 409 2770 889 
Q 3016 1369 3016 2328 
Q 3016 3291 2770 3770 
Q 2525 4250 2034 4250 
z
M 2034 4750 
Q 2819 4750 3233 4129 
Q 3647 3509 3647 2328 
Q 3647 1150 3233 529 
Q 2819 -91 2034 -91 
Q 1250 -91 836 529 
Q 422 1150 422 2328 
Q 422 3509 836 4129 
Q 1250 4750 2034 4750 
z
" transform="scale(0.015625)"/>
       </defs>
       <use xlink:href="#DejaVuSans-30"/>
      </g>
     </g>
    </g>
    <g id="xtick_2">
     <g id="line2d_2">
      <g>
       <use xlink:href="#m9f20daff7a" x="138.828632" y="307.584" style="stroke: #000000; stroke-width: 0.8"/>
      </g>
     </g>
     <g id="text_2">
      <!-- 200 -->
      <g transform="translate(129.284882 322.182437) scale(0.1 -0.1)">
       <defs>
        <path id="DejaVuSans-32" d="M 1228 531 
L 3431 531 
L 3431 0 
L 469 0 
L 469 531 
Q 828 903 1448 1529 
Q 2069 2156 2228 2338 
Q 2531 2678 2651 2914 
Q 2772 3150 2772 3378 
Q 2772 3750 2511 3984 
Q 2250 4219 1831 4219 
Q 1534 4219 1204 4116 
Q 875 4013 500 3803 
L 500 4441 
Q 881 4594 1212 4672 
Q 1544 4750 1819 4750 
Q 2544 4750 2975 4387 
Q 3406 4025 3406 3419 
Q 3406 3131 3298 2873 
Q 3191 2616 2906 2266 
Q 2828 2175 2409 1742 
Q 1991 1309 1228 531 
z
" transform="scale(0.015625)"/>
       </defs>
       <use xlink:href="#DejaVuSans-32"/>
       <use xlink:href="#DejaVuSans-30" x="63.623047"/>
       <use xlink:href="#DejaVuSans-30" x="127.246094"/>
      </g>
     </g>
    </g>
    <g id="xtick_3">
     <g id="line2d_3">
      <g>
       <use xlink:href="#m9f20daff7a" x="203.824537" y="307.584" style="stroke: #000000; stroke-width: 0.8"/>
      </g>
     </g>
     <g id="text_3">
      <!-- 400 -->
      <g transform="translate(194.280787 322.182437) scale(0.1 -0.1)">
       <defs>
        <path id="DejaVuSans-34" d="M 2419 4116 
L 825 1625 
L 2419 1625 
L 2419 4116 
z
M 2253 4666 
L 3047 4666 
L 3047 1625 
L 3713 1625 
L 3713 1100 
L 3047 1100 
L 3047 0 
L 2419 0 
L 2419 1100 
L 313 1100 
L 313 1709 
L 2253 4666 
z
" transform="scale(0.015625)"/>
       </defs>
       <use xlink:href="#DejaVuSans-34"/>
       <use xlink:href="#DejaVuSans-30" x="63.623047"/>
       <use xlink:href="#DejaVuSans-30" x="127.246094"/>
      </g>
     </g>
    </g>
    <g id="xtick_4">
     <g id="line2d_4">
      <g>
       <use xlink:href="#m9f20daff7a" x="268.820442" y="307.584" style="stroke: #000000; stroke-width: 0.8"/>
      </g>
     </g>
     <g id="text_4">
      <!-- 600 -->
      <g transform="translate(259.276692 322.182437) scale(0.1 -0.1)">
       <defs>
        <path id="DejaVuSans-36" d="M 2113 2584 
Q 1688 2584 1439 2293 
Q 1191 2003 1191 1497 
Q 1191 994 1439 701 
Q 1688 409 2113 409 
Q 2538 409 2786 701 
Q 3034 994 3034 1497 
Q 3034 2003 2786 2293 
Q 2538 2584 2113 2584 
z
M 3366 4563 
L 3366 3988 
Q 3128 4100 2886 4159 
Q 2644 4219 2406 4219 
Q 1781 4219 1451 3797 
Q 1122 3375 1075 2522 
Q 1259 2794 1537 2939 
Q 1816 3084 2150 3084 
Q 2853 3084 3261 2657 
Q 3669 2231 3669 1497 
Q 3669 778 3244 343 
Q 2819 -91 2113 -91 
Q 1303 -91 875 529 
Q 447 1150 447 2328 
Q 447 3434 972 4092 
Q 1497 4750 2381 4750 
Q 2619 4750 2861 4703 
Q 3103 4656 3366 4563 
z
" transform="scale(0.015625)"/>
       </defs>
       <use xlink:href="#DejaVuSans-36"/>
       <use xlink:href="#DejaVuSans-30" x="63.623047"/>
       <use xlink:href="#DejaVuSans-30" x="127.246094"/>
      </g>
     </g>
    </g>
    <g id="xtick_5">
     <g id="line2d_5">
      <g>
       <use xlink:href="#m9f20daff7a" x="333.816347" y="307.584" style="stroke: #000000; stroke-width: 0.8"/>
      </g>
     </g>
     <g id="text_5">
      <!-- 800 -->
      <g transform="translate(324.272597 322.182437) scale(0.1 -0.1)">
       <defs>
        <path id="DejaVuSans-38" d="M 2034 2216 
Q 1584 2216 1326 1975 
Q 1069 1734 1069 1313 
Q 1069 891 1326 650 
Q 1584 409 2034 409 
Q 2484 409 2743 651 
Q 3003 894 3003 1313 
Q 3003 1734 2745 1975 
Q 2488 2216 2034 2216 
z
M 1403 2484 
Q 997 2584 770 2862 
Q 544 3141 544 3541 
Q 544 4100 942 4425 
Q 1341 4750 2034 4750 
Q 2731 4750 3128 4425 
Q 3525 4100 3525 3541 
Q 3525 3141 3298 2862 
Q 3072 2584 2669 2484 
Q 3125 2378 3379 2068 
Q 3634 1759 3634 1313 
Q 3634 634 3220 271 
Q 2806 -91 2034 -91 
Q 1263 -91 848 271 
Q 434 634 434 1313 
Q 434 1759 690 2068 
Q 947 2378 1403 2484 
z
M 1172 3481 
Q 1172 3119 1398 2916 
Q 1625 2713 2034 2713 
Q 2441 2713 2670 2916 
Q 2900 3119 2900 3481 
Q 2900 3844 2670 4047 
Q 2441 4250 2034 4250 
Q 1625 4250 1398 4047 
Q 1172 3844 1172 3481 
z
" transform="scale(0.015625)"/>
       </defs>
       <use xlink:href="#DejaVuSans-38"/>
       <use xlink:href="#DejaVuSans-30" x="63.623047"/>
       <use xlink:href="#DejaVuSans-30" x="127.246094"/>
      </g>
     </g>
    </g>
    <g id="xtick_6">
     <g id="line2d_6">
      <g>
       <use xlink:href="#m9f20daff7a" x="398.812252" y="307.584" style="stroke: #000000; stroke-width: 0.8"/>
      </g>
     </g>
     <g id="text_6">
      <!-- 1000 -->
      <g transform="translate(386.087252 322.182437) scale(0.1 -0.1)">
       <defs>
        <path id="DejaVuSans-31" d="M 794 531 
L 1825 531 
L 1825 4091 
L 703 3866 
L 703 4441 
L 1819 4666 
L 2450 4666 
L 2450 531 
L 3481 531 
L 3481 0 
L 794 0 
L 794 531 
z
" transform="scale(0.015625)"/>
       </defs>
       <use xlink:href="#DejaVuSans-31"/>
       <use xlink:href="#DejaVuSans-30" x="63.623047"/>
       <use xlink:href="#DejaVuSans-30" x="127.246094"/>
       <use xlink:href="#DejaVuSans-30" x="190.869141"/>
      </g>
     </g>
    </g>
   </g>
   <g id="matplotlib.axis_2">
    <g id="ytick_1">
     <g id="line2d_7">
      <defs>
       <path id="mfa59c00ecb" d="M 0 0 
L -3.5 0 
" style="stroke: #000000; stroke-width: 0.8"/>
      </defs>
      <g>
       <use xlink:href="#mfa59c00ecb" x="57.6" y="286.823489" style="stroke: #000000; stroke-width: 0.8"/>
      </g>
     </g>
     <g id="text_7">
      <!-- 0.00 -->
      <g transform="translate(28.334375 290.622708) scale(0.1 -0.1)">
       <defs>
        <path id="DejaVuSans-2e" d="M 684 794 
L 1344 794 
L 1344 0 
L 684 0 
L 684 794 
z
" transform="scale(0.015625)"/>
       </defs>
       <use xlink:href="#DejaVuSans-30"/>
       <use xlink:href="#DejaVuSans-2e" x="63.623047"/>
       <use xlink:href="#DejaVuSans-30" x="95.410156"/>
       <use xlink:href="#DejaVuSans-30" x="159.033203"/>
      </g>
     </g>
    </g>
    <g id="ytick_2">
     <g id="line2d_8">
      <g>
       <use xlink:href="#mfa59c00ecb" x="57.6" y="249.077106" style="stroke: #000000; stroke-width: 0.8"/>
      </g>
     </g>
     <g id="text_8">
      <!-- 0.02 -->
      <g transform="translate(28.334375 252.876325) scale(0.1 -0.1)">
       <use xlink:href="#DejaVuSans-30"/>
       <use xlink:href="#DejaVuSans-2e" x="63.623047"/>
       <use xlink:href="#DejaVuSans-30" x="95.410156"/>
       <use xlink:href="#DejaVuSans-32" x="159.033203"/>
      </g>
     </g>
    </g>
    <g id="ytick_3">
     <g id="line2d_9">
      <g>
       <use xlink:href="#mfa59c00ecb" x="57.6" y="211.330723" style="stroke: #000000; stroke-width: 0.8"/>
      </g>
     </g>
     <g id="text_9">
      <!-- 0.04 -->
      <g transform="translate(28.334375 215.129942) scale(0.1 -0.1)">
       <use xlink:href="#DejaVuSans-30"/>
       <use xlink:href="#DejaVuSans-2e" x="63.623047"/>
       <use xlink:href="#DejaVuSans-30" x="95.410156"/>
       <use xlink:href="#DejaVuSans-34" x="159.033203"/>
      </g>
     </g>
    </g>
    <g id="ytick_4">
     <g id="line2d_10">
      <g>
       <use xlink:href="#mfa59c00ecb" x="57.6" y="173.58434" style="stroke: #000000; stroke-width: 0.8"/>
      </g>
     </g>
     <g id="text_10">
      <!-- 0.06 -->
      <g transform="translate(28.334375 177.383559) scale(0.1 -0.1)">
       <use xlink:href="#DejaVuSans-30"/>
       <use xlink:href="#DejaVuSans-2e" x="63.623047"/>
       <use xlink:href="#DejaVuSans-30" x="95.410156"/>
       <use xlink:href="#DejaVuSans-36" x="159.033203"/>
      </g>
     </g>
    </g>
    <g id="ytick_5">
     <g id="line2d_11">
      <g>
       <use xlink:href="#mfa59c00ecb" x="57.6" y="135.837957" style="stroke: #000000; stroke-width: 0.8"/>
      </g>
     </g>
     <g id="text_11">
      <!-- 0.08 -->
      <g transform="translate(28.334375 139.637176) scale(0.1 -0.1)">
       <use xlink:href="#DejaVuSans-30"/>
       <use xlink:href="#DejaVuSans-2e" x="63.623047"/>
       <use xlink:href="#DejaVuSans-30" x="95.410156"/>
       <use xlink:href="#DejaVuSans-38" x="159.033203"/>
      </g>
     </g>
    </g>
    <g id="ytick_6">
     <g id="line2d_12">
      <g>
       <use xlink:href="#mfa59c00ecb" x="57.6" y="98.091574" style="stroke: #000000; stroke-width: 0.8"/>
      </g>
     </g>
     <g id="text_12">
      <!-- 0.10 -->
      <g transform="translate(28.334375 101.890793) scale(0.1 -0.1)">
       <use xlink:href="#DejaVuSans-30"/>
       <use xlink:href="#DejaVuSans-2e" x="63.623047"/>
       <use xlink:href="#DejaVuSans-31" x="95.410156"/>
       <use xlink:href="#DejaVuSans-30" x="159.033203"/>
      </g>
     </g>
    </g>
    <g id="ytick_7">
     <g id="line2d_13">
      <g>
       <use xlink:href="#mfa59c00ecb" x="57.6" y="60.345191" style="stroke: #000000; stroke-width: 0.8"/>
      </g>
     </g>
     <g id="text_13">
      <!-- 0.12 -->
      <g transform="translate(28.334375 64.14441) scale(0.1 -0.1)">
       <use xlink:href="#DejaVuSans-30"/>
       <use xlink:href="#DejaVuSans-2e" x="63.623047"/>
       <use xlink:href="#DejaVuSans-31" x="95.410156"/>
       <use xlink:href="#DejaVuSans-32" x="159.033203"/>
      </g>
     </g>
    </g>
    <g id="text_14">
     <!-- count/bin -->
     <g transform="translate(22.254687 198.050656) rotate(-90) scale(0.1 -0.1)">
      <defs>
       <path id="DejaVuSans-63" d="M 3122 3366 
L 3122 2828 
Q 2878 2963 2633 3030 
Q 2388 3097 2138 3097 
Q 1578 3097 1268 2742 
Q 959 2388 959 1747 
Q 959 1106 1268 751 
Q 1578 397 2138 397 
Q 2388 397 2633 464 
Q 2878 531 3122 666 
L 3122 134 
Q 2881 22 2623 -34 
Q 2366 -91 2075 -91 
Q 1284 -91 818 406 
Q 353 903 353 1747 
Q 353 2603 823 3093 
Q 1294 3584 2113 3584 
Q 2378 3584 2631 3529 
Q 2884 3475 3122 3366 
z
" transform="scale(0.015625)"/>
       <path id="DejaVuSans-6f" d="M 1959 3097 
Q 1497 3097 1228 2736 
Q 959 2375 959 1747 
Q 959 1119 1226 758 
Q 1494 397 1959 397 
Q 2419 397 2687 759 
Q 2956 1122 2956 1747 
Q 2956 2369 2687 2733 
Q 2419 3097 1959 3097 
z
M 1959 3584 
Q 2709 3584 3137 3096 
Q 3566 2609 3566 1747 
Q 3566 888 3137 398 
Q 2709 -91 1959 -91 
Q 1206 -91 779 398 
Q 353 888 353 1747 
Q 353 2609 779 3096 
Q 1206 3584 1959 3584 
z
" transform="scale(0.015625)"/>
       <path id="DejaVuSans-75" d="M 544 1381 
L 544 3500 
L 1119 3500 
L 1119 1403 
Q 1119 906 1312 657 
Q 1506 409 1894 409 
Q 2359 409 2629 706 
Q 2900 1003 2900 1516 
L 2900 3500 
L 3475 3500 
L 3475 0 
L 2900 0 
L 2900 538 
Q 2691 219 2414 64 
Q 2138 -91 1772 -91 
Q 1169 -91 856 284 
Q 544 659 544 1381 
z
M 1991 3584 
L 1991 3584 
z
" transform="scale(0.015625)"/>
       <path id="DejaVuSans-6e" d="M 3513 2113 
L 3513 0 
L 2938 0 
L 2938 2094 
Q 2938 2591 2744 2837 
Q 2550 3084 2163 3084 
Q 1697 3084 1428 2787 
Q 1159 2491 1159 1978 
L 1159 0 
L 581 0 
L 581 3500 
L 1159 3500 
L 1159 2956 
Q 1366 3272 1645 3428 
Q 1925 3584 2291 3584 
Q 2894 3584 3203 3211 
Q 3513 2838 3513 2113 
z
" transform="scale(0.015625)"/>
       <path id="DejaVuSans-74" d="M 1172 4494 
L 1172 3500 
L 2356 3500 
L 2356 3053 
L 1172 3053 
L 1172 1153 
Q 1172 725 1289 603 
Q 1406 481 1766 481 
L 2356 481 
L 2356 0 
L 1766 0 
Q 1100 0 847 248 
Q 594 497 594 1153 
L 594 3053 
L 172 3053 
L 172 3500 
L 594 3500 
L 594 4494 
L 1172 4494 
z
" transform="scale(0.015625)"/>
       <path id="DejaVuSans-2f" d="M 1625 4666 
L 2156 4666 
L 531 -594 
L 0 -594 
L 1625 4666 
z
" transform="scale(0.015625)"/>
       <path id="DejaVuSans-62" d="M 3116 1747 
Q 3116 2381 2855 2742 
Q 2594 3103 2138 3103 
Q 1681 3103 1420 2742 
Q 1159 2381 1159 1747 
Q 1159 1113 1420 752 
Q 1681 391 2138 391 
Q 2594 391 2855 752 
Q 3116 1113 3116 1747 
z
M 1159 2969 
Q 1341 3281 1617 3432 
Q 1894 3584 2278 3584 
Q 2916 3584 3314 3078 
Q 3713 2572 3713 1747 
Q 3713 922 3314 415 
Q 2916 -91 2278 -91 
Q 1894 -91 1617 61 
Q 1341 213 1159 525 
L 1159 0 
L 581 0 
L 581 4863 
L 1159 4863 
L 1159 2969 
z
" transform="scale(0.015625)"/>
       <path id="DejaVuSans-69" d="M 603 3500 
L 1178 3500 
L 1178 0 
L 603 0 
L 603 3500 
z
M 603 4863 
L 1178 4863 
L 1178 4134 
L 603 4134 
L 603 4863 
z
" transform="scale(0.015625)"/>
      </defs>
      <use xlink:href="#DejaVuSans-63"/>
      <use xlink:href="#DejaVuSans-6f" x="54.980469"/>
      <use xlink:href="#DejaVuSans-75" x="116.162109"/>
      <use xlink:href="#DejaVuSans-6e" x="179.541016"/>
      <use xlink:href="#DejaVuSans-74" x="242.919922"/>
      <use xlink:href="#DejaVuSans-2f" x="282.128906"/>
      <use xlink:href="#DejaVuSans-62" x="315.820312"/>
      <use xlink:href="#DejaVuSans-69" x="379.296875"/>
      <use xlink:href="#DejaVuSans-6e" x="407.080078"/>
     </g>
    </g>
   </g>
   <g id="line2d_14">
    <path d="M 73.832727 252.568781 
L 85.85697 252.568781 
L 86.181949 262.469304 
L 86.506929 261.79864 
L 87.156888 259.017817 
L 88.781785 250.594518 
L 89.431744 248.42385 
L 90.081704 247.28321 
L 90.406683 246.988014 
L 90.731663 246.905933 
L 91.381622 247.166544 
L 92.031581 247.75298 
L 94.306437 250.576811 
L 96.256314 252.250784 
L 97.881212 253.013184 
L 99.18113 253.271581 
L 100.806028 253.426325 
L 103.080885 253.370416 
L 109.255495 253.02732 
L 109.580475 262.279529 
L 109.905455 261.725703 
L 110.555414 258.910172 
L 112.180311 249.72133 
L 112.83027 247.489209 
L 113.15525 246.843348 
L 113.480229 246.498395 
L 113.805209 246.346621 
L 114.130188 246.401237 
L 114.780147 247.01419 
L 115.430106 247.879707 
L 116.730025 249.883243 
L 117.704963 251.215149 
L 119.329861 252.665785 
L 120.629779 253.241517 
L 121.604717 253.489377 
L 122.904636 253.586164 
L 123.554595 269.655467 
L 123.879574 268.231169 
L 124.529533 263.548578 
L 126.47941 245.976052 
L 127.129369 242.757764 
L 127.454349 241.877848 
L 127.779328 241.409701 
L 128.104308 253.869671 
L 128.429287 253.225465 
L 129.079247 250.435639 
L 130.379165 244.189055 
L 130.704144 243.314513 
L 131.354103 242.719531 
L 131.679083 242.810629 
L 132.004062 243.207733 
L 132.654021 244.636506 
L 132.979001 245.541818 
L 133.30398 258.104453 
L 133.62896 257.824773 
L 133.953939 257.133482 
L 134.603898 254.900855 
L 135.578837 251.298313 
L 136.228796 249.71046 
L 136.553776 249.117563 
L 136.878755 248.864495 
L 137.528714 248.892858 
L 138.178673 249.351333 
L 138.503653 249.672684 
L 138.828632 127.23977 
L 140.778509 137.517341 
L 141.428468 140.252495 
L 143.053366 145.086066 
L 144.028305 146.485464 
L 144.678264 147.231982 
L 145.328223 147.660229 
L 145.978182 147.725123 
L 146.628141 147.645717 
L 147.2781 147.397811 
L 147.603079 147.21245 
L 147.928059 186.728326 
L 148.253038 183.832229 
L 148.902998 172.055409 
L 150.527895 136.73827 
L 151.177854 127.305199 
L 151.827813 121.963076 
L 152.152793 120.395978 
L 152.477772 119.696511 
L 152.802752 119.654621 
L 153.127731 120.065769 
L 153.452711 120.729042 
L 153.77769 121.858106 
L 154.10267 169.204569 
L 154.427649 167.409736 
L 155.077609 156.80723 
L 156.702506 126.006692 
L 157.352465 119.196311 
L 157.677445 117.277546 
L 158.002424 116.133816 
L 158.327404 115.566851 
L 158.652383 115.893039 
L 158.977363 116.833775 
L 159.627322 119.5502 
L 162.552138 134.877257 
L 163.527076 138.573172 
L 163.852056 181.456806 
L 164.177035 209.607607 
L 164.502015 203.946264 
L 165.151974 184.526374 
L 165.801933 158.878057 
L 166.126912 185.771875 
L 167.101851 144.4654 
L 167.75181 115.152399 
L 168.07679 154.33268 
L 169.051728 117.024324 
L 169.701687 92.477497 
L 170.351646 76.67091 
L 170.676626 71.853201 
L 171.001605 69.855185 
L 171.326585 69.763194 
L 171.651564 71.867544 
L 172.301523 79.324437 
L 173.276462 95.449111 
L 174.2514 111.827781 
L 175.551319 129.451312 
L 176.201278 135.810625 
L 177.501196 144.6644 
L 178.151155 147.488564 
L 178.476134 148.444108 
L 178.801114 186.155519 
L 179.126093 184.515195 
L 179.451073 180.40719 
L 180.101032 167.411832 
L 181.40095 139.446651 
L 181.72593 134.715632 
L 182.050909 174.858994 
L 182.375889 169.870872 
L 183.350827 147.051754 
L 184.325766 126.164281 
L 184.650745 121.306482 
L 185.300704 115.78153 
L 185.625684 114.471929 
L 185.950663 114.456742 
L 186.275643 115.212442 
L 186.600622 162.100574 
L 186.925602 160.916557 
L 187.575561 150.465846 
L 188.875479 124.764826 
L 189.200459 120.038405 
L 189.850418 115.054136 
L 190.175397 114.217793 
L 190.500377 114.315957 
L 190.825356 115.194485 
L 191.150336 116.776502 
L 192.450254 125.990718 
L 193.425192 133.28018 
L 194.400131 139.214832 
L 194.725111 180.046622 
L 195.05009 178.20656 
L 195.37507 174.300305 
L 196.025029 161.734297 
L 197.324947 134.579094 
L 197.974906 126.50685 
L 198.299885 124.209364 
L 198.624865 122.987156 
L 198.949844 122.412935 
L 199.274824 122.614818 
L 199.599803 203.150713 
L 199.924783 199.226965 
L 200.574742 181.198389 
L 202.524619 111.70896 
L 203.174578 98.775121 
L 203.499558 147.154362 
L 203.824537 142.479125 
L 204.149517 178.823303 
L 204.474496 170.533519 
L 205.124455 144.397159 
L 205.449435 172.065554 
L 206.099394 142.987171 
L 207.399312 77.804375 
L 208.049271 58.960113 
L 208.374251 55.642526 
L 208.69923 55.398683 
L 209.02421 57.956253 
L 209.349189 62.750465 
L 209.674169 126.034759 
L 209.999148 127.831287 
L 210.324128 126.701351 
L 210.649107 123.93228 
L 211.624046 113.400236 
L 212.274005 109.033441 
L 212.598984 109.066008 
L 212.923964 110.155784 
L 213.248943 161.86462 
L 213.573923 160.200919 
L 214.223882 151.480223 
L 215.198821 136.986317 
L 215.84878 130.274184 
L 216.498739 126.918111 
L 216.823718 126.741679 
L 217.473677 128.495515 
L 218.123636 131.347128 
L 220.723473 146.191408 
L 221.373432 148.859348 
L 222.34837 151.384646 
L 222.998329 152.499143 
L 223.648288 152.882645 
L 224.298247 153.119949 
L 224.948206 153.102091 
L 225.598165 152.72673 
L 226.898084 151.626492 
L 227.548043 150.930076 
L 228.198002 213.638336 
L 228.522981 207.965279 
L 229.17294 187.438761 
L 231.122817 110.069712 
L 231.447797 102.13734 
L 231.772776 96.983713 
L 232.097756 93.793876 
L 232.422735 92.260484 
L 232.747715 92.647741 
L 233.072695 94.293021 
L 233.397674 96.529663 
L 233.722654 149.24271 
L 234.047633 149.113075 
L 234.372613 146.206327 
L 235.347551 128.623532 
L 235.99751 118.205276 
L 236.32249 258.436536 
L 236.972449 255.438505 
L 238.272367 248.161281 
L 238.922326 245.883343 
L 239.247305 245.287222 
L 239.572285 244.937548 
L 239.897265 244.987288 
L 240.547224 245.477961 
L 241.197183 246.688674 
L 243.14706 250.882268 
L 243.472039 251.480622 
L 243.797019 262.136234 
L 244.121998 261.750038 
L 244.446978 260.860589 
L 245.421916 256.74316 
L 246.396855 252.758082 
L 247.046814 250.998393 
L 247.696773 250.16406 
L 248.021753 249.966537 
L 248.346732 249.93584 
L 248.996691 250.199411 
L 249.64665 250.744763 
L 251.271548 252.487381 
L 251.921507 253.060224 
L 253.546405 254.012937 
L 255.171302 254.383338 
L 256.146241 254.433633 
L 258.746077 254.24591 
L 259.071057 263.622804 
L 259.396036 262.983703 
L 260.045995 260.215416 
L 261.670893 251.823335 
L 261.995872 261.10963 
L 262.645831 257.710383 
L 264.270729 247.397661 
L 264.920688 244.967749 
L 265.245667 244.248043 
L 265.570647 243.912023 
L 265.895627 243.806044 
L 266.220606 243.934322 
L 266.870565 244.855168 
L 267.845504 246.674742 
L 268.820442 248.763224 
L 270.12036 251.026445 
L 271.420278 252.577312 
L 272.395217 253.270311 
L 273.370156 253.780544 
L 274.345094 254.033531 
L 275.969992 254.171011 
L 277.594889 254.095254 
L 283.119541 253.487152 
L 283.444521 262.61068 
L 283.7695 262.040244 
L 284.419459 259.249874 
L 285.719378 251.668661 
L 286.044357 260.707485 
L 286.694316 256.933241 
L 287.994234 247.959089 
L 288.644193 244.935977 
L 289.294152 243.350103 
L 289.619132 243.178689 
L 290.269091 243.427182 
L 290.59407 243.88204 
L 291.893989 246.608181 
L 293.193907 249.479547 
L 294.168845 251.156016 
L 295.468763 252.754025 
L 296.118722 253.240659 
L 296.768681 253.610522 
L 297.093661 262.844495 
L 297.41864 262.398311 
L 297.74362 261.348575 
L 298.393579 258.115131 
L 299.693497 251.277045 
L 300.018477 260.144318 
L 300.668436 257.097499 
L 302.293333 246.900171 
L 302.618313 245.515231 
L 302.943292 244.678213 
L 303.268272 256.503044 
L 303.593251 255.60902 
L 305.543129 246.795233 
L 305.868108 245.986376 
L 306.518067 245.400727 
L 306.843047 245.394104 
L 307.168026 245.631802 
L 307.817985 246.594014 
L 311.067781 252.512636 
L 312.042719 253.532958 
L 313.017658 254.250083 
L 314.317576 254.699226 
L 314.967535 254.826645 
L 315.292514 264.112987 
L 315.617494 263.487304 
L 316.267453 260.850407 
L 316.592432 259.197015 
L 317.242391 270.438246 
L 317.567371 268.33926 
L 318.21733 261.769556 
L 319.842228 241.830341 
L 320.492187 237.292722 
L 320.817166 236.217422 
L 321.142146 235.835558 
L 321.467125 236.013131 
L 321.792105 236.707297 
L 322.442064 238.832357 
L 324.716921 248.229698 
L 325.36688 250.110148 
L 326.666798 252.948508 
L 327.316757 253.780699 
L 328.291695 254.64132 
L 328.941654 255.021876 
L 329.916593 255.258066 
L 331.216511 255.329749 
L 332.516429 255.184784 
L 335.766224 254.447705 
L 338.041081 254.070073 
L 340.640917 253.717932 
L 340.965897 263.259719 
L 341.290876 262.516521 
L 341.615856 273.697562 
L 341.940835 272.157823 
L 342.265815 269.672149 
L 342.590794 272.014464 
L 343.240753 264.078513 
L 344.215692 245.826355 
L 345.190631 229.121175 
L 345.84059 223.732472 
L 346.165569 222.959238 
L 346.490549 223.330226 
L 346.815528 224.517694 
L 347.465487 228.519481 
L 349.415364 242.71347 
L 350.390303 247.766307 
L 351.040262 250.270981 
L 351.365242 251.277793 
L 351.690221 262.184091 
L 352.015201 262.088285 
L 352.34018 261.337764 
L 352.990139 258.999516 
L 354.290057 253.905088 
L 354.940016 252.23996 
L 355.589975 251.392139 
L 355.914955 251.174258 
L 356.239934 251.12062 
L 356.889894 251.321128 
L 357.539853 251.735415 
L 358.189812 252.311713 
L 358.514791 262.32711 
L 358.839771 261.89556 
L 359.16475 260.98619 
L 359.814709 258.143907 
L 360.789648 253.647065 
L 361.439607 251.492237 
L 362.089566 250.074667 
L 362.739525 249.585368 
L 363.064505 249.604977 
L 363.714464 249.97472 
L 364.364423 250.539147 
L 365.98932 252.284852 
L 366.639279 252.845527 
L 368.264177 253.75498 
L 369.889075 254.053952 
L 370.864013 254.056057 
L 371.188993 263.029929 
L 371.513972 262.469304 
L 371.838952 261.330037 
L 372.488911 257.951153 
L 373.13887 254.15605 
L 373.463849 262.374601 
L 374.113808 258.402122 
L 375.413726 248.882009 
L 376.063686 245.60255 
L 376.388665 244.639442 
L 376.713645 256.326292 
L 377.363604 253.737811 
L 378.663522 246.906365 
L 379.313481 244.730248 
L 379.96344 243.855752 
L 380.288419 243.853787 
L 380.613399 255.909896 
L 380.938378 255.487858 
L 381.263358 254.440938 
L 383.213235 246.039143 
L 383.538215 245.373768 
L 383.863194 244.982194 
L 384.188174 245.030952 
L 384.838133 245.77915 
L 385.488092 247.031514 
L 387.112989 250.764235 
L 388.412907 253.073227 
L 389.062867 253.784074 
L 390.037805 254.648969 
L 390.687764 254.991444 
L 391.987682 255.340186 
L 392.962621 255.376272 
L 394.912498 255.154562 
L 396.212416 254.894548 
L 396.537396 263.622804 
L 396.862375 263.006827 
L 397.512334 260.237355 
L 398.487273 254.514111 
L 398.487273 254.514111 
" clip-path="url(#pcd817e88c7)" style="fill: none; stroke: #1f77b4; stroke-width: 1.5; stroke-linecap: square"/>
   </g>
   <g id="line2d_15">
    <path d="M 73.832727 252.568781 
L 85.85697 252.568781 
L 86.181949 264.463003 
L 86.506929 245.34138 
L 86.831908 243.514698 
L 87.156888 243.319839 
L 87.481867 243.779967 
L 88.456806 246.304313 
L 89.431744 248.819822 
L 90.406683 250.737869 
L 91.706601 252.421823 
L 92.68154 253.262349 
L 93.981458 253.892232 
L 95.281376 254.172351 
L 96.581294 254.266511 
L 98.856151 254.137358 
L 109.255495 253.131541 
L 109.580475 261.2092 
L 109.905455 250.521461 
L 110.230434 245.145593 
L 110.555414 242.590885 
L 110.880393 241.895119 
L 111.205373 242.329092 
L 111.855332 244.692668 
L 112.83027 248.698298 
L 113.805209 251.533325 
L 114.780147 253.227199 
L 115.755086 254.098921 
L 116.405045 254.403288 
L 117.379984 254.607449 
L 118.679902 254.577578 
L 120.954758 254.234141 
L 122.904636 253.890053 
L 123.229615 265.231053 
L 123.554595 260.605976 
L 123.879574 236.220635 
L 124.204554 233.634218 
L 124.529533 233.900587 
L 125.179492 237.194487 
L 126.47941 244.77071 
L 127.454349 248.954057 
L 127.779328 250.027364 
L 128.104308 259.569093 
L 128.429287 249.162612 
L 128.754267 244.511892 
L 129.079247 242.714209 
L 129.404226 242.796863 
L 129.729206 243.915483 
L 131.679083 252.985676 
L 132.329042 254.900887 
L 132.979001 256.158298 
L 133.30398 267.115062 
L 133.62896 250.731531 
L 133.953939 249.400823 
L 134.278919 249.506303 
L 134.928878 250.805615 
L 136.228796 253.716757 
L 136.878755 254.802403 
L 137.853694 255.929466 
L 138.503653 256.50297 
L 139.478591 256.891071 
L 140.45353 256.991625 
L 141.428468 256.951388 
L 144.353284 256.315472 
L 147.603079 255.388196 
L 147.928059 266.254459 
L 148.253038 248.501484 
L 148.578018 246.674524 
L 148.902998 246.356724 
L 149.227977 246.647171 
L 149.877936 247.905313 
L 151.177854 250.659919 
L 152.152793 252.185194 
L 153.452711 253.468035 
L 153.77769 253.692276 
L 154.10267 265.356488 
L 154.427649 247.221198 
L 154.752629 245.608481 
L 155.077609 245.586418 
L 155.402588 246.17959 
L 157.677445 251.841278 
L 158.652383 253.351661 
L 159.302342 254.117869 
L 160.60226 254.999993 
L 161.902179 255.369118 
L 163.202097 255.450021 
L 163.527076 255.444101 
L 163.852056 266.334217 
L 164.177035 261.89556 
L 164.502015 238.601584 
L 164.826994 236.208447 
L 165.151974 236.42841 
L 165.801933 239.508802 
L 166.126912 257.199931 
L 166.451892 234.131285 
L 166.776871 233.988374 
L 167.42683 238.182569 
L 167.75181 240.569839 
L 168.07679 258.160065 
L 168.401769 236.318065 
L 168.726749 236.485089 
L 169.376708 240.916525 
L 170.676626 249.404954 
L 171.651564 253.54652 
L 172.301523 255.472843 
L 173.276462 257.327336 
L 174.2514 258.405202 
L 174.90136 258.774036 
L 175.876298 259.075837 
L 176.851237 259.052804 
L 178.151155 258.740893 
L 178.476134 258.633771 
L 178.801114 265.398136 
L 179.126093 256.207894 
L 179.451073 251.555574 
L 179.776052 249.230203 
L 180.101032 248.465128 
L 180.426011 248.66191 
L 181.075971 250.356553 
L 181.72593 252.36102 
L 182.050909 264.935534 
L 182.375889 247.221198 
L 182.700868 246.34099 
L 183.025848 246.962875 
L 183.675807 249.067929 
L 184.650745 252.211443 
L 185.625684 254.458343 
L 186.275643 255.544505 
L 186.600622 263.396533 
L 186.925602 253.933412 
L 187.250581 249.448288 
L 187.575561 247.414826 
L 187.900541 247.036741 
L 188.22552 247.650454 
L 189.200459 251.263616 
L 190.175397 254.437584 
L 190.825356 255.893356 
L 191.800295 257.141445 
L 192.775233 257.566558 
L 193.425192 257.598449 
L 194.400131 257.430861 
L 194.725111 264.288669 
L 195.05009 254.936835 
L 195.37507 250.071032 
L 195.700049 247.657112 
L 196.025029 246.885631 
L 196.350008 247.127013 
L 196.999967 248.988723 
L 197.974906 252.20835 
L 198.949844 254.452036 
L 199.274824 254.905566 
L 199.599803 273.387395 
L 199.924783 241.400828 
L 200.249762 237.472858 
L 200.574742 237.324568 
L 200.899722 238.628527 
L 202.849599 249.347143 
L 203.174578 250.56173 
L 203.499558 260.092526 
L 203.824537 250.239483 
L 204.149517 259.936553 
L 204.474496 235.3354 
L 204.799476 233.374306 
L 205.124455 234.469953 
L 205.449435 248.943501 
L 205.774414 236.609239 
L 206.099394 232.749952 
L 206.424373 232.862463 
L 207.074333 238.638609 
L 208.049271 248.32557 
L 208.69923 253.059123 
L 209.349189 256.248022 
L 209.674169 264.635993 
L 209.999148 256.207894 
L 210.324128 252.651561 
L 210.649107 251.386546 
L 210.974087 251.378988 
L 211.299066 252.170257 
L 212.923964 257.796616 
L 213.248943 268.33926 
L 213.573923 253.420029 
L 213.898903 252.610196 
L 214.223882 252.894803 
L 216.173759 257.358205 
L 216.823718 258.246681 
L 217.473677 258.89196 
L 218.448616 259.39956 
L 219.748534 259.501672 
L 221.373432 259.099208 
L 222.998329 258.416256 
L 227.548043 256.124663 
L 227.873022 263.396533 
L 228.198002 264.977996 
L 228.522981 240.336817 
L 228.847961 235.036938 
L 229.17294 233.767515 
L 229.49792 234.620813 
L 230.147879 238.885246 
L 231.122817 245.744161 
L 231.772776 249.180921 
L 232.422735 251.760163 
L 233.072695 253.597423 
L 233.397674 254.263312 
L 233.722654 262.374601 
L 234.047633 252.832967 
L 234.372613 248.325113 
L 234.697592 246.377736 
L 235.022572 246.046223 
L 235.347551 246.716895 
L 235.99751 249.231985 
L 236.32249 263.168068 
L 236.647469 244.368646 
L 236.972449 243.995497 
L 237.297428 244.973831 
L 238.922326 252.041575 
L 239.897265 254.619827 
L 240.547224 255.805678 
L 241.522162 256.869398 
L 242.497101 257.376545 
L 243.14706 257.539498 
L 243.472039 257.574601 
L 243.797019 267.75546 
L 244.121998 251.423106 
L 244.446978 249.776631 
L 244.771957 249.51216 
L 245.096937 249.805056 
L 245.746896 251.008348 
L 247.046814 253.519139 
L 248.021753 254.82964 
L 249.321671 255.915233 
L 250.296609 256.388142 
L 251.596527 256.589948 
L 252.571466 256.485769 
L 254.196364 256.088074 
L 258.746077 254.759086 
L 259.071057 265.851016 
L 259.396036 247.828871 
L 259.721016 245.967724 
L 260.045995 245.674883 
L 260.370975 246.001015 
L 261.020934 247.332443 
L 261.670893 248.850156 
L 261.995872 262.469304 
L 262.320852 242.526363 
L 262.645831 241.266406 
L 262.970811 241.7374 
L 263.945749 245.463509 
L 264.920688 249.027037 
L 265.570647 250.986113 
L 266.545586 253.052518 
L 267.195545 254.087921 
L 268.495463 255.286337 
L 269.470401 255.723393 
L 270.44534 255.897188 
L 271.745258 255.887092 
L 273.695135 255.55187 
L 276.294971 254.947072 
L 281.169664 253.967413 
L 283.119541 253.696892 
L 283.444521 261.701344 
L 283.7695 251.078976 
L 284.09448 245.784775 
L 284.419459 243.249081 
L 284.744439 242.542056 
L 285.069419 242.945923 
L 285.719378 245.225745 
L 286.044357 260.555074 
L 286.369337 239.613842 
L 286.694316 239.141987 
L 287.019296 240.185387 
L 288.644193 248.203722 
L 289.619132 251.310712 
L 290.269091 252.783445 
L 291.244029 254.241787 
L 292.218968 255.060036 
L 292.868927 255.37612 
L 293.843866 255.671045 
L 295.143784 255.701162 
L 296.443702 255.579585 
L 296.768681 255.52034 
L 297.093661 263.029929 
L 297.41864 252.964306 
L 297.74362 247.927686 
L 298.0686 245.489066 
L 298.393579 244.792671 
L 298.718559 245.147274 
L 299.368518 247.241503 
L 299.693497 248.51235 
L 300.018477 258.710358 
L 300.343456 248.129245 
L 300.668436 243.540825 
L 300.993415 242.019937 
L 301.318395 242.384154 
L 301.643374 243.543113 
L 302.943292 250.22932 
L 303.268272 263.846906 
L 303.593251 245.74015 
L 303.918231 245.03979 
L 304.56819 247.130623 
L 305.543129 250.993366 
L 306.518067 253.812953 
L 307.493006 255.552977 
L 308.467944 256.558552 
L 309.767862 257.122465 
L 311.067781 257.12977 
L 313.017658 256.680698 
L 314.967535 255.983481 
L 315.292514 266.610953 
L 315.617494 249.235367 
L 315.942473 247.412095 
L 316.267453 247.089602 
L 316.592432 247.36695 
L 316.917412 257.257281 
L 317.242391 259.988644 
L 317.567371 230.890644 
L 317.892351 226.02818 
L 318.21733 225.937363 
L 318.54231 228.345753 
L 320.492187 247.093743 
L 321.467125 252.319011 
L 322.117084 254.592392 
L 322.767043 256.073482 
L 323.417002 257.139321 
L 324.066962 257.721485 
L 324.716921 258.115704 
L 325.36688 258.294988 
L 326.341818 258.261216 
L 327.316757 258.046022 
L 328.941654 257.381475 
L 335.116265 254.878859 
L 337.391122 254.338418 
L 340.640917 253.827257 
L 340.965897 265.272946 
L 341.290876 246.604149 
L 341.615856 266.053714 
L 341.940835 231.956912 
L 342.265815 221.514793 
L 342.590794 234.63634 
L 342.915774 214.336074 
L 343.240753 207.511462 
L 343.565733 208.078778 
L 343.890713 212.38934 
L 345.190631 235.85202 
L 345.84059 244.062785 
L 346.490549 249.488751 
L 347.140508 253.251068 
L 347.790467 255.818851 
L 348.440426 257.36937 
L 349.090385 258.425517 
L 349.740344 258.990427 
L 350.390303 259.279608 
L 351.040262 259.366711 
L 351.365242 259.350264 
L 351.690221 268.870403 
L 352.015201 253.420029 
L 352.34018 251.799979 
L 352.66516 251.497939 
L 352.990139 251.709644 
L 353.640098 252.684469 
L 354.940016 254.791136 
L 355.914955 255.903154 
L 357.214873 256.758367 
L 358.189812 257.030724 
L 358.514791 267.381307 
L 358.839771 250.731531 
L 359.16475 249.128457 
L 359.48973 248.931773 
L 359.814709 249.278983 
L 360.464668 250.544047 
L 361.764586 253.219781 
L 362.739525 254.674136 
L 364.039443 255.901899 
L 365.014382 256.391929 
L 366.3143 256.526952 
L 367.289238 256.386821 
L 368.589156 256.021472 
L 370.864013 255.191649 
L 371.188993 262.751238 
L 371.513972 252.635021 
L 371.838952 247.373992 
L 372.163931 244.854433 
L 372.488911 244.115101 
L 372.81389 244.46589 
L 373.13887 245.419254 
L 373.463849 260.555074 
L 373.788829 239.886251 
L 374.113808 239.213778 
L 374.763767 242.235583 
L 375.738706 247.414113 
L 376.388665 250.137445 
L 376.713645 263.577726 
L 377.038624 244.857798 
L 377.363604 243.943771 
L 377.688583 244.658952 
L 378.338542 247.029197 
L 379.313481 250.658404 
L 380.288419 253.299461 
L 380.613399 261.992107 
L 380.938378 252.235685 
L 381.263358 247.621033 
L 381.588337 245.830764 
L 381.913317 245.703007 
L 382.238296 246.461473 
L 384.513153 255.150533 
L 385.163112 256.446969 
L 385.813071 257.37221 
L 386.46303 257.843471 
L 387.112989 258.105091 
L 388.087928 258.094598 
L 389.062867 257.878733 
L 391.012744 257.09501 
L 394.912498 255.523096 
L 396.212416 255.12247 
L 396.537396 262.657623 
L 396.862375 252.435926 
L 397.187355 247.288114 
L 397.512334 244.752444 
L 397.837314 243.991215 
L 398.162293 244.315571 
L 398.487273 245.238034 
L 398.487273 245.238034 
" clip-path="url(#pcd817e88c7)" style="fill: none; stroke: #ff7f0e; stroke-width: 1.5; stroke-linecap: square"/>
   </g>
   <g id="LineCollection_1">
    <path d="M 85.85697 286.823489 
L 85.85697 267.950298 
" clip-path="url(#pcd817e88c7)" style="fill: none; stroke: #1f77b4; stroke-width: 1.5"/>
    <path d="M 122.904636 286.823489 
L 122.904636 267.950298 
" clip-path="url(#pcd817e88c7)" style="fill: none; stroke: #1f77b4; stroke-width: 1.5"/>
    <path d="M 123.229615 286.823489 
L 123.229615 267.950298 
" clip-path="url(#pcd817e88c7)" style="fill: none; stroke: #1f77b4; stroke-width: 1.5"/>
    <path d="M 132.979001 286.823489 
L 132.979001 267.950298 
" clip-path="url(#pcd817e88c7)" style="fill: none; stroke: #1f77b4; stroke-width: 1.5"/>
    <path d="M 147.603079 286.823489 
L 147.603079 267.950298 
" clip-path="url(#pcd817e88c7)" style="fill: none; stroke: #1f77b4; stroke-width: 1.5"/>
    <path d="M 153.77769 286.823489 
L 153.77769 267.950298 
" clip-path="url(#pcd817e88c7)" style="fill: none; stroke: #1f77b4; stroke-width: 1.5"/>
    <path d="M 163.527076 286.823489 
L 163.527076 267.950298 
" clip-path="url(#pcd817e88c7)" style="fill: none; stroke: #1f77b4; stroke-width: 1.5"/>
    <path d="M 163.852056 286.823489 
L 163.852056 267.950298 
" clip-path="url(#pcd817e88c7)" style="fill: none; stroke: #1f77b4; stroke-width: 1.5"/>
    <path d="M 165.801933 286.823489 
L 165.801933 267.950298 
" clip-path="url(#pcd817e88c7)" style="fill: none; stroke: #1f77b4; stroke-width: 1.5"/>
    <path d="M 167.75181 286.823489 
L 167.75181 267.950298 
" clip-path="url(#pcd817e88c7)" style="fill: none; stroke: #1f77b4; stroke-width: 1.5"/>
    <path d="M 181.72593 286.823489 
L 181.72593 267.950298 
" clip-path="url(#pcd817e88c7)" style="fill: none; stroke: #1f77b4; stroke-width: 1.5"/>
    <path d="M 199.274824 286.823489 
L 199.274824 267.950298 
" clip-path="url(#pcd817e88c7)" style="fill: none; stroke: #1f77b4; stroke-width: 1.5"/>
    <path d="M 203.824537 286.823489 
L 203.824537 267.950298 
" clip-path="url(#pcd817e88c7)" style="fill: none; stroke: #1f77b4; stroke-width: 1.5"/>
    <path d="M 212.923964 286.823489 
L 212.923964 267.950298 
" clip-path="url(#pcd817e88c7)" style="fill: none; stroke: #1f77b4; stroke-width: 1.5"/>
    <path d="M 227.873022 286.823489 
L 227.873022 267.950298 
" clip-path="url(#pcd817e88c7)" style="fill: none; stroke: #1f77b4; stroke-width: 1.5"/>
    <path d="M 235.99751 286.823489 
L 235.99751 267.950298 
" clip-path="url(#pcd817e88c7)" style="fill: none; stroke: #1f77b4; stroke-width: 1.5"/>
    <path d="M 243.472039 286.823489 
L 243.472039 267.950298 
" clip-path="url(#pcd817e88c7)" style="fill: none; stroke: #1f77b4; stroke-width: 1.5"/>
    <path d="M 258.746077 286.823489 
L 258.746077 267.950298 
" clip-path="url(#pcd817e88c7)" style="fill: none; stroke: #1f77b4; stroke-width: 1.5"/>
    <path d="M 261.670893 286.823489 
L 261.670893 267.950298 
" clip-path="url(#pcd817e88c7)" style="fill: none; stroke: #1f77b4; stroke-width: 1.5"/>
    <path d="M 285.719378 286.823489 
L 285.719378 267.950298 
" clip-path="url(#pcd817e88c7)" style="fill: none; stroke: #1f77b4; stroke-width: 1.5"/>
    <path d="M 302.943292 286.823489 
L 302.943292 267.950298 
" clip-path="url(#pcd817e88c7)" style="fill: none; stroke: #1f77b4; stroke-width: 1.5"/>
    <path d="M 314.967535 286.823489 
L 314.967535 267.950298 
" clip-path="url(#pcd817e88c7)" style="fill: none; stroke: #1f77b4; stroke-width: 1.5"/>
    <path d="M 316.917412 286.823489 
L 316.917412 267.950298 
" clip-path="url(#pcd817e88c7)" style="fill: none; stroke: #1f77b4; stroke-width: 1.5"/>
    <path d="M 340.640917 286.823489 
L 340.640917 267.950298 
" clip-path="url(#pcd817e88c7)" style="fill: none; stroke: #1f77b4; stroke-width: 1.5"/>
    <path d="M 341.290876 286.823489 
L 341.290876 267.950298 
" clip-path="url(#pcd817e88c7)" style="fill: none; stroke: #1f77b4; stroke-width: 1.5"/>
    <path d="M 351.365242 286.823489 
L 351.365242 267.950298 
" clip-path="url(#pcd817e88c7)" style="fill: none; stroke: #1f77b4; stroke-width: 1.5"/>
    <path d="M 358.189812 286.823489 
L 358.189812 267.950298 
" clip-path="url(#pcd817e88c7)" style="fill: none; stroke: #1f77b4; stroke-width: 1.5"/>
    <path d="M 373.13887 286.823489 
L 373.13887 267.950298 
" clip-path="url(#pcd817e88c7)" style="fill: none; stroke: #1f77b4; stroke-width: 1.5"/>
    <path d="M 376.388665 286.823489 
L 376.388665 267.950298 
" clip-path="url(#pcd817e88c7)" style="fill: none; stroke: #1f77b4; stroke-width: 1.5"/>
   </g>
   <g id="LineCollection_2">
    <path d="M 109.255495 305.696681 
L 109.255495 286.823489 
" clip-path="url(#pcd817e88c7)" style="fill: none; stroke: #ff7f0e; stroke-width: 1.5"/>
    <path d="M 127.779328 305.696681 
L 127.779328 286.823489 
" clip-path="url(#pcd817e88c7)" style="fill: none; stroke: #ff7f0e; stroke-width: 1.5"/>
    <path d="M 178.476134 305.696681 
L 178.476134 286.823489 
" clip-path="url(#pcd817e88c7)" style="fill: none; stroke: #ff7f0e; stroke-width: 1.5"/>
    <path d="M 186.275643 305.696681 
L 186.275643 286.823489 
" clip-path="url(#pcd817e88c7)" style="fill: none; stroke: #ff7f0e; stroke-width: 1.5"/>
    <path d="M 194.400131 305.696681 
L 194.400131 286.823489 
" clip-path="url(#pcd817e88c7)" style="fill: none; stroke: #ff7f0e; stroke-width: 1.5"/>
    <path d="M 203.174578 305.696681 
L 203.174578 286.823489 
" clip-path="url(#pcd817e88c7)" style="fill: none; stroke: #ff7f0e; stroke-width: 1.5"/>
    <path d="M 205.124455 305.696681 
L 205.124455 286.823489 
" clip-path="url(#pcd817e88c7)" style="fill: none; stroke: #ff7f0e; stroke-width: 1.5"/>
    <path d="M 209.349189 305.696681 
L 209.349189 286.823489 
" clip-path="url(#pcd817e88c7)" style="fill: none; stroke: #ff7f0e; stroke-width: 1.5"/>
    <path d="M 227.548043 305.696681 
L 227.548043 286.823489 
" clip-path="url(#pcd817e88c7)" style="fill: none; stroke: #ff7f0e; stroke-width: 1.5"/>
    <path d="M 233.397674 305.696681 
L 233.397674 286.823489 
" clip-path="url(#pcd817e88c7)" style="fill: none; stroke: #ff7f0e; stroke-width: 1.5"/>
    <path d="M 283.119541 305.696681 
L 283.119541 286.823489 
" clip-path="url(#pcd817e88c7)" style="fill: none; stroke: #ff7f0e; stroke-width: 1.5"/>
    <path d="M 296.768681 305.696681 
L 296.768681 286.823489 
" clip-path="url(#pcd817e88c7)" style="fill: none; stroke: #ff7f0e; stroke-width: 1.5"/>
    <path d="M 299.693497 305.696681 
L 299.693497 286.823489 
" clip-path="url(#pcd817e88c7)" style="fill: none; stroke: #ff7f0e; stroke-width: 1.5"/>
    <path d="M 316.592432 305.696681 
L 316.592432 286.823489 
" clip-path="url(#pcd817e88c7)" style="fill: none; stroke: #ff7f0e; stroke-width: 1.5"/>
    <path d="M 341.290876 305.696681 
L 341.290876 286.823489 
" clip-path="url(#pcd817e88c7)" style="fill: none; stroke: #ff7f0e; stroke-width: 1.5"/>
    <path d="M 342.265815 305.696681 
L 342.265815 286.823489 
" clip-path="url(#pcd817e88c7)" style="fill: none; stroke: #ff7f0e; stroke-width: 1.5"/>
    <path d="M 370.864013 305.696681 
L 370.864013 286.823489 
" clip-path="url(#pcd817e88c7)" style="fill: none; stroke: #ff7f0e; stroke-width: 1.5"/>
    <path d="M 380.288419 305.696681 
L 380.288419 286.823489 
" clip-path="url(#pcd817e88c7)" style="fill: none; stroke: #ff7f0e; stroke-width: 1.5"/>
    <path d="M 396.212416 305.696681 
L 396.212416 286.823489 
" clip-path="url(#pcd817e88c7)" style="fill: none; stroke: #ff7f0e; stroke-width: 1.5"/>
   </g>
   <g id="line2d_16">
    <path d="M 73.832727 252.568781 
L 138.503653 252.568781 
L 138.828632 137.933382 
L 235.99751 137.933382 
L 236.32249 252.568781 
L 398.487273 252.568781 
L 398.487273 252.568781 
" clip-path="url(#pcd817e88c7)" style="fill: none; stroke: #000000; stroke-width: 0.8; stroke-linecap: square"/>
   </g>
   <g id="patch_4">
    <path d="M 57.6 307.584 
L 57.6 41.472 
" style="fill: none; stroke: #000000; stroke-width: 0.8; stroke-linejoin: miter; stroke-linecap: square"/>
   </g>
   <g id="patch_5">
    <path d="M 57.6 307.584 
L 414.72 307.584 
" style="fill: none; stroke: #000000; stroke-width: 0.8; stroke-linejoin: miter; stroke-linecap: square"/>
   </g>
   <g id="legend_1">
    <g id="patch_6">
     <path d="M 307.518438 93.506375 
L 407.72 93.506375 
Q 409.72 93.506375 409.72 91.506375 
L 409.72 48.472 
Q 409.72 46.472 407.72 46.472 
L 307.518438 46.472 
Q 305.518438 46.472 305.518438 48.472 
L 305.518438 91.506375 
Q 305.518438 93.506375 307.518438 93.506375 
z
" style="fill: #ffffff; opacity: 0.8; stroke: #cccccc; stroke-linejoin: miter"/>
    </g>
    <g id="line2d_17">
     <path d="M 309.518438 54.570438 
L 329.518438 54.570438 
" style="fill: none; stroke: #1f77b4; stroke-width: 1.5"/>
    </g>
    <g id="text_15">
     <!-- rate neuron 0 -->
     <g transform="translate(337.518438 58.070438) scale(0.1 -0.1)">
      <defs>
       <path id="DejaVuSans-72" d="M 2631 2963 
Q 2534 3019 2420 3045 
Q 2306 3072 2169 3072 
Q 1681 3072 1420 2755 
Q 1159 2438 1159 1844 
L 1159 0 
L 581 0 
L 581 3500 
L 1159 3500 
L 1159 2956 
Q 1341 3275 1631 3429 
Q 1922 3584 2338 3584 
Q 2397 3584 2469 3576 
Q 2541 3569 2628 3553 
L 2631 2963 
z
" transform="scale(0.015625)"/>
       <path id="DejaVuSans-61" d="M 2194 1759 
Q 1497 1759 1228 1600 
Q 959 1441 959 1056 
Q 959 750 1161 570 
Q 1363 391 1709 391 
Q 2188 391 2477 730 
Q 2766 1069 2766 1631 
L 2766 1759 
L 2194 1759 
z
M 3341 1997 
L 3341 0 
L 2766 0 
L 2766 531 
Q 2569 213 2275 61 
Q 1981 -91 1556 -91 
Q 1019 -91 701 211 
Q 384 513 384 1019 
Q 384 1609 779 1909 
Q 1175 2209 1959 2209 
L 2766 2209 
L 2766 2266 
Q 2766 2663 2505 2880 
Q 2244 3097 1772 3097 
Q 1472 3097 1187 3025 
Q 903 2953 641 2809 
L 641 3341 
Q 956 3463 1253 3523 
Q 1550 3584 1831 3584 
Q 2591 3584 2966 3190 
Q 3341 2797 3341 1997 
z
" transform="scale(0.015625)"/>
       <path id="DejaVuSans-65" d="M 3597 1894 
L 3597 1613 
L 953 1613 
Q 991 1019 1311 708 
Q 1631 397 2203 397 
Q 2534 397 2845 478 
Q 3156 559 3463 722 
L 3463 178 
Q 3153 47 2828 -22 
Q 2503 -91 2169 -91 
Q 1331 -91 842 396 
Q 353 884 353 1716 
Q 353 2575 817 3079 
Q 1281 3584 2069 3584 
Q 2775 3584 3186 3129 
Q 3597 2675 3597 1894 
z
M 3022 2063 
Q 3016 2534 2758 2815 
Q 2500 3097 2075 3097 
Q 1594 3097 1305 2825 
Q 1016 2553 972 2059 
L 3022 2063 
z
" transform="scale(0.015625)"/>
       <path id="DejaVuSans-20" transform="scale(0.015625)"/>
      </defs>
      <use xlink:href="#DejaVuSans-72"/>
      <use xlink:href="#DejaVuSans-61" x="41.113281"/>
      <use xlink:href="#DejaVuSans-74" x="102.392578"/>
      <use xlink:href="#DejaVuSans-65" x="141.601562"/>
      <use xlink:href="#DejaVuSans-20" x="203.125"/>
      <use xlink:href="#DejaVuSans-6e" x="234.912109"/>
      <use xlink:href="#DejaVuSans-65" x="298.291016"/>
      <use xlink:href="#DejaVuSans-75" x="359.814453"/>
      <use xlink:href="#DejaVuSans-72" x="423.193359"/>
      <use xlink:href="#DejaVuSans-6f" x="462.056641"/>
      <use xlink:href="#DejaVuSans-6e" x="523.238281"/>
      <use xlink:href="#DejaVuSans-20" x="586.617188"/>
      <use xlink:href="#DejaVuSans-30" x="618.404297"/>
     </g>
    </g>
    <g id="line2d_18">
     <path d="M 309.518438 69.248563 
L 329.518438 69.248563 
" style="fill: none; stroke: #ff7f0e; stroke-width: 1.5"/>
    </g>
    <g id="text_16">
     <!-- rate neuron 1 -->
     <g transform="translate(337.518438 72.748563) scale(0.1 -0.1)">
      <use xlink:href="#DejaVuSans-72"/>
      <use xlink:href="#DejaVuSans-61" x="41.113281"/>
      <use xlink:href="#DejaVuSans-74" x="102.392578"/>
      <use xlink:href="#DejaVuSans-65" x="141.601562"/>
      <use xlink:href="#DejaVuSans-20" x="203.125"/>
      <use xlink:href="#DejaVuSans-6e" x="234.912109"/>
      <use xlink:href="#DejaVuSans-65" x="298.291016"/>
      <use xlink:href="#DejaVuSans-75" x="359.814453"/>
      <use xlink:href="#DejaVuSans-72" x="423.193359"/>
      <use xlink:href="#DejaVuSans-6f" x="462.056641"/>
      <use xlink:href="#DejaVuSans-6e" x="523.238281"/>
      <use xlink:href="#DejaVuSans-20" x="586.617188"/>
      <use xlink:href="#DejaVuSans-31" x="618.404297"/>
     </g>
    </g>
    <g id="line2d_19">
     <path d="M 309.518438 83.926688 
L 319.518438 83.926688 
L 329.518438 83.926688 
" style="fill: none; stroke: #000000; stroke-width: 0.8; stroke-linecap: square"/>
    </g>
    <g id="text_17">
     <!-- stimulus -->
     <g transform="translate(337.518438 87.426688) scale(0.1 -0.1)">
      <defs>
       <path id="DejaVuSans-73" d="M 2834 3397 
L 2834 2853 
Q 2591 2978 2328 3040 
Q 2066 3103 1784 3103 
Q 1356 3103 1142 2972 
Q 928 2841 928 2578 
Q 928 2378 1081 2264 
Q 1234 2150 1697 2047 
L 1894 2003 
Q 2506 1872 2764 1633 
Q 3022 1394 3022 966 
Q 3022 478 2636 193 
Q 2250 -91 1575 -91 
Q 1294 -91 989 -36 
Q 684 19 347 128 
L 347 722 
Q 666 556 975 473 
Q 1284 391 1588 391 
Q 1994 391 2212 530 
Q 2431 669 2431 922 
Q 2431 1156 2273 1281 
Q 2116 1406 1581 1522 
L 1381 1569 
Q 847 1681 609 1914 
Q 372 2147 372 2553 
Q 372 3047 722 3315 
Q 1072 3584 1716 3584 
Q 2034 3584 2315 3537 
Q 2597 3491 2834 3397 
z
" transform="scale(0.015625)"/>
       <path id="DejaVuSans-6d" d="M 3328 2828 
Q 3544 3216 3844 3400 
Q 4144 3584 4550 3584 
Q 5097 3584 5394 3201 
Q 5691 2819 5691 2113 
L 5691 0 
L 5113 0 
L 5113 2094 
Q 5113 2597 4934 2840 
Q 4756 3084 4391 3084 
Q 3944 3084 3684 2787 
Q 3425 2491 3425 1978 
L 3425 0 
L 2847 0 
L 2847 2094 
Q 2847 2600 2669 2842 
Q 2491 3084 2119 3084 
Q 1678 3084 1418 2786 
Q 1159 2488 1159 1978 
L 1159 0 
L 581 0 
L 581 3500 
L 1159 3500 
L 1159 2956 
Q 1356 3278 1631 3431 
Q 1906 3584 2284 3584 
Q 2666 3584 2933 3390 
Q 3200 3197 3328 2828 
z
" transform="scale(0.015625)"/>
       <path id="DejaVuSans-6c" d="M 603 4863 
L 1178 4863 
L 1178 0 
L 603 0 
L 603 4863 
z
" transform="scale(0.015625)"/>
      </defs>
      <use xlink:href="#DejaVuSans-73"/>
      <use xlink:href="#DejaVuSans-74" x="52.099609"/>
      <use xlink:href="#DejaVuSans-69" x="91.308594"/>
      <use xlink:href="#DejaVuSans-6d" x="119.091797"/>
      <use xlink:href="#DejaVuSans-75" x="216.503906"/>
      <use xlink:href="#DejaVuSans-6c" x="279.882812"/>
      <use xlink:href="#DejaVuSans-75" x="307.666016"/>
      <use xlink:href="#DejaVuSans-73" x="371.044922"/>
     </g>
    </g>
   </g>
  </g>
 </g>
 <defs>
  <clipPath id="pcd817e88c7">
   <rect x="57.6" y="41.472" width="357.12" height="266.112"/>
  </clipPath>
 </defs>
</svg>
