<?xml version="1.0" encoding="utf-8" standalone="no"?>
<!DOCTYPE svg PUBLIC "-//W3C//DTD SVG 1.1//EN"
  "http://www.w3.org/Graphics/SVG/1.1/DTD/svg11.dtd">
<svg xmlns:xlink="http://www.w3.org/1999/xlink" width="460.8pt" height="345.6pt" viewBox="0 0 460.8 345.6" xmlns="http://www.w3.org/2000/svg" version="1.1">
 <metadata>
  <rdf:RDF xmlns:dc="http://purl.org/dc/elements/1.1/" xmlns:cc="http://creativecommons.org/ns#" xmlns:rdf="http://www.w3.org/1999/02/22-rdf-syntax-ns#">
   <cc:Work>
    <dc:type rdf:resource="http://purl.org/dc/dcmitype/StillImage"/>
    <dc:date>2024-11-21T16:53:44.508011</dc:date>
    <dc:format>image/svg+xml</dc:format>
    <dc:creator>
     <cc:Agent>
      <dc:title>Matplotlib v3.9.2, https://matplotlib.org/</dc:title>
     </cc:Agent>
    </dc:creator>
   </cc:Work>
  </rdf:RDF>
 </metadata>
 <defs>
  <style type="text/css">*{stroke-linejoin: round; stroke-linecap: butt}</style>
 </defs>
 <g id="figure_1">
  <g id="patch_1">
   <path d="M 0 345.6 
L 460.8 345.6 
L 460.8 0 
L 0 0 
z
" style="fill: #ffffff"/>
  </g>
  <g id="axes_1">
   <g id="patch_2">
    <path d="M 57.6 307.584 
L 414.72 307.584 
L 414.72 41.472 
L 57.6 41.472 
z
" style="fill: #ffffff"/>
   </g>
   <g id="matplotlib.axis_1">
    <g id="xtick_1">
     <g id="line2d_1">
      <defs>
       <path id="m671b54da84" d="M 0 0 
L 0 3.5 
" style="stroke: #000000; stroke-width: 0.8"/>
      </defs>
      <g>
       <use xlink:href="#m671b54da84" x="72.464081" y="307.584" style="stroke: #000000; stroke-width: 0.8"/>
      </g>
     </g>
     <g id="text_1">
      <!-- 0 -->
      <g transform="translate(69.8141 320.913498) scale(0.0833 -0.0833)">
       <defs>
        <path id="DejaVuSans-30" d="M 2034 4250 
Q 1547 4250 1301 3770 
Q 1056 3291 1056 2328 
Q 1056 1369 1301 889 
Q 1547 409 2034 409 
Q 2525 409 2770 889 
Q 3016 1369 3016 2328 
Q 3016 3291 2770 3770 
Q 2525 4250 2034 4250 
z
M 2034 4750 
Q 2819 4750 3233 4129 
Q 3647 3509 3647 2328 
Q 3647 1150 3233 529 
Q 2819 -91 2034 -91 
Q 1250 -91 836 529 
Q 422 1150 422 2328 
Q 422 3509 836 4129 
Q 1250 4750 2034 4750 
z
" transform="scale(0.015625)"/>
       </defs>
       <use xlink:href="#DejaVuSans-30"/>
      </g>
     </g>
    </g>
    <g id="xtick_2">
     <g id="line2d_2">
      <g>
       <use xlink:href="#m671b54da84" x="124.569604" y="307.584" style="stroke: #000000; stroke-width: 0.8"/>
      </g>
     </g>
     <g id="text_2">
      <!-- 1 -->
      <g transform="translate(121.919623 320.913498) scale(0.0833 -0.0833)">
       <defs>
        <path id="DejaVuSans-31" d="M 794 531 
L 1825 531 
L 1825 4091 
L 703 3866 
L 703 4441 
L 1819 4666 
L 2450 4666 
L 2450 531 
L 3481 531 
L 3481 0 
L 794 0 
L 794 531 
z
" transform="scale(0.015625)"/>
       </defs>
       <use xlink:href="#DejaVuSans-31"/>
      </g>
     </g>
    </g>
    <g id="xtick_3">
     <g id="line2d_3">
      <g>
       <use xlink:href="#m671b54da84" x="176.675127" y="307.584" style="stroke: #000000; stroke-width: 0.8"/>
      </g>
     </g>
     <g id="text_3">
      <!-- 2 -->
      <g transform="translate(174.025146 320.913498) scale(0.0833 -0.0833)">
       <defs>
        <path id="DejaVuSans-32" d="M 1228 531 
L 3431 531 
L 3431 0 
L 469 0 
L 469 531 
Q 828 903 1448 1529 
Q 2069 2156 2228 2338 
Q 2531 2678 2651 2914 
Q 2772 3150 2772 3378 
Q 2772 3750 2511 3984 
Q 2250 4219 1831 4219 
Q 1534 4219 1204 4116 
Q 875 4013 500 3803 
L 500 4441 
Q 881 4594 1212 4672 
Q 1544 4750 1819 4750 
Q 2544 4750 2975 4387 
Q 3406 4025 3406 3419 
Q 3406 3131 3298 2873 
Q 3191 2616 2906 2266 
Q 2828 2175 2409 1742 
Q 1991 1309 1228 531 
z
" transform="scale(0.015625)"/>
       </defs>
       <use xlink:href="#DejaVuSans-32"/>
      </g>
     </g>
    </g>
    <g id="xtick_4">
     <g id="line2d_4">
      <g>
       <use xlink:href="#m671b54da84" x="228.78065" y="307.584" style="stroke: #000000; stroke-width: 0.8"/>
      </g>
     </g>
     <g id="text_4">
      <!-- 3 -->
      <g transform="translate(226.130669 320.913498) scale(0.0833 -0.0833)">
       <defs>
        <path id="DejaVuSans-33" d="M 2597 2516 
Q 3050 2419 3304 2112 
Q 3559 1806 3559 1356 
Q 3559 666 3084 287 
Q 2609 -91 1734 -91 
Q 1441 -91 1130 -33 
Q 819 25 488 141 
L 488 750 
Q 750 597 1062 519 
Q 1375 441 1716 441 
Q 2309 441 2620 675 
Q 2931 909 2931 1356 
Q 2931 1769 2642 2001 
Q 2353 2234 1838 2234 
L 1294 2234 
L 1294 2753 
L 1863 2753 
Q 2328 2753 2575 2939 
Q 2822 3125 2822 3475 
Q 2822 3834 2567 4026 
Q 2313 4219 1838 4219 
Q 1578 4219 1281 4162 
Q 984 4106 628 3988 
L 628 4550 
Q 988 4650 1302 4700 
Q 1616 4750 1894 4750 
Q 2613 4750 3031 4423 
Q 3450 4097 3450 3541 
Q 3450 3153 3228 2886 
Q 3006 2619 2597 2516 
z
" transform="scale(0.015625)"/>
       </defs>
       <use xlink:href="#DejaVuSans-33"/>
      </g>
     </g>
    </g>
    <g id="xtick_5">
     <g id="line2d_5">
      <g>
       <use xlink:href="#m671b54da84" x="280.886173" y="307.584" style="stroke: #000000; stroke-width: 0.8"/>
      </g>
     </g>
     <g id="text_5">
      <!-- 4 -->
      <g transform="translate(278.236192 320.913498) scale(0.0833 -0.0833)">
       <defs>
        <path id="DejaVuSans-34" d="M 2419 4116 
L 825 1625 
L 2419 1625 
L 2419 4116 
z
M 2253 4666 
L 3047 4666 
L 3047 1625 
L 3713 1625 
L 3713 1100 
L 3047 1100 
L 3047 0 
L 2419 0 
L 2419 1100 
L 313 1100 
L 313 1709 
L 2253 4666 
z
" transform="scale(0.015625)"/>
       </defs>
       <use xlink:href="#DejaVuSans-34"/>
      </g>
     </g>
    </g>
    <g id="xtick_6">
     <g id="line2d_6">
      <g>
       <use xlink:href="#m671b54da84" x="332.991696" y="307.584" style="stroke: #000000; stroke-width: 0.8"/>
      </g>
     </g>
     <g id="text_6">
      <!-- 5 -->
      <g transform="translate(330.341715 320.913498) scale(0.0833 -0.0833)">
       <defs>
        <path id="DejaVuSans-35" d="M 691 4666 
L 3169 4666 
L 3169 4134 
L 1269 4134 
L 1269 2991 
Q 1406 3038 1543 3061 
Q 1681 3084 1819 3084 
Q 2600 3084 3056 2656 
Q 3513 2228 3513 1497 
Q 3513 744 3044 326 
Q 2575 -91 1722 -91 
Q 1428 -91 1123 -41 
Q 819 9 494 109 
L 494 744 
Q 775 591 1075 516 
Q 1375 441 1709 441 
Q 2250 441 2565 725 
Q 2881 1009 2881 1497 
Q 2881 1984 2565 2268 
Q 2250 2553 1709 2553 
Q 1456 2553 1204 2497 
Q 953 2441 691 2322 
L 691 4666 
z
" transform="scale(0.015625)"/>
       </defs>
       <use xlink:href="#DejaVuSans-35"/>
      </g>
     </g>
    </g>
    <g id="xtick_7">
     <g id="line2d_7">
      <g>
       <use xlink:href="#m671b54da84" x="385.097219" y="307.584" style="stroke: #000000; stroke-width: 0.8"/>
      </g>
     </g>
     <g id="text_7">
      <!-- 6 -->
      <g transform="translate(382.447238 320.913498) scale(0.0833 -0.0833)">
       <defs>
        <path id="DejaVuSans-36" d="M 2113 2584 
Q 1688 2584 1439 2293 
Q 1191 2003 1191 1497 
Q 1191 994 1439 701 
Q 1688 409 2113 409 
Q 2538 409 2786 701 
Q 3034 994 3034 1497 
Q 3034 2003 2786 2293 
Q 2538 2584 2113 2584 
z
M 3366 4563 
L 3366 3988 
Q 3128 4100 2886 4159 
Q 2644 4219 2406 4219 
Q 1781 4219 1451 3797 
Q 1122 3375 1075 2522 
Q 1259 2794 1537 2939 
Q 1816 3084 2150 3084 
Q 2853 3084 3261 2657 
Q 3669 2231 3669 1497 
Q 3669 778 3244 343 
Q 2819 -91 2113 -91 
Q 1303 -91 875 529 
Q 447 1150 447 2328 
Q 447 3434 972 4092 
Q 1497 4750 2381 4750 
Q 2619 4750 2861 4703 
Q 3103 4656 3366 4563 
z
" transform="scale(0.015625)"/>
       </defs>
       <use xlink:href="#DejaVuSans-36"/>
      </g>
     </g>
    </g>
    <g id="text_8">
     <!-- Head-direction (rad) -->
     <g transform="translate(194.032977 332.975377) scale(0.0833 -0.0833)">
      <defs>
       <path id="DejaVuSans-48" d="M 628 4666 
L 1259 4666 
L 1259 2753 
L 3553 2753 
L 3553 4666 
L 4184 4666 
L 4184 0 
L 3553 0 
L 3553 2222 
L 1259 2222 
L 1259 0 
L 628 0 
L 628 4666 
z
" transform="scale(0.015625)"/>
       <path id="DejaVuSans-65" d="M 3597 1894 
L 3597 1613 
L 953 1613 
Q 991 1019 1311 708 
Q 1631 397 2203 397 
Q 2534 397 2845 478 
Q 3156 559 3463 722 
L 3463 178 
Q 3153 47 2828 -22 
Q 2503 -91 2169 -91 
Q 1331 -91 842 396 
Q 353 884 353 1716 
Q 353 2575 817 3079 
Q 1281 3584 2069 3584 
Q 2775 3584 3186 3129 
Q 3597 2675 3597 1894 
z
M 3022 2063 
Q 3016 2534 2758 2815 
Q 2500 3097 2075 3097 
Q 1594 3097 1305 2825 
Q 1016 2553 972 2059 
L 3022 2063 
z
" transform="scale(0.015625)"/>
       <path id="DejaVuSans-61" d="M 2194 1759 
Q 1497 1759 1228 1600 
Q 959 1441 959 1056 
Q 959 750 1161 570 
Q 1363 391 1709 391 
Q 2188 391 2477 730 
Q 2766 1069 2766 1631 
L 2766 1759 
L 2194 1759 
z
M 3341 1997 
L 3341 0 
L 2766 0 
L 2766 531 
Q 2569 213 2275 61 
Q 1981 -91 1556 -91 
Q 1019 -91 701 211 
Q 384 513 384 1019 
Q 384 1609 779 1909 
Q 1175 2209 1959 2209 
L 2766 2209 
L 2766 2266 
Q 2766 2663 2505 2880 
Q 2244 3097 1772 3097 
Q 1472 3097 1187 3025 
Q 903 2953 641 2809 
L 641 3341 
Q 956 3463 1253 3523 
Q 1550 3584 1831 3584 
Q 2591 3584 2966 3190 
Q 3341 2797 3341 1997 
z
" transform="scale(0.015625)"/>
       <path id="DejaVuSans-64" d="M 2906 2969 
L 2906 4863 
L 3481 4863 
L 3481 0 
L 2906 0 
L 2906 525 
Q 2725 213 2448 61 
Q 2172 -91 1784 -91 
Q 1150 -91 751 415 
Q 353 922 353 1747 
Q 353 2572 751 3078 
Q 1150 3584 1784 3584 
Q 2172 3584 2448 3432 
Q 2725 3281 2906 2969 
z
M 947 1747 
Q 947 1113 1208 752 
Q 1469 391 1925 391 
Q 2381 391 2643 752 
Q 2906 1113 2906 1747 
Q 2906 2381 2643 2742 
Q 2381 3103 1925 3103 
Q 1469 3103 1208 2742 
Q 947 2381 947 1747 
z
" transform="scale(0.015625)"/>
       <path id="DejaVuSans-2d" d="M 313 2009 
L 1997 2009 
L 1997 1497 
L 313 1497 
L 313 2009 
z
" transform="scale(0.015625)"/>
       <path id="DejaVuSans-69" d="M 603 3500 
L 1178 3500 
L 1178 0 
L 603 0 
L 603 3500 
z
M 603 4863 
L 1178 4863 
L 1178 4134 
L 603 4134 
L 603 4863 
z
" transform="scale(0.015625)"/>
       <path id="DejaVuSans-72" d="M 2631 2963 
Q 2534 3019 2420 3045 
Q 2306 3072 2169 3072 
Q 1681 3072 1420 2755 
Q 1159 2438 1159 1844 
L 1159 0 
L 581 0 
L 581 3500 
L 1159 3500 
L 1159 2956 
Q 1341 3275 1631 3429 
Q 1922 3584 2338 3584 
Q 2397 3584 2469 3576 
Q 2541 3569 2628 3553 
L 2631 2963 
z
" transform="scale(0.015625)"/>
       <path id="DejaVuSans-63" d="M 3122 3366 
L 3122 2828 
Q 2878 2963 2633 3030 
Q 2388 3097 2138 3097 
Q 1578 3097 1268 2742 
Q 959 2388 959 1747 
Q 959 1106 1268 751 
Q 1578 397 2138 397 
Q 2388 397 2633 464 
Q 2878 531 3122 666 
L 3122 134 
Q 2881 22 2623 -34 
Q 2366 -91 2075 -91 
Q 1284 -91 818 406 
Q 353 903 353 1747 
Q 353 2603 823 3093 
Q 1294 3584 2113 3584 
Q 2378 3584 2631 3529 
Q 2884 3475 3122 3366 
z
" transform="scale(0.015625)"/>
       <path id="DejaVuSans-74" d="M 1172 4494 
L 1172 3500 
L 2356 3500 
L 2356 3053 
L 1172 3053 
L 1172 1153 
Q 1172 725 1289 603 
Q 1406 481 1766 481 
L 2356 481 
L 2356 0 
L 1766 0 
Q 1100 0 847 248 
Q 594 497 594 1153 
L 594 3053 
L 172 3053 
L 172 3500 
L 594 3500 
L 594 4494 
L 1172 4494 
z
" transform="scale(0.015625)"/>
       <path id="DejaVuSans-6f" d="M 1959 3097 
Q 1497 3097 1228 2736 
Q 959 2375 959 1747 
Q 959 1119 1226 758 
Q 1494 397 1959 397 
Q 2419 397 2687 759 
Q 2956 1122 2956 1747 
Q 2956 2369 2687 2733 
Q 2419 3097 1959 3097 
z
M 1959 3584 
Q 2709 3584 3137 3096 
Q 3566 2609 3566 1747 
Q 3566 888 3137 398 
Q 2709 -91 1959 -91 
Q 1206 -91 779 398 
Q 353 888 353 1747 
Q 353 2609 779 3096 
Q 1206 3584 1959 3584 
z
" transform="scale(0.015625)"/>
       <path id="DejaVuSans-6e" d="M 3513 2113 
L 3513 0 
L 2938 0 
L 2938 2094 
Q 2938 2591 2744 2837 
Q 2550 3084 2163 3084 
Q 1697 3084 1428 2787 
Q 1159 2491 1159 1978 
L 1159 0 
L 581 0 
L 581 3500 
L 1159 3500 
L 1159 2956 
Q 1366 3272 1645 3428 
Q 1925 3584 2291 3584 
Q 2894 3584 3203 3211 
Q 3513 2838 3513 2113 
z
" transform="scale(0.015625)"/>
       <path id="DejaVuSans-20" transform="scale(0.015625)"/>
       <path id="DejaVuSans-28" d="M 1984 4856 
Q 1566 4138 1362 3434 
Q 1159 2731 1159 2009 
Q 1159 1288 1364 580 
Q 1569 -128 1984 -844 
L 1484 -844 
Q 1016 -109 783 600 
Q 550 1309 550 2009 
Q 550 2706 781 3412 
Q 1013 4119 1484 4856 
L 1984 4856 
z
" transform="scale(0.015625)"/>
       <path id="DejaVuSans-29" d="M 513 4856 
L 1013 4856 
Q 1481 4119 1714 3412 
Q 1947 2706 1947 2009 
Q 1947 1309 1714 600 
Q 1481 -109 1013 -844 
L 513 -844 
Q 928 -128 1133 580 
Q 1338 1288 1338 2009 
Q 1338 2731 1133 3434 
Q 928 4138 513 4856 
z
" transform="scale(0.015625)"/>
      </defs>
      <use xlink:href="#DejaVuSans-48"/>
      <use xlink:href="#DejaVuSans-65" x="75.195312"/>
      <use xlink:href="#DejaVuSans-61" x="136.71875"/>
      <use xlink:href="#DejaVuSans-64" x="197.998047"/>
      <use xlink:href="#DejaVuSans-2d" x="261.474609"/>
      <use xlink:href="#DejaVuSans-64" x="297.558594"/>
      <use xlink:href="#DejaVuSans-69" x="361.035156"/>
      <use xlink:href="#DejaVuSans-72" x="388.818359"/>
      <use xlink:href="#DejaVuSans-65" x="427.681641"/>
      <use xlink:href="#DejaVuSans-63" x="489.205078"/>
      <use xlink:href="#DejaVuSans-74" x="544.185547"/>
      <use xlink:href="#DejaVuSans-69" x="583.394531"/>
      <use xlink:href="#DejaVuSans-6f" x="611.177734"/>
      <use xlink:href="#DejaVuSans-6e" x="672.359375"/>
      <use xlink:href="#DejaVuSans-20" x="735.738281"/>
      <use xlink:href="#DejaVuSans-28" x="767.525391"/>
      <use xlink:href="#DejaVuSans-72" x="806.539062"/>
      <use xlink:href="#DejaVuSans-61" x="847.652344"/>
      <use xlink:href="#DejaVuSans-64" x="908.931641"/>
      <use xlink:href="#DejaVuSans-29" x="972.408203"/>
     </g>
    </g>
   </g>
   <g id="matplotlib.axis_2">
    <g id="ytick_1">
     <g id="line2d_8">
      <defs>
       <path id="m1e4ef8e44e" d="M 0 0 
L -3.5 0 
" style="stroke: #000000; stroke-width: 0.8"/>
      </defs>
      <g>
       <use xlink:href="#m1e4ef8e44e" x="57.6" y="292.15891" style="stroke: #000000; stroke-width: 0.8"/>
      </g>
     </g>
     <g id="text_9">
      <!-- 0.0 -->
      <g transform="translate(37.352697 295.32366) scale(0.0833 -0.0833)">
       <defs>
        <path id="DejaVuSans-2e" d="M 684 794 
L 1344 794 
L 1344 0 
L 684 0 
L 684 794 
z
" transform="scale(0.015625)"/>
       </defs>
       <use xlink:href="#DejaVuSans-30"/>
       <use xlink:href="#DejaVuSans-2e" x="63.623047"/>
       <use xlink:href="#DejaVuSans-30" x="95.410156"/>
      </g>
     </g>
    </g>
    <g id="ytick_2">
     <g id="line2d_9">
      <g>
       <use xlink:href="#m1e4ef8e44e" x="57.6" y="261.923206" style="stroke: #000000; stroke-width: 0.8"/>
      </g>
     </g>
     <g id="text_10">
      <!-- 0.1 -->
      <g transform="translate(37.352697 265.087955) scale(0.0833 -0.0833)">
       <use xlink:href="#DejaVuSans-30"/>
       <use xlink:href="#DejaVuSans-2e" x="63.623047"/>
       <use xlink:href="#DejaVuSans-31" x="95.410156"/>
      </g>
     </g>
    </g>
    <g id="ytick_3">
     <g id="line2d_10">
      <g>
       <use xlink:href="#m1e4ef8e44e" x="57.6" y="231.687501" style="stroke: #000000; stroke-width: 0.8"/>
      </g>
     </g>
     <g id="text_11">
      <!-- 0.2 -->
      <g transform="translate(37.352697 234.85225) scale(0.0833 -0.0833)">
       <use xlink:href="#DejaVuSans-30"/>
       <use xlink:href="#DejaVuSans-2e" x="63.623047"/>
       <use xlink:href="#DejaVuSans-32" x="95.410156"/>
      </g>
     </g>
    </g>
    <g id="ytick_4">
     <g id="line2d_11">
      <g>
       <use xlink:href="#m1e4ef8e44e" x="57.6" y="201.451796" style="stroke: #000000; stroke-width: 0.8"/>
      </g>
     </g>
     <g id="text_12">
      <!-- 0.3 -->
      <g transform="translate(37.352697 204.616545) scale(0.0833 -0.0833)">
       <use xlink:href="#DejaVuSans-30"/>
       <use xlink:href="#DejaVuSans-2e" x="63.623047"/>
       <use xlink:href="#DejaVuSans-33" x="95.410156"/>
      </g>
     </g>
    </g>
    <g id="ytick_5">
     <g id="line2d_12">
      <g>
       <use xlink:href="#m1e4ef8e44e" x="57.6" y="171.216092" style="stroke: #000000; stroke-width: 0.8"/>
      </g>
     </g>
     <g id="text_13">
      <!-- 0.4 -->
      <g transform="translate(37.352697 174.380841) scale(0.0833 -0.0833)">
       <use xlink:href="#DejaVuSans-30"/>
       <use xlink:href="#DejaVuSans-2e" x="63.623047"/>
       <use xlink:href="#DejaVuSans-34" x="95.410156"/>
      </g>
     </g>
    </g>
    <g id="ytick_6">
     <g id="line2d_13">
      <g>
       <use xlink:href="#m1e4ef8e44e" x="57.6" y="140.980387" style="stroke: #000000; stroke-width: 0.8"/>
      </g>
     </g>
     <g id="text_14">
      <!-- 0.5 -->
      <g transform="translate(37.352697 144.145136) scale(0.0833 -0.0833)">
       <use xlink:href="#DejaVuSans-30"/>
       <use xlink:href="#DejaVuSans-2e" x="63.623047"/>
       <use xlink:href="#DejaVuSans-35" x="95.410156"/>
      </g>
     </g>
    </g>
    <g id="ytick_7">
     <g id="line2d_14">
      <g>
       <use xlink:href="#m1e4ef8e44e" x="57.6" y="110.744682" style="stroke: #000000; stroke-width: 0.8"/>
      </g>
     </g>
     <g id="text_15">
      <!-- 0.6 -->
      <g transform="translate(37.352697 113.909431) scale(0.0833 -0.0833)">
       <use xlink:href="#DejaVuSans-30"/>
       <use xlink:href="#DejaVuSans-2e" x="63.623047"/>
       <use xlink:href="#DejaVuSans-36" x="95.410156"/>
      </g>
     </g>
    </g>
    <g id="ytick_8">
     <g id="line2d_15">
      <g>
       <use xlink:href="#m1e4ef8e44e" x="57.6" y="80.508977" style="stroke: #000000; stroke-width: 0.8"/>
      </g>
     </g>
     <g id="text_16">
      <!-- 0.7 -->
      <g transform="translate(37.352697 83.673727) scale(0.0833 -0.0833)">
       <defs>
        <path id="DejaVuSans-37" d="M 525 4666 
L 3525 4666 
L 3525 4397 
L 1831 0 
L 1172 0 
L 2766 4134 
L 525 4134 
L 525 4666 
z
" transform="scale(0.015625)"/>
       </defs>
       <use xlink:href="#DejaVuSans-30"/>
       <use xlink:href="#DejaVuSans-2e" x="63.623047"/>
       <use xlink:href="#DejaVuSans-37" x="95.410156"/>
      </g>
     </g>
    </g>
    <g id="ytick_9">
     <g id="line2d_16">
      <g>
       <use xlink:href="#m1e4ef8e44e" x="57.6" y="50.273273" style="stroke: #000000; stroke-width: 0.8"/>
      </g>
     </g>
     <g id="text_17">
      <!-- 0.8 -->
      <g transform="translate(37.352697 53.438022) scale(0.0833 -0.0833)">
       <defs>
        <path id="DejaVuSans-38" d="M 2034 2216 
Q 1584 2216 1326 1975 
Q 1069 1734 1069 1313 
Q 1069 891 1326 650 
Q 1584 409 2034 409 
Q 2484 409 2743 651 
Q 3003 894 3003 1313 
Q 3003 1734 2745 1975 
Q 2488 2216 2034 2216 
z
M 1403 2484 
Q 997 2584 770 2862 
Q 544 3141 544 3541 
Q 544 4100 942 4425 
Q 1341 4750 2034 4750 
Q 2731 4750 3128 4425 
Q 3525 4100 3525 3541 
Q 3525 3141 3298 2862 
Q 3072 2584 2669 2484 
Q 3125 2378 3379 2068 
Q 3634 1759 3634 1313 
Q 3634 634 3220 271 
Q 2806 -91 2034 -91 
Q 1263 -91 848 271 
Q 434 634 434 1313 
Q 434 1759 690 2068 
Q 947 2378 1403 2484 
z
M 1172 3481 
Q 1172 3119 1398 2916 
Q 1625 2713 2034 2713 
Q 2441 2713 2670 2916 
Q 2900 3119 2900 3481 
Q 2900 3844 2670 4047 
Q 2441 4250 2034 4250 
Q 1625 4250 1398 4047 
Q 1172 3844 1172 3481 
z
" transform="scale(0.015625)"/>
       </defs>
       <use xlink:href="#DejaVuSans-30"/>
       <use xlink:href="#DejaVuSans-2e" x="63.623047"/>
       <use xlink:href="#DejaVuSans-38" x="95.410156"/>
      </g>
     </g>
    </g>
    <g id="text_18">
     <!-- Fluorescence -->
     <g transform="translate(31.620317 201.964937) rotate(-90) scale(0.0833 -0.0833)">
      <defs>
       <path id="DejaVuSans-46" d="M 628 4666 
L 3309 4666 
L 3309 4134 
L 1259 4134 
L 1259 2759 
L 3109 2759 
L 3109 2228 
L 1259 2228 
L 1259 0 
L 628 0 
L 628 4666 
z
" transform="scale(0.015625)"/>
       <path id="DejaVuSans-6c" d="M 603 4863 
L 1178 4863 
L 1178 0 
L 603 0 
L 603 4863 
z
" transform="scale(0.015625)"/>
       <path id="DejaVuSans-75" d="M 544 1381 
L 544 3500 
L 1119 3500 
L 1119 1403 
Q 1119 906 1312 657 
Q 1506 409 1894 409 
Q 2359 409 2629 706 
Q 2900 1003 2900 1516 
L 2900 3500 
L 3475 3500 
L 3475 0 
L 2900 0 
L 2900 538 
Q 2691 219 2414 64 
Q 2138 -91 1772 -91 
Q 1169 -91 856 284 
Q 544 659 544 1381 
z
M 1991 3584 
L 1991 3584 
z
" transform="scale(0.015625)"/>
       <path id="DejaVuSans-73" d="M 2834 3397 
L 2834 2853 
Q 2591 2978 2328 3040 
Q 2066 3103 1784 3103 
Q 1356 3103 1142 2972 
Q 928 2841 928 2578 
Q 928 2378 1081 2264 
Q 1234 2150 1697 2047 
L 1894 2003 
Q 2506 1872 2764 1633 
Q 3022 1394 3022 966 
Q 3022 478 2636 193 
Q 2250 -91 1575 -91 
Q 1294 -91 989 -36 
Q 684 19 347 128 
L 347 722 
Q 666 556 975 473 
Q 1284 391 1588 391 
Q 1994 391 2212 530 
Q 2431 669 2431 922 
Q 2431 1156 2273 1281 
Q 2116 1406 1581 1522 
L 1381 1569 
Q 847 1681 609 1914 
Q 372 2147 372 2553 
Q 372 3047 722 3315 
Q 1072 3584 1716 3584 
Q 2034 3584 2315 3537 
Q 2597 3491 2834 3397 
z
" transform="scale(0.015625)"/>
      </defs>
      <use xlink:href="#DejaVuSans-46"/>
      <use xlink:href="#DejaVuSans-6c" x="57.519531"/>
      <use xlink:href="#DejaVuSans-75" x="85.302734"/>
      <use xlink:href="#DejaVuSans-6f" x="148.681641"/>
      <use xlink:href="#DejaVuSans-72" x="209.863281"/>
      <use xlink:href="#DejaVuSans-65" x="248.726562"/>
      <use xlink:href="#DejaVuSans-73" x="310.25"/>
      <use xlink:href="#DejaVuSans-63" x="362.349609"/>
      <use xlink:href="#DejaVuSans-65" x="417.330078"/>
      <use xlink:href="#DejaVuSans-6e" x="478.853516"/>
      <use xlink:href="#DejaVuSans-63" x="542.232422"/>
      <use xlink:href="#DejaVuSans-65" x="597.212891"/>
     </g>
    </g>
   </g>
   <g id="line2d_17">
    <path d="M 73.832727 273.095808 
L 76.560917 258.137183 
L 79.289106 270.951694 
L 82.017296 265.075225 
L 84.745485 277.398578 
L 87.473675 280.458774 
L 90.201864 278.270506 
L 92.930053 277.379634 
L 95.658243 282.107338 
L 98.386432 280.229411 
L 101.114622 283.45363 
L 103.842811 281.826128 
L 106.571001 283.979609 
L 109.29919 285.374933 
L 112.02738 284.806069 
L 114.755569 284.941498 
L 117.483759 282.048895 
L 120.211948 282.480394 
L 122.940138 284.208147 
L 125.668327 281.612458 
L 128.396516 278.326184 
L 131.124706 274.173483 
L 133.852895 265.712697 
L 136.581085 270.912773 
L 139.309274 271.676444 
L 142.037464 274.395646 
L 144.765653 269.192874 
L 147.493843 268.895824 
L 150.222032 274.558624 
L 152.950222 266.485493 
L 155.678411 271.093834 
L 158.4066 276.30858 
L 161.13479 279.77075 
L 163.862979 275.195513 
L 166.591169 277.465624 
L 169.319358 276.034683 
L 172.047548 273.584584 
L 174.775737 279.816435 
L 177.503927 279.39952 
L 180.232116 272.427383 
L 182.960306 270.20758 
L 185.688495 262.181102 
L 188.416684 272.504065 
L 191.144874 272.528744 
L 193.873063 271.462146 
L 196.601253 265.557807 
L 199.329442 267.21099 
L 202.057632 276.241368 
L 204.785821 268.635833 
L 207.514011 261.768 
L 210.2422 256.462435 
L 212.97039 247.755742 
L 215.698579 261.904277 
L 218.426769 240.287224 
L 221.154958 237.855566 
L 223.883147 258.289855 
L 226.611337 251.560202 
L 229.339526 249.384139 
L 232.067716 215.833818 
L 234.795905 198.156222 
L 237.524095 190.653665 
L 240.252284 153.842811 
L 242.980474 205.630193 
L 245.708663 172.956832 
L 248.436853 128.846839 
L 251.165042 114.644951 
L 253.893231 137.931176 
L 256.621421 129.104293 
L 259.34961 171.494188 
L 262.0778 154.432504 
L 264.805989 150.989899 
L 267.534179 151.929755 
L 270.262368 147.920554 
L 272.990558 197.445264 
L 275.718747 213.459101 
L 278.446937 208.592469 
L 281.175126 235.926004 
L 283.903316 233.705305 
L 286.631505 239.659067 
L 289.359694 259.419679 
L 292.087884 241.537572 
L 294.816073 220.19037 
L 297.544263 253.595574 
L 300.272452 248.506577 
L 303.000642 253.575843 
L 305.728831 255.154882 
L 308.457021 265.441782 
L 311.18521 263.809376 
L 313.9134 256.49215 
L 316.641589 249.910666 
L 319.369778 241.263811 
L 322.097968 235.114458 
L 324.826157 173.764272 
L 327.554347 210.931558 
L 330.282536 177.90148 
L 333.010726 250.606489 
L 335.738915 266.308386 
L 338.467105 266.198978 
L 341.195294 273.265438 
L 343.923484 235.381115 
L 346.651673 228.325215 
L 349.379862 243.650031 
L 352.108052 228.347853 
L 354.836241 252.1691 
L 357.564431 264.623375 
L 360.29262 268.351513 
L 363.02081 258.099057 
L 365.748999 243.600627 
L 368.477189 243.117777 
L 371.205378 269.817563 
L 373.933568 262.180574 
L 376.661757 267.546809 
L 379.389947 253.187937 
L 382.118136 268.737674 
L 384.846325 269.410764 
L 387.574515 274.146982 
L 390.302704 275.526196 
L 393.030894 278.943558 
L 395.759083 277.90626 
L 398.487273 270.043746 
" clip-path="url(#p5725006008)" style="fill: none; stroke: #ff0000; stroke-width: 2; stroke-linecap: square"/>
   </g>
   <g id="line2d_18">
    <path d="M 73.832727 253.26184 
L 76.560917 260.077203 
L 79.289106 264.891851 
L 82.017296 266.993545 
L 84.745485 268.659754 
L 87.473675 263.136943 
L 90.201864 269.50462 
L 92.930053 262.086839 
L 95.658243 266.864765 
L 98.386432 266.550741 
L 101.114622 266.874263 
L 103.842811 268.688731 
L 106.571001 268.274277 
L 109.29919 268.383379 
L 112.02738 271.525283 
L 114.755569 272.961123 
L 117.483759 267.565308 
L 120.211948 272.938656 
L 122.940138 272.270445 
L 125.668327 270.681066 
L 128.396516 271.973492 
L 131.124706 274.568821 
L 133.852895 277.647877 
L 136.581085 269.135899 
L 139.309274 269.6587 
L 142.037464 272.740742 
L 144.765653 272.157214 
L 147.493843 270.649075 
L 150.222032 273.11031 
L 152.950222 269.422066 
L 155.678411 268.428781 
L 158.4066 268.534042 
L 161.13479 270.379997 
L 163.862979 266.176949 
L 166.591169 271.840567 
L 169.319358 261.765306 
L 172.047548 260.824109 
L 174.775737 258.878313 
L 177.503927 262.8795 
L 180.232116 268.302015 
L 182.960306 260.031234 
L 185.688495 263.175222 
L 188.416684 264.947534 
L 191.144874 265.933753 
L 193.873063 257.34607 
L 196.601253 252.858389 
L 199.329442 241.427725 
L 202.057632 262.02739 
L 204.785821 259.586774 
L 207.514011 249.652827 
L 210.2422 240.014187 
L 212.97039 254.817341 
L 215.698579 241.220838 
L 218.426769 246.142407 
L 221.154958 227.095474 
L 223.883147 232.281024 
L 226.611337 229.843695 
L 229.339526 200.46923 
L 232.067716 210.304728 
L 234.795905 205.187909 
L 237.524095 201.828919 
L 240.252284 192.544188 
L 242.980474 188.946299 
L 245.708663 183.092268 
L 248.436853 141.014043 
L 251.165042 160.220704 
L 253.893231 153.348851 
L 256.621421 147.99682 
L 259.34961 138.334161 
L 262.0778 143.722056 
L 264.805989 171.707529 
L 267.534179 149.425649 
L 270.262368 153.334695 
L 272.990558 189.147883 
L 275.718747 205.985423 
L 278.446937 185.260896 
L 281.175126 191.78534 
L 283.903316 190.863323 
L 286.631505 216.414651 
L 289.359694 241.8751 
L 292.087884 228.85409 
L 294.816073 227.978484 
L 297.544263 221.234843 
L 300.272452 232.686832 
L 303.000642 202.022762 
L 305.728831 236.218256 
L 308.457021 232.46641 
L 311.18521 235.502282 
L 313.9134 248.675275 
L 316.641589 258.659298 
L 319.369778 247.832004 
L 322.097968 252.446084 
L 324.826157 257.711903 
L 327.554347 259.13358 
L 330.282536 263.698998 
L 333.010726 264.188155 
L 335.738915 262.16088 
L 338.467105 264.518857 
L 341.195294 262.921248 
L 343.923484 266.160161 
L 346.651673 266.19614 
L 349.379862 263.356042 
L 352.108052 256.888657 
L 354.836241 263.91199 
L 357.564431 266.934059 
L 360.29262 265.536291 
L 363.02081 263.443682 
L 365.748999 251.090036 
L 368.477189 256.245577 
L 371.205378 256.479057 
L 373.933568 258.232413 
L 376.661757 260.602041 
L 379.389947 264.863343 
L 382.118136 265.422377 
L 384.846325 262.994221 
L 387.574515 267.764265 
L 390.302704 265.816651 
L 393.030894 256.822615 
L 395.759083 261.72024 
L 398.487273 249.789852 
" clip-path="url(#p5725006008)" style="fill: none; stroke: #000000; stroke-width: 1.5; stroke-linecap: square"/>
   </g>
   <g id="line2d_19">
    <path d="M 73.832727 239.432775 
L 76.560917 265.368835 
L 79.289106 274.262392 
L 82.017296 279.866669 
L 84.745485 266.685893 
L 87.473675 263.438264 
L 90.201864 260.899447 
L 92.930053 258.559665 
L 95.658243 250.459182 
L 98.386432 255.305454 
L 101.114622 250.940025 
L 103.842811 248.820096 
L 106.571001 253.494536 
L 109.29919 264.807136 
L 112.02738 262.721092 
L 114.755569 258.550267 
L 117.483759 257.573454 
L 120.211948 278.512779 
L 122.940138 260.183167 
L 125.668327 263.520015 
L 128.396516 267.879221 
L 131.124706 271.759361 
L 133.852895 265.442386 
L 136.581085 266.324304 
L 139.309274 258.646197 
L 142.037464 268.797348 
L 144.765653 263.287379 
L 147.493843 260.697483 
L 150.222032 279.427553 
L 152.950222 261.086731 
L 155.678411 253.82402 
L 158.4066 249.353266 
L 161.13479 253.008649 
L 163.862979 255.53103 
L 166.591169 267.101194 
L 169.319358 247.68436 
L 172.047548 253.221892 
L 174.775737 262.04016 
L 177.503927 252.226067 
L 180.232116 263.835586 
L 182.960306 252.583019 
L 185.688495 253.63287 
L 188.416684 253.942135 
L 191.144874 257.27692 
L 193.873063 250.900387 
L 196.601253 240.885479 
L 199.329442 217.279601 
L 202.057632 234.738434 
L 204.785821 245.44006 
L 207.514011 224.664693 
L 210.2422 225.390642 
L 212.97039 223.114576 
L 215.698579 220.78381 
L 218.426769 207.298437 
L 221.154958 192.485549 
L 223.883147 184.744275 
L 226.611337 198.432272 
L 229.339526 129.016974 
L 232.067716 188.383363 
L 234.795905 161.757213 
L 237.524095 172.933538 
L 240.252284 143.677342 
L 242.980474 156.612839 
L 245.708663 148.879259 
L 248.436853 118.988158 
L 251.165042 99.676414 
L 253.893231 84.594784 
L 256.621421 92.671827 
L 259.34961 73.482442 
L 262.0778 53.568 
L 264.805989 70.066099 
L 267.534179 70.631963 
L 270.262368 87.367032 
L 272.990558 110.937094 
L 275.718747 148.991949 
L 278.446937 137.516049 
L 281.175126 140.865623 
L 283.903316 162.565785 
L 286.631505 188.335509 
L 289.359694 217.919176 
L 292.087884 213.993453 
L 294.816073 217.34924 
L 297.544263 221.044623 
L 300.272452 229.714345 
L 303.000642 191.891088 
L 305.728831 224.766892 
L 308.457021 212.540019 
L 311.18521 236.271328 
L 313.9134 260.562131 
L 316.641589 249.463316 
L 319.369778 242.746916 
L 322.097968 271.395116 
L 324.826157 263.453872 
L 327.554347 266.201874 
L 330.282536 266.057845 
L 333.010726 269.20144 
L 335.738915 268.548031 
L 338.467105 271.373478 
L 341.195294 270.084199 
L 343.923484 276.460035 
L 346.651673 270.093644 
L 349.379862 269.959793 
L 352.108052 262.419429 
L 354.836241 263.484319 
L 357.564431 279.15587 
L 360.29262 270.701181 
L 363.02081 254.536259 
L 365.748999 251.05891 
L 368.477189 244.595662 
L 371.205378 253.114213 
L 373.933568 264.735273 
L 376.661757 252.549269 
L 379.389947 276.319112 
L 382.118136 267.198973 
L 384.846325 267.538053 
L 387.574515 295.488 
L 390.302704 277.589829 
L 393.030894 268.875597 
L 395.759083 257.20821 
L 398.487273 226.045988 
" clip-path="url(#p5725006008)" style="fill: none; stroke: #008000; stroke-opacity: 0.5; stroke-width: 1.5; stroke-linecap: square"/>
   </g>
   <g id="patch_3">
    <path d="M 57.6 307.584 
L 57.6 41.472 
" style="fill: none; stroke: #000000; stroke-width: 0.8; stroke-linejoin: miter; stroke-linecap: square"/>
   </g>
   <g id="patch_4">
    <path d="M 57.6 307.584 
L 414.72 307.584 
" style="fill: none; stroke: #000000; stroke-width: 0.8; stroke-linejoin: miter; stroke-linecap: square"/>
   </g>
   <g id="legend_1">
    <g id="patch_5">
     <path d="M 300.466875 93.506375 
L 407.72 93.506375 
Q 409.72 93.506375 409.72 91.506375 
L 409.72 48.472 
Q 409.72 46.472 407.72 46.472 
L 300.466875 46.472 
Q 298.466875 46.472 298.466875 48.472 
L 298.466875 91.506375 
Q 298.466875 93.506375 300.466875 93.506375 
z
" style="fill: #ffffff; opacity: 0.8; stroke: #cccccc; stroke-linejoin: miter"/>
    </g>
    <g id="line2d_20">
     <path d="M 302.466875 54.570438 
L 312.466875 54.570438 
L 322.466875 54.570438 
" style="fill: none; stroke: #ff0000; stroke-width: 2; stroke-linecap: square"/>
    </g>
    <g id="text_19">
     <!-- true -->
     <g transform="translate(330.466875 58.070438) scale(0.1 -0.1)">
      <use xlink:href="#DejaVuSans-74"/>
      <use xlink:href="#DejaVuSans-72" x="39.208984"/>
      <use xlink:href="#DejaVuSans-75" x="80.322266"/>
      <use xlink:href="#DejaVuSans-65" x="143.701172"/>
     </g>
    </g>
    <g id="line2d_21">
     <path d="M 302.466875 69.248563 
L 312.466875 69.248563 
L 322.466875 69.248563 
" style="fill: none; stroke: #000000; stroke-width: 1.5; stroke-linecap: square"/>
    </g>
    <g id="text_20">
     <!-- gamma-nemos -->
     <g transform="translate(330.466875 72.748563) scale(0.1 -0.1)">
      <defs>
       <path id="DejaVuSans-67" d="M 2906 1791 
Q 2906 2416 2648 2759 
Q 2391 3103 1925 3103 
Q 1463 3103 1205 2759 
Q 947 2416 947 1791 
Q 947 1169 1205 825 
Q 1463 481 1925 481 
Q 2391 481 2648 825 
Q 2906 1169 2906 1791 
z
M 3481 434 
Q 3481 -459 3084 -895 
Q 2688 -1331 1869 -1331 
Q 1566 -1331 1297 -1286 
Q 1028 -1241 775 -1147 
L 775 -588 
Q 1028 -725 1275 -790 
Q 1522 -856 1778 -856 
Q 2344 -856 2625 -561 
Q 2906 -266 2906 331 
L 2906 616 
Q 2728 306 2450 153 
Q 2172 0 1784 0 
Q 1141 0 747 490 
Q 353 981 353 1791 
Q 353 2603 747 3093 
Q 1141 3584 1784 3584 
Q 2172 3584 2450 3431 
Q 2728 3278 2906 2969 
L 2906 3500 
L 3481 3500 
L 3481 434 
z
" transform="scale(0.015625)"/>
       <path id="DejaVuSans-6d" d="M 3328 2828 
Q 3544 3216 3844 3400 
Q 4144 3584 4550 3584 
Q 5097 3584 5394 3201 
Q 5691 2819 5691 2113 
L 5691 0 
L 5113 0 
L 5113 2094 
Q 5113 2597 4934 2840 
Q 4756 3084 4391 3084 
Q 3944 3084 3684 2787 
Q 3425 2491 3425 1978 
L 3425 0 
L 2847 0 
L 2847 2094 
Q 2847 2600 2669 2842 
Q 2491 3084 2119 3084 
Q 1678 3084 1418 2786 
Q 1159 2488 1159 1978 
L 1159 0 
L 581 0 
L 581 3500 
L 1159 3500 
L 1159 2956 
Q 1356 3278 1631 3431 
Q 1906 3584 2284 3584 
Q 2666 3584 2933 3390 
Q 3200 3197 3328 2828 
z
" transform="scale(0.015625)"/>
      </defs>
      <use xlink:href="#DejaVuSans-67"/>
      <use xlink:href="#DejaVuSans-61" x="63.476562"/>
      <use xlink:href="#DejaVuSans-6d" x="124.755859"/>
      <use xlink:href="#DejaVuSans-6d" x="222.167969"/>
      <use xlink:href="#DejaVuSans-61" x="319.580078"/>
      <use xlink:href="#DejaVuSans-2d" x="380.859375"/>
      <use xlink:href="#DejaVuSans-6e" x="416.943359"/>
      <use xlink:href="#DejaVuSans-65" x="480.322266"/>
      <use xlink:href="#DejaVuSans-6d" x="541.845703"/>
      <use xlink:href="#DejaVuSans-6f" x="639.257812"/>
      <use xlink:href="#DejaVuSans-73" x="700.439453"/>
     </g>
    </g>
    <g id="line2d_22">
     <path d="M 302.466875 83.926688 
L 312.466875 83.926688 
L 322.466875 83.926688 
" style="fill: none; stroke: #008000; stroke-opacity: 0.5; stroke-width: 1.5; stroke-linecap: square"/>
    </g>
    <g id="text_21">
     <!-- linreg-sklearn -->
     <g transform="translate(330.466875 87.426688) scale(0.1 -0.1)">
      <defs>
       <path id="DejaVuSans-6b" d="M 581 4863 
L 1159 4863 
L 1159 1991 
L 2875 3500 
L 3609 3500 
L 1753 1863 
L 3688 0 
L 2938 0 
L 1159 1709 
L 1159 0 
L 581 0 
L 581 4863 
z
" transform="scale(0.015625)"/>
      </defs>
      <use xlink:href="#DejaVuSans-6c"/>
      <use xlink:href="#DejaVuSans-69" x="27.783203"/>
      <use xlink:href="#DejaVuSans-6e" x="55.566406"/>
      <use xlink:href="#DejaVuSans-72" x="118.945312"/>
      <use xlink:href="#DejaVuSans-65" x="157.808594"/>
      <use xlink:href="#DejaVuSans-67" x="219.332031"/>
      <use xlink:href="#DejaVuSans-2d" x="282.808594"/>
      <use xlink:href="#DejaVuSans-73" x="318.892578"/>
      <use xlink:href="#DejaVuSans-6b" x="370.992188"/>
      <use xlink:href="#DejaVuSans-6c" x="428.902344"/>
      <use xlink:href="#DejaVuSans-65" x="456.685547"/>
      <use xlink:href="#DejaVuSans-61" x="518.208984"/>
      <use xlink:href="#DejaVuSans-72" x="579.488281"/>
      <use xlink:href="#DejaVuSans-6e" x="618.851562"/>
     </g>
    </g>
   </g>
  </g>
 </g>
 <defs>
  <clipPath id="p5725006008">
   <rect x="57.6" y="41.472" width="357.12" height="266.112"/>
  </clipPath>
 </defs>
</svg>
