<?xml version="1.0" encoding="UTF-8" standalone="no"?>
<svg
   height="18.025"
   viewBox="0 -960 740.99998 720.99998"
   width="18.525"
   fill="#5f6368"
   version="1.1"
   id="svg1"
   sodipodi:docname="construction_24dp_5F6368_FILL0_wght400_GRAD0_opsz24.svg"
   inkscape:version="1.3 (0e150ed, 2023-07-21)"
   xmlns:inkscape="http://www.inkscape.org/namespaces/inkscape"
   xmlns:sodipodi="http://sodipodi.sourceforge.net/DTD/sodipodi-0.dtd"
   xmlns="http://www.w3.org/2000/svg"
   xmlns:svg="http://www.w3.org/2000/svg">
  <defs
     id="defs1" />
  <sodipodi:namedview
     id="namedview1"
     pagecolor="#ffffff"
     bordercolor="#000000"
     borderopacity="0.25"
     inkscape:showpageshadow="2"
     inkscape:pageopacity="0.0"
     inkscape:pagecheckerboard="0"
     inkscape:deskcolor="#d1d1d1"
     inkscape:zoom="9.8333333"
     inkscape:cx="9.4576271"
     inkscape:cy="9"
     inkscape:window-width="1392"
     inkscape:window-height="1212"
     inkscape:window-x="0"
     inkscape:window-y="25"
     inkscape:window-maximized="0"
     inkscape:current-layer="svg1" />
  <path
     d="m 656,-239 -219,-219 84,-84 219,219 z m -552,0 -84,-84 276,-276 -68,-68 -28,28 -51,-51 v 82 l -28,28 -121,-121 28,-28 h 82 l -50,-50 142,-142 q 20,-20 43,-29 23,-9 47,-9 24,0 47,9 23,9 43,29 l -92,92 50,50 -28,28 68,68 90,-90 q -4,-11 -6.5,-23 -2.5,-12 -2.5,-24 0,-59 40.5,-99.5 40.5,-40.5 99.5,-40.5 15,0 28.5,3 13.5,3 27.5,9 l -99,99 72,72 99,-99 q 7,14 9.5,27.5 2.5,13.5 2.5,28.5 0,59 -40.5,99.5 -40.5,40.5 -99.5,40.5 -12,0 -24,-2 -12,-2 -23,-7 z"
     id="path1"
     style="fill:#000000;fill-opacity:1" />
</svg>
