<?xml version="1.0" encoding="UTF-8" standalone="no"?>
<!DOCTYPE svg PUBLIC "-//W3C//DTD SVG 1.1//EN" "http://www.w3.org/Graphics/SVG/1.1/DTD/svg11.dtd">
<svg width="100%" height="100%" viewBox="0 0 535 181" version="1.1" xmlns="http://www.w3.org/2000/svg" xmlns:xlink="http://www.w3.org/1999/xlink" xml:space="preserve" xmlns:serif="http://www.serif.com/" style="fill-rule:evenodd;clip-rule:evenodd;stroke-linecap:round;stroke-linejoin:round;stroke-miterlimit:1.5;">
    <g id="_1" serif:id="1" transform="matrix(0.264583,0,0,0.264583,622.131,-62.0167)">
        <g transform="matrix(184.014,0,0,70.498,-2339.15,238.358)">
            <rect x="-0.066" y="-0.059" width="10.97" height="9.696" style="fill:rgb(242,242,242);"/>
        </g>
        <g transform="matrix(2.88019,0,0,4.02983,-2929.69,280.812)">
            <path d="M530.942,25.316L530.942,129.834C530.942,136.322 523.572,141.589 514.495,141.589L320.695,141.589C311.617,141.589 304.247,136.322 304.247,129.834L304.247,25.316C304.247,18.828 311.617,13.56 320.695,13.56L514.495,13.56C523.572,13.56 530.942,18.828 530.942,25.316Z" style="fill:rgb(187,214,126);fill-opacity:0.4;"/>
            <g transform="matrix(1.31225,-0,-0,0.937887,200.796,-11.5187)">
                <path d="M253.228,34.164L251.589,39.274L248.485,34.896C249.854,35.899 252.225,35.533 253.228,34.164Z" style="fill-opacity:0;"/>
                <path d="M251.589,39.274L251.589,150.714C251.589,157.632 245.972,163.248 239.055,163.248L91.369,163.248C84.452,163.248 78.835,157.632 78.835,150.714L78.835,39.274C78.835,32.356 84.452,26.74 91.369,26.74L239.055,26.74C244.65,26.74 249.393,30.414 251.003,35.479" style="fill:none;stroke:black;stroke-opacity:0;stroke-width:0.8px;"/>
            </g>
        </g>
        <g transform="matrix(1,0,0,1.00074,-120.945,-11.766)">
            <g id="path2-56-9" transform="matrix(0.688079,0,0,0.688079,-225.59,70.9366)">
                <path d="M-350.322,733.139L-350.322,808.884" style="fill:none;fill-rule:nonzero;stroke:rgb(255,0,0);stroke-width:4.94px;stroke-linecap:butt;stroke-linejoin:miter;stroke-miterlimit:4;"/>
            </g>
            <g id="path2-8-3-3" transform="matrix(0.688079,0,0,0.688079,-225.59,70.9366)">
                <path d="M-280.595,733.139L-280.595,808.884" style="fill:none;fill-rule:nonzero;stroke:rgb(255,0,0);stroke-width:4.94px;stroke-linecap:butt;stroke-linejoin:miter;stroke-miterlimit:4;"/>
            </g>
            <g id="path2-5-6-1" transform="matrix(0.688079,0,0,0.688079,-225.59,70.9366)">
                <path d="M-261.254,733.139L-261.254,808.884" style="fill:none;fill-rule:nonzero;stroke:rgb(255,0,0);stroke-width:4.94px;stroke-linecap:butt;stroke-linejoin:miter;stroke-miterlimit:4;"/>
            </g>
            <g id="path2-6-3-14" transform="matrix(0.688079,0,0,0.688079,-225.59,70.9366)">
                <path d="M-213.638,733.139L-213.638,808.884" style="fill:none;fill-rule:nonzero;stroke:rgb(255,0,0);stroke-width:4.94px;stroke-linecap:butt;stroke-linejoin:miter;stroke-miterlimit:4;"/>
            </g>
            <g id="path2-6-77-0-9" transform="matrix(0.688079,0,0,0.688079,-225.59,70.9366)">
                <path d="M-180.383,733.139L-180.383,808.884" style="fill:none;fill-rule:nonzero;stroke:rgb(255,0,0);stroke-width:4.94px;stroke-linecap:butt;stroke-linejoin:miter;stroke-miterlimit:4;"/>
            </g>
            <g id="path2-9-8-5" transform="matrix(0.688079,0,0,0.688079,-225.59,70.9366)">
                <path d="M-244.413,733.139L-244.413,808.884" style="fill:none;fill-rule:nonzero;stroke:rgb(255,0,0);stroke-width:4.94px;stroke-linecap:butt;stroke-linejoin:miter;stroke-miterlimit:4;"/>
            </g>
        </g>
        <g transform="matrix(2.86564,0,0,4.02959,-2202.15,282.906)">
            <path d="M530.942,25.316L530.942,129.834C530.942,136.322 523.535,141.589 514.412,141.589L320.778,141.589C311.654,141.589 304.247,136.322 304.247,129.834L304.247,25.316C304.247,18.828 311.654,13.56 320.778,13.56L514.412,13.56C523.535,13.56 530.942,18.828 530.942,25.316Z" style="fill:rgb(118,150,168);fill-opacity:0.48;"/>
            <g transform="matrix(1.31891,-0,-0,0.937943,-52.0691,-12.039)">
                <path d="M443.679,34.716L442.04,39.826L438.936,35.449C440.305,36.452 442.676,36.085 443.679,34.716Z" style="fill-opacity:0;"/>
                <path d="M442.04,39.826L442.04,151.26C442.04,158.177 436.424,163.793 429.506,163.793L282.693,163.793C275.775,163.793 270.159,158.177 270.159,151.26L270.159,39.826C270.159,32.909 275.775,27.293 282.693,27.293L429.506,27.293C435.101,27.293 439.844,30.967 441.454,36.031" style="fill:none;stroke:black;stroke-opacity:0;stroke-width:0.8px;"/>
            </g>
        </g>
        <g id="path15" transform="matrix(42.4916,0,0,1.17339,15643.5,-104.528)">
            <path d="M-380.51,662.631L-380.51,836.533L-415.559,836.533" style="fill:none;fill-rule:nonzero;stroke:black;stroke-width:0.1px;stroke-linecap:butt;stroke-linejoin:miter;stroke-miterlimit:4;"/>
        </g>
        <g id="path5" transform="matrix(0.488647,0,0,1,-616.857,18.7157)">
            <path d="M-625.522,570.76L-509.502,570.76" style="fill:none;fill-rule:nonzero;"/>
            <g transform="matrix(7.73467,-0,-0,3.77953,-3549.6,215.678)">
                <path d="M389.507,92.178L393.049,93.949L389.507,95.719C390.392,94.834 390.392,93.063 389.507,92.178Z" style="fill-rule:nonzero;"/>
                <path d="M378.049,93.949L390.215,93.949" style="fill:none;fill-rule:nonzero;stroke:black;stroke-width:0.79px;stroke-linecap:butt;stroke-linejoin:miter;stroke-miterlimit:4;"/>
            </g>
        </g>
        <g id="path2" transform="matrix(0.688079,0,0,0.688079,-700.218,166.178)">
            <path d="M-2256.96,367.738L-2256.96,443.483" style="fill:none;fill-rule:nonzero;stroke:black;stroke-width:4.94px;stroke-linecap:butt;stroke-linejoin:miter;stroke-miterlimit:4;"/>
        </g>
        <g id="path2-8" transform="matrix(0.688079,0,0,0.688079,-700.218,166.178)">
            <path d="M-2238.25,367.738L-2238.25,443.483" style="fill:none;fill-rule:nonzero;stroke:black;stroke-width:4.94px;stroke-linecap:butt;stroke-linejoin:miter;stroke-miterlimit:4;"/>
        </g>
        <g id="path2-5" transform="matrix(0.688079,0,0,0.688079,-700.218,166.178)">
            <path d="M-2213.24,367.738L-2213.24,443.483" style="fill:none;fill-rule:nonzero;stroke:black;stroke-width:4.94px;stroke-linecap:butt;stroke-linejoin:miter;stroke-miterlimit:4;"/>
        </g>
        <g id="path2-6" transform="matrix(0.688079,0,0,0.688079,-700.218,166.178)">
            <path d="M-2142.95,367.738L-2142.95,443.483" style="fill:none;fill-rule:nonzero;stroke:black;stroke-width:4.94px;stroke-linecap:butt;stroke-linejoin:miter;stroke-miterlimit:4;"/>
        </g>
        <g id="path2-6-77" transform="matrix(0.688079,0,0,0.688079,-700.218,166.178)">
            <path d="M-2087.02,367.738L-2087.02,443.483" style="fill:none;fill-rule:nonzero;stroke:black;stroke-width:4.94px;stroke-linecap:butt;stroke-linejoin:miter;stroke-miterlimit:4;"/>
        </g>
        <g id="path2-9" transform="matrix(0.688079,0,0,0.688079,-700.218,166.178)">
            <path d="M-2179.39,367.738L-2179.39,443.483" style="fill:none;fill-rule:nonzero;stroke:black;stroke-width:4.94px;stroke-linecap:butt;stroke-linejoin:miter;stroke-miterlimit:4;"/>
        </g>
        <g transform="matrix(1,0,0,1,-7.10543e-15,-11.3386)">
            <g id="path19" transform="matrix(0.126051,0,0,-0.094768,-1934.36,502.564)">
                <path d="M209.29,142.05L218.585,147.155L227.881,161.387L237.177,183.161L246.473,210.985L255.768,243.492L265.064,279.45L274.36,317.769L283.656,357.5L292.952,397.824L302.247,438.047L311.543,477.586L320.839,515.961L330.135,552.781L339.43,587.735L348.726,620.585L358.022,651.149L367.318,679.301L376.613,704.961L385.909,728.084L395.205,748.66L404.501,766.705L413.796,782.259L423.092,795.379L432.388,806.137L441.684,814.617L450.979,820.914L460.275,825.127L469.571,827.362L478.867,827.727L488.163,826.333L497.458,823.291L506.754,818.712L516.05,812.706L525.346,805.38L534.641,796.84L543.937,787.19L553.233,776.527L562.529,764.949L571.824,752.547L581.12,739.411L590.416,725.624L599.712,711.268L609.007,696.42L618.303,681.152L627.599,665.533L636.895,649.628L646.191,633.498L655.486,617.202L664.782,600.793L674.078,584.321L683.374,567.835L692.669,551.378L701.965,534.991L711.261,518.712L720.557,502.576L729.852,486.616L739.148,470.861L748.444,455.339L757.74,440.075L767.035,425.091L776.331,410.409L785.627,396.047L794.923,382.021L804.218,368.347L813.514,355.039L822.81,342.107L832.106,329.562L841.402,317.412L850.697,305.666L859.993,294.329L869.289,283.407L878.585,272.903L887.88,262.821L897.176,253.162L906.472,243.928L915.768,235.119L925.063,226.734L934.359,218.772L943.655,211.231L952.951,204.11L962.246,197.404L971.542,191.111L980.838,185.227L990.134,179.746L999.43,174.664L1008.73,169.977L1018.02,165.678L1027.32,161.761L1036.61,158.221L1045.91,155.051L1055.2,152.245L1064.5,149.796L1073.8,147.696L1083.09,145.94L1092.39,144.52L1101.68,143.428L1110.98,142.657L1120.27,142.2L1129.57,142.05" style="fill:none;fill-rule:nonzero;stroke:rgb(204,204,204);stroke-width:16.95px;stroke-linecap:square;stroke-miterlimit:10;"/>
            </g>
            <g id="path17" transform="matrix(0.126051,0,0,-0.094768,-1934.36,502.564)">
                <path d="M209.29,484.929L218.585,543.877L227.881,598.448L237.177,647.723L246.473,691.135L255.768,728.392L265.064,759.418L274.36,784.3L283.656,803.249L292.952,816.559L302.247,824.587L311.543,827.729L320.839,826.4L330.135,821.027L339.43,812.032L348.726,799.83L358.022,784.823L367.318,767.391L376.613,747.895L385.909,726.675L395.205,704.044L404.501,680.294L413.796,655.693L423.092,630.484L432.388,604.891L441.684,579.115L450.979,553.336L460.275,527.716L469.571,502.399L478.867,477.512L488.163,453.167L497.458,429.462L506.754,406.479L516.05,384.291L525.346,362.959L534.641,342.532L543.937,323.052L553.233,304.551L562.529,287.053L571.824,270.578L581.12,255.136L590.416,240.733L599.712,227.371L609.007,215.045L618.303,203.748L627.599,193.47L636.895,184.196L646.191,175.909L655.486,168.591L664.782,162.219L674.078,156.772L683.374,152.224L692.669,148.55L701.965,145.724L711.261,143.718L720.557,142.504L729.852,142.054L739.148,142.05L1129.57,142.05" style="fill:none;fill-rule:nonzero;stroke:rgb(102,102,102);stroke-width:16.95px;stroke-linecap:square;stroke-miterlimit:10;"/>
            </g>
            <g id="path15-8" transform="matrix(0.126051,0,0,-0.094768,-1934.36,502.564)">
                <path d="M209.29,827.807L218.585,822.702L227.881,808.47L237.177,786.696L246.473,758.872L255.768,726.365L265.064,690.407L274.36,652.088L283.656,612.357L292.952,572.033L302.247,531.81L311.543,492.271L320.839,453.896L330.135,417.076L339.43,382.122L348.726,349.272L358.022,318.708L367.318,290.556L376.613,264.896L385.909,241.773L395.205,221.197L404.501,203.152L413.796,187.598L423.092,174.478L432.388,163.72L441.684,155.24L450.979,148.943L460.275,144.73L469.571,142.495L478.867,142.05L1129.57,142.05" style="fill:none;fill-rule:nonzero;stroke:black;stroke-width:16.95px;stroke-linecap:square;stroke-miterlimit:10;"/>
            </g>
        </g>
        <g id="path51" serif:id="path5" transform="matrix(0.555204,0,0,1,-1741.06,-125.49)">
            <path d="M-625.522,570.76L-509.502,570.76" style="fill:none;fill-rule:nonzero;stroke:black;stroke-width:3.78px;stroke-linecap:butt;stroke-linejoin:miter;stroke-miterlimit:4;"/>
        </g>
        <g id="path52" serif:id="path5" transform="matrix(0.488647,0,0,1,-1696.43,-125.49)">
            <path d="M-625.522,570.76L-509.502,570.76" style="fill:none;fill-rule:nonzero;stroke:black;stroke-width:3.78px;stroke-linecap:butt;stroke-linejoin:miter;stroke-miterlimit:4;"/>
        </g>
        <g transform="matrix(3.77953,0,0,3.77953,-1988.02,239.213)">
            <g transform="matrix(1,0,0,1,-2.19294e-06,0)">
                <g transform="matrix(8,0,0,8,-53.5723,42.5115)">
                </g>
                <text x="-58.022px" y="42.511px" style="font-family:'Arial-BoldMT', 'Arial', sans-serif;font-weight:700;font-size:8px;">a</text>
            </g>
        </g>
        <g transform="matrix(1,0,0,1,102.528,100.411)">
            <g id="path16-9-1-5-4" transform="matrix(0.422939,0,0,0.422939,-1562.93,-334.272)">
                <circle cx="-1306.99" cy="1605.74" r="25.915" style="fill:none;stroke:black;stroke-width:1.74px;stroke-linecap:butt;stroke-linejoin:miter;stroke-miterlimit:4;"/>
            </g>
            <g transform="matrix(0.422939,0,0,0.422939,-2120.91,350.247)">
                <text x="0px" y="0px" style="font-family:'ArialMT', 'Arial', sans-serif;font-size:49.134px;">x</text>
            </g>
        </g>
        <g id="path2-56" transform="matrix(0.688079,0,0,0.688079,-717.969,27.3837)">
            <path d="M-2231.16,733.139L-2231.16,808.884" style="fill:none;fill-rule:nonzero;stroke:black;stroke-width:4.94px;stroke-linecap:butt;stroke-linejoin:miter;stroke-miterlimit:4;"/>
        </g>
        <g id="path2-8-3" transform="matrix(0.688079,0,0,0.688079,-717.969,27.3837)">
            <path d="M-2201.12,733.139L-2201.12,808.884" style="fill:none;fill-rule:nonzero;stroke:black;stroke-width:4.94px;stroke-linecap:butt;stroke-linejoin:miter;stroke-miterlimit:4;"/>
        </g>
        <g id="path2-5-6" transform="matrix(0.688079,0,0,0.688079,-717.969,27.3837)">
            <path d="M-2142.09,733.139L-2142.09,808.884" style="fill:none;fill-rule:nonzero;stroke:black;stroke-width:4.94px;stroke-linecap:butt;stroke-linejoin:miter;stroke-miterlimit:4;"/>
        </g>
        <g id="path2-6-3" transform="matrix(0.688079,0,0,0.688079,-717.969,27.3837)">
            <path d="M-2083.14,733.139L-2083.14,808.884" style="fill:none;fill-rule:nonzero;stroke:black;stroke-width:4.94px;stroke-linecap:butt;stroke-linejoin:miter;stroke-miterlimit:4;"/>
        </g>
        <g id="path2-6-77-0" transform="matrix(0.688079,0,0,0.688079,-717.969,27.3837)">
            <path d="M-2061.22,733.139L-2061.22,808.884" style="fill:none;fill-rule:nonzero;stroke:black;stroke-width:4.94px;stroke-linecap:butt;stroke-linejoin:miter;stroke-miterlimit:4;"/>
        </g>
        <g id="path2-9-8" transform="matrix(0.688079,0,0,0.688079,-717.969,27.3837)">
            <path d="M-2102.57,733.139L-2102.57,808.884" style="fill:none;fill-rule:nonzero;stroke:black;stroke-width:4.94px;stroke-linecap:butt;stroke-linejoin:miter;stroke-miterlimit:4;"/>
        </g>
        <g transform="matrix(1,0,0,1,-7.10543e-15,-18.3659)">
            <g id="path19-8" transform="matrix(0.126051,0,0,-0.094768,-1934.36,622.222)">
                <path d="M209.29,142.05L218.585,147.155L227.881,161.387L237.177,183.161L246.473,210.985L255.768,243.492L265.064,279.45L274.36,317.769L283.656,357.5L292.952,397.824L302.247,438.047L311.543,477.586L320.839,515.961L330.135,552.781L339.43,587.735L348.726,620.585L358.022,651.149L367.318,679.301L376.613,704.961L385.909,728.084L395.205,748.66L404.501,766.705L413.796,782.259L423.092,795.379L432.388,806.137L441.684,814.617L450.979,820.914L460.275,825.127L469.571,827.362L478.867,827.727L488.163,826.333L497.458,823.291L506.754,818.712L516.05,812.706L525.346,805.38L534.641,796.84L543.937,787.19L553.233,776.527L562.529,764.949L571.824,752.547L581.12,739.411L590.416,725.624L599.712,711.268L609.007,696.42L618.303,681.152L627.599,665.533L636.895,649.628L646.191,633.498L655.486,617.202L664.782,600.793L674.078,584.321L683.374,567.835L692.669,551.378L701.965,534.991L711.261,518.712L720.557,502.576L729.852,486.616L739.148,470.861L748.444,455.339L757.74,440.075L767.035,425.091L776.331,410.409L785.627,396.047L794.923,382.021L804.218,368.347L813.514,355.039L822.81,342.107L832.106,329.562L841.402,317.412L850.697,305.666L859.993,294.329L869.289,283.407L878.585,272.903L887.88,262.821L897.176,253.162L906.472,243.928L915.768,235.119L925.063,226.734L934.359,218.772L943.655,211.231L952.951,204.11L962.246,197.404L971.542,191.111L980.838,185.227L990.134,179.746L999.43,174.664L1008.73,169.977L1018.02,165.678L1027.32,161.761L1036.61,158.221L1045.91,155.051L1055.2,152.245L1064.5,149.796L1073.8,147.696L1083.09,145.94L1092.39,144.52L1101.68,143.428L1110.98,142.657L1120.27,142.2L1129.57,142.05" style="fill:none;fill-rule:nonzero;stroke:rgb(204,204,204);stroke-width:16.95px;stroke-linecap:square;stroke-miterlimit:10;"/>
            </g>
            <g id="path171" serif:id="path17" transform="matrix(0.126051,0,0,-0.094768,-1934.36,622.222)">
                <path d="M209.29,484.929L218.585,543.877L227.881,598.448L237.177,647.723L246.473,691.135L255.768,728.392L265.064,759.418L274.36,784.3L283.656,803.249L292.952,816.559L302.247,824.587L311.543,827.729L320.839,826.4L330.135,821.027L339.43,812.032L348.726,799.83L358.022,784.823L367.318,767.391L376.613,747.895L385.909,726.675L395.205,704.044L404.501,680.294L413.796,655.693L423.092,630.484L432.388,604.891L441.684,579.115L450.979,553.336L460.275,527.716L469.571,502.399L478.867,477.512L488.163,453.167L497.458,429.462L506.754,406.479L516.05,384.291L525.346,362.959L534.641,342.532L543.937,323.052L553.233,304.551L562.529,287.053L571.824,270.578L581.12,255.136L590.416,240.733L599.712,227.371L609.007,215.045L618.303,203.748L627.599,193.47L636.895,184.196L646.191,175.909L655.486,168.591L664.782,162.219L674.078,156.772L683.374,152.224L692.669,148.55L701.965,145.724L711.261,143.718L720.557,142.504L729.852,142.054L739.148,142.05L1129.57,142.05" style="fill:none;fill-rule:nonzero;stroke:rgb(102,102,102);stroke-width:16.95px;stroke-linecap:square;stroke-miterlimit:10;"/>
            </g>
            <g id="path15-8-8" transform="matrix(0.126051,0,0,-0.094768,-1934.36,622.222)">
                <path d="M209.29,827.807L218.585,822.702L227.881,808.47L237.177,786.696L246.473,758.872L255.768,726.365L265.064,690.407L274.36,652.088L283.656,612.357L292.952,572.033L302.247,531.81L311.543,492.271L320.839,453.896L330.135,417.076L339.43,382.122L348.726,349.272L358.022,318.708L367.318,290.556L376.613,264.896L385.909,241.773L395.205,221.197L404.501,203.152L413.796,187.598L423.092,174.478L432.388,163.72L441.684,155.24L450.979,148.943L460.275,144.73L469.571,142.495L478.867,142.05L1129.57,142.05" style="fill:none;fill-rule:nonzero;stroke:black;stroke-width:16.95px;stroke-linecap:square;stroke-miterlimit:10;"/>
            </g>
        </g>
        <g transform="matrix(3.77953,0,0,3.77953,-1988.02,360.748)">
            <g transform="matrix(1,0,0,1,-2.19294e-06,0)">
                <g transform="matrix(8,0,0,8,-53.1348,42.5115)">
                </g>
                <text x="-58.022px" y="42.511px" style="font-family:'Arial-BoldMT', 'Arial', sans-serif;font-weight:700;font-size:8px;">b</text>
            </g>
        </g>
        <g id="path53" serif:id="path5" transform="matrix(0.555204,0,0,1,-1741.06,-12.8591)">
            <path d="M-625.522,570.76L-509.502,570.76" style="fill:none;fill-rule:nonzero;stroke:black;stroke-width:3.78px;stroke-linecap:butt;stroke-linejoin:miter;stroke-miterlimit:4;"/>
        </g>
        <g id="path54" serif:id="path5" transform="matrix(0.488647,0,0,1,-1696.43,-12.8591)">
            <path d="M-625.522,570.76L-509.502,570.76" style="fill:none;fill-rule:nonzero;stroke:black;stroke-width:3.78px;stroke-linecap:butt;stroke-linejoin:miter;stroke-miterlimit:4;"/>
        </g>
        <g transform="matrix(1,0,0,1,102.528,213.042)">
            <g id="path16-9-1-5-41" serif:id="path16-9-1-5-4" transform="matrix(0.422939,0,0,0.422939,-1562.93,-334.272)">
                <circle cx="-1306.99" cy="1605.74" r="25.915" style="fill:none;stroke:black;stroke-width:1.74px;stroke-linecap:butt;stroke-linejoin:miter;stroke-miterlimit:4;"/>
            </g>
            <g transform="matrix(0.422939,0,0,0.422939,-2120.91,350.247)">
                <text x="0px" y="0px" style="font-family:'ArialMT', 'Arial', sans-serif;font-size:49.134px;">x</text>
            </g>
        </g>
        <g id="path2-56-7" transform="matrix(0.688079,0,0,0.688079,-717.969,136.123)">
            <path d="M-2231.16,733.139L-2231.16,808.884" style="fill:none;fill-rule:nonzero;stroke:black;stroke-width:4.94px;stroke-linecap:butt;stroke-linejoin:miter;stroke-miterlimit:4;"/>
        </g>
        <g id="path2-8-3-9" transform="matrix(0.688079,0,0,0.688079,-717.969,136.123)">
            <path d="M-2172.77,733.139L-2172.77,808.884" style="fill:none;fill-rule:nonzero;stroke:black;stroke-width:4.94px;stroke-linecap:butt;stroke-linejoin:miter;stroke-miterlimit:4;"/>
        </g>
        <g id="path2-5-6-4" transform="matrix(0.688079,0,0,0.688079,-717.969,136.123)">
            <path d="M-2142.09,733.139L-2142.09,808.884" style="fill:none;fill-rule:nonzero;stroke:black;stroke-width:4.94px;stroke-linecap:butt;stroke-linejoin:miter;stroke-miterlimit:4;"/>
        </g>
        <g id="path2-6-3-1" transform="matrix(0.688079,0,0,0.688079,-717.969,136.123)">
            <path d="M-2122.82,733.139L-2122.82,808.884" style="fill:none;fill-rule:nonzero;stroke:black;stroke-width:4.94px;stroke-linecap:butt;stroke-linejoin:miter;stroke-miterlimit:4;"/>
        </g>
        <g id="path2-6-77-0-6" transform="matrix(0.688079,0,0,0.688079,-717.969,136.123)">
            <path d="M-2061.22,733.139L-2061.22,808.884" style="fill:none;fill-rule:nonzero;stroke:black;stroke-width:4.94px;stroke-linecap:butt;stroke-linejoin:miter;stroke-miterlimit:4;"/>
        </g>
        <g transform="matrix(1,0,0,1,-7.10543e-15,-24.0923)">
            <g id="path19-8-6" transform="matrix(0.126051,0,0,-0.094768,-1934.36,736.688)">
                <path d="M209.29,142.05L218.585,147.155L227.881,161.387L237.177,183.161L246.473,210.985L255.768,243.492L265.064,279.45L274.36,317.769L283.656,357.5L292.952,397.824L302.247,438.047L311.543,477.586L320.839,515.961L330.135,552.781L339.43,587.735L348.726,620.585L358.022,651.149L367.318,679.301L376.613,704.961L385.909,728.084L395.205,748.66L404.501,766.705L413.796,782.259L423.092,795.379L432.388,806.137L441.684,814.617L450.979,820.914L460.275,825.127L469.571,827.362L478.867,827.727L488.163,826.333L497.458,823.291L506.754,818.712L516.05,812.706L525.346,805.38L534.641,796.84L543.937,787.19L553.233,776.527L562.529,764.949L571.824,752.547L581.12,739.411L590.416,725.624L599.712,711.268L609.007,696.42L618.303,681.152L627.599,665.533L636.895,649.628L646.191,633.498L655.486,617.202L664.782,600.793L674.078,584.321L683.374,567.835L692.669,551.378L701.965,534.991L711.261,518.712L720.557,502.576L729.852,486.616L739.148,470.861L748.444,455.339L757.74,440.075L767.035,425.091L776.331,410.409L785.627,396.047L794.923,382.021L804.218,368.347L813.514,355.039L822.81,342.107L832.106,329.562L841.402,317.412L850.697,305.666L859.993,294.329L869.289,283.407L878.585,272.903L887.88,262.821L897.176,253.162L906.472,243.928L915.768,235.119L925.063,226.734L934.359,218.772L943.655,211.231L952.951,204.11L962.246,197.404L971.542,191.111L980.838,185.227L990.134,179.746L999.43,174.664L1008.73,169.977L1018.02,165.678L1027.32,161.761L1036.61,158.221L1045.91,155.051L1055.2,152.245L1064.5,149.796L1073.8,147.696L1083.09,145.94L1092.39,144.52L1101.68,143.428L1110.98,142.657L1120.27,142.2L1129.57,142.05" style="fill:none;fill-rule:nonzero;stroke:rgb(204,204,204);stroke-width:16.95px;stroke-linecap:square;stroke-miterlimit:10;"/>
            </g>
            <g id="path172" serif:id="path17" transform="matrix(0.126051,0,0,-0.094768,-1934.36,736.688)">
                <path d="M209.29,484.929L218.585,543.877L227.881,598.448L237.177,647.723L246.473,691.135L255.768,728.392L265.064,759.418L274.36,784.3L283.656,803.249L292.952,816.559L302.247,824.587L311.543,827.729L320.839,826.4L330.135,821.027L339.43,812.032L348.726,799.83L358.022,784.823L367.318,767.391L376.613,747.895L385.909,726.675L395.205,704.044L404.501,680.294L413.796,655.693L423.092,630.484L432.388,604.891L441.684,579.115L450.979,553.336L460.275,527.716L469.571,502.399L478.867,477.512L488.163,453.167L497.458,429.462L506.754,406.479L516.05,384.291L525.346,362.959L534.641,342.532L543.937,323.052L553.233,304.551L562.529,287.053L571.824,270.578L581.12,255.136L590.416,240.733L599.712,227.371L609.007,215.045L618.303,203.748L627.599,193.47L636.895,184.196L646.191,175.909L655.486,168.591L664.782,162.219L674.078,156.772L683.374,152.224L692.669,148.55L701.965,145.724L711.261,143.718L720.557,142.504L729.852,142.054L739.148,142.05L1129.57,142.05" style="fill:none;fill-rule:nonzero;stroke:rgb(102,102,102);stroke-width:16.95px;stroke-linecap:square;stroke-miterlimit:10;"/>
            </g>
            <g id="path15-8-8-6" transform="matrix(0.126051,0,0,-0.094768,-1934.36,736.688)">
                <path d="M209.29,827.807L218.585,822.702L227.881,808.47L237.177,786.696L246.473,758.872L255.768,726.365L265.064,690.407L274.36,652.088L283.656,612.357L292.952,572.033L302.247,531.81L311.543,492.271L320.839,453.896L330.135,417.076L339.43,382.122L348.726,349.272L358.022,318.708L367.318,290.556L376.613,264.896L385.909,241.773L395.205,221.197L404.501,203.152L413.796,187.598L423.092,174.478L432.388,163.72L441.684,155.24L450.979,148.943L460.275,144.73L469.571,142.495L478.867,142.05L1129.57,142.05" style="fill:none;fill-rule:nonzero;stroke:black;stroke-width:16.95px;stroke-linecap:square;stroke-miterlimit:10;"/>
            </g>
        </g>
        <g transform="matrix(3.77953,0,0,3.77953,-1988.02,474.953)">
            <g transform="matrix(1,0,0,1,-2.19294e-06,0)">
                <g transform="matrix(8,0,0,8,-53.5723,42.5115)">
                </g>
                <text x="-58.022px" y="42.511px" style="font-family:'Arial-BoldMT', 'Arial', sans-serif;font-weight:700;font-size:8px;">c</text>
            </g>
        </g>
        <g id="path55" serif:id="path5" transform="matrix(0.555204,0,0,1,-1741.06,95.8806)">
            <path d="M-625.522,570.76L-509.502,570.76" style="fill:none;fill-rule:nonzero;stroke:black;stroke-width:3.78px;stroke-linecap:butt;stroke-linejoin:miter;stroke-miterlimit:4;"/>
        </g>
        <g id="path56" serif:id="path5" transform="matrix(0.488647,0,0,1,-1696.43,95.8806)">
            <path d="M-625.522,570.76L-509.502,570.76" style="fill:none;fill-rule:nonzero;stroke:black;stroke-width:3.78px;stroke-linecap:butt;stroke-linejoin:miter;stroke-miterlimit:4;"/>
        </g>
        <g transform="matrix(1,0,0,1,102.528,321.781)">
            <g id="path16-9-1-5-42" serif:id="path16-9-1-5-4" transform="matrix(0.422939,0,0,0.422939,-1562.93,-334.272)">
                <circle cx="-1306.99" cy="1605.74" r="25.915" style="fill:none;stroke:black;stroke-width:1.74px;stroke-linecap:butt;stroke-linejoin:miter;stroke-miterlimit:4;"/>
            </g>
            <g transform="matrix(0.422939,0,0,0.422939,-2120.91,350.247)">
                <text x="0px" y="0px" style="font-family:'ArialMT', 'Arial', sans-serif;font-size:49.134px;">x</text>
            </g>
        </g>
        <g id="path57" serif:id="path5" transform="matrix(0.488647,0,0,1,-1696.43,202.882)">
            <path d="M-625.522,570.76L-509.502,570.76" style="fill:none;fill-rule:nonzero;stroke:black;stroke-width:3.78px;stroke-linecap:butt;stroke-linejoin:miter;stroke-miterlimit:4;"/>
        </g>
        <g id="path58" serif:id="path5" transform="matrix(2.9921e-17,-0.808403,1,1.01301e-16,-2583.91,372.789)">
            <path d="M-625.522,570.76L-509.502,570.76" style="fill:none;fill-rule:nonzero;stroke:black;stroke-width:3.33px;stroke-linecap:butt;stroke-linejoin:miter;stroke-miterlimit:4;"/>
        </g>
        <g transform="matrix(1,0,0,1,102.528,428.783)">
            <g id="path16-9-1-5-43" serif:id="path16-9-1-5-4" transform="matrix(0.422939,0,0,0.422939,-1562.93,-334.272)">
                <circle cx="-1306.99" cy="1605.74" r="25.915" style="fill:none;stroke:black;stroke-width:1.74px;stroke-linecap:butt;stroke-linejoin:miter;stroke-miterlimit:4;"/>
            </g>
            <g transform="matrix(0.422939,0,0,0.422939,-2120.91,350.247)">
                <text x="0px" y="0px" style="font-family:'ArialMT', 'Arial', sans-serif;font-size:49.134px;">x</text>
            </g>
        </g>
        <g transform="matrix(1,0,0,1,6.72972,-49.3745)">
            <g id="path19-8-61" serif:id="path19-8-6" transform="matrix(0.126051,0,0,-0.094768,-1934.36,868.972)">
                <path d="M209.29,142.05L218.585,147.155L227.881,161.387L237.177,183.161L246.473,210.985L255.768,243.492L265.064,279.45L274.36,317.769L283.656,357.5L292.952,397.824L302.247,438.047L311.543,477.586L320.839,515.961L330.135,552.781L339.43,587.735L348.726,620.585L358.022,651.149L367.318,679.301L376.613,704.961L385.909,728.084L395.205,748.66L404.501,766.705L413.796,782.259L423.092,795.379L432.388,806.137L441.684,814.617L450.979,820.914L460.275,825.127L469.571,827.362L478.867,827.727L488.163,826.333L497.458,823.291L506.754,818.712L516.05,812.706L525.346,805.38L534.641,796.84L543.937,787.19L553.233,776.527L562.529,764.949L571.824,752.547L581.12,739.411L590.416,725.624L599.712,711.268L609.007,696.42L618.303,681.152L627.599,665.533L636.895,649.628L646.191,633.498L655.486,617.202L664.782,600.793L674.078,584.321L683.374,567.835L692.669,551.378L701.965,534.991L711.261,518.712L720.557,502.576L729.852,486.616L739.148,470.861L748.444,455.339L757.74,440.075L767.035,425.091L776.331,410.409L785.627,396.047L794.923,382.021L804.218,368.347L813.514,355.039L822.81,342.107L832.106,329.562L841.402,317.412L850.697,305.666L859.993,294.329L869.289,283.407L878.585,272.903L887.88,262.821L897.176,253.162L906.472,243.928L915.768,235.119L925.063,226.734L934.359,218.772L943.655,211.231L952.951,204.11L962.246,197.404L971.542,191.111L980.838,185.227L990.134,179.746L999.43,174.664L1008.73,169.977L1018.02,165.678L1027.32,161.761L1036.61,158.221L1045.91,155.051L1055.2,152.245L1064.5,149.796L1073.8,147.696L1083.09,145.94L1092.39,144.52L1101.68,143.428L1110.98,142.657L1120.27,142.2L1129.57,142.05" style="fill:none;fill-rule:nonzero;stroke:rgb(204,204,204);stroke-width:16.95px;stroke-linecap:square;stroke-miterlimit:10;"/>
            </g>
            <g id="path173" serif:id="path17" transform="matrix(0.126051,0,0,-0.094768,-1934.36,868.972)">
                <path d="M209.29,484.929L218.585,543.877L227.881,598.448L237.177,647.723L246.473,691.135L255.768,728.392L265.064,759.418L274.36,784.3L283.656,803.249L292.952,816.559L302.247,824.587L311.543,827.729L320.839,826.4L330.135,821.027L339.43,812.032L348.726,799.83L358.022,784.823L367.318,767.391L376.613,747.895L385.909,726.675L395.205,704.044L404.501,680.294L413.796,655.693L423.092,630.484L432.388,604.891L441.684,579.115L450.979,553.336L460.275,527.716L469.571,502.399L478.867,477.512L488.163,453.167L497.458,429.462L506.754,406.479L516.05,384.291L525.346,362.959L534.641,342.532L543.937,323.052L553.233,304.551L562.529,287.053L571.824,270.578L581.12,255.136L590.416,240.733L599.712,227.371L609.007,215.045L618.303,203.748L627.599,193.47L636.895,184.196L646.191,175.909L655.486,168.591L664.782,162.219L674.078,156.772L683.374,152.224L692.669,148.55L701.965,145.724L711.261,143.718L720.557,142.504L729.852,142.054L739.148,142.05L1129.57,142.05" style="fill:none;fill-rule:nonzero;stroke:rgb(102,102,102);stroke-width:16.95px;stroke-linecap:square;stroke-miterlimit:10;"/>
            </g>
            <g id="path15-8-8-61" serif:id="path15-8-8-6" transform="matrix(0.126051,0,0,-0.094768,-1934.36,868.972)">
                <path d="M209.29,827.807L218.585,822.702L227.881,808.47L237.177,786.696L246.473,758.872L255.768,726.365L265.064,690.407L274.36,652.088L283.656,612.357L292.952,572.033L302.247,531.81L311.543,492.271L320.839,453.896L330.135,417.076L339.43,382.122L348.726,349.272L358.022,318.708L367.318,290.556L376.613,264.896L385.909,241.773L395.205,221.197L404.501,203.152L413.796,187.598L423.092,174.478L432.388,163.72L441.684,155.24L450.979,148.943L460.275,144.73L469.571,142.495L478.867,142.05L1129.57,142.05" style="fill:none;fill-rule:nonzero;stroke:black;stroke-width:16.95px;stroke-linecap:square;stroke-miterlimit:10;"/>
            </g>
        </g>
        <g transform="matrix(1,0,0,1,50.6098,-60.2435)">
            <g transform="matrix(1,0,0,1,-2270.45,798.227)">
                <text x="0px" y="0px" style="font-family:'Helvetica';font-size:22.677px;">time</text>
            </g>
            <g id="path59" serif:id="path5" transform="matrix(0.954818,0,0,1,-1702.43,206.958)">
                <path d="M-625.522,570.76L-509.502,570.76" style="fill:none;fill-rule:nonzero;"/>
                <g transform="matrix(3.95837,-0,-0,3.77953,-732.643,87.6791)">
                    <path d="M54.872,127.065L56.372,127.815L54.872,128.565L54.872,127.065Z" style="fill-rule:nonzero;"/>
                    <path d="M27.062,127.815L55.172,127.815" style="fill:none;fill-rule:nonzero;stroke:black;stroke-width:0.5px;stroke-linecap:butt;stroke-linejoin:miter;stroke-miterlimit:4;"/>
                </g>
            </g>
        </g>
        <g transform="matrix(1,0,0,1,1.0102,60.1396)">
            <g transform="matrix(1,0,0,1,-1866.66,782.631)">
                <text x="0px" y="0px" style="font-family:'Helvetica';font-size:22.677px;">time</text>
            </g>
            <g id="path510" serif:id="path5" transform="matrix(0.954818,0,0,1,-1298.64,191.361)">
                <path d="M-625.522,570.76L-509.502,570.76" style="fill:none;fill-rule:nonzero;"/>
                <g transform="matrix(3.95837,-0,-0,3.77953,-1103.59,-17.1073)">
                    <path d="M148.584,154.79L150.084,155.54L148.584,156.29L148.584,154.79Z" style="fill-rule:nonzero;"/>
                    <path d="M120.774,155.54L148.884,155.54" style="fill:none;fill-rule:nonzero;stroke:black;stroke-width:0.5px;stroke-linecap:butt;stroke-linejoin:miter;stroke-miterlimit:4;"/>
                </g>
            </g>
        </g>
        <g transform="matrix(1,0,0,1,-1896.23,374.085)">
            <text x="0px" y="0px" style="font-family:'Helvetica';font-size:37.795px;">basis</text>
        </g>
        <g id="path511" serif:id="path5" transform="matrix(0.321686,0,0,1,-1566.25,31.353)">
            <path d="M-625.522,570.76L-509.502,570.76" style="fill:none;fill-rule:nonzero;"/>
            <g transform="matrix(11.7491,-0,-0,3.77953,-2440.62,203.041)">
                <path d="M160.762,95.492L164.362,97.292L160.762,99.092C161.662,98.192 161.662,96.392 160.762,95.492Z" style="fill-rule:nonzero;"/>
                <path d="M154.488,97.292L161.482,97.292" style="fill:none;fill-rule:nonzero;stroke:black;stroke-width:0.8px;stroke-linecap:butt;stroke-linejoin:miter;stroke-miterlimit:4;"/>
            </g>
        </g>
        <g transform="matrix(1,0,0,1,-1577.87,781.864)">
            <text x="0px" y="0px" style="font-family:'Helvetica';font-size:37.795px;">X</text>
        </g>
        <g transform="matrix(1.38778e-16,-1,1,8.32667e-17,-1688.28,636.911)">
            <text x="0px" y="0px" style="font-family:'Helvetica';font-size:22.677px;">time</text>
        </g>
        <g transform="matrix(1,0,0,1,-37.7953,-21.9549)">
            <g transform="matrix(3.77953,0,0,3.77953,-1391.47,341.641)">
                <g transform="matrix(1,0,0,1,-2.19294e-06,0)">
                    <g transform="matrix(8,0,0,8,-53.5723,42.5115)">
                    </g>
                    <text x="-58.022px" y="42.511px" style="font-family:'Arial-BoldMT', 'Arial', sans-serif;font-weight:700;font-size:8px;">a</text>
                </g>
            </g>
            <g transform="matrix(3.77953,0,0,2.88949,-2472.69,396.97)">
                <rect x="220.932" y="40.853" width="69.375" height="82.433" style="fill:white;fill-opacity:0;stroke:black;stroke-width:1.12px;"/>
            </g>
            <g transform="matrix(1.31471,0,0,2.8119,-1923.34,415.342)">
                <rect x="224.255" y="38.575" width="39.829" height="78.228" style="fill:white;fill-opacity:0;stroke:rgb(23,23,23);stroke-width:0.86px;stroke-dasharray:8.61,1.72,0,0,0,0;"/>
            </g>
            <g transform="matrix(3.77953,0,0,3.77953,-1327.22,341.641)">
                <g transform="matrix(1,0,0,1,-2.19294e-06,0)">
                    <g transform="matrix(8,0,0,8,-53.1348,42.5115)">
                    </g>
                    <text x="-58.022px" y="42.511px" style="font-family:'Arial-BoldMT', 'Arial', sans-serif;font-weight:700;font-size:8px;">b</text>
                </g>
            </g>
            <g transform="matrix(1.31471,0,0,2.8119,-1859.09,415.342)">
                <rect x="224.255" y="38.575" width="39.829" height="78.228" style="fill:white;fill-opacity:0;stroke:rgb(23,23,23);stroke-width:0.86px;stroke-dasharray:8.61,1.72,0,0,0,0;"/>
            </g>
            <g transform="matrix(3.77953,0,0,3.77953,-1262.97,341.641)">
                <g transform="matrix(1,0,0,1,-2.19294e-06,0)">
                    <g transform="matrix(8,0,0,8,-53.5723,42.5115)">
                    </g>
                    <text x="-58.022px" y="42.511px" style="font-family:'Arial-BoldMT', 'Arial', sans-serif;font-weight:700;font-size:8px;">c</text>
                </g>
            </g>
            <g transform="matrix(1.31471,0,0,2.8119,-1794.84,415.342)">
                <rect x="224.255" y="38.575" width="39.829" height="78.228" style="fill:white;fill-opacity:0;stroke:rgb(23,23,23);stroke-width:0.86px;stroke-dasharray:8.61,1.72,0,0,0,0;"/>
            </g>
            <g transform="matrix(3.77953,0,0,3.77953,-1198.71,335.632)">
                <g transform="matrix(1,0,0,1,-2.19294e-06,0)">
                    <g transform="matrix(8,0,0,8,-53.5723,42.5115)">
                    </g>
                    <text x="-58.022px" y="42.511px" style="font-family:'Arial-BoldMT', 'Arial', sans-serif;font-weight:700;font-size:8px;">y</text>
                </g>
            </g>
            <g transform="matrix(1.31471,0,0,2.8119,-1730.58,415.342)">
                <rect x="224.255" y="38.575" width="39.829" height="78.228" style="fill:white;fill-opacity:0;stroke:rgb(255,0,0);stroke-width:0.86px;stroke-dasharray:8.61,1.72,0,0,0,0;"/>
            </g>
        </g>
        <g transform="matrix(3.83828e-17,-0.626838,0.690329,4.22705e-17,-2216.2,278.739)">
            <g id="path3" transform="matrix(0.275239,0,0,-0.275239,-807.188,1607.76)">
                <rect x="184.191" y="654.663" width="124.759" height="191.847" style="fill-rule:nonzero;"/>
            </g>
            <g id="path5-3" transform="matrix(0.275239,0,0,-0.275239,-807.188,1607.76)">
                <rect x="330.966" y="654.663" width="124.759" height="94.383" style="fill:rgb(102,102,102);fill-rule:nonzero;"/>
            </g>
            <g id="path7-6" transform="matrix(0.275239,0,0,-0.275239,-807.188,1607.76)">
                <rect x="477.741" y="534.802" width="124.759" height="119.861" style="fill:rgb(204,204,204);fill-rule:nonzero;"/>
            </g>
            <g id="path9" transform="matrix(0.275239,0,0,-0.275239,-807.188,1607.76)">
                <clipPath id="_clip1">
                    <rect x="163.276" y="519.216" width="460.14" height="342.879"/>
                </clipPath>
                <g clip-path="url(#_clip1)">
                    <path d="M163.276,654.663L623.416,654.663" style="fill:none;fill-rule:nonzero;stroke:black;stroke-width:4.25px;stroke-linecap:square;stroke-miterlimit:10;"/>
                </g>
            </g>
        </g>
        <g transform="matrix(3.83828e-17,-0.626838,0.690329,4.22705e-17,-1738.02,-23.629)">
            <g id="path12" transform="matrix(0.275239,0,0,-0.275239,-1314.98,942.499)">
                <rect x="736.359" y="534.802" width="124.759" height="219.381" style="fill-rule:nonzero;"/>
            </g>
            <g id="path14" transform="matrix(0.275239,0,0,-0.275239,-1314.98,942.499)">
                <rect x="883.135" y="699.366" width="124.759" height="54.817" style="fill:rgb(102,102,102);fill-rule:nonzero;"/>
            </g>
            <g id="path16-5" transform="matrix(0.275239,0,0,-0.275239,-1314.98,942.499)">
                <rect x="1029.91" y="754.183" width="124.759" height="92.327" style="fill:rgb(204,204,204);fill-rule:nonzero;"/>
            </g>
            <g id="path18-9" transform="matrix(0.275239,0,0,-0.275239,-1314.98,942.499)">
                <clipPath id="_clip2">
                    <rect x="715.444" y="519.216" width="460.14" height="342.879"/>
                </clipPath>
                <g clip-path="url(#_clip2)">
                    <path d="M715.444,754.183L1175.58,754.183" style="fill:none;fill-rule:nonzero;stroke:black;stroke-width:4.25px;stroke-linecap:square;stroke-miterlimit:10;"/>
                </g>
            </g>
        </g>
        <g transform="matrix(3.83828e-17,-0.626838,0.690329,4.22705e-17,-1544.92,-182.391)">
            <g id="path21" transform="matrix(0.275239,0,0,-0.275239,-1168.76,550.38)">
                <rect x="184.191" y="123.347" width="124.759" height="220.764" style="fill-rule:nonzero;"/>
            </g>
            <g id="path23" transform="matrix(0.275239,0,0,-0.275239,-1168.76,550.38)">
                <rect x="330.966" y="280.778" width="124.759" height="63.333" style="fill:rgb(102,102,102);fill-rule:nonzero;"/>
            </g>
            <g id="path25" transform="matrix(0.275239,0,0,-0.275239,-1168.76,550.38)">
                <rect x="477.741" y="344.111" width="124.759" height="90.944" style="fill:rgb(204,204,204);fill-rule:nonzero;"/>
            </g>
            <g id="path27" transform="matrix(0.275239,0,0,-0.275239,-1163,549.896)">
                <clipPath id="_clip3">
                    <rect x="163.276" y="107.762" width="460.14" height="342.879"/>
                </clipPath>
                <g clip-path="url(#_clip3)">
                    <path d="M163.276,344.111L623.416,344.111" style="fill:none;fill-rule:nonzero;stroke:black;stroke-width:4.25px;stroke-linecap:square;stroke-miterlimit:10;"/>
                </g>
            </g>
        </g>
        <g transform="matrix(3.83828e-17,-0.626838,0.690329,4.22705e-17,-1639.75,-103.019)">
            <g id="path30" transform="matrix(0.275239,0,0,-0.275239,-1314.98,678.477)">
                <rect x="736.359" y="123.347" width="124.759" height="188.774" style="fill-rule:nonzero;"/>
            </g>
            <g id="path32" transform="matrix(0.275239,0,0,-0.275239,-1314.98,678.477)">
                <rect x="883.135" y="312.121" width="124.759" height="122.934" style="fill:rgb(102,102,102);fill-rule:nonzero;"/>
            </g>
            <g id="path34" transform="matrix(0.275239,0,0,-0.275239,-1314.98,678.477)">
                <rect x="1029.91" y="285.637" width="124.759" height="26.484" style="fill:rgb(204,204,204);fill-rule:nonzero;"/>
            </g>
            <g id="path36-1" transform="matrix(0.275239,0,0,-0.275239,-1314.98,678.477)">
                <clipPath id="_clip4">
                    <rect x="715.444" y="107.762" width="460.14" height="342.879"/>
                </clipPath>
                <g clip-path="url(#_clip4)">
                    <path d="M715.444,312.121L1175.58,312.121" style="fill:none;fill-rule:nonzero;stroke:black;stroke-width:4.25px;stroke-linecap:square;stroke-miterlimit:10;"/>
                </g>
            </g>
        </g>
        <g transform="matrix(1,0,0,1,-2187.38,302.51)">
            <text x="-61.775px" y="0px" style="font-family:'Helvetica';font-size:45.354px;fill-opacity:0.91;">Inputs</text>
        </g>
        <g transform="matrix(1,0,0,1,-526.218,302.51)">
            <text x="-113.452px" y="0px" style="font-family:'Helvetica';font-size:45.354px;fill-opacity:0.91;">Responses</text>
        </g>
        <g transform="matrix(3.77953,0,0,3.77953,-2423.54,40.9995)">
            <g transform="matrix(1,0,0,1,4.73951e-06,0)">
                <g transform="matrix(12,0,0,12,252.806,70.3632)">
                </g>
                <text x="125.4px" y="70.363px" style="font-family:'ArialMT', 'Arial', sans-serif;font-size:12px;">Features representation</text>
            </g>
        </g>
        <g transform="matrix(3.77953,0,0,3.77953,-2416.61,257.08)">
            <g transform="matrix(1,0,0,1,1.35674e-05,0)">
                <g transform="matrix(12,0,0,12,384.975,13.2622)">
                </g>
                <text x="358.971px" y="13.262px" style="font-family:'ArialMT', 'Arial', sans-serif;font-size:12px;">GLM</text>
            </g>
        </g>
        <g transform="matrix(1,0,0,1,-548.124,650.52)">
            <text x="0px" y="0px" style="font-family:'Helvetica';font-size:22.677px;">time</text>
        </g>
        <g id="path512" serif:id="path5" transform="matrix(0.954818,0,0,1,19.8936,59.251)">
            <path d="M-625.522,570.76L-509.502,570.76" style="fill:none;fill-rule:nonzero;"/>
            <g transform="matrix(3.95837,-0,-0,3.77953,-2483.46,175.143)">
                <path d="M497.18,103.924L498.68,104.674L497.18,105.424L497.18,103.924Z" style="fill-rule:nonzero;"/>
                <path d="M469.37,104.674L497.48,104.674" style="fill:none;fill-rule:nonzero;stroke:black;stroke-width:0.5px;stroke-linecap:butt;stroke-linejoin:miter;stroke-miterlimit:4;"/>
            </g>
        </g>
        <g transform="matrix(1,0,0,1,-1261.72,390.324)">
            <text x="0px" y="0px" style="font-family:'Helvetica';font-size:37.795px;">weights</text>
        </g>
        <g id="path513" serif:id="path5" transform="matrix(0.488647,0,0,1,-616.857,18.7157)">
            <path d="M-625.522,570.76L-509.502,570.76" style="fill:none;fill-rule:nonzero;"/>
            <g transform="matrix(7.73467,-0,-0,3.77953,-3549.6,215.678)">
                <path d="M389.507,92.178L393.049,93.949L389.507,95.719C390.392,94.834 390.392,93.063 389.507,92.178Z" style="fill-rule:nonzero;"/>
                <path d="M378.049,93.949L390.215,93.949" style="fill:none;fill-rule:nonzero;stroke:black;stroke-width:0.79px;stroke-linecap:butt;stroke-linejoin:miter;stroke-miterlimit:4;"/>
            </g>
        </g>
        <g id="path514" serif:id="path5" transform="matrix(0.846302,0,0,1,-192.821,18.7157)">
            <path d="M-625.522,570.76L-509.502,570.76" style="fill:none;fill-rule:nonzero;"/>
            <g transform="matrix(4.46593,-0,-0,3.77953,-2550.55,215.678)">
                <path d="M453.427,92.149L457.027,93.949L453.427,95.749C454.327,94.849 454.327,93.049 453.427,92.149Z" style="fill-rule:nonzero;"/>
                <path d="M431.049,93.949L454.147,93.949" style="fill:none;fill-rule:nonzero;stroke:black;stroke-width:0.8px;stroke-linecap:butt;stroke-linejoin:miter;stroke-miterlimit:4;"/>
            </g>
        </g>
        <g id="path515" serif:id="path5" transform="matrix(0.391607,0,0,1,-1147.97,24.7413)">
            <path d="M-625.522,570.76L-509.502,570.76" style="fill:none;fill-rule:nonzero;"/>
            <g transform="matrix(9.65134,-0,-0,3.77953,-3072.95,209.652)">
                <path d="M265.606,94.614L266.999,95.543L265.606,96.472L265.606,94.614Z" style="fill:none;fill-rule:nonzero;stroke:black;stroke-width:1.66px;stroke-linejoin:miter;stroke-miterlimit:10;"/>
                <path d="M253.584,95.543L265.606,95.543" style="fill:none;fill-rule:nonzero;stroke:black;stroke-width:1.66px;stroke-linejoin:miter;stroke-miterlimit:4;"/>
            </g>
        </g>
        <g id="path516" serif:id="path5" transform="matrix(0.550032,0,0,1,-777.557,18.032)">
            <path d="M-625.522,570.76L-509.502,570.76" style="fill:none;fill-rule:nonzero;"/>
            <g transform="matrix(6.87147,-0,-0,3.77953,-2861.29,216.362)">
                <path d="M338.655,91.968L342.255,93.768L338.655,95.568C339.555,94.668 339.555,92.868 338.655,91.968Z" style="fill-rule:nonzero;"/>
                <path d="M325.37,93.768L339.375,93.768" style="fill:none;fill-rule:nonzero;stroke:black;stroke-width:0.8px;stroke-linecap:butt;stroke-linejoin:miter;stroke-miterlimit:4;"/>
            </g>
        </g>
        <g transform="matrix(0.665651,0,0,0.665651,-334.872,155.032)">
            <g id="path36" transform="matrix(1.74142,0,0,-1.74142,-661.65,691.757)">
                <path d="M0,0L-30.234,-11.149L-22.694,22.527L7.339,32.899L0,0Z" style="fill-rule:nonzero;"/>
            </g>
            <g id="path38" transform="matrix(1.74142,0,0,-1.74142,-650.632,630.784)">
                <path d="M0,0L-29.563,-10.57L-55.689,10.548L-26.155,19.148L0,0Z" style="fill-rule:nonzero;"/>
            </g>
            <g id="path40" transform="matrix(1.74142,0,0,-1.74142,-704.994,651.497)">
                <path d="M0,0L-7.174,-33.752L-32.655,-12.064L-26.07,20.67L0,0Z" style="fill-rule:nonzero;"/>
            </g>
            <g id="path42" transform="matrix(1.74142,0,0,-1.74142,-719.955,617.25)">
                <path d="M0,0C-0.326,-1.38 -2.554,-2.032 -4.963,-1.457C-7.373,-0.882 -9.057,0.706 -8.728,2.086C-8.402,3.47 -6.177,4.122 -3.764,3.546C-1.355,2.971 0.329,1.38 0,0" style="fill:white;fill-rule:nonzero;"/>
            </g>
            <g id="path44" transform="matrix(1.74142,0,0,-1.74142,-705.782,628.496)">
                <path d="M0,0C-0.329,-1.38 -2.554,-2.032 -4.963,-1.457C-7.376,-0.882 -9.065,0.706 -8.731,2.086C-8.405,3.472 -6.177,4.124 -3.767,3.543C-1.355,2.971 0.326,1.38 0,0" style="fill:white;fill-rule:nonzero;"/>
            </g>
            <g id="path46" transform="matrix(1.74142,0,0,-1.74142,-690.8,639.957)">
                <path d="M0,0C-0.326,-1.38 -2.548,-2.032 -4.963,-1.457C-7.373,-0.882 -9.057,0.706 -8.731,2.086C-8.396,3.47 -6.177,4.124 -3.767,3.543C-1.355,2.971 0.326,1.38 0,0" style="fill:white;fill-rule:nonzero;"/>
            </g>
            <g id="path48" transform="matrix(1.74142,0,0,-1.74142,-692.121,608.512)">
                <path d="M0,0C-0.326,-1.38 -2.554,-2.032 -4.963,-1.457C-7.373,-0.882 -9.062,0.706 -8.731,2.086C-8.402,3.467 -6.177,4.124 -3.764,3.543C-1.355,2.968 0.329,1.38 0,0" style="fill:white;fill-rule:nonzero;"/>
            </g>
            <g id="path50" transform="matrix(1.74142,0,0,-1.74142,-677.577,619.388)">
                <path d="M0,0C-0.326,-1.38 -2.551,-2.035 -4.961,-1.46C-7.37,-0.879 -9.057,0.709 -8.731,2.086C-8.396,3.467 -6.177,4.124 -3.767,3.546C-1.355,2.971 0.329,1.38 0,0" style="fill:white;fill-rule:nonzero;"/>
            </g>
            <g id="path521" serif:id="path52" transform="matrix(1.74142,0,0,-1.74142,-662.736,630.407)">
                <path d="M0,0C-0.326,-1.38 -2.548,-2.032 -4.963,-1.457C-7.373,-0.882 -9.057,0.706 -8.731,2.086C-8.402,3.47 -6.177,4.122 -3.767,3.543C-1.355,2.971 0.332,1.38 0,0" style="fill:white;fill-rule:nonzero;"/>
            </g>
            <g id="path541" serif:id="path54" transform="matrix(1.74142,0,0,-1.74142,-742.694,639.86)">
                <path d="M0,0C-1.559,-0.522 -3.458,0.967 -4.241,3.317C-5.023,5.672 -4.394,7.999 -2.84,8.512C-1.276,9.037 0.621,7.551 1.403,5.196C2.188,2.846 1.559,0.522 0,0" style="fill:white;fill-rule:nonzero;"/>
            </g>
            <g id="path561" serif:id="path56" transform="matrix(1.74142,0,0,-1.74142,-732.329,669.283)">
                <path d="M0,0C-1.559,-0.524 -3.455,0.969 -4.238,3.319C-5.023,5.672 -4.394,7.997 -2.837,8.512C-1.273,9.037 0.624,7.551 1.406,5.196C2.188,2.846 1.559,0.524 0,0" style="fill:white;fill-rule:nonzero;"/>
            </g>
            <g id="path581" serif:id="path58" transform="matrix(1.74142,0,0,-1.74142,-714.401,662.819)">
                <path d="M0,0C-1.556,-0.522 -3.458,0.964 -4.241,3.317C-5.023,5.669 -4.394,7.994 -2.837,8.512C-1.276,9.037 0.621,7.549 1.409,5.199C2.188,2.846 1.562,0.522 0,0" style="fill:white;fill-rule:nonzero;"/>
            </g>
            <g id="path60" transform="matrix(1.74142,0,0,-1.74142,-722.192,699.253)">
                <path d="M0,0C-1.559,-0.524 -3.453,0.967 -4.238,3.317C-5.023,5.669 -4.394,7.994 -2.837,8.512C-1.276,9.034 0.626,7.549 1.409,5.196C2.188,2.846 1.565,0.522 0,0" style="fill:white;fill-rule:nonzero;"/>
            </g>
            <g id="path62" transform="matrix(1.74142,0,0,-1.74142,-749.96,675.598)">
                <path d="M0,0C-1.559,-0.524 -3.458,0.967 -4.238,3.317C-5.023,5.669 -4.394,7.994 -2.837,8.512C-1.276,9.034 0.626,7.549 1.409,5.196C2.188,2.846 1.562,0.522 0,0" style="fill:white;fill-rule:nonzero;"/>
            </g>
            <g id="path64" transform="matrix(1.74142,0,0,-1.74142,-666.682,656.496)">
                <path d="M0,0C-1.298,1.006 -1.117,3.407 0.403,5.372C1.925,7.322 4.207,8.096 5.505,7.087C6.803,6.083 6.622,3.674 5.102,1.715C3.583,-0.238 1.298,-1.009 0,0" style="fill:white;fill-rule:nonzero;"/>
            </g>
            <g id="path66" transform="matrix(1.74142,0,0,-1.74142,-685.714,679.754)">
                <path d="M0,0C-1.298,1.003 -1.117,3.41 0.403,5.369C1.928,7.325 4.212,8.093 5.508,7.087C6.803,6.083 6.622,3.674 5.102,1.715C3.583,-0.238 1.298,-1.009 0,0" style="fill:white;fill-rule:nonzero;"/>
            </g>
            <g id="path68" transform="matrix(1.74142,0,0,-1.74142,-706.267,703.507)">
                <path d="M0,0C-1.298,1.003 -1.117,3.407 0.403,5.369C1.925,7.322 4.212,8.093 5.508,7.087C6.806,6.08 6.622,3.674 5.102,1.715C3.583,-0.241 1.298,-1.009 0,0" style="fill:white;fill-rule:nonzero;"/>
            </g>
        </g>
        <g id="path16" transform="matrix(0.518991,9.7446e-33,9.7446e-33,0.518991,-460.974,294.471)">
            <circle cx="-1027.1" cy="567.768" r="54.982" style="fill:none;stroke:black;stroke-width:3.69px;stroke-linecap:butt;stroke-linejoin:miter;stroke-miterlimit:4;"/>
        </g>
        <g id="path3-7" transform="matrix(0.0330224,6.20029e-34,-6.20029e-34,-0.0330224,-1013.15,605.151)">
            <clipPath id="_clip5">
                <rect x="163.276" y="107.762" width="1012.31" height="754.333"/>
            </clipPath>
            <g clip-path="url(#_clip5)">
                <path d="M209.29,142.05L218.585,142.051L227.881,142.052L237.177,142.053L246.473,142.055L255.768,142.057L265.064,142.059L274.36,142.062L283.656,142.064L292.952,142.068L302.247,142.072L311.543,142.076L320.839,142.082L330.135,142.088L339.43,142.095L348.726,142.104L358.022,142.114L367.318,142.125L376.613,142.139L385.909,142.154L395.205,142.172L404.501,142.193L413.796,142.218L423.092,142.246L432.388,142.279L441.684,142.318L450.979,142.363L460.275,142.415L469.571,142.476L478.867,142.546L488.163,142.628L497.458,142.723L506.754,142.834L516.05,142.963L525.346,143.113L534.641,143.287L543.937,143.49L553.233,143.725L562.529,143.998L571.824,144.315L581.12,144.683L590.416,145.11L599.712,145.606L609.007,146.18L618.303,146.845L627.599,147.614L636.895,148.504L646.191,149.533L655.486,150.72L664.782,152.089L674.078,153.664L683.374,155.475L692.669,157.552L701.965,159.93L711.261,162.646L720.557,165.74L729.852,169.255L739.148,173.234L748.444,177.722L757.74,182.767L767.035,188.412L776.331,194.701L785.627,201.672L794.923,209.361L804.218,217.796L813.514,226.999L822.81,236.983L832.106,247.752L841.402,259.302L850.697,271.62L859.993,284.684L869.289,298.465L878.585,312.929L887.88,328.037L897.176,343.745L906.472,360.009L915.768,376.783L925.063,394.022L934.359,411.68L943.655,429.717L952.951,448.092L962.246,466.768L971.542,485.71L980.838,504.887L990.134,524.271L999.43,543.837L1008.73,563.561L1018.02,583.424L1027.32,603.407L1036.61,623.495L1045.91,643.674L1055.2,663.932L1064.5,684.257L1073.8,704.642L1083.09,725.078L1092.39,745.558L1101.68,766.075L1110.98,786.626L1120.27,807.204L1129.57,827.807" style="fill:none;fill-rule:nonzero;stroke:black;stroke-width:115.86px;stroke-linecap:square;stroke-miterlimit:10;"/>
            </g>
        </g>
        <g transform="matrix(1,0,0,1,-1062.65,390.221)">
            <text x="7.386px" y="0px" style="font-family:'Helvetica';font-size:37.795px;">inverse</text>
            <text x="39.95px" y="37.795px" style="font-family:'Helvetica';font-size:37.795px;">link</text>
        </g>
        <g transform="matrix(1,0,0,1,-789.705,390.221)">
            <text x="-67.231px" y="0px" style="font-family:'Helvetica';font-size:37.795px;">Poisson</text>
            <text x="-23.816px" y="37.795px" style="font-family:'Helvetica';font-size:37.795px;">r<tspan x="-13.297px -2.796px 13.315px " y="37.795px 37.795px 37.795px ">.v.</tspan></text>
        </g>
        <g transform="matrix(3.77953,0,0,3.77953,-319.509,376.391)">
            <g transform="matrix(1,0,0,1,-2.19294e-06,0)">
                <g transform="matrix(8,0,0,8,-53.5723,42.5115)">
                </g>
                <text x="-58.022px" y="42.511px" style="font-family:'Arial-BoldMT', 'Arial', sans-serif;font-weight:700;font-size:8px;">y</text>
            </g>
        </g>
    </g>
</svg>
