<?xml version="1.0" encoding="UTF-8" standalone="no"?>
<!DOCTYPE svg PUBLIC "-//W3C//DTD SVG 1.1//EN" "http://www.w3.org/Graphics/SVG/1.1/DTD/svg11.dtd">
<svg width="100%" height="100%" viewBox="0 0 535 181" version="1.1" xmlns="http://www.w3.org/2000/svg" xmlns:xlink="http://www.w3.org/1999/xlink" xml:space="preserve" xmlns:serif="http://www.serif.com/" style="fill-rule:evenodd;clip-rule:evenodd;">
    <g transform="matrix(0.264583,0,0,0.264583,622.131,-148.517)">
        <g id="_1" serif:id="1">
            <g>
                <g id="path2-56-9" transform="matrix(0.688079,0,0,0.688079,-210.472,371.409)">
                    <path d="M-350.322,733.139L-350.322,808.884" style="fill:none;fill-rule:nonzero;stroke:black;stroke-width:10.71px;"/>
                </g>
                <g id="path2-8-3-3" transform="matrix(0.688079,0,0,0.688079,-210.472,371.409)">
                    <path d="M-280.595,733.139L-280.595,808.884" style="fill:none;fill-rule:nonzero;stroke:black;stroke-width:10.71px;"/>
                </g>
                <g id="path2-5-6-1" transform="matrix(0.688079,0,0,0.688079,-210.472,371.409)">
                    <path d="M-261.254,733.139L-261.254,808.884" style="fill:none;fill-rule:nonzero;stroke:black;stroke-width:10.71px;"/>
                </g>
                <g id="path2-6-3-14" transform="matrix(0.688079,0,0,0.688079,-210.472,371.409)">
                    <path d="M-213.638,733.139L-213.638,808.884" style="fill:none;fill-rule:nonzero;stroke:black;stroke-width:10.71px;"/>
                </g>
                <g id="path2-6-77-0-9" transform="matrix(0.688079,0,0,0.688079,-210.472,371.409)">
                    <path d="M-180.383,733.139L-180.383,808.884" style="fill:none;fill-rule:nonzero;stroke:black;stroke-width:10.71px;"/>
                </g>
                <g id="path2-9-8-5" transform="matrix(0.688079,0,0,0.688079,-210.472,371.409)">
                    <path d="M-244.413,733.139L-244.413,808.884" style="fill:none;fill-rule:nonzero;stroke:black;stroke-width:10.71px;"/>
                </g>
                <g id="path15" transform="matrix(0.82588,0,0,0.82588,-62.9551,417.215)">
                    <path d="M-380.51,662.631L-380.51,836.533L-415.559,836.533" style="fill:none;fill-rule:nonzero;stroke:black;stroke-width:4.58px;"/>
                </g>
                <g id="path15-4" transform="matrix(0.734616,0,0,0.734616,-307.436,481.272)">
                    <path d="M-1165.4,576.438L-1165.4,844.387L-1023.4,844.387" style="fill:none;fill-rule:nonzero;stroke:black;stroke-width:5.14px;"/>
                </g>
                <g id="path2" transform="matrix(0.688079,0,0,0.688079,-685.1,486.125)">
                    <path d="M-2256.96,367.738L-2256.96,443.483" style="fill:none;fill-rule:nonzero;stroke:black;stroke-width:10.71px;"/>
                </g>
                <g id="path2-8" transform="matrix(0.688079,0,0,0.688079,-685.1,486.125)">
                    <path d="M-2238.25,367.738L-2238.25,443.483" style="fill:none;fill-rule:nonzero;stroke:black;stroke-width:10.71px;"/>
                </g>
                <g id="path2-5" transform="matrix(0.688079,0,0,0.688079,-685.1,486.125)">
                    <path d="M-2213.24,367.738L-2213.24,443.483" style="fill:none;fill-rule:nonzero;stroke:black;stroke-width:10.71px;"/>
                </g>
                <g id="path2-6" transform="matrix(0.688079,0,0,0.688079,-685.1,486.125)">
                    <path d="M-2142.95,367.738L-2142.95,443.483" style="fill:none;fill-rule:nonzero;stroke:black;stroke-width:10.71px;"/>
                </g>
                <g id="path2-6-77" transform="matrix(0.688079,0,0,0.688079,-685.1,486.125)">
                    <path d="M-2087.02,367.738L-2087.02,443.483" style="fill:none;fill-rule:nonzero;stroke:black;stroke-width:10.71px;"/>
                </g>
                <g id="path2-9" transform="matrix(0.688079,0,0,0.688079,-685.1,486.125)">
                    <path d="M-2179.39,367.738L-2179.39,443.483" style="fill:none;fill-rule:nonzero;stroke:black;stroke-width:10.71px;"/>
                </g>
                <g id="path2-56" transform="matrix(0.688079,0,0,0.688079,-702.851,372.739)">
                    <path d="M-2231.16,733.139L-2231.16,808.884" style="fill:none;fill-rule:nonzero;stroke:black;stroke-width:10.71px;"/>
                </g>
                <g id="path2-8-3" transform="matrix(0.688079,0,0,0.688079,-702.851,372.739)">
                    <path d="M-2201.12,733.139L-2201.12,808.884" style="fill:none;fill-rule:nonzero;stroke:black;stroke-width:10.71px;"/>
                </g>
                <g id="path2-5-6" transform="matrix(0.688079,0,0,0.688079,-702.851,372.739)">
                    <path d="M-2142.09,733.139L-2142.09,808.884" style="fill:none;fill-rule:nonzero;stroke:black;stroke-width:10.71px;"/>
                </g>
                <g id="path2-6-3" transform="matrix(0.688079,0,0,0.688079,-702.851,372.739)">
                    <path d="M-2083.14,733.139L-2083.14,808.884" style="fill:none;fill-rule:nonzero;stroke:black;stroke-width:10.71px;"/>
                </g>
                <g id="path2-6-77-0" transform="matrix(0.688079,0,0,0.688079,-702.851,372.739)">
                    <path d="M-2061.22,733.139L-2061.22,808.884" style="fill:none;fill-rule:nonzero;stroke:black;stroke-width:10.71px;"/>
                </g>
                <g id="path2-9-8" transform="matrix(0.688079,0,0,0.688079,-702.851,372.739)">
                    <path d="M-2102.57,733.139L-2102.57,808.884" style="fill:none;fill-rule:nonzero;stroke:black;stroke-width:10.71px;"/>
                </g>
                <g id="path2-56-7" transform="matrix(0.688079,0,0,0.688079,-702.851,504.238)">
                    <path d="M-2231.16,733.139L-2231.16,808.884" style="fill:none;fill-rule:nonzero;stroke:black;stroke-width:10.71px;"/>
                </g>
                <g id="path2-8-3-9" transform="matrix(0.688079,0,0,0.688079,-702.851,504.238)">
                    <path d="M-2172.77,733.139L-2172.77,808.884" style="fill:none;fill-rule:nonzero;stroke:black;stroke-width:10.71px;"/>
                </g>
                <g id="path2-5-6-4" transform="matrix(0.688079,0,0,0.688079,-702.851,504.238)">
                    <path d="M-2142.09,733.139L-2142.09,808.884" style="fill:none;fill-rule:nonzero;stroke:black;stroke-width:10.71px;"/>
                </g>
                <g id="path2-6-3-1" transform="matrix(0.688079,0,0,0.688079,-702.851,504.238)">
                    <path d="M-2122.82,733.139L-2122.82,808.884" style="fill:none;fill-rule:nonzero;stroke:black;stroke-width:10.71px;"/>
                </g>
                <g id="path2-6-77-0-6" transform="matrix(0.688079,0,0,0.688079,-702.851,504.238)">
                    <path d="M-2061.22,733.139L-2061.22,808.884" style="fill:none;fill-rule:nonzero;stroke:black;stroke-width:10.71px;"/>
                </g>
                <g id="path5" transform="matrix(1,0,0,1,1.8429,328.294)">
                    <path d="M-625.522,570.76L-509.502,570.76" style="fill:none;fill-rule:nonzero;stroke:black;stroke-width:3.78px;"/>
                </g>
                <g id="path5-4" transform="matrix(1,0,0,1,1.8429,328.294)">
                    <path d="M-948.538,571.064L-823.757,571.064" style="fill:none;fill-rule:nonzero;stroke:black;stroke-width:3.78px;"/>
                </g>
                <g id="path5-4-2" transform="matrix(1,0,0,1,1.8429,328.294)">
                    <path d="M-1170.55,574.331L-1122.14,574.331" style="fill:none;fill-rule:nonzero;stroke:black;stroke-width:3.78px;"/>
                </g>
                <g id="path5-0" transform="matrix(1,0,0,1,1.8429,441.68)">
                    <path d="M-2091.65,321.968L-2047.43,321.968" style="fill:none;fill-rule:nonzero;stroke:black;stroke-width:3.78px;"/>
                </g>
                <g id="path5-0-2" transform="matrix(1,0,0,1,1.8429,328.294)">
                    <path d="M-2091.65,574.868L-2047.43,574.868" style="fill:none;fill-rule:nonzero;stroke:black;stroke-width:3.78px;"/>
                </g>
                <g id="path5-0-2-0" transform="matrix(1,0,0,1,1.8429,199.79)">
                    <path d="M-2091.65,842.698L-2047.43,842.698" style="fill:none;fill-rule:nonzero;stroke:black;stroke-width:3.78px;"/>
                </g>
                <g id="path5-0-23" transform="matrix(1,0,0,1,1.8429,441.68)">
                    <path d="M-1602.12,337.424L-1557.89,337.424" style="fill:none;fill-rule:nonzero;stroke:black;stroke-width:3.78px;"/>
                </g>
                <g id="path5-0-2-3" transform="matrix(1,0,0,1,1.8429,328.294)">
                    <path d="M-1600.51,590.325L-1556.29,590.325" style="fill:none;fill-rule:nonzero;stroke:black;stroke-width:3.78px;"/>
                </g>
                <g id="path5-0-2-0-0" transform="matrix(1,0,0,1,1.8429,199.79)">
                    <path d="M-1599.65,858.155L-1555.42,858.155" style="fill:none;fill-rule:nonzero;stroke:black;stroke-width:3.78px;"/>
                </g>
                <g id="path5-0-2-0-0-5" transform="matrix(1,0,0,1,-5.71615,260.263)">
                    <path d="M-790.039,846.147L-814.605,846.147" style="fill:none;fill-rule:nonzero;stroke:black;stroke-width:3.78px;"/>
                </g>
                <g id="path36" transform="matrix(1.74142,0,0,-1.74142,-661.65,931.256)">
                    <path d="M0,0L-30.234,-11.149L-22.694,22.527L7.339,32.899L0,0Z" style="fill-rule:nonzero;"/>
                </g>
                <g id="path38" transform="matrix(1.74142,0,0,-1.74142,-650.632,870.283)">
                    <path d="M0,0L-29.563,-10.57L-55.689,10.548L-26.155,19.148L0,0Z" style="fill-rule:nonzero;"/>
                </g>
                <g id="path40" transform="matrix(1.74142,0,0,-1.74142,-704.994,890.997)">
                    <path d="M0,0L-7.174,-33.752L-32.655,-12.064L-26.07,20.67L0,0Z" style="fill-rule:nonzero;"/>
                </g>
                <g id="path42" transform="matrix(1.74142,0,0,-1.74142,-719.955,856.749)">
                    <path d="M0,0C-0.326,-1.38 -2.554,-2.032 -4.963,-1.457C-7.373,-0.882 -9.057,0.706 -8.728,2.086C-8.402,3.47 -6.177,4.122 -3.764,3.546C-1.355,2.971 0.329,1.38 0,0" style="fill:white;fill-rule:nonzero;"/>
                </g>
                <g id="path44" transform="matrix(1.74142,0,0,-1.74142,-705.782,867.995)">
                    <path d="M0,0C-0.329,-1.38 -2.554,-2.032 -4.963,-1.457C-7.376,-0.882 -9.065,0.706 -8.731,2.086C-8.405,3.472 -6.177,4.124 -3.767,3.543C-1.355,2.971 0.326,1.38 0,0" style="fill:white;fill-rule:nonzero;"/>
                </g>
                <g id="path46" transform="matrix(1.74142,0,0,-1.74142,-690.8,879.457)">
                    <path d="M0,0C-0.326,-1.38 -2.548,-2.032 -4.963,-1.457C-7.373,-0.882 -9.057,0.706 -8.731,2.086C-8.396,3.47 -6.177,4.124 -3.767,3.543C-1.355,2.971 0.326,1.38 0,0" style="fill:white;fill-rule:nonzero;"/>
                </g>
                <g id="path48" transform="matrix(1.74142,0,0,-1.74142,-692.121,848.011)">
                    <path d="M0,0C-0.326,-1.38 -2.554,-2.032 -4.963,-1.457C-7.373,-0.882 -9.062,0.706 -8.731,2.086C-8.402,3.467 -6.177,4.124 -3.764,3.543C-1.355,2.968 0.329,1.38 0,0" style="fill:white;fill-rule:nonzero;"/>
                </g>
                <g id="path50" transform="matrix(1.74142,0,0,-1.74142,-677.577,858.887)">
                    <path d="M0,0C-0.326,-1.38 -2.551,-2.035 -4.961,-1.46C-7.37,-0.879 -9.057,0.709 -8.731,2.086C-8.396,3.467 -6.177,4.124 -3.767,3.546C-1.355,2.971 0.329,1.38 0,0" style="fill:white;fill-rule:nonzero;"/>
                </g>
                <g id="path52" transform="matrix(1.74142,0,0,-1.74142,-662.736,869.907)">
                    <path d="M0,0C-0.326,-1.38 -2.548,-2.032 -4.963,-1.457C-7.373,-0.882 -9.057,0.706 -8.731,2.086C-8.402,3.47 -6.177,4.122 -3.767,3.543C-1.355,2.971 0.332,1.38 0,0" style="fill:white;fill-rule:nonzero;"/>
                </g>
                <g id="path54" transform="matrix(1.74142,0,0,-1.74142,-742.694,879.36)">
                    <path d="M0,0C-1.559,-0.522 -3.458,0.967 -4.241,3.317C-5.023,5.672 -4.394,7.999 -2.84,8.512C-1.276,9.037 0.621,7.551 1.403,5.196C2.188,2.846 1.559,0.522 0,0" style="fill:white;fill-rule:nonzero;"/>
                </g>
                <g id="path56" transform="matrix(1.74142,0,0,-1.74142,-732.329,908.783)">
                    <path d="M0,0C-1.559,-0.524 -3.455,0.969 -4.238,3.319C-5.023,5.672 -4.394,7.997 -2.837,8.512C-1.273,9.037 0.624,7.551 1.406,5.196C2.188,2.846 1.559,0.524 0,0" style="fill:white;fill-rule:nonzero;"/>
                </g>
                <g id="path58" transform="matrix(1.74142,0,0,-1.74142,-714.401,902.318)">
                    <path d="M0,0C-1.556,-0.522 -3.458,0.964 -4.241,3.317C-5.023,5.669 -4.394,7.994 -2.837,8.512C-1.276,9.037 0.621,7.549 1.409,5.199C2.188,2.846 1.562,0.522 0,0" style="fill:white;fill-rule:nonzero;"/>
                </g>
                <g id="path60" transform="matrix(1.74142,0,0,-1.74142,-722.192,938.752)">
                    <path d="M0,0C-1.559,-0.524 -3.453,0.967 -4.238,3.317C-5.023,5.669 -4.394,7.994 -2.837,8.512C-1.276,9.034 0.626,7.549 1.409,5.196C2.188,2.846 1.565,0.522 0,0" style="fill:white;fill-rule:nonzero;"/>
                </g>
                <g id="path62" transform="matrix(1.74142,0,0,-1.74142,-749.96,915.098)">
                    <path d="M0,0C-1.559,-0.524 -3.458,0.967 -4.238,3.317C-5.023,5.669 -4.394,7.994 -2.837,8.512C-1.276,9.034 0.626,7.549 1.409,5.196C2.188,2.846 1.562,0.522 0,0" style="fill:white;fill-rule:nonzero;"/>
                </g>
                <g id="path64" transform="matrix(1.74142,0,0,-1.74142,-666.682,895.996)">
                    <path d="M0,0C-1.298,1.006 -1.117,3.407 0.403,5.372C1.925,7.322 4.207,8.096 5.505,7.087C6.803,6.083 6.622,3.674 5.102,1.715C3.583,-0.238 1.298,-1.009 0,0" style="fill:white;fill-rule:nonzero;"/>
                </g>
                <g id="path66" transform="matrix(1.74142,0,0,-1.74142,-685.714,919.253)">
                    <path d="M0,0C-1.298,1.003 -1.117,3.41 0.403,5.369C1.928,7.325 4.212,8.093 5.508,7.087C6.803,6.083 6.622,3.674 5.102,1.715C3.583,-0.238 1.298,-1.009 0,0" style="fill:white;fill-rule:nonzero;"/>
                </g>
                <g id="path68" transform="matrix(1.74142,0,0,-1.74142,-706.267,943.006)">
                    <path d="M0,0C-1.298,1.003 -1.117,3.407 0.403,5.369C1.925,7.322 4.212,8.093 5.508,7.087C6.806,6.08 6.622,3.674 5.102,1.715C3.583,-0.241 1.298,-1.009 0,0" style="fill:white;fill-rule:nonzero;"/>
                </g>
                <g id="path14-1" transform="matrix(0.97576,0,0,0.757578,-49.0654,468.409)">
                    <path d="M-1331.38,410.116L-1164.63,574.965L-1320.38,777.952M-1330.57,574.962L-1164.63,574.965" style="fill:none;fill-rule:nonzero;stroke:black;stroke-width:4.33px;"/>
                </g>
                <g id="path16" transform="matrix(1,0,0,1,1.8429,328.294)">
                    <circle cx="-1027.1" cy="567.768" r="54.982" style="fill:none;stroke:black;stroke-width:3.69px;"/>
                </g>
                <g id="path3-7" transform="matrix(0.063628,0,0,-0.063628,-1067.85,926.917)">
                    <clipPath id="_clip1">
                        <rect x="163.276" y="107.762" width="1012.31" height="754.333"/>
                    </clipPath>
                    <g clip-path="url(#_clip1)">
                        <path d="M209.29,142.05L218.585,142.051L227.881,142.052L237.177,142.053L246.473,142.055L255.768,142.057L265.064,142.059L274.36,142.062L283.656,142.064L292.952,142.068L302.247,142.072L311.543,142.076L320.839,142.082L330.135,142.088L339.43,142.095L348.726,142.104L358.022,142.114L367.318,142.125L376.613,142.139L385.909,142.154L395.205,142.172L404.501,142.193L413.796,142.218L423.092,142.246L432.388,142.279L441.684,142.318L450.979,142.363L460.275,142.415L469.571,142.476L478.867,142.546L488.163,142.628L497.458,142.723L506.754,142.834L516.05,142.963L525.346,143.113L534.641,143.287L543.937,143.49L553.233,143.725L562.529,143.998L571.824,144.315L581.12,144.683L590.416,145.11L599.712,145.606L609.007,146.18L618.303,146.845L627.599,147.614L636.895,148.504L646.191,149.533L655.486,150.72L664.782,152.089L674.078,153.664L683.374,155.475L692.669,157.552L701.965,159.93L711.261,162.646L720.557,165.74L729.852,169.255L739.148,173.234L748.444,177.722L757.74,182.767L767.035,188.412L776.331,194.701L785.627,201.672L794.923,209.361L804.218,217.796L813.514,226.999L822.81,236.983L832.106,247.752L841.402,259.302L850.697,271.62L859.993,284.684L869.289,298.465L878.585,312.929L887.88,328.037L897.176,343.745L906.472,360.009L915.768,376.783L925.063,394.022L934.359,411.68L943.655,429.717L952.951,448.092L962.246,466.768L971.542,485.71L980.838,504.887L990.134,524.271L999.43,543.837L1008.73,563.561L1018.02,583.424L1027.32,603.407L1036.61,623.495L1045.91,643.674L1055.2,663.932L1064.5,684.257L1073.8,704.642L1083.09,725.078L1092.39,745.558L1101.68,766.075L1110.98,786.626L1120.27,807.204L1129.57,827.807" style="fill:none;fill-rule:nonzero;stroke:black;stroke-width:115.86px;stroke-linecap:square;stroke-linejoin:round;stroke-miterlimit:10;"/>
                    </g>
                </g>
                <g id="path19" transform="matrix(0.126051,0,0,-0.094768,-2016.92,811.074)">
                    <clipPath id="_clip2">
                        <rect x="163.276" y="107.762" width="1012.31" height="754.333"/>
                    </clipPath>
                    <g clip-path="url(#_clip2)">
                        <path d="M209.29,142.05L218.585,147.155L227.881,161.387L237.177,183.161L246.473,210.985L255.768,243.492L265.064,279.45L274.36,317.769L283.656,357.5L292.952,397.824L302.247,438.047L311.543,477.586L320.839,515.961L330.135,552.781L339.43,587.735L348.726,620.585L358.022,651.149L367.318,679.301L376.613,704.961L385.909,728.084L395.205,748.66L404.501,766.705L413.796,782.259L423.092,795.379L432.388,806.137L441.684,814.617L450.979,820.914L460.275,825.127L469.571,827.362L478.867,827.727L488.163,826.333L497.458,823.291L506.754,818.712L516.05,812.706L525.346,805.38L534.641,796.84L543.937,787.19L553.233,776.527L562.529,764.949L571.824,752.547L581.12,739.411L590.416,725.624L599.712,711.268L609.007,696.42L618.303,681.152L627.599,665.533L636.895,649.628L646.191,633.498L655.486,617.202L664.782,600.793L674.078,584.321L683.374,567.835L692.669,551.378L701.965,534.991L711.261,518.712L720.557,502.576L729.852,486.616L739.148,470.861L748.444,455.339L757.74,440.075L767.035,425.091L776.331,410.409L785.627,396.047L794.923,382.021L804.218,368.347L813.514,355.039L822.81,342.107L832.106,329.562L841.402,317.412L850.697,305.666L859.993,294.329L869.289,283.407L878.585,272.903L887.88,262.821L897.176,253.162L906.472,243.928L915.768,235.119L925.063,226.734L934.359,218.772L943.655,211.231L952.951,204.11L962.246,197.404L971.542,191.111L980.838,185.227L990.134,179.746L999.43,174.664L1008.73,169.977L1018.02,165.678L1027.32,161.761L1036.61,158.221L1045.91,155.051L1055.2,152.245L1064.5,149.796L1073.8,147.696L1083.09,145.94L1092.39,144.52L1101.68,143.428L1110.98,142.657L1120.27,142.2L1129.57,142.05" style="fill:none;fill-rule:nonzero;stroke:rgb(204,204,204);stroke-width:49.01px;stroke-linecap:square;stroke-linejoin:round;stroke-miterlimit:10;"/>
                    </g>
                </g>
                <g id="path17" transform="matrix(0.126051,0,0,-0.094768,-2016.92,811.074)">
                    <clipPath id="_clip3">
                        <rect x="163.276" y="107.762" width="1012.31" height="754.333"/>
                    </clipPath>
                    <g clip-path="url(#_clip3)">
                        <path d="M209.29,484.929L218.585,543.877L227.881,598.448L237.177,647.723L246.473,691.135L255.768,728.392L265.064,759.418L274.36,784.3L283.656,803.249L292.952,816.559L302.247,824.587L311.543,827.729L320.839,826.4L330.135,821.027L339.43,812.032L348.726,799.83L358.022,784.823L367.318,767.391L376.613,747.895L385.909,726.675L395.205,704.044L404.501,680.294L413.796,655.693L423.092,630.484L432.388,604.891L441.684,579.115L450.979,553.336L460.275,527.716L469.571,502.399L478.867,477.512L488.163,453.167L497.458,429.462L506.754,406.479L516.05,384.291L525.346,362.959L534.641,342.532L543.937,323.052L553.233,304.551L562.529,287.053L571.824,270.578L581.12,255.136L590.416,240.733L599.712,227.371L609.007,215.045L618.303,203.748L627.599,193.47L636.895,184.196L646.191,175.909L655.486,168.591L664.782,162.219L674.078,156.772L683.374,152.224L692.669,148.55L701.965,145.724L711.261,143.718L720.557,142.504L729.852,142.054L739.148,142.05L1129.57,142.05" style="fill:none;fill-rule:nonzero;stroke:rgb(102,102,102);stroke-width:49.01px;stroke-linecap:square;stroke-linejoin:round;stroke-miterlimit:10;"/>
                    </g>
                </g>
                <g id="path15-8" transform="matrix(0.126051,0,0,-0.094768,-2016.92,811.074)">
                    <clipPath id="_clip4">
                        <rect x="163.276" y="107.762" width="1012.31" height="754.333"/>
                    </clipPath>
                    <g clip-path="url(#_clip4)">
                        <path d="M209.29,827.807L218.585,822.702L227.881,808.47L237.177,786.696L246.473,758.872L255.768,726.365L265.064,690.407L274.36,652.088L283.656,612.357L292.952,572.033L302.247,531.81L311.543,492.271L320.839,453.896L330.135,417.076L339.43,382.122L348.726,349.272L358.022,318.708L367.318,290.556L376.613,264.896L385.909,241.773L395.205,221.197L404.501,203.152L413.796,187.598L423.092,174.478L432.388,163.72L441.684,155.24L450.979,148.943L460.275,144.73L469.571,142.495L478.867,142.05L1129.57,142.05" style="fill:none;fill-rule:nonzero;stroke:black;stroke-width:49.01px;stroke-linecap:square;stroke-linejoin:round;stroke-miterlimit:10;"/>
                    </g>
                </g>
                <g id="path19-8" transform="matrix(0.126051,0,0,-0.094768,-2016.92,957.189)">
                    <clipPath id="_clip5">
                        <rect x="163.276" y="107.762" width="1012.31" height="754.333"/>
                    </clipPath>
                    <g clip-path="url(#_clip5)">
                        <path d="M209.29,142.05L218.585,147.155L227.881,161.387L237.177,183.161L246.473,210.985L255.768,243.492L265.064,279.45L274.36,317.769L283.656,357.5L292.952,397.824L302.247,438.047L311.543,477.586L320.839,515.961L330.135,552.781L339.43,587.735L348.726,620.585L358.022,651.149L367.318,679.301L376.613,704.961L385.909,728.084L395.205,748.66L404.501,766.705L413.796,782.259L423.092,795.379L432.388,806.137L441.684,814.617L450.979,820.914L460.275,825.127L469.571,827.362L478.867,827.727L488.163,826.333L497.458,823.291L506.754,818.712L516.05,812.706L525.346,805.38L534.641,796.84L543.937,787.19L553.233,776.527L562.529,764.949L571.824,752.547L581.12,739.411L590.416,725.624L599.712,711.268L609.007,696.42L618.303,681.152L627.599,665.533L636.895,649.628L646.191,633.498L655.486,617.202L664.782,600.793L674.078,584.321L683.374,567.835L692.669,551.378L701.965,534.991L711.261,518.712L720.557,502.576L729.852,486.616L739.148,470.861L748.444,455.339L757.74,440.075L767.035,425.091L776.331,410.409L785.627,396.047L794.923,382.021L804.218,368.347L813.514,355.039L822.81,342.107L832.106,329.562L841.402,317.412L850.697,305.666L859.993,294.329L869.289,283.407L878.585,272.903L887.88,262.821L897.176,253.162L906.472,243.928L915.768,235.119L925.063,226.734L934.359,218.772L943.655,211.231L952.951,204.11L962.246,197.404L971.542,191.111L980.838,185.227L990.134,179.746L999.43,174.664L1008.73,169.977L1018.02,165.678L1027.32,161.761L1036.61,158.221L1045.91,155.051L1055.2,152.245L1064.5,149.796L1073.8,147.696L1083.09,145.94L1092.39,144.52L1101.68,143.428L1110.98,142.657L1120.27,142.2L1129.57,142.05" style="fill:none;fill-rule:nonzero;stroke:rgb(204,204,204);stroke-width:49.01px;stroke-linecap:square;stroke-linejoin:round;stroke-miterlimit:10;"/>
                    </g>
                </g>
                <g id="path171" serif:id="path17" transform="matrix(0.126051,0,0,-0.094768,-2016.92,957.189)">
                    <clipPath id="_clip6">
                        <rect x="163.276" y="107.762" width="1012.31" height="754.333"/>
                    </clipPath>
                    <g clip-path="url(#_clip6)">
                        <path d="M209.29,484.929L218.585,543.877L227.881,598.448L237.177,647.723L246.473,691.135L255.768,728.392L265.064,759.418L274.36,784.3L283.656,803.249L292.952,816.559L302.247,824.587L311.543,827.729L320.839,826.4L330.135,821.027L339.43,812.032L348.726,799.83L358.022,784.823L367.318,767.391L376.613,747.895L385.909,726.675L395.205,704.044L404.501,680.294L413.796,655.693L423.092,630.484L432.388,604.891L441.684,579.115L450.979,553.336L460.275,527.716L469.571,502.399L478.867,477.512L488.163,453.167L497.458,429.462L506.754,406.479L516.05,384.291L525.346,362.959L534.641,342.532L543.937,323.052L553.233,304.551L562.529,287.053L571.824,270.578L581.12,255.136L590.416,240.733L599.712,227.371L609.007,215.045L618.303,203.748L627.599,193.47L636.895,184.196L646.191,175.909L655.486,168.591L664.782,162.219L674.078,156.772L683.374,152.224L692.669,148.55L701.965,145.724L711.261,143.718L720.557,142.504L729.852,142.054L739.148,142.05L1129.57,142.05" style="fill:none;fill-rule:nonzero;stroke:rgb(102,102,102);stroke-width:49.01px;stroke-linecap:square;stroke-linejoin:round;stroke-miterlimit:10;"/>
                    </g>
                </g>
                <g id="path15-8-8" transform="matrix(0.126051,0,0,-0.094768,-2016.92,957.189)">
                    <clipPath id="_clip7">
                        <rect x="163.276" y="107.762" width="1012.31" height="754.333"/>
                    </clipPath>
                    <g clip-path="url(#_clip7)">
                        <path d="M209.29,827.807L218.585,822.702L227.881,808.47L237.177,786.696L246.473,758.872L255.768,726.365L265.064,690.407L274.36,652.088L283.656,612.357L292.952,572.033L302.247,531.81L311.543,492.271L320.839,453.896L330.135,417.076L339.43,382.122L348.726,349.272L358.022,318.708L367.318,290.556L376.613,264.896L385.909,241.773L395.205,221.197L404.501,203.152L413.796,187.598L423.092,174.478L432.388,163.72L441.684,155.24L450.979,148.943L460.275,144.73L469.571,142.495L478.867,142.05L1129.57,142.05" style="fill:none;fill-rule:nonzero;stroke:black;stroke-width:49.01px;stroke-linecap:square;stroke-linejoin:round;stroke-miterlimit:10;"/>
                    </g>
                </g>
                <g id="path19-8-6" transform="matrix(0.126051,0,0,-0.094768,-2016.92,1090.55)">
                    <clipPath id="_clip8">
                        <rect x="163.276" y="107.762" width="1012.31" height="754.333"/>
                    </clipPath>
                    <g clip-path="url(#_clip8)">
                        <path d="M209.29,142.05L218.585,147.155L227.881,161.387L237.177,183.161L246.473,210.985L255.768,243.492L265.064,279.45L274.36,317.769L283.656,357.5L292.952,397.824L302.247,438.047L311.543,477.586L320.839,515.961L330.135,552.781L339.43,587.735L348.726,620.585L358.022,651.149L367.318,679.301L376.613,704.961L385.909,728.084L395.205,748.66L404.501,766.705L413.796,782.259L423.092,795.379L432.388,806.137L441.684,814.617L450.979,820.914L460.275,825.127L469.571,827.362L478.867,827.727L488.163,826.333L497.458,823.291L506.754,818.712L516.05,812.706L525.346,805.38L534.641,796.84L543.937,787.19L553.233,776.527L562.529,764.949L571.824,752.547L581.12,739.411L590.416,725.624L599.712,711.268L609.007,696.42L618.303,681.152L627.599,665.533L636.895,649.628L646.191,633.498L655.486,617.202L664.782,600.793L674.078,584.321L683.374,567.835L692.669,551.378L701.965,534.991L711.261,518.712L720.557,502.576L729.852,486.616L739.148,470.861L748.444,455.339L757.74,440.075L767.035,425.091L776.331,410.409L785.627,396.047L794.923,382.021L804.218,368.347L813.514,355.039L822.81,342.107L832.106,329.562L841.402,317.412L850.697,305.666L859.993,294.329L869.289,283.407L878.585,272.903L887.88,262.821L897.176,253.162L906.472,243.928L915.768,235.119L925.063,226.734L934.359,218.772L943.655,211.231L952.951,204.11L962.246,197.404L971.542,191.111L980.838,185.227L990.134,179.746L999.43,174.664L1008.73,169.977L1018.02,165.678L1027.32,161.761L1036.61,158.221L1045.91,155.051L1055.2,152.245L1064.5,149.796L1073.8,147.696L1083.09,145.94L1092.39,144.52L1101.68,143.428L1110.98,142.657L1120.27,142.2L1129.57,142.05" style="fill:none;fill-rule:nonzero;stroke:rgb(204,204,204);stroke-width:49.01px;stroke-linecap:square;stroke-linejoin:round;stroke-miterlimit:10;"/>
                    </g>
                </g>
                <g id="path172" serif:id="path17" transform="matrix(0.126051,0,0,-0.094768,-2016.92,1090.55)">
                    <clipPath id="_clip9">
                        <rect x="163.276" y="107.762" width="1012.31" height="754.333"/>
                    </clipPath>
                    <g clip-path="url(#_clip9)">
                        <path d="M209.29,484.929L218.585,543.877L227.881,598.448L237.177,647.723L246.473,691.135L255.768,728.392L265.064,759.418L274.36,784.3L283.656,803.249L292.952,816.559L302.247,824.587L311.543,827.729L320.839,826.4L330.135,821.027L339.43,812.032L348.726,799.83L358.022,784.823L367.318,767.391L376.613,747.895L385.909,726.675L395.205,704.044L404.501,680.294L413.796,655.693L423.092,630.484L432.388,604.891L441.684,579.115L450.979,553.336L460.275,527.716L469.571,502.399L478.867,477.512L488.163,453.167L497.458,429.462L506.754,406.479L516.05,384.291L525.346,362.959L534.641,342.532L543.937,323.052L553.233,304.551L562.529,287.053L571.824,270.578L581.12,255.136L590.416,240.733L599.712,227.371L609.007,215.045L618.303,203.748L627.599,193.47L636.895,184.196L646.191,175.909L655.486,168.591L664.782,162.219L674.078,156.772L683.374,152.224L692.669,148.55L701.965,145.724L711.261,143.718L720.557,142.504L729.852,142.054L739.148,142.05L1129.57,142.05" style="fill:none;fill-rule:nonzero;stroke:rgb(102,102,102);stroke-width:49.01px;stroke-linecap:square;stroke-linejoin:round;stroke-miterlimit:10;"/>
                    </g>
                </g>
                <g id="path15-8-8-6" transform="matrix(0.126051,0,0,-0.094768,-2016.92,1090.55)">
                    <clipPath id="_clip10">
                        <rect x="163.276" y="107.762" width="1012.31" height="754.333"/>
                    </clipPath>
                    <g clip-path="url(#_clip10)">
                        <path d="M209.29,827.807L218.585,822.702L227.881,808.47L237.177,786.696L246.473,758.872L255.768,726.365L265.064,690.407L274.36,652.088L283.656,612.357L292.952,572.033L302.247,531.81L311.543,492.271L320.839,453.896L330.135,417.076L339.43,382.122L348.726,349.272L358.022,318.708L367.318,290.556L376.613,264.896L385.909,241.773L395.205,221.197L404.501,203.152L413.796,187.598L423.092,174.478L432.388,163.72L441.684,155.24L450.979,148.943L460.275,144.73L469.571,142.495L478.867,142.05L1129.57,142.05" style="fill:none;fill-rule:nonzero;stroke:black;stroke-width:49.01px;stroke-linecap:square;stroke-linejoin:round;stroke-miterlimit:10;"/>
                    </g>
                </g>
                <g id="path19-8-6-4" transform="matrix(0.126051,0,0,-0.094768,-582.957,1145.83)">
                    <clipPath id="_clip11">
                        <rect x="163.276" y="107.762" width="1012.31" height="754.333"/>
                    </clipPath>
                    <g clip-path="url(#_clip11)">
                        <path d="M209.29,142.05L218.585,147.155L227.881,161.387L237.177,183.161L246.473,210.985L255.768,243.492L265.064,279.45L274.36,317.769L283.656,357.5L292.952,397.824L302.247,438.047L311.543,477.586L320.839,515.961L330.135,552.781L339.43,587.735L348.726,620.585L358.022,651.149L367.318,679.301L376.613,704.961L385.909,728.084L395.205,748.66L404.501,766.705L413.796,782.259L423.092,795.379L432.388,806.137L441.684,814.617L450.979,820.914L460.275,825.127L469.571,827.362L478.867,827.727L488.163,826.333L497.458,823.291L506.754,818.712L516.05,812.706L525.346,805.38L534.641,796.84L543.937,787.19L553.233,776.527L562.529,764.949L571.824,752.547L581.12,739.411L590.416,725.624L599.712,711.268L609.007,696.42L618.303,681.152L627.599,665.533L636.895,649.628L646.191,633.498L655.486,617.202L664.782,600.793L674.078,584.321L683.374,567.835L692.669,551.378L701.965,534.991L711.261,518.712L720.557,502.576L729.852,486.616L739.148,470.861L748.444,455.339L757.74,440.075L767.035,425.091L776.331,410.409L785.627,396.047L794.923,382.021L804.218,368.347L813.514,355.039L822.81,342.107L832.106,329.562L841.402,317.412L850.697,305.666L859.993,294.329L869.289,283.407L878.585,272.903L887.88,262.821L897.176,253.162L906.472,243.928L915.768,235.119L925.063,226.734L934.359,218.772L943.655,211.231L952.951,204.11L962.246,197.404L971.542,191.111L980.838,185.227L990.134,179.746L999.43,174.664L1008.73,169.977L1018.02,165.678L1027.32,161.761L1036.61,158.221L1045.91,155.051L1055.2,152.245L1064.5,149.796L1073.8,147.696L1083.09,145.94L1092.39,144.52L1101.68,143.428L1110.98,142.657L1120.27,142.2L1129.57,142.05" style="fill:none;fill-rule:nonzero;stroke:rgb(204,204,204);stroke-width:49.01px;stroke-linecap:square;stroke-linejoin:round;stroke-miterlimit:10;"/>
                    </g>
                </g>
                <g id="path173" serif:id="path17" transform="matrix(0.126051,0,0,-0.094768,-582.957,1145.83)">
                    <clipPath id="_clip12">
                        <rect x="163.276" y="107.762" width="1012.31" height="754.333"/>
                    </clipPath>
                    <g clip-path="url(#_clip12)">
                        <path d="M209.29,484.929L218.585,543.877L227.881,598.448L237.177,647.723L246.473,691.135L255.768,728.392L265.064,759.418L274.36,784.3L283.656,803.249L292.952,816.559L302.247,824.587L311.543,827.729L320.839,826.4L330.135,821.027L339.43,812.032L348.726,799.83L358.022,784.823L367.318,767.391L376.613,747.895L385.909,726.675L395.205,704.044L404.501,680.294L413.796,655.693L423.092,630.484L432.388,604.891L441.684,579.115L450.979,553.336L460.275,527.716L469.571,502.399L478.867,477.512L488.163,453.167L497.458,429.462L506.754,406.479L516.05,384.291L525.346,362.959L534.641,342.532L543.937,323.052L553.233,304.551L562.529,287.053L571.824,270.578L581.12,255.136L590.416,240.733L599.712,227.371L609.007,215.045L618.303,203.748L627.599,193.47L636.895,184.196L646.191,175.909L655.486,168.591L664.782,162.219L674.078,156.772L683.374,152.224L692.669,148.55L701.965,145.724L711.261,143.718L720.557,142.504L729.852,142.054L739.148,142.05L1129.57,142.05" style="fill:none;fill-rule:nonzero;stroke:rgb(102,102,102);stroke-width:49.01px;stroke-linecap:square;stroke-linejoin:round;stroke-miterlimit:10;"/>
                    </g>
                </g>
                <g id="path15-8-8-6-8" transform="matrix(0.126051,0,0,-0.094768,-582.957,1145.83)">
                    <clipPath id="_clip13">
                        <rect x="163.276" y="107.762" width="1012.31" height="754.333"/>
                    </clipPath>
                    <g clip-path="url(#_clip13)">
                        <path d="M209.29,827.807L218.585,822.702L227.881,808.47L237.177,786.696L246.473,758.872L255.768,726.365L265.064,690.407L274.36,652.088L283.656,612.357L292.952,572.033L302.247,531.81L311.543,492.271L320.839,453.896L330.135,417.076L339.43,382.122L348.726,349.272L358.022,318.708L367.318,290.556L376.613,264.896L385.909,241.773L395.205,221.197L404.501,203.152L413.796,187.598L423.092,174.478L432.388,163.72L441.684,155.24L450.979,148.943L460.275,144.73L469.571,142.495L478.867,142.05L1129.57,142.05" style="fill:none;fill-rule:nonzero;stroke:black;stroke-width:49.01px;stroke-linecap:square;stroke-linejoin:round;stroke-miterlimit:10;"/>
                    </g>
                </g>
                <g id="path3-5" transform="matrix(0.315412,0,0,-0.315412,-1060.49,1329.4)">
                    <path d="M184.191,534.802L188.416,734.841L192.642,806.508L196.867,837.562L201.092,846.51L205.318,842.681L209.543,831.566L213.768,816.585L217.994,799.919L222.219,782.954L226.445,766.552L230.67,751.227L234.895,737.26L239.121,724.773L243.346,713.786L247.571,704.254L251.797,696.089L256.022,689.184L260.247,683.42L264.473,678.675L268.698,674.83L272.923,671.775L277.149,669.404L281.374,667.623L285.599,666.347L289.825,665.5L294.05,665.013L298.275,664.829L302.501,664.896L306.726,665.169L310.951,665.61L315.177,666.186L319.402,666.868L323.627,667.632L327.853,668.459L332.078,669.331L336.304,670.234L340.529,671.156L344.754,672.087L348.98,673.02L353.205,673.947L357.43,674.862L361.656,675.763L365.881,676.645L370.106,677.506L374.332,678.343L378.557,679.156L382.782,679.944L387.008,680.705L391.233,681.44L395.458,682.148L399.684,682.83L403.909,683.486L408.134,684.116L412.36,684.721L416.585,685.301L420.81,685.857L425.036,686.39L429.261,686.9L433.487,687.389L437.712,687.857L441.937,688.304L446.163,688.732L450.388,689.141L454.613,689.532L458.839,689.906L463.064,690.264L467.289,690.605L471.515,690.931L475.74,691.243L479.965,691.54L484.191,691.825L488.416,692.096L492.641,692.356L496.867,692.603L501.092,692.84L505.317,693.065L509.543,693.281L513.768,693.487L517.993,693.683L522.219,693.871L526.444,694.05L530.67,694.221L534.895,694.384L539.12,694.54L543.346,694.689L547.571,694.831L551.796,694.966L556.022,695.096L560.247,695.22L564.472,695.338L568.698,695.45L572.923,695.557L577.148,695.66L581.374,695.758L585.599,695.851L589.824,695.941L594.05,696.026L598.275,696.107L602.5,696.185" style="fill:none;fill-rule:nonzero;stroke:black;stroke-width:16.98px;stroke-linecap:square;stroke-linejoin:round;stroke-miterlimit:10;"/>
                </g>
                <g id="path6-42" transform="matrix(0.313606,0,0,-0.313606,-1723.49,1287.82)">
                    <path d="M736.359,534.802L740.585,551.657L744.81,567.446L749.035,582.353L753.261,596.553L757.486,610.203L761.711,623.428L765.937,636.322L770.162,648.949L774.388,661.346L778.613,673.527L782.838,685.49L787.064,697.217L791.289,708.68L795.514,719.847L799.74,730.679L803.965,741.14L808.19,751.191L812.416,760.798L816.641,769.931L820.866,778.563L825.092,786.673L829.317,794.246L833.542,801.27L837.768,807.741L841.993,813.658L846.218,819.025L850.444,823.851L854.669,828.148L858.894,831.932L863.12,835.221L867.345,838.036L871.571,840.4L875.796,842.336L880.021,843.87L884.247,845.028L888.472,845.836L892.697,846.322L896.923,846.51L901.148,846.427L905.373,846.098L909.599,845.547L913.824,844.799L918.049,843.875L922.275,842.797L926.5,841.586L930.725,840.26L934.951,838.837L939.176,837.334L943.401,835.766L947.627,834.148L951.852,832.493L956.077,830.811L960.303,829.115L964.528,827.413L968.754,825.715L972.979,824.028L977.204,822.359L981.43,820.714L985.655,819.098L989.88,817.515L994.106,815.971L998.331,814.466L1002.56,813.005L1006.78,811.589L1011.01,810.22L1015.23,808.899L1019.46,807.626L1023.68,806.403L1027.91,805.229L1032.13,804.104L1036.36,803.028L1040.58,802L1044.81,801.019L1049.04,800.085L1053.26,799.196L1057.49,798.351L1061.71,797.549L1065.94,796.789L1070.16,796.069L1074.39,795.388L1078.61,794.744L1082.84,794.136L1087.06,793.563L1091.29,793.022L1095.51,792.513L1099.74,792.034L1103.96,791.584L1108.19,791.161L1112.41,790.763L1116.64,790.391L1120.87,790.042L1125.09,789.714L1129.32,789.408L1133.54,789.122L1137.77,788.854L1141.99,788.604L1146.22,788.37L1150.44,788.152L1154.67,787.948" style="fill:none;fill-rule:nonzero;stroke:black;stroke-width:17.08px;stroke-linecap:square;stroke-linejoin:round;stroke-miterlimit:10;"/>
                </g>
                <g id="path9-9" transform="matrix(0.313485,0,0,-0.313485,-1559.69,864.068)">
                    <path d="M184.191,123.347L188.416,134.24L192.642,144.848L196.867,155.443L201.092,166.255L205.318,177.447L209.543,189.11L213.768,201.274L217.994,213.915L222.219,226.967L226.445,240.338L230.67,253.915L234.895,267.574L239.121,281.19L243.346,294.637L247.571,307.8L251.797,320.571L256.022,332.854L260.247,344.568L264.473,355.644L268.698,366.029L272.923,375.683L277.149,384.576L281.374,392.695L285.599,400.032L289.825,406.593L294.05,412.392L298.275,417.446L302.501,421.784L306.726,425.436L310.951,428.437L315.177,430.824L319.402,432.638L323.627,433.92L327.853,434.712L332.078,435.055L336.304,434.992L340.529,434.562L344.754,433.805L348.98,432.759L353.205,431.46L357.43,429.941L361.656,428.236L365.881,426.373L370.106,424.381L374.332,422.286L378.557,420.111L382.782,417.878L387.008,415.605L391.233,413.312L395.458,411.012L399.684,408.721L403.909,406.45L408.134,404.21L412.36,402.011L416.585,399.859L420.81,397.763L425.036,395.726L429.261,393.755L433.487,391.851L437.712,390.018L441.937,388.259L446.163,386.573L450.388,384.961L454.613,383.424L458.839,381.961L463.064,380.572L467.289,379.254L471.515,378.007L475.74,376.83L479.965,375.719L484.191,374.673L488.416,373.69L492.641,372.767L496.867,371.902L501.092,371.093L505.317,370.338L509.543,369.632L513.768,368.975L517.993,368.364L522.219,367.797L526.444,367.27L530.67,366.783L534.895,366.332L539.12,365.915L543.346,365.531L547.571,365.178L551.796,364.853L556.022,364.555L560.247,364.281L564.472,364.031L568.698,363.803L572.923,363.595L577.148,363.406L581.374,363.234L585.599,363.079L589.824,362.938L594.05,362.811L598.275,362.697L602.5,362.595" style="fill:none;fill-rule:nonzero;stroke:black;stroke-width:17.09px;stroke-linecap:square;stroke-linejoin:round;stroke-miterlimit:10;"/>
                </g>
                <g id="path12-1" transform="matrix(0.313656,0,0,-0.313656,-1740.91,1011.73)">
                    <path d="M736.359,123.347L740.585,140.352L744.81,166.489L749.035,197.545L753.261,230.462L757.486,263.091L761.711,293.981L765.937,322.21L770.162,347.251L774.388,368.866L778.613,387.024L782.838,401.841L787.064,413.524L791.289,422.343L795.514,428.597L799.74,432.596L803.965,434.651L808.19,435.055L812.416,434.087L816.641,432L820.866,429.023L825.092,425.359L829.317,421.187L833.542,416.661L837.768,411.912L841.993,407.052L846.218,402.173L850.444,397.35L854.669,392.642L858.894,388.099L863.12,383.754L867.345,379.636L871.571,375.761L875.796,372.141L880.021,368.781L884.247,365.681L888.472,362.839L892.697,360.247L896.923,357.898L901.148,355.781L905.373,353.885L909.599,352.196L913.824,350.702L918.049,349.391L922.275,348.247L926.5,347.26L930.725,346.416L934.951,345.702L939.176,345.107L943.401,344.621L947.627,344.232L951.852,343.931L956.077,343.708L960.303,343.556L964.528,343.465L968.754,343.43L972.979,343.441L977.204,343.496L981.43,343.587L985.655,343.71L989.88,343.86L994.106,344.032L998.331,344.223L1002.56,344.43L1006.78,344.65L1011.01,344.88L1015.23,345.117L1019.46,345.36L1023.68,345.606L1027.91,345.854L1032.13,346.103L1036.36,346.352L1040.58,346.599L1044.81,346.843L1049.04,347.084L1053.26,347.321L1057.49,347.554L1061.71,347.781L1065.94,348.003L1070.16,348.22L1074.39,348.431L1078.61,348.636L1082.84,348.835L1087.06,349.027L1091.29,349.214L1095.51,349.394L1099.74,349.568L1103.96,349.736L1108.19,349.898L1112.41,350.053L1116.64,350.204L1120.87,350.348L1125.09,350.487L1129.32,350.621L1133.54,350.749L1137.77,350.872L1141.99,350.99L1146.22,351.103L1150.44,351.212L1154.67,351.316" style="fill:none;fill-rule:nonzero;stroke:black;stroke-width:17.08px;stroke-linecap:square;stroke-linejoin:round;stroke-miterlimit:10;"/>
                </g>
                <g id="path3" transform="matrix(0.275239,0,0,-0.275239,-807.188,1295.95)">
                    <rect x="184.191" y="654.663" width="124.759" height="191.847" style="fill-rule:nonzero;"/>
                </g>
                <g id="path5-3" transform="matrix(0.275239,0,0,-0.275239,-807.188,1295.95)">
                    <rect x="330.966" y="654.663" width="124.759" height="94.383" style="fill:rgb(102,102,102);fill-rule:nonzero;"/>
                </g>
                <g id="path7-6" transform="matrix(0.275239,0,0,-0.275239,-807.188,1295.95)">
                    <rect x="477.741" y="534.802" width="124.759" height="119.861" style="fill:rgb(204,204,204);fill-rule:nonzero;"/>
                </g>
                <g id="path9" transform="matrix(0.275239,0,0,-0.275239,-807.188,1295.95)">
                    <clipPath id="_clip14">
                        <rect x="163.276" y="519.216" width="460.14" height="342.879"/>
                    </clipPath>
                    <g clip-path="url(#_clip14)">
                        <path d="M163.276,654.663L623.416,654.663" style="fill:none;fill-rule:nonzero;stroke:black;stroke-width:4.25px;stroke-linecap:square;stroke-linejoin:round;stroke-miterlimit:10;"/>
                    </g>
                </g>
                <g id="path12" transform="matrix(0.275239,0,0,-0.275239,-1953.56,1266.63)">
                    <rect x="736.359" y="534.802" width="124.759" height="219.381" style="fill-rule:nonzero;"/>
                </g>
                <g id="path14" transform="matrix(0.275239,0,0,-0.275239,-1953.56,1266.63)">
                    <rect x="883.135" y="699.366" width="124.759" height="54.817" style="fill:rgb(102,102,102);fill-rule:nonzero;"/>
                </g>
                <g id="path16-5" transform="matrix(0.275239,0,0,-0.275239,-1953.56,1266.63)">
                    <rect x="1029.91" y="754.183" width="124.759" height="92.327" style="fill:rgb(204,204,204);fill-rule:nonzero;"/>
                </g>
                <g id="path18-9" transform="matrix(0.275239,0,0,-0.275239,-1953.56,1266.63)">
                    <clipPath id="_clip15">
                        <rect x="715.444" y="519.216" width="460.14" height="342.879"/>
                    </clipPath>
                    <g clip-path="url(#_clip15)">
                        <path d="M715.444,754.183L1175.58,754.183" style="fill:none;fill-rule:nonzero;stroke:black;stroke-width:4.25px;stroke-linecap:square;stroke-linejoin:round;stroke-miterlimit:10;"/>
                    </g>
                </g>
                <g id="path21" transform="matrix(0.275239,0,0,-0.275239,-1807.34,874.507)">
                    <rect x="184.191" y="123.347" width="124.759" height="220.764" style="fill-rule:nonzero;"/>
                </g>
                <g id="path23" transform="matrix(0.275239,0,0,-0.275239,-1807.34,874.507)">
                    <rect x="330.966" y="280.778" width="124.759" height="63.333" style="fill:rgb(102,102,102);fill-rule:nonzero;"/>
                </g>
                <g id="path25" transform="matrix(0.275239,0,0,-0.275239,-1807.34,874.507)">
                    <rect x="477.741" y="344.111" width="124.759" height="90.944" style="fill:rgb(204,204,204);fill-rule:nonzero;"/>
                </g>
                <g id="path27" transform="matrix(0.275239,0,0,-0.275239,-1801.58,874.022)">
                    <clipPath id="_clip16">
                        <rect x="163.276" y="107.762" width="460.14" height="342.879"/>
                    </clipPath>
                    <g clip-path="url(#_clip16)">
                        <path d="M163.276,344.111L623.416,344.111" style="fill:none;fill-rule:nonzero;stroke:black;stroke-width:4.25px;stroke-linecap:square;stroke-linejoin:round;stroke-miterlimit:10;"/>
                    </g>
                </g>
                <g id="path30" transform="matrix(0.275239,0,0,-0.275239,-1953.56,1002.6)">
                    <rect x="736.359" y="123.347" width="124.759" height="188.774" style="fill-rule:nonzero;"/>
                </g>
                <g id="path32" transform="matrix(0.275239,0,0,-0.275239,-1953.56,1002.6)">
                    <rect x="883.135" y="312.121" width="124.759" height="122.934" style="fill:rgb(102,102,102);fill-rule:nonzero;"/>
                </g>
                <g id="path34" transform="matrix(0.275239,0,0,-0.275239,-1953.56,1002.6)">
                    <rect x="1029.91" y="285.637" width="124.759" height="26.484" style="fill:rgb(204,204,204);fill-rule:nonzero;"/>
                </g>
                <g id="path36-1" transform="matrix(0.275239,0,0,-0.275239,-1953.56,1002.6)">
                    <clipPath id="_clip17">
                        <rect x="715.444" y="107.762" width="460.14" height="342.879"/>
                    </clipPath>
                    <g clip-path="url(#_clip17)">
                        <path d="M715.444,312.121L1175.58,312.121" style="fill:none;fill-rule:nonzero;stroke:black;stroke-width:4.25px;stroke-linecap:square;stroke-linejoin:round;stroke-miterlimit:10;"/>
                    </g>
                </g>
                <g id="path16-9" transform="matrix(0.862504,0,0,0.862504,-679.097,-325.551)">
                    <circle cx="-1306.99" cy="1605.74" r="25.915" style="fill:none;stroke:black;stroke-width:1.74px;"/>
                </g>
                <g transform="matrix(0.862504,0,0,0.862504,-1816.97,1070.4)">
                    <text x="0px" y="0px" style="font-family:'ArialMT', 'Arial', sans-serif;font-size:49.134px;">x</text>
                </g>
                <g id="path16-9-1" transform="matrix(0.862504,0,0,0.862504,-682.876,-469.221)">
                    <circle cx="-1306.99" cy="1605.74" r="25.915" style="fill:none;stroke:black;stroke-width:1.74px;"/>
                </g>
                <g transform="matrix(0.862504,0,0,0.862504,-1820.75,926.726)">
                    <text x="0px" y="0px" style="font-family:'ArialMT', 'Arial', sans-serif;font-size:49.134px;">x</text>
                </g>
                <g id="path16-9-1-0" transform="matrix(1,0,0,1,1.8429,328.294)">
                    <circle cx="-1165.46" cy="574.381" r="22.352" style="fill:white;stroke:black;stroke-width:1.5px;"/>
                </g>
                <g transform="matrix(1,0,0,1,-1175.99,917.605)">
                    <text x="0px" y="0px" style="font-family:'ArialMT', 'Arial', sans-serif;font-size:42.378px;">+</text>
                </g>
                <g transform="matrix(-3.82857e-16,-1,1,-3.82857e-16,-2319.15,906.729)">
                    <text x="-128.406px" y="0px" style="font-family:'ArialMT', 'Arial', sans-serif;font-size:42.378px;fill-opacity:0.91;">input neurons</text>
                </g>
                <g id="path71" transform="matrix(0.559395,0,0,0.559395,-1005.01,579.241)">
                    <path d="M-2242.6,269.32L-2285.17,269.32L-2285.17,889.182L-2242.6,889.182" style="fill:none;fill-rule:nonzero;stroke:black;stroke-width:5.36px;"/>
                </g>
                <g id="path16-9-1-5" transform="matrix(0.862504,0,0,0.862504,-680.986,-605.332)">
                    <circle cx="-1306.99" cy="1605.74" r="25.915" style="fill:none;stroke:black;stroke-width:1.74px;"/>
                </g>
                <g transform="matrix(0.862504,0,0,0.862504,-1818.86,790.615)">
                    <text x="0px" y="0px" style="font-family:'ArialMT', 'Arial', sans-serif;font-size:49.134px;">x</text>
                </g>
                <g id="path16-9-1-5-4" transform="matrix(0.862504,0,0,0.862504,530.097,-282.794)">
                    <circle cx="-1306.99" cy="1605.74" r="25.915" style="fill:none;stroke:black;stroke-width:1.74px;"/>
                </g>
                <g transform="matrix(0.862504,0,0,0.862504,-607.781,1113.15)">
                    <text x="0px" y="0px" style="font-family:'ArialMT', 'Arial', sans-serif;font-size:49.134px;">x</text>
                </g>
                <g transform="matrix(1,0,0,1,-1983.1,696.885)">
                    <text x="0px" y="0px" style="font-family:'ArialMT', 'Arial', sans-serif;font-size:42.378px;">basis</text>
                </g>
                <g transform="matrix(1,0,0,1,-1764.41,698.235)">
                    <text x="0px" y="0px" style="font-family:'ArialMT', 'Arial', sans-serif;font-size:42.378px;">weights</text>
                </g>
                <g transform="matrix(1,0,0,1,-529.818,1195.97)">
                    <text x="0px" y="0px" style="font-family:'ArialMT', 'Arial', sans-serif;font-size:42.378px;">basis</text>
                </g>
                <g transform="matrix(1,0,0,1,-763.139,1195.97)">
                    <text x="0px" y="0px" style="font-family:'ArialMT', 'Arial', sans-serif;font-size:42.378px;">weights</text>
                </g>
                <g transform="matrix(1,0,0,1,-1132.44,798.692)">
                    <text x="0px" y="0px" style="font-family:'ArialMT', 'Arial', sans-serif;font-size:42.378px;">inverse link</text>
                </g>
                <g transform="matrix(1,0,0,1,-698.77,770.761)">
                    <text x="-75.382px" y="0px" style="font-family:'ArialMT', 'Arial', sans-serif;font-size:42.378px;">Poisson</text>
                </g>
                <g transform="matrix(1,0,0,1,-698.77,823.734)">
                    <text x="-26.683px" y="0px" style="font-family:'ArialMT', 'Arial', sans-serif;font-size:42.378px;">r<tspan x="-14.909px -3.135px 14.909px " y="0px 0px 0px ">.v.</tspan></text>
                </g>
                <g transform="matrix(3.77953,0,0,3.77953,-2623.02,97.836)">
                    <g transform="matrix(12,0,0,12,400.675,141.75)">
                    </g>
                    <text x="281.362px" y="141.75px" style="font-family:'ArialMT', 'Arial', sans-serif;font-size:12px;">Coupled GLM Model</text>
                </g>
            </g>
        </g>
    </g>
</svg>
