<?xml version="1.0" encoding="UTF-8" standalone="no"?>
<svg
   width="542.3985"
   height="169.88246"
   viewBox="0 0 542.3985 169.88246"
   version="1.1"
   xml:space="preserve"
   style="clip-rule:evenodd;fill-rule:evenodd"
   id="svg121"
   sodipodi:docname="glm_population_scheme.svg"
   inkscape:version="1.3 (0e150ed, 2023-07-21)"
   xmlns:inkscape="http://www.inkscape.org/namespaces/inkscape"
   xmlns:sodipodi="http://sodipodi.sourceforge.net/DTD/sodipodi-0.dtd"
   xmlns="http://www.w3.org/2000/svg"
   xmlns:svg="http://www.w3.org/2000/svg"
   xmlns:serif="http://www.serif.com/"><defs
   id="defs121">&#10;            &#10;        </defs><sodipodi:namedview
   id="namedview121"
   pagecolor="#ffffff"
   bordercolor="#000000"
   borderopacity="0.25"
   inkscape:showpageshadow="2"
   inkscape:pageopacity="0.0"
   inkscape:pagecheckerboard="0"
   inkscape:deskcolor="#d1d1d1"
   inkscape:zoom="2.2574549"
   inkscape:cx="302.55311"
   inkscape:cy="192.91637"
   inkscape:window-width="2336"
   inkscape:window-height="1212"
   inkscape:window-x="0"
   inkscape:window-y="25"
   inkscape:window-maximized="0"
   inkscape:current-layer="g121" />&#10;    <g
   transform="matrix(0.264583,0,0,0.264583,625.12766,-152.35453)"
   id="g121">&#10;        <rect
   style="clip-rule:evenodd;fill:#ffffff;fill-opacity:1;fill-rule:evenodd;stroke-width:16.184"
   id="rect121"
   width="2050.0127"
   height="642.07623"
   x="-2362.6902"
   y="575.82886"
   rx="1.7203761" /><g
   id="g122"><g
     id="g120">&#10;                <g
   id="path2-56-9"
   transform="matrix(0.688079,0,0,0.688079,-210.472,371.409)">&#10;                    <path
   d="m -350.322,733.139 v 75.745"
   style="fill:none;fill-rule:nonzero;stroke:#000000;stroke-width:10.71px"
   id="path1" />&#10;                </g>&#10;                <g
   id="path2-8-3-3"
   transform="matrix(0.688079,0,0,0.688079,-210.472,371.409)">&#10;                    <path
   d="m -280.595,733.139 v 75.745"
   style="fill:none;fill-rule:nonzero;stroke:#000000;stroke-width:10.71px"
   id="path2" />&#10;                </g>&#10;                <g
   id="path2-5-6-1"
   transform="matrix(0.688079,0,0,0.688079,-210.472,371.409)">&#10;                    <path
   d="m -261.254,733.139 v 75.745"
   style="fill:none;fill-rule:nonzero;stroke:#000000;stroke-width:10.71px"
   id="path3" />&#10;                </g>&#10;                <g
   id="path2-6-3-14"
   transform="matrix(0.688079,0,0,0.688079,-210.472,371.409)">&#10;                    <path
   d="m -213.638,733.139 v 75.745"
   style="fill:none;fill-rule:nonzero;stroke:#000000;stroke-width:10.71px"
   id="path4" />&#10;                </g>&#10;                <g
   id="path2-6-77-0-9"
   transform="matrix(0.688079,0,0,0.688079,-210.472,371.409)">&#10;                    <path
   d="m -180.383,733.139 v 75.745"
   style="fill:none;fill-rule:nonzero;stroke:#000000;stroke-width:10.71px"
   id="path5" />&#10;                </g>&#10;                <g
   id="path2-9-8-5"
   transform="matrix(0.688079,0,0,0.688079,-210.472,371.409)">&#10;                    <path
   d="m -244.413,733.139 v 75.745"
   style="fill:none;fill-rule:nonzero;stroke:#000000;stroke-width:10.71px"
   id="path6" />&#10;                </g>&#10;                <g
   id="path15"
   transform="matrix(0.82588,0,0,0.82588,-62.9551,417.215)">&#10;                    <path
   d="m -380.51,662.631 v 173.902 h -35.049"
   style="fill:none;fill-rule:nonzero;stroke:#000000;stroke-width:4.58px"
   id="path7" />&#10;                </g>&#10;                <g
   id="path15-4"
   transform="matrix(0.734616,0,0,0.734616,-307.436,481.272)">&#10;                    <path
   d="m -1165.4,576.438 v 267.949 h 142"
   style="fill:none;fill-rule:nonzero;stroke:#000000;stroke-width:5.14px"
   id="path8" />&#10;                </g>&#10;                <g
   id="g9"
   transform="matrix(0.688079,0,0,0.688079,-685.1,486.125)">&#10;                    <path
   d="m -2256.96,367.738 v 75.745"
   style="fill:none;fill-rule:nonzero;stroke:#000000;stroke-width:10.71px"
   id="path9" />&#10;                </g>&#10;                <g
   id="path2-8"
   transform="matrix(0.688079,0,0,0.688079,-685.1,486.125)">&#10;                    <path
   d="m -2238.25,367.738 v 75.745"
   style="fill:none;fill-rule:nonzero;stroke:#000000;stroke-width:10.71px"
   id="path10" />&#10;                </g>&#10;                <g
   id="path2-5"
   transform="matrix(0.688079,0,0,0.688079,-685.1,486.125)">&#10;                    <path
   d="m -2213.24,367.738 v 75.745"
   style="fill:none;fill-rule:nonzero;stroke:#000000;stroke-width:10.71px"
   id="path11" />&#10;                </g>&#10;                <g
   id="path2-6"
   transform="matrix(0.688079,0,0,0.688079,-685.1,486.125)">&#10;                    <path
   d="m -2142.95,367.738 v 75.745"
   style="fill:none;fill-rule:nonzero;stroke:#000000;stroke-width:10.71px"
   id="path12" />&#10;                </g>&#10;                <g
   id="path2-6-77"
   transform="matrix(0.688079,0,0,0.688079,-685.1,486.125)">&#10;                    <path
   d="m -2087.02,367.738 v 75.745"
   style="fill:none;fill-rule:nonzero;stroke:#000000;stroke-width:10.71px"
   id="path13" />&#10;                </g>&#10;                <g
   id="path2-9"
   transform="matrix(0.688079,0,0,0.688079,-685.1,486.125)">&#10;                    <path
   d="m -2179.39,367.738 v 75.745"
   style="fill:none;fill-rule:nonzero;stroke:#000000;stroke-width:10.71px"
   id="path14" />&#10;                </g>&#10;                <g
   id="path2-56"
   transform="matrix(0.688079,0,0,0.688079,-702.851,372.739)">&#10;                    <path
   d="m -2231.16,733.139 v 75.745"
   style="fill:none;fill-rule:nonzero;stroke:#000000;stroke-width:10.71px"
   id="path16" />&#10;                </g>&#10;                <g
   id="path2-8-3"
   transform="matrix(0.688079,0,0,0.688079,-702.851,372.739)">&#10;                    <path
   d="m -2201.12,733.139 v 75.745"
   style="fill:none;fill-rule:nonzero;stroke:#000000;stroke-width:10.71px"
   id="path17" />&#10;                </g>&#10;                <g
   id="path2-5-6"
   transform="matrix(0.688079,0,0,0.688079,-702.851,372.739)">&#10;                    <path
   d="m -2142.09,733.139 v 75.745"
   style="fill:none;fill-rule:nonzero;stroke:#000000;stroke-width:10.71px"
   id="path18" />&#10;                </g>&#10;                <g
   id="path2-6-3"
   transform="matrix(0.688079,0,0,0.688079,-702.851,372.739)">&#10;                    <path
   d="m -2083.14,733.139 v 75.745"
   style="fill:none;fill-rule:nonzero;stroke:#000000;stroke-width:10.71px"
   id="path19" />&#10;                </g>&#10;                <g
   id="path2-6-77-0"
   transform="matrix(0.688079,0,0,0.688079,-702.851,372.739)">&#10;                    <path
   d="m -2061.22,733.139 v 75.745"
   style="fill:none;fill-rule:nonzero;stroke:#000000;stroke-width:10.71px"
   id="path20" />&#10;                </g>&#10;                <g
   id="path2-9-8"
   transform="matrix(0.688079,0,0,0.688079,-702.851,372.739)">&#10;                    <path
   d="m -2102.57,733.139 v 75.745"
   style="fill:none;fill-rule:nonzero;stroke:#000000;stroke-width:10.71px"
   id="path21" />&#10;                </g>&#10;                <g
   id="path2-56-7"
   transform="matrix(0.688079,0,0,0.688079,-702.851,504.238)">&#10;                    <path
   d="m -2231.16,733.139 v 75.745"
   style="fill:none;fill-rule:nonzero;stroke:#000000;stroke-width:10.71px"
   id="path22" />&#10;                </g>&#10;                <g
   id="path2-8-3-9"
   transform="matrix(0.688079,0,0,0.688079,-702.851,504.238)">&#10;                    <path
   d="m -2172.77,733.139 v 75.745"
   style="fill:none;fill-rule:nonzero;stroke:#000000;stroke-width:10.71px"
   id="path23" />&#10;                </g>&#10;                <g
   id="path2-5-6-4"
   transform="matrix(0.688079,0,0,0.688079,-702.851,504.238)">&#10;                    <path
   d="m -2142.09,733.139 v 75.745"
   style="fill:none;fill-rule:nonzero;stroke:#000000;stroke-width:10.71px"
   id="path24" />&#10;                </g>&#10;                <g
   id="path2-6-3-1"
   transform="matrix(0.688079,0,0,0.688079,-702.851,504.238)">&#10;                    <path
   d="m -2122.82,733.139 v 75.745"
   style="fill:none;fill-rule:nonzero;stroke:#000000;stroke-width:10.71px"
   id="path25" />&#10;                </g>&#10;                <g
   id="path2-6-77-0-6"
   transform="matrix(0.688079,0,0,0.688079,-702.851,504.238)">&#10;                    <path
   d="m -2061.22,733.139 v 75.745"
   style="fill:none;fill-rule:nonzero;stroke:#000000;stroke-width:10.71px"
   id="path26" />&#10;                </g>&#10;                <g
   id="g27"
   transform="translate(1.8429,328.294)">&#10;                    <path
   d="m -625.522,570.76 h 116.02"
   style="fill:none;fill-rule:nonzero;stroke:#000000;stroke-width:3.78px"
   id="path27" />&#10;                </g>&#10;                <g
   id="path5-4"
   transform="translate(1.8429,328.294)">&#10;                    <path
   d="m -948.538,571.064 h 124.781"
   style="fill:none;fill-rule:nonzero;stroke:#000000;stroke-width:3.78px"
   id="path28" />&#10;                </g>&#10;                <g
   id="path5-4-2"
   transform="translate(1.8429,328.294)">&#10;                    <path
   d="m -1170.55,574.331 h 48.41"
   style="fill:none;fill-rule:nonzero;stroke:#000000;stroke-width:3.78px"
   id="path29" />&#10;                </g>&#10;                <g
   id="path5-0"
   transform="translate(1.8429,441.68)">&#10;                    <path
   d="m -2091.65,321.968 h 44.22"
   style="fill:none;fill-rule:nonzero;stroke:#000000;stroke-width:3.78px"
   id="path30" />&#10;                </g>&#10;                <g
   id="path5-0-2"
   transform="translate(1.8429,328.294)">&#10;                    <path
   d="m -2091.65,574.868 h 44.22"
   style="fill:none;fill-rule:nonzero;stroke:#000000;stroke-width:3.78px"
   id="path31" />&#10;                </g>&#10;                <g
   id="path5-0-2-0"
   transform="translate(1.8429,199.79)">&#10;                    <path
   d="m -2091.65,842.698 h 44.22"
   style="fill:none;fill-rule:nonzero;stroke:#000000;stroke-width:3.78px"
   id="path32" />&#10;                </g>&#10;                <g
   id="path5-0-23"
   transform="translate(1.8429,441.68)">&#10;                    <path
   d="m -1602.12,337.424 h 44.23"
   style="fill:none;fill-rule:nonzero;stroke:#000000;stroke-width:3.78px"
   id="path33" />&#10;                </g>&#10;                <g
   id="path5-0-2-3"
   transform="translate(1.8429,328.294)">&#10;                    <path
   d="m -1600.51,590.325 h 44.22"
   style="fill:none;fill-rule:nonzero;stroke:#000000;stroke-width:3.78px"
   id="path34" />&#10;                </g>&#10;                <g
   id="path5-0-2-0-0"
   transform="translate(1.8429,199.79)">&#10;                    <path
   d="m -1599.65,858.155 h 44.23"
   style="fill:none;fill-rule:nonzero;stroke:#000000;stroke-width:3.78px"
   id="path35" />&#10;                </g>&#10;                <g
   id="path5-0-2-0-0-5"
   transform="translate(-5.71615,260.263)">&#10;                    <path
   d="m -790.039,846.147 h -24.566"
   style="fill:none;fill-rule:nonzero;stroke:#000000;stroke-width:3.78px"
   id="path36" />&#10;                </g>&#10;                <g
   id="g37"
   transform="matrix(1.74142,0,0,-1.74142,-661.65,931.256)">&#10;                    <path
   d="m 0,0 -30.234,-11.149 7.54,33.676 30.033,10.372 z"
   style="fill-rule:nonzero"
   id="path37" />&#10;                </g>&#10;                <g
   id="g38"
   transform="matrix(1.74142,0,0,-1.74142,-650.632,870.283)">&#10;                    <path
   d="m 0,0 -29.563,-10.57 -26.126,21.118 29.534,8.6 z"
   style="fill-rule:nonzero"
   id="path38" />&#10;                </g>&#10;                <g
   id="path40"
   transform="matrix(1.74142,0,0,-1.74142,-704.994,890.997)">&#10;                    <path
   d="m 0,0 -7.174,-33.752 -25.481,21.688 6.585,32.734 z"
   style="fill-rule:nonzero"
   id="path39" />&#10;                </g>&#10;                <g
   id="path42"
   transform="matrix(1.74142,0,0,-1.74142,-719.955,856.749)">&#10;                    <path
   d="m 0,0 c -0.326,-1.38 -2.554,-2.032 -4.963,-1.457 -2.41,0.575 -4.094,2.163 -3.765,3.543 0.326,1.384 2.551,2.036 4.964,1.46 C -1.355,2.971 0.329,1.38 0,0"
   style="fill:#ffffff;fill-rule:nonzero"
   id="path41" />&#10;                </g>&#10;                <g
   id="path44"
   transform="matrix(1.74142,0,0,-1.74142,-705.782,867.995)">&#10;                    <path
   d="m 0,0 c -0.329,-1.38 -2.554,-2.032 -4.963,-1.457 -2.413,0.575 -4.102,2.163 -3.768,3.543 0.326,1.386 2.554,2.038 4.964,1.457 C -1.355,2.971 0.326,1.38 0,0"
   style="fill:#ffffff;fill-rule:nonzero"
   id="path43" />&#10;                </g>&#10;                <g
   id="path46"
   transform="matrix(1.74142,0,0,-1.74142,-690.8,879.457)">&#10;                    <path
   d="m 0,0 c -0.326,-1.38 -2.548,-2.032 -4.963,-1.457 -2.41,0.575 -4.094,2.163 -3.768,3.543 0.335,1.384 2.554,2.038 4.964,1.457 C -1.355,2.971 0.326,1.38 0,0"
   style="fill:#ffffff;fill-rule:nonzero"
   id="path45" />&#10;                </g>&#10;                <g
   id="path48"
   transform="matrix(1.74142,0,0,-1.74142,-692.121,848.011)">&#10;                    <path
   d="m 0,0 c -0.326,-1.38 -2.554,-2.032 -4.963,-1.457 -2.41,0.575 -4.099,2.163 -3.768,3.543 0.329,1.381 2.554,2.038 4.967,1.457 C -1.355,2.968 0.329,1.38 0,0"
   style="fill:#ffffff;fill-rule:nonzero"
   id="path47" />&#10;                </g>&#10;                <g
   id="path50"
   transform="matrix(1.74142,0,0,-1.74142,-677.577,858.887)">&#10;                    <path
   d="m 0,0 c -0.326,-1.38 -2.551,-2.035 -4.961,-1.46 -2.409,0.581 -4.096,2.169 -3.77,3.546 0.335,1.381 2.554,2.038 4.964,1.46 C -1.355,2.971 0.329,1.38 0,0"
   style="fill:#ffffff;fill-rule:nonzero"
   id="path49" />&#10;                </g>&#10;                <g
   id="path52"
   transform="matrix(1.74142,0,0,-1.74142,-662.736,869.907)">&#10;                    <path
   d="m 0,0 c -0.326,-1.38 -2.548,-2.032 -4.963,-1.457 -2.41,0.575 -4.094,2.163 -3.768,3.543 0.329,1.384 2.554,2.036 4.964,1.457 C -1.355,2.971 0.332,1.38 0,0"
   style="fill:#ffffff;fill-rule:nonzero"
   id="path51" />&#10;                </g>&#10;                <g
   id="path54"
   transform="matrix(1.74142,0,0,-1.74142,-742.694,879.36)">&#10;                    <path
   d="M 0,0 C -1.559,-0.522 -3.458,0.967 -4.241,3.317 -5.023,5.672 -4.394,7.999 -2.84,8.512 -1.276,9.037 0.621,7.551 1.403,5.196 2.188,2.846 1.559,0.522 0,0"
   style="fill:#ffffff;fill-rule:nonzero"
   id="path53" />&#10;                </g>&#10;                <g
   id="path56"
   transform="matrix(1.74142,0,0,-1.74142,-732.329,908.783)">&#10;                    <path
   d="M 0,0 C -1.559,-0.524 -3.455,0.969 -4.238,3.319 -5.023,5.672 -4.394,7.997 -2.837,8.512 -1.273,9.037 0.624,7.551 1.406,5.196 2.188,2.846 1.559,0.524 0,0"
   style="fill:#ffffff;fill-rule:nonzero"
   id="path55" />&#10;                </g>&#10;                <g
   id="path58"
   transform="matrix(1.74142,0,0,-1.74142,-714.401,902.318)">&#10;                    <path
   d="M 0,0 C -1.556,-0.522 -3.458,0.964 -4.241,3.317 -5.023,5.669 -4.394,7.994 -2.837,8.512 -1.276,9.037 0.621,7.549 1.409,5.199 2.188,2.846 1.562,0.522 0,0"
   style="fill:#ffffff;fill-rule:nonzero"
   id="path57" />&#10;                </g>&#10;                <g
   id="path60"
   transform="matrix(1.74142,0,0,-1.74142,-722.192,938.752)">&#10;                    <path
   d="M 0,0 C -1.559,-0.524 -3.453,0.967 -4.238,3.317 -5.023,5.669 -4.394,7.994 -2.837,8.512 -1.276,9.034 0.626,7.549 1.409,5.196 2.188,2.846 1.565,0.522 0,0"
   style="fill:#ffffff;fill-rule:nonzero"
   id="path59" />&#10;                </g>&#10;                <g
   id="path62"
   transform="matrix(1.74142,0,0,-1.74142,-749.96,915.098)">&#10;                    <path
   d="M 0,0 C -1.559,-0.524 -3.458,0.967 -4.238,3.317 -5.023,5.669 -4.394,7.994 -2.837,8.512 -1.276,9.034 0.626,7.549 1.409,5.196 2.188,2.846 1.562,0.522 0,0"
   style="fill:#ffffff;fill-rule:nonzero"
   id="path61" />&#10;                </g>&#10;                <g
   id="path64"
   transform="matrix(1.74142,0,0,-1.74142,-666.682,895.996)">&#10;                    <path
   d="M 0,0 C -1.298,1.006 -1.117,3.407 0.403,5.372 1.925,7.322 4.207,8.096 5.505,7.087 6.803,6.083 6.622,3.674 5.102,1.715 3.583,-0.238 1.298,-1.009 0,0"
   style="fill:#ffffff;fill-rule:nonzero"
   id="path63" />&#10;                </g>&#10;                <g
   id="path66"
   transform="matrix(1.74142,0,0,-1.74142,-685.714,919.253)">&#10;                    <path
   d="M 0,0 C -1.298,1.003 -1.117,3.41 0.403,5.369 1.928,7.325 4.212,8.093 5.508,7.087 6.803,6.083 6.622,3.674 5.102,1.715 3.583,-0.238 1.298,-1.009 0,0"
   style="fill:#ffffff;fill-rule:nonzero"
   id="path65" />&#10;                </g>&#10;                <g
   id="path68"
   transform="matrix(1.74142,0,0,-1.74142,-706.267,943.006)">&#10;                    <path
   d="M 0,0 C -1.298,1.003 -1.117,3.407 0.403,5.369 1.925,7.322 4.212,8.093 5.508,7.087 6.806,6.08 6.622,3.674 5.102,1.715 3.583,-0.241 1.298,-1.009 0,0"
   style="fill:#ffffff;fill-rule:nonzero"
   id="path67" />&#10;                </g>&#10;                <g
   id="path14-1"
   transform="matrix(0.97576,0,0,0.757578,-49.0654,468.409)">&#10;                    <path
   d="m -1331.38,410.116 166.75,164.849 -155.75,202.987 m -10.19,-202.99 165.94,0.003"
   style="fill:none;fill-rule:nonzero;stroke:#000000;stroke-width:4.33px"
   id="path69" />&#10;                </g>&#10;                <g
   id="g69"
   transform="translate(1.8429,328.294)">&#10;                    <circle
   cx="-1027.1"
   cy="567.76801"
   r="54.981998"
   style="fill:none;stroke:#000000;stroke-width:3.69px"
   id="circle69" />&#10;                </g>&#10;                <g
   id="path3-7"
   transform="matrix(0.063628,0,0,-0.063628,-1067.85,926.917)">&#10;                    <clipPath
   id="_clip1">&#10;                        <rect
   x="163.276"
   y="107.762"
   width="1012.31"
   height="754.33301"
   id="rect69" />&#10;                    </clipPath>&#10;                    <g
   clip-path="url(#_clip1)"
   id="g70">&#10;                        <path
   d="m 209.29,142.05 9.295,10e-4 9.296,0.001 9.296,0.001 9.296,0.002 9.295,0.002 9.296,0.002 9.296,0.003 9.296,0.002 9.296,0.004 9.295,0.004 9.296,0.004 9.296,0.006 9.296,0.006 9.295,0.007 9.296,0.009 9.296,0.01 9.296,0.011 9.295,0.014 9.296,0.015 9.296,0.018 9.296,0.021 9.295,0.025 9.296,0.028 9.296,0.033 9.296,0.039 9.295,0.045 9.296,0.052 9.296,0.061 9.296,0.07 9.296,0.082 9.295,0.095 9.296,0.111 9.296,0.129 9.296,0.15 9.295,0.174 9.296,0.203 9.296,0.235 9.296,0.273 9.295,0.317 9.296,0.368 9.296,0.427 9.296,0.496 9.295,0.574 9.296,0.665 9.296,0.769 9.296,0.89 9.296,1.029 9.295,1.187 9.296,1.369 9.296,1.575 9.296,1.811 9.295,2.077 9.296,2.378 9.296,2.716 9.296,3.094 9.295,3.515 9.296,3.979 9.296,4.488 9.296,5.045 9.295,5.645 9.296,6.289 9.296,6.971 9.296,7.689 9.295,8.435 9.296,9.203 9.296,9.984 9.296,10.769 9.296,11.55 9.295,12.318 9.296,13.064 9.296,13.781 9.296,14.464 9.295,15.108 9.296,15.708 9.296,16.264 9.296,16.774 9.295,17.239 9.296,17.658 9.296,18.037 9.296,18.375 9.295,18.676 9.296,18.942 9.296,19.177 9.296,19.384 9.296,19.566 9.3,19.724 9.29,19.863 9.3,19.983 9.29,20.088 9.3,20.179 9.29,20.258 9.3,20.325 9.3,20.385 9.29,20.436 9.3,20.48 9.29,20.517 9.3,20.551 9.29,20.578 9.3,20.603"
   style="fill:none;fill-rule:nonzero;stroke:#000000;stroke-width:115.86px;stroke-linecap:square;stroke-linejoin:round;stroke-miterlimit:10"
   id="path70" />&#10;                    </g>&#10;                </g>&#10;                <g
   id="g72"
   transform="matrix(0.126051,0,0,-0.094768,-2016.92,811.074)">&#10;                    <clipPath
   id="_clip2">&#10;                        <rect
   x="163.276"
   y="107.762"
   width="1012.31"
   height="754.33301"
   id="rect70" />&#10;                    </clipPath>&#10;                    <g
   clip-path="url(#_clip2)"
   id="g71">&#10;                        <path
   d="m 209.29,142.05 9.295,5.105 9.296,14.232 9.296,21.774 9.296,27.824 9.295,32.507 9.296,35.958 9.296,38.319 9.296,39.731 9.296,40.324 9.295,40.223 9.296,39.539 9.296,38.375 9.296,36.82 9.295,34.954 9.296,32.85 9.296,30.564 9.296,28.152 9.295,25.66 9.296,23.123 9.296,20.576 9.296,18.045 9.295,15.554 9.296,13.12 9.296,10.758 9.296,8.48 9.295,6.297 9.296,4.213 9.296,2.235 9.296,0.365 9.296,-1.394 9.295,-3.042 9.296,-4.579 9.296,-6.006 9.296,-7.326 9.295,-8.54 9.296,-9.65 9.296,-10.663 9.296,-11.578 9.295,-12.402 9.296,-13.136 9.296,-13.787 9.296,-14.356 9.295,-14.848 9.296,-15.268 9.296,-15.619 9.296,-15.905 9.296,-16.13 9.295,-16.296 9.296,-16.409 9.296,-16.472 9.296,-16.486 9.295,-16.457 9.296,-16.387 9.296,-16.279 9.296,-16.136 9.295,-15.96 9.296,-15.755 9.296,-15.522 9.296,-15.264 9.295,-14.984 9.296,-14.682 9.296,-14.362 9.296,-14.026 9.295,-13.674 9.296,-13.308 9.296,-12.932 9.296,-12.545 9.296,-12.15 9.295,-11.746 9.296,-11.337 9.296,-10.922 9.296,-10.504 9.295,-10.082 9.296,-9.659 9.296,-9.234 9.296,-8.809 9.295,-8.385 9.296,-7.962 9.296,-7.541 9.296,-7.121 9.295,-6.706 9.296,-6.293 9.296,-5.884 9.296,-5.481 9.296,-5.082 9.3,-4.687 9.29,-4.299 9.3,-3.917 9.29,-3.54 9.3,-3.17 9.29,-2.806 9.3,-2.449 9.3,-2.1 9.29,-1.756 9.3,-1.42 9.29,-1.092 9.3,-0.771 9.29,-0.457 9.3,-0.15"
   style="fill:none;fill-rule:nonzero;stroke:#cccccc;stroke-width:49.01px;stroke-linecap:square;stroke-linejoin:round;stroke-miterlimit:10"
   id="path71" />&#10;                    </g>&#10;                </g>&#10;                <g
   id="g74"
   transform="matrix(0.126051,0,0,-0.094768,-2016.92,811.074)">&#10;                    <clipPath
   id="_clip3">&#10;                        <rect
   x="163.276"
   y="107.762"
   width="1012.31"
   height="754.33301"
   id="rect72" />&#10;                    </clipPath>&#10;                    <g
   clip-path="url(#_clip3)"
   id="g73">&#10;                        <path
   d="m 209.29,484.929 9.295,58.948 9.296,54.571 9.296,49.275 9.296,43.412 9.295,37.257 9.296,31.026 9.296,24.882 9.296,18.949 9.296,13.31 9.295,8.028 9.296,3.142 9.296,-1.329 9.296,-5.373 9.295,-8.995 9.296,-12.202 9.296,-15.007 9.296,-17.432 9.295,-19.496 9.296,-21.22 9.296,-22.631 9.296,-23.75 9.295,-24.601 9.296,-25.209 9.296,-25.593 9.296,-25.776 9.295,-25.779 9.296,-25.62 9.296,-25.317 9.296,-24.887 9.296,-24.345 9.295,-23.705 9.296,-22.983 9.296,-22.188 9.296,-21.332 9.295,-20.427 9.296,-19.48 9.296,-18.501 9.296,-17.498 9.295,-16.475 9.296,-15.442 9.296,-14.403 9.296,-13.362 9.295,-12.326 9.296,-11.297 9.296,-10.278 9.296,-9.274 9.296,-8.287 9.295,-7.318 9.296,-6.372 9.296,-5.447 9.296,-4.548 9.295,-3.674 9.296,-2.826 9.296,-2.006 9.296,-1.214 9.295,-0.45 9.296,-0.004 h 390.422"
   style="fill:none;fill-rule:nonzero;stroke:#666666;stroke-width:49.01px;stroke-linecap:square;stroke-linejoin:round;stroke-miterlimit:10"
   id="path72" />&#10;                    </g>&#10;                </g>&#10;                <g
   id="path15-8"
   transform="matrix(0.126051,0,0,-0.094768,-2016.92,811.074)">&#10;                    <clipPath
   id="_clip4">&#10;                        <rect
   x="163.276"
   y="107.762"
   width="1012.31"
   height="754.33301"
   id="rect74" />&#10;                    </clipPath>&#10;                    <g
   clip-path="url(#_clip4)"
   id="g75">&#10;                        <path
   d="m 209.29,827.807 9.295,-5.105 9.296,-14.232 9.296,-21.774 9.296,-27.824 9.295,-32.507 9.296,-35.958 9.296,-38.319 9.296,-39.731 9.296,-40.324 9.295,-40.223 9.296,-39.539 9.296,-38.375 9.296,-36.82 9.295,-34.954 9.296,-32.85 9.296,-30.564 9.296,-28.152 9.295,-25.66 9.296,-23.123 9.296,-20.576 9.296,-18.045 9.295,-15.554 9.296,-13.12 9.296,-10.758 9.296,-8.48 9.295,-6.297 9.296,-4.213 9.296,-2.235 9.296,-0.445 h 650.703"
   style="fill:none;fill-rule:nonzero;stroke:#000000;stroke-width:49.01px;stroke-linecap:square;stroke-linejoin:round;stroke-miterlimit:10"
   id="path74" />&#10;                    </g>&#10;                </g>&#10;                <g
   id="path19-8"
   transform="matrix(0.126051,0,0,-0.094768,-2016.92,957.189)">&#10;                    <clipPath
   id="_clip5">&#10;                        <rect
   x="163.276"
   y="107.762"
   width="1012.31"
   height="754.33301"
   id="rect75" />&#10;                    </clipPath>&#10;                    <g
   clip-path="url(#_clip5)"
   id="g76">&#10;                        <path
   d="m 209.29,142.05 9.295,5.105 9.296,14.232 9.296,21.774 9.296,27.824 9.295,32.507 9.296,35.958 9.296,38.319 9.296,39.731 9.296,40.324 9.295,40.223 9.296,39.539 9.296,38.375 9.296,36.82 9.295,34.954 9.296,32.85 9.296,30.564 9.296,28.152 9.295,25.66 9.296,23.123 9.296,20.576 9.296,18.045 9.295,15.554 9.296,13.12 9.296,10.758 9.296,8.48 9.295,6.297 9.296,4.213 9.296,2.235 9.296,0.365 9.296,-1.394 9.295,-3.042 9.296,-4.579 9.296,-6.006 9.296,-7.326 9.295,-8.54 9.296,-9.65 9.296,-10.663 9.296,-11.578 9.295,-12.402 9.296,-13.136 9.296,-13.787 9.296,-14.356 9.295,-14.848 9.296,-15.268 9.296,-15.619 9.296,-15.905 9.296,-16.13 9.295,-16.296 9.296,-16.409 9.296,-16.472 9.296,-16.486 9.295,-16.457 9.296,-16.387 9.296,-16.279 9.296,-16.136 9.295,-15.96 9.296,-15.755 9.296,-15.522 9.296,-15.264 9.295,-14.984 9.296,-14.682 9.296,-14.362 9.296,-14.026 9.295,-13.674 9.296,-13.308 9.296,-12.932 9.296,-12.545 9.296,-12.15 9.295,-11.746 9.296,-11.337 9.296,-10.922 9.296,-10.504 9.295,-10.082 9.296,-9.659 9.296,-9.234 9.296,-8.809 9.295,-8.385 9.296,-7.962 9.296,-7.541 9.296,-7.121 9.295,-6.706 9.296,-6.293 9.296,-5.884 9.296,-5.481 9.296,-5.082 9.3,-4.687 9.29,-4.299 9.3,-3.917 9.29,-3.54 9.3,-3.17 9.29,-2.806 9.3,-2.449 9.3,-2.1 9.29,-1.756 9.3,-1.42 9.29,-1.092 9.3,-0.771 9.29,-0.457 9.3,-0.15"
   style="fill:none;fill-rule:nonzero;stroke:#cccccc;stroke-width:49.01px;stroke-linecap:square;stroke-linejoin:round;stroke-miterlimit:10"
   id="path75" />&#10;                    </g>&#10;                </g>&#10;                <g
   id="path171"
   serif:id="path17"
   transform="matrix(0.126051,0,0,-0.094768,-2016.92,957.189)">&#10;                    <clipPath
   id="_clip6">&#10;                        <rect
   x="163.276"
   y="107.762"
   width="1012.31"
   height="754.33301"
   id="rect76" />&#10;                    </clipPath>&#10;                    <g
   clip-path="url(#_clip6)"
   id="g77">&#10;                        <path
   d="m 209.29,484.929 9.295,58.948 9.296,54.571 9.296,49.275 9.296,43.412 9.295,37.257 9.296,31.026 9.296,24.882 9.296,18.949 9.296,13.31 9.295,8.028 9.296,3.142 9.296,-1.329 9.296,-5.373 9.295,-8.995 9.296,-12.202 9.296,-15.007 9.296,-17.432 9.295,-19.496 9.296,-21.22 9.296,-22.631 9.296,-23.75 9.295,-24.601 9.296,-25.209 9.296,-25.593 9.296,-25.776 9.295,-25.779 9.296,-25.62 9.296,-25.317 9.296,-24.887 9.296,-24.345 9.295,-23.705 9.296,-22.983 9.296,-22.188 9.296,-21.332 9.295,-20.427 9.296,-19.48 9.296,-18.501 9.296,-17.498 9.295,-16.475 9.296,-15.442 9.296,-14.403 9.296,-13.362 9.295,-12.326 9.296,-11.297 9.296,-10.278 9.296,-9.274 9.296,-8.287 9.295,-7.318 9.296,-6.372 9.296,-5.447 9.296,-4.548 9.295,-3.674 9.296,-2.826 9.296,-2.006 9.296,-1.214 9.295,-0.45 9.296,-0.004 h 390.422"
   style="fill:none;fill-rule:nonzero;stroke:#666666;stroke-width:49.01px;stroke-linecap:square;stroke-linejoin:round;stroke-miterlimit:10"
   id="path76" />&#10;                    </g>&#10;                </g>&#10;                <g
   id="path15-8-8"
   transform="matrix(0.126051,0,0,-0.094768,-2016.92,957.189)">&#10;                    <clipPath
   id="_clip7">&#10;                        <rect
   x="163.276"
   y="107.762"
   width="1012.31"
   height="754.33301"
   id="rect77" />&#10;                    </clipPath>&#10;                    <g
   clip-path="url(#_clip7)"
   id="g78">&#10;                        <path
   d="m 209.29,827.807 9.295,-5.105 9.296,-14.232 9.296,-21.774 9.296,-27.824 9.295,-32.507 9.296,-35.958 9.296,-38.319 9.296,-39.731 9.296,-40.324 9.295,-40.223 9.296,-39.539 9.296,-38.375 9.296,-36.82 9.295,-34.954 9.296,-32.85 9.296,-30.564 9.296,-28.152 9.295,-25.66 9.296,-23.123 9.296,-20.576 9.296,-18.045 9.295,-15.554 9.296,-13.12 9.296,-10.758 9.296,-8.48 9.295,-6.297 9.296,-4.213 9.296,-2.235 9.296,-0.445 h 650.703"
   style="fill:none;fill-rule:nonzero;stroke:#000000;stroke-width:49.01px;stroke-linecap:square;stroke-linejoin:round;stroke-miterlimit:10"
   id="path77" />&#10;                    </g>&#10;                </g>&#10;                <g
   id="path19-8-6"
   transform="matrix(0.126051,0,0,-0.094768,-2016.92,1090.55)">&#10;                    <clipPath
   id="_clip8">&#10;                        <rect
   x="163.276"
   y="107.762"
   width="1012.31"
   height="754.33301"
   id="rect78" />&#10;                    </clipPath>&#10;                    <g
   clip-path="url(#_clip8)"
   id="g79">&#10;                        <path
   d="m 209.29,142.05 9.295,5.105 9.296,14.232 9.296,21.774 9.296,27.824 9.295,32.507 9.296,35.958 9.296,38.319 9.296,39.731 9.296,40.324 9.295,40.223 9.296,39.539 9.296,38.375 9.296,36.82 9.295,34.954 9.296,32.85 9.296,30.564 9.296,28.152 9.295,25.66 9.296,23.123 9.296,20.576 9.296,18.045 9.295,15.554 9.296,13.12 9.296,10.758 9.296,8.48 9.295,6.297 9.296,4.213 9.296,2.235 9.296,0.365 9.296,-1.394 9.295,-3.042 9.296,-4.579 9.296,-6.006 9.296,-7.326 9.295,-8.54 9.296,-9.65 9.296,-10.663 9.296,-11.578 9.295,-12.402 9.296,-13.136 9.296,-13.787 9.296,-14.356 9.295,-14.848 9.296,-15.268 9.296,-15.619 9.296,-15.905 9.296,-16.13 9.295,-16.296 9.296,-16.409 9.296,-16.472 9.296,-16.486 9.295,-16.457 9.296,-16.387 9.296,-16.279 9.296,-16.136 9.295,-15.96 9.296,-15.755 9.296,-15.522 9.296,-15.264 9.295,-14.984 9.296,-14.682 9.296,-14.362 9.296,-14.026 9.295,-13.674 9.296,-13.308 9.296,-12.932 9.296,-12.545 9.296,-12.15 9.295,-11.746 9.296,-11.337 9.296,-10.922 9.296,-10.504 9.295,-10.082 9.296,-9.659 9.296,-9.234 9.296,-8.809 9.295,-8.385 9.296,-7.962 9.296,-7.541 9.296,-7.121 9.295,-6.706 9.296,-6.293 9.296,-5.884 9.296,-5.481 9.296,-5.082 9.3,-4.687 9.29,-4.299 9.3,-3.917 9.29,-3.54 9.3,-3.17 9.29,-2.806 9.3,-2.449 9.3,-2.1 9.29,-1.756 9.3,-1.42 9.29,-1.092 9.3,-0.771 9.29,-0.457 9.3,-0.15"
   style="fill:none;fill-rule:nonzero;stroke:#cccccc;stroke-width:49.01px;stroke-linecap:square;stroke-linejoin:round;stroke-miterlimit:10"
   id="path78" />&#10;                    </g>&#10;                </g>&#10;                <g
   id="path172"
   serif:id="path17"
   transform="matrix(0.126051,0,0,-0.094768,-2016.92,1090.55)">&#10;                    <clipPath
   id="_clip9">&#10;                        <rect
   x="163.276"
   y="107.762"
   width="1012.31"
   height="754.33301"
   id="rect79" />&#10;                    </clipPath>&#10;                    <g
   clip-path="url(#_clip9)"
   id="g80">&#10;                        <path
   d="m 209.29,484.929 9.295,58.948 9.296,54.571 9.296,49.275 9.296,43.412 9.295,37.257 9.296,31.026 9.296,24.882 9.296,18.949 9.296,13.31 9.295,8.028 9.296,3.142 9.296,-1.329 9.296,-5.373 9.295,-8.995 9.296,-12.202 9.296,-15.007 9.296,-17.432 9.295,-19.496 9.296,-21.22 9.296,-22.631 9.296,-23.75 9.295,-24.601 9.296,-25.209 9.296,-25.593 9.296,-25.776 9.295,-25.779 9.296,-25.62 9.296,-25.317 9.296,-24.887 9.296,-24.345 9.295,-23.705 9.296,-22.983 9.296,-22.188 9.296,-21.332 9.295,-20.427 9.296,-19.48 9.296,-18.501 9.296,-17.498 9.295,-16.475 9.296,-15.442 9.296,-14.403 9.296,-13.362 9.295,-12.326 9.296,-11.297 9.296,-10.278 9.296,-9.274 9.296,-8.287 9.295,-7.318 9.296,-6.372 9.296,-5.447 9.296,-4.548 9.295,-3.674 9.296,-2.826 9.296,-2.006 9.296,-1.214 9.295,-0.45 9.296,-0.004 h 390.422"
   style="fill:none;fill-rule:nonzero;stroke:#666666;stroke-width:49.01px;stroke-linecap:square;stroke-linejoin:round;stroke-miterlimit:10"
   id="path79" />&#10;                    </g>&#10;                </g>&#10;                <g
   id="path15-8-8-6"
   transform="matrix(0.126051,0,0,-0.094768,-2016.92,1090.55)">&#10;                    <clipPath
   id="_clip10">&#10;                        <rect
   x="163.276"
   y="107.762"
   width="1012.31"
   height="754.33301"
   id="rect80" />&#10;                    </clipPath>&#10;                    <g
   clip-path="url(#_clip10)"
   id="g81">&#10;                        <path
   d="m 209.29,827.807 9.295,-5.105 9.296,-14.232 9.296,-21.774 9.296,-27.824 9.295,-32.507 9.296,-35.958 9.296,-38.319 9.296,-39.731 9.296,-40.324 9.295,-40.223 9.296,-39.539 9.296,-38.375 9.296,-36.82 9.295,-34.954 9.296,-32.85 9.296,-30.564 9.296,-28.152 9.295,-25.66 9.296,-23.123 9.296,-20.576 9.296,-18.045 9.295,-15.554 9.296,-13.12 9.296,-10.758 9.296,-8.48 9.295,-6.297 9.296,-4.213 9.296,-2.235 9.296,-0.445 h 650.703"
   style="fill:none;fill-rule:nonzero;stroke:#000000;stroke-width:49.01px;stroke-linecap:square;stroke-linejoin:round;stroke-miterlimit:10"
   id="path80" />&#10;                    </g>&#10;                </g>&#10;                <g
   id="path19-8-6-4"
   transform="matrix(0.126051,0,0,-0.094768,-582.957,1145.83)">&#10;                    <clipPath
   id="_clip11">&#10;                        <rect
   x="163.276"
   y="107.762"
   width="1012.31"
   height="754.33301"
   id="rect81" />&#10;                    </clipPath>&#10;                    <g
   clip-path="url(#_clip11)"
   id="g82">&#10;                        <path
   d="m 209.29,142.05 9.295,5.105 9.296,14.232 9.296,21.774 9.296,27.824 9.295,32.507 9.296,35.958 9.296,38.319 9.296,39.731 9.296,40.324 9.295,40.223 9.296,39.539 9.296,38.375 9.296,36.82 9.295,34.954 9.296,32.85 9.296,30.564 9.296,28.152 9.295,25.66 9.296,23.123 9.296,20.576 9.296,18.045 9.295,15.554 9.296,13.12 9.296,10.758 9.296,8.48 9.295,6.297 9.296,4.213 9.296,2.235 9.296,0.365 9.296,-1.394 9.295,-3.042 9.296,-4.579 9.296,-6.006 9.296,-7.326 9.295,-8.54 9.296,-9.65 9.296,-10.663 9.296,-11.578 9.295,-12.402 9.296,-13.136 9.296,-13.787 9.296,-14.356 9.295,-14.848 9.296,-15.268 9.296,-15.619 9.296,-15.905 9.296,-16.13 9.295,-16.296 9.296,-16.409 9.296,-16.472 9.296,-16.486 9.295,-16.457 9.296,-16.387 9.296,-16.279 9.296,-16.136 9.295,-15.96 9.296,-15.755 9.296,-15.522 9.296,-15.264 9.295,-14.984 9.296,-14.682 9.296,-14.362 9.296,-14.026 9.295,-13.674 9.296,-13.308 9.296,-12.932 9.296,-12.545 9.296,-12.15 9.295,-11.746 9.296,-11.337 9.296,-10.922 9.296,-10.504 9.295,-10.082 9.296,-9.659 9.296,-9.234 9.296,-8.809 9.295,-8.385 9.296,-7.962 9.296,-7.541 9.296,-7.121 9.295,-6.706 9.296,-6.293 9.296,-5.884 9.296,-5.481 9.296,-5.082 9.3,-4.687 9.29,-4.299 9.3,-3.917 9.29,-3.54 9.3,-3.17 9.29,-2.806 9.3,-2.449 9.3,-2.1 9.29,-1.756 9.3,-1.42 9.29,-1.092 9.3,-0.771 9.29,-0.457 9.3,-0.15"
   style="fill:none;fill-rule:nonzero;stroke:#cccccc;stroke-width:49.01px;stroke-linecap:square;stroke-linejoin:round;stroke-miterlimit:10"
   id="path81" />&#10;                    </g>&#10;                </g>&#10;                <g
   id="path173"
   serif:id="path17"
   transform="matrix(0.126051,0,0,-0.094768,-582.957,1145.83)">&#10;                    <clipPath
   id="_clip12">&#10;                        <rect
   x="163.276"
   y="107.762"
   width="1012.31"
   height="754.33301"
   id="rect82" />&#10;                    </clipPath>&#10;                    <g
   clip-path="url(#_clip12)"
   id="g83">&#10;                        <path
   d="m 209.29,484.929 9.295,58.948 9.296,54.571 9.296,49.275 9.296,43.412 9.295,37.257 9.296,31.026 9.296,24.882 9.296,18.949 9.296,13.31 9.295,8.028 9.296,3.142 9.296,-1.329 9.296,-5.373 9.295,-8.995 9.296,-12.202 9.296,-15.007 9.296,-17.432 9.295,-19.496 9.296,-21.22 9.296,-22.631 9.296,-23.75 9.295,-24.601 9.296,-25.209 9.296,-25.593 9.296,-25.776 9.295,-25.779 9.296,-25.62 9.296,-25.317 9.296,-24.887 9.296,-24.345 9.295,-23.705 9.296,-22.983 9.296,-22.188 9.296,-21.332 9.295,-20.427 9.296,-19.48 9.296,-18.501 9.296,-17.498 9.295,-16.475 9.296,-15.442 9.296,-14.403 9.296,-13.362 9.295,-12.326 9.296,-11.297 9.296,-10.278 9.296,-9.274 9.296,-8.287 9.295,-7.318 9.296,-6.372 9.296,-5.447 9.296,-4.548 9.295,-3.674 9.296,-2.826 9.296,-2.006 9.296,-1.214 9.295,-0.45 9.296,-0.004 h 390.422"
   style="fill:none;fill-rule:nonzero;stroke:#666666;stroke-width:49.01px;stroke-linecap:square;stroke-linejoin:round;stroke-miterlimit:10"
   id="path82" />&#10;                    </g>&#10;                </g>&#10;                <g
   id="path15-8-8-6-8"
   transform="matrix(0.126051,0,0,-0.094768,-582.957,1145.83)">&#10;                    <clipPath
   id="_clip13">&#10;                        <rect
   x="163.276"
   y="107.762"
   width="1012.31"
   height="754.33301"
   id="rect83" />&#10;                    </clipPath>&#10;                    <g
   clip-path="url(#_clip13)"
   id="g84">&#10;                        <path
   d="m 209.29,827.807 9.295,-5.105 9.296,-14.232 9.296,-21.774 9.296,-27.824 9.295,-32.507 9.296,-35.958 9.296,-38.319 9.296,-39.731 9.296,-40.324 9.295,-40.223 9.296,-39.539 9.296,-38.375 9.296,-36.82 9.295,-34.954 9.296,-32.85 9.296,-30.564 9.296,-28.152 9.295,-25.66 9.296,-23.123 9.296,-20.576 9.296,-18.045 9.295,-15.554 9.296,-13.12 9.296,-10.758 9.296,-8.48 9.295,-6.297 9.296,-4.213 9.296,-2.235 9.296,-0.445 h 650.703"
   style="fill:none;fill-rule:nonzero;stroke:#000000;stroke-width:49.01px;stroke-linecap:square;stroke-linejoin:round;stroke-miterlimit:10"
   id="path83" />&#10;                    </g>&#10;                </g>&#10;                <g
   id="path3-5"
   transform="matrix(0.315412,0,0,-0.315412,-1060.49,1329.4)">&#10;                    <path
   d="m 184.191,534.802 4.225,200.039 4.226,71.667 4.225,31.054 4.225,8.948 4.226,-3.829 4.225,-11.115 4.225,-14.981 4.226,-16.666 4.225,-16.965 4.226,-16.402 4.225,-15.325 4.225,-13.967 4.226,-12.487 4.225,-10.987 4.225,-9.532 4.226,-8.165 4.225,-6.905 4.225,-5.764 4.226,-4.745 4.225,-3.845 4.225,-3.055 4.226,-2.371 4.225,-1.781 4.225,-1.276 4.226,-0.847 4.225,-0.487 4.225,-0.184 4.226,0.067 4.225,0.273 4.225,0.441 4.226,0.576 4.225,0.682 4.225,0.764 4.226,0.827 4.225,0.872 4.226,0.903 4.225,0.922 4.225,0.931 4.226,0.933 4.225,0.927 4.225,0.915 4.226,0.901 4.225,0.882 4.225,0.861 4.226,0.837 4.225,0.813 4.225,0.788 4.226,0.761 4.225,0.735 4.225,0.708 4.226,0.682 4.225,0.656 4.225,0.63 4.226,0.605 4.225,0.58 4.225,0.556 4.226,0.533 4.225,0.51 4.226,0.489 4.225,0.468 4.225,0.447 4.226,0.428 4.225,0.409 4.225,0.391 4.226,0.374 4.225,0.358 4.225,0.341 4.226,0.326 4.225,0.312 4.225,0.297 4.226,0.285 4.225,0.271 4.225,0.26 4.226,0.247 4.225,0.237 4.225,0.225 4.226,0.216 4.225,0.206 4.225,0.196 4.226,0.188 4.225,0.179 4.226,0.171 4.225,0.163 4.225,0.156 4.226,0.149 4.225,0.142 4.225,0.135 4.226,0.13 4.225,0.124 4.225,0.118 4.226,0.112 4.225,0.107 4.225,0.103 4.226,0.098 4.225,0.093 4.225,0.09 4.226,0.085 4.225,0.081 4.225,0.078"
   style="fill:none;fill-rule:nonzero;stroke:#000000;stroke-width:16.98px;stroke-linecap:square;stroke-linejoin:round;stroke-miterlimit:10"
   id="path84" />&#10;                </g>&#10;                <g
   id="path6-42"
   transform="matrix(0.313606,0,0,-0.313606,-1723.49,1287.82)">&#10;                    <path
   d="m 736.359,534.802 4.226,16.855 4.225,15.789 4.225,14.907 4.226,14.2 4.225,13.65 4.225,13.225 4.226,12.894 4.225,12.627 4.226,12.397 4.225,12.181 4.225,11.963 4.226,11.727 4.225,11.463 4.225,11.167 4.226,10.832 4.225,10.461 4.225,10.051 4.226,9.607 4.225,9.133 4.225,8.632 4.226,8.11 4.225,7.573 4.225,7.024 4.226,6.471 4.225,5.917 4.225,5.367 4.226,4.826 4.225,4.297 4.225,3.784 4.226,3.289 4.225,2.815 4.226,2.364 4.225,1.936 4.225,1.534 4.226,1.158 4.225,0.808 4.225,0.486 4.226,0.188 4.225,-0.083 4.225,-0.329 4.226,-0.551 4.225,-0.748 4.225,-0.924 4.226,-1.078 4.225,-1.211 4.225,-1.326 4.226,-1.423 4.225,-1.503 4.225,-1.568 4.226,-1.618 4.225,-1.655 4.225,-1.682 4.226,-1.696 4.225,-1.702 4.226,-1.698 4.225,-1.687 4.225,-1.669 4.226,-1.645 4.225,-1.616 4.225,-1.583 4.226,-1.544 4.225,-1.505 4.229,-1.461 4.22,-1.416 4.23,-1.369 4.22,-1.321 4.23,-1.273 4.22,-1.223 4.23,-1.174 4.22,-1.125 4.23,-1.076 4.22,-1.028 4.23,-0.981 4.23,-0.934 4.22,-0.889 4.23,-0.845 4.22,-0.802 4.23,-0.76 4.22,-0.72 4.23,-0.681 4.22,-0.644 4.23,-0.608 4.22,-0.573 4.23,-0.541 4.22,-0.509 4.23,-0.479 4.22,-0.45 4.23,-0.423 4.22,-0.398 4.23,-0.372 4.23,-0.349 4.22,-0.328 4.23,-0.306 4.22,-0.286 4.23,-0.268 4.22,-0.25 4.23,-0.234 4.22,-0.218 4.23,-0.204"
   style="fill:none;fill-rule:nonzero;stroke:#000000;stroke-width:17.08px;stroke-linecap:square;stroke-linejoin:round;stroke-miterlimit:10"
   id="path85" />&#10;                </g>&#10;                <g
   id="path9-9"
   transform="matrix(0.313485,0,0,-0.313485,-1559.69,864.068)">&#10;                    <path
   d="m 184.191,123.347 4.225,10.893 4.226,10.608 4.225,10.595 4.225,10.812 4.226,11.192 4.225,11.663 4.225,12.164 4.226,12.641 4.225,13.052 4.226,13.371 4.225,13.577 4.225,13.659 4.226,13.616 4.225,13.447 4.225,13.163 4.226,12.771 4.225,12.283 4.225,11.714 4.226,11.076 4.225,10.385 4.225,9.654 4.226,8.893 4.225,8.119 4.225,7.337 4.226,6.561 4.225,5.799 4.225,5.054 4.226,4.338 4.225,3.652 4.225,3.001 4.226,2.387 4.225,1.814 4.225,1.282 4.226,0.792 4.225,0.343 4.226,-0.063 4.225,-0.43 4.225,-0.757 4.226,-1.046 4.225,-1.299 4.225,-1.519 4.226,-1.705 4.225,-1.863 4.225,-1.992 4.226,-2.095 4.225,-2.175 4.225,-2.233 4.226,-2.273 4.225,-2.293 4.225,-2.3 4.226,-2.291 4.225,-2.271 4.225,-2.24 4.226,-2.199 4.225,-2.152 4.225,-2.096 4.226,-2.037 4.225,-1.971 4.226,-1.904 4.225,-1.833 4.225,-1.759 4.226,-1.686 4.225,-1.612 4.225,-1.537 4.226,-1.463 4.225,-1.389 4.225,-1.318 4.226,-1.247 4.225,-1.177 4.225,-1.111 4.226,-1.046 4.225,-0.983 4.225,-0.923 4.226,-0.865 4.225,-0.809 4.225,-0.755 4.226,-0.706 4.225,-0.657 4.225,-0.611 4.226,-0.567 4.225,-0.527 4.226,-0.487 4.225,-0.451 4.225,-0.417 4.226,-0.384 4.225,-0.353 4.225,-0.325 4.226,-0.298 4.225,-0.274 4.225,-0.25 4.226,-0.228 4.225,-0.208 4.225,-0.189 4.226,-0.172 4.225,-0.155 4.225,-0.141 4.226,-0.127 4.225,-0.114 4.225,-0.102"
   style="fill:none;fill-rule:nonzero;stroke:#000000;stroke-width:17.09px;stroke-linecap:square;stroke-linejoin:round;stroke-miterlimit:10"
   id="path86" />&#10;                </g>&#10;                <g
   id="path12-1"
   transform="matrix(0.313656,0,0,-0.313656,-1740.91,1011.73)">&#10;                    <path
   d="m 736.359,123.347 4.226,17.005 4.225,26.137 4.225,31.056 4.226,32.917 4.225,32.629 4.225,30.89 4.226,28.229 4.225,25.041 4.226,21.615 4.225,18.158 4.225,14.817 4.226,11.683 4.225,8.819 4.225,6.254 4.226,3.999 4.225,2.055 4.225,0.404 4.226,-0.968 4.225,-2.087 4.225,-2.977 4.226,-3.664 4.225,-4.172 4.225,-4.526 4.226,-4.749 4.225,-4.86 4.225,-4.879 4.226,-4.823 4.225,-4.708 4.225,-4.543 4.226,-4.345 4.225,-4.118 4.226,-3.875 4.225,-3.62 4.225,-3.36 4.226,-3.1 4.225,-2.842 4.225,-2.592 4.226,-2.349 4.225,-2.117 4.225,-1.896 4.226,-1.689 4.225,-1.494 4.225,-1.311 4.226,-1.144 4.225,-0.987 4.225,-0.844 4.226,-0.714 4.225,-0.595 4.225,-0.486 4.226,-0.389 4.225,-0.301 4.225,-0.223 4.226,-0.152 4.225,-0.091 4.226,-0.035 4.225,0.011 4.225,0.055 4.226,0.091 4.225,0.123 4.225,0.15 4.226,0.172 4.225,0.191 4.229,0.207 4.22,0.22 4.23,0.23 4.22,0.237 4.23,0.243 4.22,0.246 4.23,0.248 4.22,0.249 4.23,0.249 4.22,0.247 4.23,0.244 4.23,0.241 4.22,0.237 4.23,0.233 4.22,0.227 4.23,0.222 4.22,0.217 4.23,0.211 4.22,0.205 4.23,0.199 4.22,0.192 4.23,0.187 4.22,0.18 4.23,0.174 4.22,0.168 4.23,0.162 4.22,0.155 4.23,0.151 4.23,0.144 4.22,0.139 4.23,0.134 4.22,0.128 4.23,0.123 4.22,0.118 4.23,0.113 4.22,0.109 4.23,0.104"
   style="fill:none;fill-rule:nonzero;stroke:#000000;stroke-width:17.08px;stroke-linecap:square;stroke-linejoin:round;stroke-miterlimit:10"
   id="path87" />&#10;                </g>&#10;                <g
   id="g87"
   transform="matrix(0.275239,0,0,-0.275239,-807.188,1295.95)">&#10;                    <rect
   x="184.19099"
   y="654.66302"
   width="124.759"
   height="191.847"
   style="fill-rule:nonzero"
   id="rect87" />&#10;                </g>&#10;                <g
   id="path5-3"
   transform="matrix(0.275239,0,0,-0.275239,-807.188,1295.95)">&#10;                    <rect
   x="330.966"
   y="654.66302"
   width="124.759"
   height="94.383003"
   style="fill:#666666;fill-rule:nonzero"
   id="rect88" />&#10;                </g>&#10;                <g
   id="path7-6"
   transform="matrix(0.275239,0,0,-0.275239,-807.188,1295.95)">&#10;                    <rect
   x="477.741"
   y="534.802"
   width="124.759"
   height="119.861"
   style="fill:#cccccc;fill-rule:nonzero"
   id="rect89" />&#10;                </g>&#10;                <g
   id="g91"
   transform="matrix(0.275239,0,0,-0.275239,-807.188,1295.95)">&#10;                    <clipPath
   id="_clip14">&#10;                        <rect
   x="163.276"
   y="519.216"
   width="460.14001"
   height="342.879"
   id="rect90" />&#10;                    </clipPath>&#10;                    <g
   clip-path="url(#_clip14)"
   id="g90">&#10;                        <path
   d="m 163.276,654.663 h 460.14"
   style="fill:none;fill-rule:nonzero;stroke:#000000;stroke-width:4.25px;stroke-linecap:square;stroke-linejoin:round;stroke-miterlimit:10"
   id="path90" />&#10;                    </g>&#10;                </g>&#10;                <g
   id="g92"
   transform="matrix(0.275239,0,0,-0.275239,-1953.56,1266.63)">&#10;                    <rect
   x="736.35901"
   y="534.802"
   width="124.759"
   height="219.381"
   style="fill-rule:nonzero"
   id="rect91" />&#10;                </g>&#10;                <g
   id="g93"
   transform="matrix(0.275239,0,0,-0.275239,-1953.56,1266.63)">&#10;                    <rect
   x="883.13501"
   y="699.36603"
   width="124.759"
   height="54.817001"
   style="fill:#666666;fill-rule:nonzero"
   id="rect92" />&#10;                </g>&#10;                <g
   id="path16-5"
   transform="matrix(0.275239,0,0,-0.275239,-1953.56,1266.63)">&#10;                    <rect
   x="1029.91"
   y="754.18298"
   width="124.759"
   height="92.327003"
   style="fill:#cccccc;fill-rule:nonzero"
   id="rect93" />&#10;                </g>&#10;                <g
   id="path18-9"
   transform="matrix(0.275239,0,0,-0.275239,-1953.56,1266.63)">&#10;                    <clipPath
   id="_clip15">&#10;                        <rect
   x="715.44397"
   y="519.216"
   width="460.14001"
   height="342.879"
   id="rect94" />&#10;                    </clipPath>&#10;                    <g
   clip-path="url(#_clip15)"
   id="g94">&#10;                        <path
   d="M 715.444,754.183 H 1175.58"
   style="fill:none;fill-rule:nonzero;stroke:#000000;stroke-width:4.25px;stroke-linecap:square;stroke-linejoin:round;stroke-miterlimit:10"
   id="path94" />&#10;                    </g>&#10;                </g>&#10;                <g
   id="g95"
   transform="matrix(0.275239,0,0,-0.275239,-1807.34,874.507)">&#10;                    <rect
   x="184.19099"
   y="123.347"
   width="124.759"
   height="220.76401"
   style="fill-rule:nonzero"
   id="rect95" />&#10;                </g>&#10;                <g
   id="g96"
   transform="matrix(0.275239,0,0,-0.275239,-1807.34,874.507)">&#10;                    <rect
   x="330.966"
   y="280.77802"
   width="124.759"
   height="63.333"
   style="fill:#666666;fill-rule:nonzero"
   id="rect96" />&#10;                </g>&#10;                <g
   id="g97"
   transform="matrix(0.275239,0,0,-0.275239,-1807.34,874.507)">&#10;                    <rect
   x="477.741"
   y="344.11099"
   width="124.759"
   height="90.944"
   style="fill:#cccccc;fill-rule:nonzero"
   id="rect97" />&#10;                </g>&#10;                <g
   id="g99"
   transform="matrix(0.275239,0,0,-0.275239,-1801.58,874.022)">&#10;                    <clipPath
   id="_clip16">&#10;                        <rect
   x="163.276"
   y="107.762"
   width="460.14001"
   height="342.879"
   id="rect98" />&#10;                    </clipPath>&#10;                    <g
   clip-path="url(#_clip16)"
   id="g98">&#10;                        <path
   d="m 163.276,344.111 h 460.14"
   style="fill:none;fill-rule:nonzero;stroke:#000000;stroke-width:4.25px;stroke-linecap:square;stroke-linejoin:round;stroke-miterlimit:10"
   id="path98" />&#10;                    </g>&#10;                </g>&#10;                <g
   id="g100"
   transform="matrix(0.275239,0,0,-0.275239,-1953.56,1002.6)">&#10;                    <rect
   x="736.35901"
   y="123.347"
   width="124.759"
   height="188.774"
   style="fill-rule:nonzero"
   id="rect99" />&#10;                </g>&#10;                <g
   id="g101"
   transform="matrix(0.275239,0,0,-0.275239,-1953.56,1002.6)">&#10;                    <rect
   x="883.13501"
   y="312.121"
   width="124.759"
   height="122.934"
   style="fill:#666666;fill-rule:nonzero"
   id="rect100" />&#10;                </g>&#10;                <g
   id="g102"
   transform="matrix(0.275239,0,0,-0.275239,-1953.56,1002.6)">&#10;                    <rect
   x="1029.91"
   y="285.63699"
   width="124.759"
   height="26.483999"
   style="fill:#cccccc;fill-rule:nonzero"
   id="rect101" />&#10;                </g>&#10;                <g
   id="path36-1"
   transform="matrix(0.275239,0,0,-0.275239,-1953.56,1002.6)">&#10;                    <clipPath
   id="_clip17">&#10;                        <rect
   x="715.44397"
   y="107.762"
   width="460.14001"
   height="342.879"
   id="rect102" />&#10;                    </clipPath>&#10;                    <g
   clip-path="url(#_clip17)"
   id="g103">&#10;                        <path
   d="M 715.444,312.121 H 1175.58"
   style="fill:none;fill-rule:nonzero;stroke:#000000;stroke-width:4.25px;stroke-linecap:square;stroke-linejoin:round;stroke-miterlimit:10"
   id="path102" />&#10;                    </g>&#10;                </g>&#10;                <g
   id="path16-9"
   transform="matrix(0.862504,0,0,0.862504,-679.097,-325.551)">&#10;                    <circle
   cx="-1306.99"
   cy="1605.74"
   r="25.915001"
   style="fill:none;stroke:#000000;stroke-width:1.74px"
   id="circle103" />&#10;                </g>&#10;                <g
   transform="matrix(0.862504,0,0,0.862504,-1816.97,1070.4)"
   id="g104">&#10;                    <text
   x="0"
   y="0"
   style="font-size:49.134px;font-family:ArialMT, Arial, sans-serif"
   id="text103">x</text>&#10;                </g>&#10;                <g
   id="path16-9-1"
   transform="matrix(0.862504,0,0,0.862504,-682.876,-469.221)">&#10;                    <circle
   cx="-1306.99"
   cy="1605.74"
   r="25.915001"
   style="fill:none;stroke:#000000;stroke-width:1.74px"
   id="circle104" />&#10;                </g>&#10;                <g
   transform="matrix(0.862504,0,0,0.862504,-1820.75,926.726)"
   id="g105">&#10;                    <text
   x="0"
   y="0"
   style="font-size:49.134px;font-family:ArialMT, Arial, sans-serif"
   id="text104">x</text>&#10;                </g>&#10;                <g
   id="path16-9-1-0"
   transform="translate(1.8429,328.294)">&#10;                    <circle
   cx="-1165.46"
   cy="574.38098"
   r="22.351999"
   style="fill:#ffffff;stroke:#000000;stroke-width:1.5px"
   id="circle105" />&#10;                </g>&#10;                <g
   transform="translate(-1175.99,917.605)"
   id="g106">&#10;                    <text
   x="0"
   y="0"
   style="font-size:42.378px;font-family:ArialMT, Arial, sans-serif"
   id="text105">+</text>&#10;                </g>&#10;                <g
   transform="rotate(-90,-706.2105,1612.9395)"
   id="g107">&#10;                    <text
   x="-128.40601"
   y="0"
   style="font-size:42.378px;font-family:ArialMT, Arial, sans-serif;fill-opacity:0.91"
   id="text106">input neurons</text>&#10;                </g>&#10;                <g
   id="g108"
   transform="matrix(0.559395,0,0,0.559395,-1005.01,579.241)">&#10;                    <path
   d="m -2242.6,269.32 h -42.57 v 619.862 h 42.57"
   style="fill:none;fill-rule:nonzero;stroke:#000000;stroke-width:5.36px"
   id="path107" />&#10;                </g>&#10;                <g
   id="path16-9-1-5"
   transform="matrix(0.862504,0,0,0.862504,-680.986,-605.332)">&#10;                    <circle
   cx="-1306.99"
   cy="1605.74"
   r="25.915001"
   style="fill:none;stroke:#000000;stroke-width:1.74px"
   id="circle108" />&#10;                </g>&#10;                <g
   transform="matrix(0.862504,0,0,0.862504,-1818.86,790.615)"
   id="g109">&#10;                    <text
   x="0"
   y="0"
   style="font-size:49.134px;font-family:ArialMT, Arial, sans-serif"
   id="text108">x</text>&#10;                </g>&#10;                <g
   id="path16-9-1-5-4"
   transform="matrix(0.862504,0,0,0.862504,530.097,-282.794)">&#10;                    <circle
   cx="-1306.99"
   cy="1605.74"
   r="25.915001"
   style="fill:none;stroke:#000000;stroke-width:1.74px"
   id="circle109" />&#10;                </g>&#10;                <g
   transform="matrix(0.862504,0,0,0.862504,-607.781,1113.15)"
   id="g110">&#10;                    <text
   x="0"
   y="0"
   style="font-size:49.134px;font-family:ArialMT, Arial, sans-serif"
   id="text109">x</text>&#10;                </g>&#10;                <g
   transform="translate(-1983.1,696.885)"
   id="g111">&#10;                    <text
   x="0"
   y="0"
   style="font-size:42.378px;font-family:ArialMT, Arial, sans-serif"
   id="text110">basis</text>&#10;                </g>&#10;                <g
   transform="translate(-1764.41,698.235)"
   id="g112">&#10;                    <text
   x="0"
   y="0"
   style="font-size:42.378px;font-family:ArialMT, Arial, sans-serif"
   id="text111">weights</text>&#10;                </g>&#10;                <g
   transform="translate(-529.818,1195.97)"
   id="g113">&#10;                    <text
   x="0"
   y="0"
   style="font-size:42.378px;font-family:ArialMT, Arial, sans-serif"
   id="text112">basis</text>&#10;                </g>&#10;                <g
   transform="translate(-763.139,1195.97)"
   id="g114">&#10;                    <text
   x="0"
   y="0"
   style="font-size:42.378px;font-family:ArialMT, Arial, sans-serif"
   id="text113">weights</text>&#10;                </g>&#10;                <g
   transform="translate(-1132.44,798.692)"
   id="g115">&#10;                    <text
   x="0"
   y="0"
   style="font-size:42.378px;font-family:ArialMT, Arial, sans-serif"
   id="text114">inverse link</text>&#10;                </g>&#10;                <g
   transform="translate(-698.77,770.761)"
   id="g116">&#10;                    <text
   x="-75.382004"
   y="0"
   style="font-size:42.378px;font-family:ArialMT, Arial, sans-serif"
   id="text115">Poisson</text>&#10;                </g>&#10;                <g
   transform="translate(-698.77,823.734)"
   id="g117">&#10;                    <text
   x="-26.683001"
   y="0"
   style="font-size:42.378px;font-family:ArialMT, Arial, sans-serif"
   id="text116">r<tspan
   x="-14.909 -3.135 14.909"
   y="0 0 0"
   id="tspan116">.v.</tspan></text>&#10;                </g>&#10;                <g
   transform="matrix(3.77953,0,0,3.77953,-2623.02,97.836)"
   id="g119">&#10;                    <g
   transform="matrix(12,0,0,12,400.675,141.75)"
   id="g118">&#10;                    </g>&#10;                    <text
   x="281.362"
   y="141.75"
   style="font-size:12px;font-family:ArialMT, Arial, sans-serif"
   id="text118">Coupled GLM Model</text>&#10;                </g>&#10;            </g></g>&#10;    </g>&#10;</svg>
