<?xml version="1.0" encoding="UTF-8" standalone="no"?>
<svg
   height="16"
   viewBox="0 -960 880 640"
   width="22"
   fill="#5f6368"
   version="1.1"
   id="svg1"
   sodipodi:docname="menu_book.svg"
   inkscape:version="1.3 (0e150ed, 2023-07-21)"
   xmlns:inkscape="http://www.inkscape.org/namespaces/inkscape"
   xmlns:sodipodi="http://sodipodi.sourceforge.net/DTD/sodipodi-0.dtd"
   xmlns="http://www.w3.org/2000/svg"
   xmlns:svg="http://www.w3.org/2000/svg">
  <defs
     id="defs1" />
  <sodipodi:namedview
     id="namedview1"
     pagecolor="#ffffff"
     bordercolor="#000000"
     borderopacity="0.25"
     inkscape:showpageshadow="2"
     inkscape:pageopacity="0.0"
     inkscape:pagecheckerboard="0"
     inkscape:deskcolor="#d1d1d1"
     inkscape:zoom="9.8333333"
     inkscape:cx="10.983051"
     inkscape:cy="7.9830508"
     inkscape:window-width="1392"
     inkscape:window-height="1212"
     inkscape:window-x="0"
     inkscape:window-y="25"
     inkscape:window-maximized="0"
     inkscape:current-layer="svg1" />
  <path
     d="m 520,-724 v -68 q 33,-14 67.5,-21 34.5,-7 72.5,-7 26,0 51,4 25,4 49,10 v 64 q -24,-9 -48.5,-13.5 -24.5,-4.5 -51.5,-4.5 -38,0 -73,9.5 -35,9.5 -67,26.5 z m 0,220 v -68 q 33,-14 67.5,-21 34.5,-7 72.5,-7 26,0 51,4 25,4 49,10 v 64 q -24,-9 -48.5,-13.5 -24.5,-4.5 -51.5,-4.5 -38,0 -73,9 -35,9 -67,27 z m 0,-110 v -68 q 33,-14 67.5,-21 34.5,-7 72.5,-7 26,0 51,4 25,4 49,10 v 64 q -24,-9 -48.5,-13.5 -24.5,-4.5 -51.5,-4.5 -38,0 -73,9.5 -35,9.5 -67,26.5 z m -300,134 q 47,0 91.5,10.5 44.5,10.5 88.5,31.5 v -394 q -41,-24 -87,-36 -46,-12 -93,-12 -36,0 -71.5,7 -35.5,7 -68.5,21 v 396 q 35,-12 69.5,-18 34.5,-6 70.5,-6 z m 260,42 q 44,-21 88.5,-31.5 44.5,-10.5 91.5,-10.5 36,0 70.5,6 34.5,6 69.5,18 v -396 q -33,-14 -68.5,-21 -35.5,-7 -71.5,-7 -47,0 -93,12 -46,12 -87,36 z m -40,118 q -48,-38 -104,-59 -56,-21 -116,-21 -42,0 -82.5,11 Q 97,-378 60,-358 39,-347 19.5,-359 0,-371 0,-394 v -482 q 0,-11 5.5,-21 5.5,-10 16.5,-15 46,-24 96,-36 50,-12 102,-12 58,0 113.5,15 55.5,15 106.5,45 51,-30 106.5,-45 55.5,-15 113.5,-15 52,0 102,12 50,12 96,36 11,5 16.5,15 5.5,10 5.5,21 v 482 q 0,23 -19.5,35 -19.5,12 -40.5,1 -37,-20 -77.5,-31 -40.5,-11 -82.5,-11 -60,0 -116,21 -56,21 -104,59 z M 240,-654 Z"
     id="path1" />
</svg>
