<svg xmlns="http://www.w3.org/2000/svg" viewBox="0 0 271.3 179.99"><defs><style>.cls-1{fill:#fff;}</style></defs><g id="Layer_2" data-name="Layer 2"><g id="Layer_1-2" data-name="Layer 1"><path class="cls-1" d="M138,109.14a104.44,104.44,0,0,0-25-6.6,12.65,12.65,0,0,0-12.63-12.06h-.14v-40h18.51a4.66,4.66,0,0,0,0-9.32H95.58a4.66,4.66,0,0,0-4.65,4.66h0V90.48a12.64,12.64,0,0,0-12.58,11.89c-26.45,3.48-47.19,15-53.12,29.68H16a31.14,31.14,0,0,0,1.15-8.58c0-9.49-3.85-17.17-8.58-17.17S0,114,0,123.47s3.85,17.17,8.59,17.17c-4.74,0-8.59,7.69-8.59,17.17S3.85,175,8.59,175s8.58-7.69,8.58-17.17A31.27,31.27,0,0,0,16,149.22h9.21C32.36,166.83,60.92,180,95.07,180c16.09,0,30.94-2.92,42.9-7.85a52.1,52.1,0,0,1,0-63Zm-70.22,41a11.46,11.46,0,1,1,11.46-11.46A11.47,11.47,0,0,1,67.75,150.14Zm34.64,0a11.46,11.46,0,1,1,11.46-11.46A11.47,11.47,0,0,1,102.39,150.14Z"/><path class="cls-1" d="M143.23,111.54a46.5,46.5,0,0,0,0,58.2c14.37-7.2,23.39-17.57,23.39-29.1S157.6,118.73,143.23,111.54Z"/><path class="cls-1" d="M126.39,57.75a1.52,1.52,0,0,1-1.2-.6l-1.5-2A1.52,1.52,0,0,1,124,53a1.5,1.5,0,0,1,2.1.31l1.5,2a1.5,1.5,0,0,1-1.2,2.4Z"/><path class="cls-1" d="M174.34,121.74a1.49,1.49,0,0,1-1.2-.6L170,117a1.5,1.5,0,1,1,2.4-1.8l3.12,4.16a1.5,1.5,0,0,1-1.2,2.4Zm-6.85-9.14a1.49,1.49,0,0,1-1.2-.6l-3.12-4.16a1.5,1.5,0,0,1,.31-2.1,1.49,1.49,0,0,1,2.09.3l3.12,4.16a1.5,1.5,0,0,1-.3,2.1A1.52,1.52,0,0,1,167.49,112.6Zm-6.85-9.15a1.46,1.46,0,0,1-1.2-.6l-3.12-4.15a1.5,1.5,0,0,1,2.41-1.8l3.11,4.16a1.49,1.49,0,0,1-1.2,2.39Zm-6.85-9.14a1.46,1.46,0,0,1-1.2-.6l-3.11-4.15a1.5,1.5,0,1,1,2.4-1.8L155,91.91a1.5,1.5,0,0,1-.3,2.1A1.45,1.45,0,0,1,153.79,94.31Zm-6.85-9.14a1.51,1.51,0,0,1-1.2-.6l-3.11-4.15a1.5,1.5,0,1,1,2.4-1.8l3.11,4.15a1.5,1.5,0,0,1-.3,2.1A1.52,1.52,0,0,1,146.94,85.17ZM140.09,76a1.52,1.52,0,0,1-1.2-.6l-3.11-4.16a1.5,1.5,0,0,1,2.4-1.8l3.11,4.16a1.5,1.5,0,0,1-1.2,2.4Zm-6.85-9.14a1.52,1.52,0,0,1-1.2-.6l-3.11-4.16a1.5,1.5,0,0,1,2.4-1.8l3.11,4.16a1.5,1.5,0,0,1-1.2,2.4Z"/><path class="cls-1" d="M179.57,128.72a1.49,1.49,0,0,1-1.2-.6l-1.5-2a1.5,1.5,0,0,1,2.41-1.8l1.49,2a1.49,1.49,0,0,1-1.2,2.39Z"/><path class="cls-1" d="M127.92,44.89A1.5,1.5,0,0,1,127.5,42l2.4-.7a1.5,1.5,0,1,1,.84,2.87l-2.39.71A1.65,1.65,0,0,1,127.92,44.89Z"/><path class="cls-1" d="M136.28,42.43a1.5,1.5,0,0,1-.42-2.94l5-1.47a1.5,1.5,0,1,1,.85,2.88l-5,1.46A1.23,1.23,0,0,1,136.28,42.43Zm10.93-3.23a1.5,1.5,0,0,1-.43-2.94l5-1.47a1.5,1.5,0,0,1,.85,2.88l-5,1.47A1.52,1.52,0,0,1,147.21,39.2ZM158.13,36a1.5,1.5,0,0,1-.42-2.94l5-1.46a1.5,1.5,0,0,1,.85,2.87l-5,1.47A1.59,1.59,0,0,1,158.13,36Zm10.93-3.22a1.5,1.5,0,0,1-.42-2.94l5-1.47a1.5,1.5,0,1,1,.85,2.88l-5,1.47A1.65,1.65,0,0,1,169.06,32.75ZM180,29.52a1.5,1.5,0,0,1-.43-2.94l5-1.46a1.5,1.5,0,0,1,.85,2.87l-5,1.47A1.52,1.52,0,0,1,180,29.52Zm10.92-3.23a1.5,1.5,0,0,1-.42-2.94l5-1.46a1.5,1.5,0,0,1,.85,2.88l-5,1.46A1.59,1.59,0,0,1,190.91,26.29Zm10.93-3.22a1.5,1.5,0,0,1-.42-2.94l5-1.47a1.5,1.5,0,1,1,.85,2.88l-5,1.47A1.65,1.65,0,0,1,201.84,23.07Zm10.93-3.23a1.5,1.5,0,0,1-.43-2.94l5-1.46a1.5,1.5,0,1,1,.85,2.87l-5,1.47A1.52,1.52,0,0,1,212.77,19.84Zm10.92-3.23a1.5,1.5,0,0,1-.42-2.93l5-1.47a1.49,1.49,0,0,1,1.86,1,1.51,1.51,0,0,1-1,1.87l-5,1.46A1.59,1.59,0,0,1,223.69,16.61Zm10.93-3.22a1.5,1.5,0,0,1-.42-2.94l5-1.47a1.5,1.5,0,1,1,.85,2.88l-5,1.47A1.65,1.65,0,0,1,234.62,13.39Zm10.93-3.23a1.5,1.5,0,0,1-.43-2.94l5-1.46a1.5,1.5,0,0,1,.85,2.87l-5,1.47A1.52,1.52,0,0,1,245.55,10.16Zm10.92-3.22A1.5,1.5,0,0,1,255,5.86a1.49,1.49,0,0,1,1-1.86l5-1.47a1.5,1.5,0,0,1,.85,2.88l-5,1.46A1.29,1.29,0,0,1,256.47,6.94Z"/><path class="cls-1" d="M267.4,3.71A1.5,1.5,0,0,1,267,.77l2.39-.71a1.5,1.5,0,1,1,.85,2.88l-2.39.71A1.59,1.59,0,0,1,267.4,3.71Z"/><path class="cls-1" d="M248.63,35.67a1.5,1.5,0,0,0-2.12,0l-8.11,8.37V28.72a1.5,1.5,0,0,0-3,0V43.8l-8-7.78a1.5,1.5,0,0,0-2.09,2.15L235.4,48v1.68a16.18,16.18,0,0,1-16.17,16.17h-15.4l-6.86-11,1.68-3.17,3.95-1.21a1.49,1.49,0,1,0-.87-2.86l-3.12.95-1-3.11a1.5,1.5,0,1,0-2.87.87L196,50.26l-1.68,3.17-11.92.42-1.9-3.05.93-4a1.5,1.5,0,0,0-2.93-.68l-.73,3.17-3.17-.73a1.5,1.5,0,1,0-.67,2.92l4,.93,1.9,3L174.26,66l-3.59.12-3-2.82a1.5,1.5,0,0,0-2,2.2L168,67.69l-2.22,2.38a1.49,1.49,0,0,0,1.1,2.52,1.47,1.47,0,0,0,1.09-.48l2.82-3,3.59-.12,6.32,10.11L179,82.25l-4,1.21a1.5,1.5,0,1,0,.88,2.87l3.11-1,.95,3.11a1.51,1.51,0,0,0,1.43,1.06,1.31,1.31,0,0,0,.44-.07,1.5,1.5,0,0,0,1-1.87l-1.21-4,1.69-3.17,11.91-.42,1.91,3.05-.93,4a1.49,1.49,0,0,0,1.12,1.8,1.32,1.32,0,0,0,.34,0,1.5,1.5,0,0,0,1.46-1.16l.73-3.17,3.17.73a1.5,1.5,0,0,0,.68-2.92l-4-.93-1.9-3,5.13-9.65h16.31A19.19,19.19,0,0,0,238.4,49.66V48.39l10.26-10.6A1.49,1.49,0,0,0,248.63,35.67Zm-56.37,33.5A4.09,4.09,0,1,1,191,63.52,4.09,4.09,0,0,1,192.26,69.17Z"/></g></g></svg>