<?xml version="1.0" encoding="UTF-8" standalone="no"?>
<!-- Created with Inkscape (http://www.inkscape.org/) -->

<svg
   width="149.25946mm"
   height="47.625393mm"
   viewBox="0 0 149.25946 47.625393"
   version="1.1"
   id="svg1"
   xml:space="preserve"
   inkscape:version="1.3 (0e150ed, 2023-07-21)"
   sodipodi:docname="nemos_sklearn.svg"
   xmlns:inkscape="http://www.inkscape.org/namespaces/inkscape"
   xmlns:sodipodi="http://sodipodi.sourceforge.net/DTD/sodipodi-0.dtd"
   xmlns="http://www.w3.org/2000/svg"
   xmlns:svg="http://www.w3.org/2000/svg"><sodipodi:namedview
     id="namedview1"
     pagecolor="#ffffff"
     bordercolor="#000000"
     borderopacity="0.25"
     inkscape:showpageshadow="2"
     inkscape:pageopacity="0.0"
     inkscape:pagecheckerboard="0"
     inkscape:deskcolor="#d1d1d1"
     inkscape:document-units="mm"
     inkscape:zoom="0.67610527"
     inkscape:cx="290.63521"
     inkscape:cy="272.8865"
     inkscape:window-width="1640"
     inkscape:window-height="936"
     inkscape:window-x="0"
     inkscape:window-y="44"
     inkscape:window-maximized="0"
     inkscape:current-layer="layer1" /><defs
     id="defs1"><inkscape:path-effect
       effect="bspline"
       id="path-effect10"
       is_visible="true"
       lpeversion="1.3"
       weight="33.333333"
       steps="2"
       helper_size="0"
       apply_no_weight="true"
       apply_with_weight="true"
       only_selected="false"
       uniform="false" /><style
       id="style1">.cls-1{fill:#1da9d5;}.cls-2{fill:#1ca8d4;}</style></defs><g
     inkscape:label="Layer 1"
     inkscape:groupmode="layer"
     id="layer1"
     transform="translate(-27.331005,-34.923134)"><g
       id="g1"
       transform="matrix(0.05872473,0,0,0.05872473,103.14486,38.905782)"
       style="stroke-width:4.50548"><g
         id="g14"><g
           id="g15"><path
             d="M 959.94006,573.06598 C 1112.3505,420.66443 1137.681,198.90897 1016.514,77.750916 895.36499,-43.393555 673.61859,-18.067566 521.21704,134.32489 c -152.40155,152.39712 -108.31497,443.55609 -56.56497,495.315 41.81848,41.81854 342.89554,95.81854 495.28799,-56.57391 z"
             fill="#f89939"
             id="path1"
             style="stroke-width:4.50548" /><path
             d="M 334.57504,352.84955 C 246.15906,264.4335 117.48601,249.71402 47.173508,320.02197 -23.120968,390.32101 -8.423973,519.01196 80.009995,607.41455 168.44403,695.85754 337.38754,670.27502 367.39352,640.242 391.67551,616.00055 423.018,441.27454 334.57504,352.84955 Z"
             fill="#3499cd"
             id="path2"
             style="stroke-width:4.50548" /><g
             fill="#010101"
             id="g7"
             style="stroke-width:4.50548"><path
               d="m 639.64349,535.71149 c -15.6195,14.3775 -29.32202,24.98852 -41.09845,31.80597 -11.77655,6.84008 -23.00854,10.25549 -33.69604,10.25549 -12.29395,0 -22.21204,-4.7655 -29.73145,-14.3009 -7.53302,-9.54456 -11.28601,-22.34253 -11.28601,-38.44355 0,-24.12445 5.22895,-53.08648 15.68695,-86.85446 10.44007,-33.79504 23.15253,-64.93509 38.0835,-93.42456 l 43.78046,-16.20895 c 1.37262,-0.45911 2.41656,-0.69296 3.10955,-0.69296 3.32105,0 6.06598,2.44787 8.17206,7.32141 2.12842,4.89605 3.19946,11.47494 3.19946,19.746 0,23.44058 -5.3955,46.13406 -16.20892,68.0805 -10.80908,21.95548 -27.69305,45.38697 -50.67004,70.32154 -0.92255,11.9519 -1.38153,20.15991 -1.38153,24.64648 0,10.00342 1.836,17.91895 5.51251,23.78247 3.68097,5.8725 8.55896,8.78858 14.65198,8.78858 6.21447,0 12.81604,-2.22315 19.82702,-6.70514 6.99756,-4.49091 17.68506,-13.78797 32.04444,-27.93146 v 19.81354 z m -66.00598,-67.37848 c 14.58905,-16.22254 26.4375,-34.41602 35.50946,-54.5445 9.07209,-20.13751 13.60358,-37.458 13.60358,-51.97055 0,-4.23001 -0.62555,-7.6679 -1.88104,-10.25091 -1.26453,-2.58756 -2.88446,-3.88806 -4.83301,-3.88806 -4.23444,0 -10.42194,10.58395 -18.52649,31.75653 -8.10449,21.16803 -16.06055,50.80502 -23.8725,88.89749 z"
               id="path3"
               style="stroke-width:4.50548" /><path
               d="m 768.57758,535.71149 c -14.58906,14.3775 -27.68403,24.98852 -39.29401,31.80597 -11.61005,6.84008 -24.40802,10.25549 -38.43457,10.25549 -15.62842,0 -28.23743,-4.99951 -37.84497,-14.98499 -9.58942,-10.01251 -14.37744,-23.15698 -14.37744,-39.47851 0,-24.35395 8.4375,-46.39047 25.34851,-66.09595 16.875,-19.71457 35.61297,-29.56506 56.17804,-29.56506 10.6875,0 19.23749,2.76761 25.68152,8.28 6.43493,5.52157 9.6524,12.75308 9.6524,21.71707 0,23.79144 -25.27649,43.08304 -75.83392,57.91046 4.58996,22.39661 16.59594,33.61047 36.018,33.61047 7.58686,0 14.81848,-2.03851 21.70789,-6.1065 6.90747,-4.08594 17.29809,-13.14893 31.20306,-27.15747 v 19.80902 z m -90.31507,-31.87806 c 29.40753,-8.27999 44.12262,-23.55291 44.12262,-45.84594 0,-11.02948 -4.02759,-16.54199 -12.06012,-16.54199 -7.58697,0 -14.81848,5.76452 -21.70801,17.32501 -6.91192,11.54254 -10.35449,26.5545 -10.35449,45.06292 z"
               id="path4"
               style="stroke-width:4.50548" /><path
               d="m 952.65442,535.71149 c -18.38696,17.46453 -31.54505,28.85394 -39.46491,34.14605 -7.92913,5.2829 -15.51159,7.91993 -22.75653,7.91993 -18.15753,0 -26.71203,-16.02454 -25.68152,-48.08704 -11.48852,16.42511 -22.09503,28.5481 -31.80596,36.37805 -9.70203,7.81201 -19.72352,11.70899 -30.07813,11.70899 -10.0979,0 -18.6839,-4.7295 -25.76239,-14.21094 -7.07861,-9.48151 -10.59302,-21.10956 -10.59302,-34.91101 0,-17.22602 4.72949,-33.66004 14.20191,-49.29758 9.49054,-15.62845 21.64062,-28.25546 36.4591,-37.90793 14.81848,-9.65259 27.93152,-14.48547 39.29395,-14.48547 14.36847,0 24.42609,6.61047 30.17248,19.81799 l 35.22602,-19.4671 h 9.66601 l -15.21453,50.49454 c -7.81196,25.40243 -11.73151,42.81302 -11.73151,52.23147 0,9.8775 3.49658,14.81848 10.51202,14.81848 4.46399,0 9.40497,-2.38043 14.80957,-7.15496 5.40442,-4.77454 12.97345,-12.042 22.73841,-21.80701 v 19.81354 z m -126.16644,9.49054 c 11.4884,0 22.31543,-9.792 32.50347,-29.38062 10.17005,-19.59741 15.25055,-37.6784 15.25055,-54.2204 0,-6.42602 -1.44909,-11.46148 -4.30651,-15.07501 -2.88459,-3.63153 -6.732,-5.43152 -11.54706,-5.43152 -11.49744,0 -22.39643,9.76508 -32.66095,29.30396 -10.28253,19.53906 -15.435,37.52106 -15.435,53.93713 0,6.21442 1.53003,11.24091 4.57196,15.0929 3.04199,3.85205 6.90302,5.77356 11.62354,5.77356 z"
               id="path5"
               style="stroke-width:4.50548" /><path
               d="m 1081.413,535.71149 c -28.845,28.26452 -51.084,42.40802 -66.708,42.40802 -7.0155,0 -12.9375,-2.96106 -17.75261,-8.8606 -4.81488,-5.92187 -7.24035,-13.25238 -7.24035,-21.99145 0,-16.20002 8.68493,-37.9079 26.03246,-65.14646 -8.5096,4.36954 -17.80645,7.40244 -27.92254,9.13047 -7.47003,13.78796 -19.19696,28.61553 -35.16296,44.4555 h -3.95551 V 520.2135 c 8.95496,-9.30597 17.05945,-19.30957 24.29999,-29.99707 -9.89557,-4.36941 -14.82746,-10.86288 -14.82746,-19.46698 0,-8.86047 3.00599,-18.30597 9.05396,-28.37244 6.03003,-10.044 14.328,-15.06597 24.90753,-15.06597 8.96389,0 13.43699,4.58087 13.43699,13.77893 0,7.24054 -2.583,17.57702 -7.76255,31.02758 19.07105,-2.07452 35.73455,-16.6546 49.99055,-43.78051 l 15.6781,-0.69312 -16.0291,44.12262 c -6.66,18.61646 -10.9709,31.29742 -12.9195,38.01144 -1.9486,6.71402 -2.9341,12.67203 -2.9341,17.83359 0,4.83289 1.125,8.69385 3.3571,11.54688 2.241,2.89355 5.265,4.31555 9.0539,4.31555 4.131,0 8.1046,-1.41296 11.8936,-4.21204 3.789,-2.83954 12.2939,-10.61548 25.515,-23.36841 v 19.81794 z"
               id="path6"
               style="stroke-width:4.50548" /><path
               d="m 1250.676,535.71149 c -26.541,28.05304 -49.3065,42.06598 -68.256,42.06598 -7.6994,0 -13.905,-2.70008 -18.6164,-8.1045 -4.7206,-5.3955 -7.0741,-12.63153 -7.0741,-21.708 0,-12.29401 5.0625,-31.08594 15.1786,-56.35343 5.3955,-13.56302 8.1045,-22.19403 8.1045,-25.85702 0,-3.6811 -1.449,-5.52158 -4.3065,-5.52158 -1.6066,0 -3.7441,0.81009 -6.381,2.4075 -2.4256,1.60651 -5.2381,3.86554 -8.4556,6.73203 -2.8664,2.63699 -6.093,5.85446 -9.6525,9.63446 -3.1095,3.24453 -6.4439,6.91659 -9.9856,11.03851 l -9.6658,11.21402 c -4.2435,5.16605 -6.8896,10.61554 -7.9201,16.36646 -1.7325,9.76507 -2.8755,18.73803 -3.456,26.90551 -0.351,6.07502 -0.5175,14.28308 -0.5175,24.64661 l -38.0924,8.94586 c -1.2555,-15.51141 -1.8991,-27.06286 -1.8991,-34.63641 0,-18.49945 2.1556,-36.02692 6.471,-52.56903 4.3065,-16.56 11.2231,-35.163 20.7674,-55.85395 l 42.0481,-8.09558 c -8.8424,23.7916 -14.6429,42.5116 -17.4014,56.17804 18.8459,-21.02398 33.786,-35.57702 44.8604,-43.69043 11.0565,-8.10461 20.9025,-12.13659 29.5066,-12.13659 5.8454,0 10.7323,2.20511 14.625,6.61956 3.9104,4.41895 5.8544,9.96747 5.8544,16.60047 0,11.02051 -4.9409,29.17804 -14.8096,54.46802 -6.7859,17.34301 -10.1789,28.59753 -10.1789,33.79504 0,6.91644 2.8216,10.3725 8.4646,10.3725 8.4015,0 22.0094,-11.09253 40.7879,-33.26856 z"
               id="path7"
               style="stroke-width:4.50548" /></g><text
             fill="#ffffff"
             font-family="Helvetica"
             font-size="103.858px"
             x="688"
             y="370"
             id="text8"
             style="stroke-width:4.50548">scikit</text></g></g></g><g
       id="Layer_1-2"
       data-name="Layer 1"
       transform="matrix(0.26458333,0,0,0.26458333,27.331005,34.923528)"><path
         class="cls-1"
         d="m 138,109.14 a 104.44,104.44 0 0 0 -25,-6.6 12.65,12.65 0 0 0 -12.63,-12.06 h -0.14 v -40 h 18.51 a 4.66,4.66 0 0 0 0,-9.32 H 95.58 a 4.66,4.66 0 0 0 -4.65,4.66 v 0 44.66 a 12.64,12.64 0 0 0 -12.58,11.89 c -26.45,3.48 -47.19,15 -53.12,29.68 H 16 a 31.14,31.14 0 0 0 1.15,-8.58 C 17.15,113.98 13.3,106.3 8.57,106.3 3.84,106.3 0,114 0,123.47 c 0,9.47 3.85,17.17 8.59,17.17 -4.74,0 -8.59,7.69 -8.59,17.17 0,9.48 3.85,17.19 8.59,17.19 4.74,0 8.58,-7.69 8.58,-17.17 A 31.27,31.27 0 0 0 16,149.22 h 9.21 c 7.15,17.61 35.71,30.78 69.86,30.78 16.09,0 30.94,-2.92 42.9,-7.85 a 52.1,52.1 0 0 1 0,-63 z m -70.22,41 a 11.46,11.46 0 1 1 11.46,-11.46 11.47,11.47 0 0 1 -11.49,11.46 z m 34.64,0 a 11.46,11.46 0 1 1 11.46,-11.46 11.47,11.47 0 0 1 -11.49,11.46 z"
         id="path1-0" /><path
         class="cls-1"
         d="m 143.23,111.54 a 46.5,46.5 0 0 0 0,58.2 c 14.37,-7.2 23.39,-17.57 23.39,-29.1 0,-11.53 -9.02,-21.91 -23.39,-29.1 z"
         id="path2-2" /><path
         class="cls-2"
         d="m 126.39,57.75 a 1.52,1.52 0 0 1 -1.2,-0.6 l -1.5,-2 A 1.52,1.52 0 0 1 124,53 a 1.5,1.5 0 0 1 2.1,0.31 l 1.5,2 a 1.5,1.5 0 0 1 -1.2,2.4 z"
         id="path3-4" /><path
         class="cls-2"
         d="m 174.34,121.74 a 1.49,1.49 0 0 1 -1.2,-0.6 L 170,117 a 1.5,1.5 0 1 1 2.4,-1.8 l 3.12,4.16 a 1.5,1.5 0 0 1 -1.2,2.4 z m -6.85,-9.14 a 1.49,1.49 0 0 1 -1.2,-0.6 l -3.12,-4.16 a 1.5,1.5 0 0 1 0.31,-2.1 1.49,1.49 0 0 1 2.09,0.3 l 3.12,4.16 a 1.5,1.5 0 0 1 -0.3,2.1 1.52,1.52 0 0 1 -0.9,0.3 z m -6.85,-9.15 a 1.46,1.46 0 0 1 -1.2,-0.6 l -3.12,-4.15 a 1.504003,1.504003 0 0 1 2.41,-1.8 l 3.11,4.16 a 1.49,1.49 0 0 1 -1.2,2.39 z m -6.85,-9.14 a 1.46,1.46 0 0 1 -1.2,-0.6 l -3.11,-4.15 a 1.5,1.5 0 1 1 2.4,-1.8 l 3.12,4.15 a 1.5,1.5 0 0 1 -0.3,2.1 1.45,1.45 0 0 1 -0.91,0.3 z m -6.85,-9.14 a 1.51,1.51 0 0 1 -1.2,-0.6 l -3.11,-4.15 a 1.5,1.5 0 1 1 2.4,-1.8 l 3.11,4.15 a 1.5,1.5 0 0 1 -0.3,2.1 1.52,1.52 0 0 1 -0.9,0.3 z M 140.09,76 a 1.52,1.52 0 0 1 -1.2,-0.6 l -3.11,-4.16 a 1.5,1.5 0 0 1 2.4,-1.8 l 3.11,4.16 a 1.5,1.5 0 0 1 -1.2,2.4 z m -6.85,-9.14 a 1.52,1.52 0 0 1 -1.2,-0.6 l -3.11,-4.16 a 1.5,1.5 0 0 1 2.4,-1.8 l 3.11,4.16 a 1.5,1.5 0 0 1 -1.2,2.4 z"
         id="path4-8" /><path
         class="cls-2"
         d="m 179.57,128.72 a 1.49,1.49 0 0 1 -1.2,-0.6 l -1.5,-2 a 1.504003,1.504003 0 0 1 2.41,-1.8 l 1.49,2 a 1.49,1.49 0 0 1 -1.2,2.39 z"
         id="path5-3" /><path
         class="cls-2"
         d="M 127.92,44.89 A 1.5,1.5 0 0 1 127.5,42 l 2.4,-0.7 a 1.5,1.5 0 1 1 0.84,2.87 l -2.39,0.71 a 1.65,1.65 0 0 1 -0.43,0.01 z"
         id="path6-9" /><path
         class="cls-2"
         d="m 136.28,42.43 a 1.5,1.5 0 0 1 -0.42,-2.94 l 5,-1.47 a 1.5014077,1.5014077 0 1 1 0.85,2.88 l -5,1.46 a 1.23,1.23 0 0 1 -0.43,0.07 z m 10.93,-3.23 a 1.5,1.5 0 0 1 -0.43,-2.94 l 5,-1.47 a 1.5014077,1.5014077 0 0 1 0.85,2.88 l -5,1.47 a 1.52,1.52 0 0 1 -0.42,0.06 z M 158.13,36 a 1.5,1.5 0 0 1 -0.42,-2.94 l 5,-1.46 a 1.5,1.5 0 0 1 0.85,2.87 l -5,1.47 A 1.59,1.59 0 0 1 158.13,36 Z m 10.93,-3.22 a 1.5,1.5 0 0 1 -0.42,-2.94 l 5,-1.47 a 1.5014077,1.5014077 0 1 1 0.85,2.88 l -5,1.47 a 1.65,1.65 0 0 1 -0.43,0.03 z M 180,29.52 a 1.5,1.5 0 0 1 -0.43,-2.94 l 5,-1.46 a 1.5,1.5 0 0 1 0.85,2.87 l -5,1.47 A 1.52,1.52 0 0 1 180,29.52 Z m 10.92,-3.23 a 1.5,1.5 0 0 1 -0.42,-2.94 l 5,-1.46 a 1.5014077,1.5014077 0 0 1 0.85,2.88 l -5,1.46 a 1.59,1.59 0 0 1 -0.44,0.06 z m 10.93,-3.22 a 1.5,1.5 0 0 1 -0.42,-2.94 l 5,-1.47 a 1.5014077,1.5014077 0 1 1 0.85,2.88 l -5,1.47 a 1.65,1.65 0 0 1 -0.44,0.06 z m 10.93,-3.23 a 1.5,1.5 0 0 1 -0.43,-2.94 l 5,-1.46 a 1.5,1.5 0 1 1 0.85,2.87 l -5,1.47 a 1.52,1.52 0 0 1 -0.43,0.06 z m 10.92,-3.23 a 1.5,1.5 0 0 1 -0.42,-2.93 l 5,-1.47 a 1.49,1.49 0 0 1 1.86,1 1.51,1.51 0 0 1 -1,1.87 l -5,1.46 a 1.59,1.59 0 0 1 -0.45,0.07 z m 10.93,-3.22 a 1.5,1.5 0 0 1 -0.42,-2.94 l 5,-1.47 a 1.5014077,1.5014077 0 1 1 0.85,2.88 l -5,1.47 a 1.65,1.65 0 0 1 -0.44,0.06 z m 10.93,-3.23 a 1.5,1.5 0 0 1 -0.43,-2.94 l 5,-1.46 a 1.5,1.5 0 0 1 0.85,2.87 l -5,1.47 a 1.52,1.52 0 0 1 -0.43,0.06 z M 256.48,6.94 A 1.5,1.5 0 0 1 255,5.86 1.49,1.49 0 0 1 256,4 l 5,-1.47 a 1.5014077,1.5014077 0 0 1 0.85,2.88 l -5,1.46 a 1.29,1.29 0 0 1 -0.38,0.07 z"
         id="path7-0" /><path
         class="cls-2"
         d="M 267.4,3.71 A 1.5,1.5 0 0 1 267,0.77 l 2.39,-0.71 a 1.5014077,1.5014077 0 1 1 0.85,2.88 l -2.39,0.71 a 1.59,1.59 0 0 1 -0.45,0.06 z"
         id="path8-5" /><path
         class="cls-2"
         d="m 248.63,35.67 a 1.5,1.5 0 0 0 -2.12,0 l -8.11,8.37 V 28.72 a 1.5,1.5 0 0 0 -3,0 V 43.8 l -8,-7.78 a 1.5,1.5 0 0 0 -2.09,2.15 L 235.4,48 v 1.68 a 16.18,16.18 0 0 1 -16.17,16.17 h -15.4 l -6.86,-11 1.68,-3.17 3.95,-1.21 a 1.494699,1.494699 0 1 0 -0.87,-2.86 l -3.12,0.95 -1,-3.11 a 1.5,1.5 0 1 0 -2.87,0.87 l 1.26,3.94 -1.68,3.17 -11.92,0.42 -1.9,-3.05 0.93,-4 a 1.5039365,1.5039365 0 0 0 -2.93,-0.68 l -0.73,3.17 -3.17,-0.73 a 1.5,1.5 0 1 0 -0.67,2.92 l 4,0.93 1.9,3 -5.57,10.59 -3.59,0.12 -3,-2.82 a 1.5,1.5 0 0 0 -2,2.2 l 2.33,2.19 -2.22,2.38 a 1.49,1.49 0 0 0 1.1,2.52 1.47,1.47 0 0 0 1.09,-0.48 l 2.82,-3 3.59,-0.12 6.32,10.11 -1.7,3.15 -4,1.21 a 1.5009414,1.5009414 0 1 0 0.88,2.87 l 3.11,-1 0.95,3.11 a 1.51,1.51 0 0 0 1.43,1.06 1.31,1.31 0 0 0 0.44,-0.07 1.5,1.5 0 0 0 1,-1.87 l -1.21,-4 1.69,-3.17 11.91,-0.42 1.91,3.05 -0.93,4 a 1.49,1.49 0 0 0 1.12,1.8 1.32,1.32 0 0 0 0.34,0 1.5,1.5 0 0 0 1.46,-1.16 l 0.73,-3.17 3.17,0.73 a 1.5,1.5 0 0 0 0.68,-2.92 l -4,-0.93 -1.9,-3 5.13,-9.65 h 16.31 A 19.19,19.19 0 0 0 238.4,49.66 v -1.27 l 10.26,-10.6 a 1.49,1.49 0 0 0 -0.03,-2.12 z m -56.37,33.5 a 4.09,4.09 0 1 1 -1.26,-5.65 4.09,4.09 0 0 1 1.26,5.65 z"
         id="path9-2" /></g></g></svg>
