<?xml version="1.0" encoding="UTF-8" standalone="no"?>
<svg
   height="22"
   viewBox="0 -960 884.39995 880"
   width="22.109999"
   fill="#5f6368"
   version="1.1"
   id="svg1"
   sodipodi:docname="settings.svg"
   inkscape:version="1.3 (0e150ed, 2023-07-21)"
   xmlns:inkscape="http://www.inkscape.org/namespaces/inkscape"
   xmlns:sodipodi="http://sodipodi.sourceforge.net/DTD/sodipodi-0.dtd"
   xmlns="http://www.w3.org/2000/svg"
   xmlns:svg="http://www.w3.org/2000/svg">
  <defs
     id="defs1" />
  <sodipodi:namedview
     id="namedview1"
     pagecolor="#ffffff"
     bordercolor="#000000"
     borderopacity="0.25"
     inkscape:showpageshadow="2"
     inkscape:pageopacity="0.0"
     inkscape:pagecheckerboard="0"
     inkscape:deskcolor="#d1d1d1"
     inkscape:zoom="9.8333333"
     inkscape:cx="8.440678"
     inkscape:cy="9.3050847"
     inkscape:window-width="2056"
     inkscape:window-height="1212"
     inkscape:window-x="0"
     inkscape:window-y="25"
     inkscape:window-maximized="0"
     inkscape:current-layer="svg1" />
  <path
     d="M 321.19998,-79.999997 303.59999,-220.80001 q -14.29999,-5.5 -26.94999,-13.2 -12.64999,-7.7 -24.74999,-16.5 L 121,-195.50002 0,-404.50003 113.3,-490.30002 q -1.1,-7.69999 -1.1,-14.84999 v -29.69998 Q 112.2,-542 113.3,-549.7 L 0,-635.5 l 121,-209.00002 130.90001,55 q 12.1,-8.79999 25.29999,-16.49999 13.2,-7.7 26.39999,-13.2 L 321.19998,-960 H 563.2 l 17.6,140.79999 q 14.29999,5.5 26.94999,13.2 12.65,7.7 24.75,16.49999 l 130.90001,-55 L 884.39998,-635.5 771.1,-549.7 q 1.1,7.7 1.1,14.85001 v 29.69998 q 0,7.15 -2.20001,14.84999 L 883.29998,-404.50003 762.3,-195.50002 632.49999,-250.50001 q -12.1,8.8 -25.3,16.5 -13.2,7.7 -26.39999,13.2 l -17.6,140.800013 z m 76.99999,-88.000023 H 485.1 l 15.39999,-116.6 q 34.1,-8.8 63.25001,-25.85 29.14999,-17.05002 53.34999,-41.25001 l 108.9,45.10001 42.90001,-74.8 -94.60003,-71.50002 q 5.5,-15.39999 7.7,-32.44999 2.2,-17.04998 2.2,-34.64997 0,-17.59999 -2.2,-34.65 -2.2,-17.04999 -7.7,-32.45 l 94.60003,-71.5 -42.90001,-74.79998 -108.9,46.19997 q -24.2,-25.29999 -53.34999,-42.34997 -29.15001,-17.05001 -63.25001,-25.85001 L 486.2,-872 h -86.90003 l -15.4,116.60001 q -34.09999,8.8 -63.24999,25.85001 Q 291.5,-712.5 267.3,-688.30001 L 158.40002,-733.39998 115.49999,-658.6 210.1,-588.2 q -5.5,16.50001 -7.7,33 -2.2,16.50001 -2.2,35.2 0,17.59999 2.2,34.09998 2.2,16.49999 7.7,32.99998 l -94.60001,71.50002 42.90003,74.8 L 267.3,-352.80003 q 24.2,25.29999 53.34998,42.35001 29.15,17.05 63.24999,25.85 z m 46.20004,-198.00001 q 63.79998,0 108.89998,-45.1 45.1,-45.10001 45.1,-108.89997 0,-63.8 -45.1,-108.9 -45.1,-45.10001 -108.89998,-45.10001 -64.90004,0 -109.45003,45.10001 Q 290.4,-583.8 290.4,-520 q 0,63.79996 44.54998,108.89997 44.54999,45.1 109.45003,45.1 z M 442.20001,-520 Z"
     id="path1"
     style="fill:#000000;fill-opacity:1;stroke-width:0.999995" />
</svg>
